<svg width="52" height="47" viewBox="0 0 52 47" fill="none" xmlns="http://www.w3.org/2000/svg">
<path d="M26.01 46.4545C39.8226 46.4545 51.02 36.3713 51.02 23.933C51.02 11.4948 39.8226 1.41162 26.01 1.41162C12.1974 1.41162 1 11.4948 1 23.933C1 36.3713 12.1974 46.4545 26.01 46.4545Z" fill="#74698C" stroke="#C1867B" stroke-width="0.89" stroke-miterlimit="10"/>
<path d="M32.0595 8.84961H19.9595C14.8398 8.84961 10.6895 12.587 10.6895 17.1972V28.0932C10.6895 32.7035 14.8398 36.4408 19.9595 36.4408H32.0595C37.1791 36.4408 41.3295 32.7035 41.3295 28.0932V17.1972C41.3295 12.587 37.1791 8.84961 32.0595 8.84961Z" fill="#E2C6C1" stroke="#C1867B" stroke-width="3.54" stroke-miterlimit="10"/>
<path d="M36.4193 12.8839V16.8911C36.4193 16.8911 33.6293 16.0897 32.5093 16.8911C32.5093 16.8911 31.6193 17.3864 31.9293 20.8533L36.2593 20.9704L35.5593 25.2748L31.9093 25.2297L31.9293 35.4954L27.0893 35.4774L27.2193 25.1217L23.5693 25.0767L23.6093 20.9614L27.3793 20.6732C27.3793 20.6732 25.7893 14.829 30.0393 13.1811C34.2893 11.5242 36.4093 12.8839 36.4093 12.8839H36.4193Z" fill="#C1867B"/>
</svg>
