<svg width="131" height="111" viewBox="0 0 131 111" fill="none" xmlns="http://www.w3.org/2000/svg">
<path d="M65.5002 0L130.885 111H0.115234L65.5002 0Z" fill="#EBEDC8"/>
<path d="M45.5602 83.32L43.3202 79.04C44.4135 76.8267 45.4535 74.6533 46.4402 72.52C47.4268 70.36 48.3735 68.24 49.2802 66.16C50.2135 64.0533 51.1202 61.9733 52.0002 59.92C52.8802 57.84 53.7602 55.7733 54.6402 53.72C55.5202 51.64 56.4135 49.56 57.3202 47.48C58.2535 45.4 59.2002 43.2933 60.1602 41.16C61.1468 39 62.1735 36.8133 63.2402 34.6H66.2402L72.3202 38.16C71.3068 40.08 70.3602 41.9467 69.4802 43.76C68.6002 45.5467 67.7602 47.32 66.9602 49.08C66.1602 50.84 65.3735 52.5867 64.6002 54.32C63.8268 56.0533 63.0268 57.8 62.2002 59.56C61.4002 61.2933 60.5602 63.0667 59.6802 64.88C58.8002 66.6933 57.8535 68.56 56.8402 70.48L53.4802 76.24H89.4802V83.32H45.5602ZM71.2402 95V75.68L72.1202 56.48H80.4402V95H71.2402Z" fill="white"/>
</svg>
