<svg width="197" height="192" viewBox="0 0 197 192" fill="none" xmlns="http://www.w3.org/2000/svg">
<g id="Group 70">
<path id="Polygon 20" d="M98.5 0L183.803 144H13.1965L98.5 0Z" fill="#E2C6C1"/>
<path id="8" d="M74.7999 123.84L74.7199 117.56C75.8132 117.747 76.9199 117.907 78.0399 118.04C79.1866 118.173 80.2666 118.24 81.2799 118.24C85.0399 118.24 88.3465 117.773 91.1999 116.84C94.0799 115.88 96.3199 114.56 97.9199 112.88C99.5199 111.173 100.32 109.227 100.32 107.04C100.32 104.827 99.8666 102.893 98.9599 101.24C98.0799 99.56 96.6532 98.2933 94.6799 97.44C92.7066 96.5866 90.1199 96.2666 86.9199 96.48L83.0399 97.44L81.2399 91.2C82.5999 90.9333 83.9199 90.6 85.1999 90.2C86.4799 89.8 87.6799 89.36 88.7999 88.88C91.4932 87.76 93.5999 86.3333 95.1199 84.6C96.6666 82.84 97.4532 80.9066 97.4799 78.8C97.5332 76.0266 96.6799 74.0533 94.9199 72.88C93.1866 71.7066 91.0399 71.12 88.4799 71.12C85.6532 71.12 83.2532 71.56 81.2799 72.44C79.3332 73.32 77.6665 74.2533 76.2799 75.24L72.8799 69.88C73.8665 69.0533 75.1999 68.1733 76.8799 67.24C78.5865 66.3066 80.5199 65.5066 82.6799 64.84C84.8399 64.1733 87.0665 63.84 89.3599 63.84C92.6132 63.84 95.5466 64.3733 98.1599 65.44C100.773 66.48 102.84 68.0266 104.36 70.08C105.907 72.1066 106.68 74.6133 106.68 77.6C106.68 80.1333 106.067 82.44 104.84 84.52C103.613 86.5733 101.987 88.3466 99.9599 89.84C97.9332 91.3066 95.7332 92.44 93.3599 93.24V92.08C96.9599 92.0266 99.9866 92.6933 102.44 94.08C104.893 95.4666 106.747 97.2666 108 99.48C109.253 101.667 109.88 104 109.88 106.48C109.88 109.68 108.8 112.68 106.64 115.48C104.507 118.253 101.453 120.507 97.4799 122.24C93.5332 123.947 88.8132 124.8 83.3199 124.8C81.7732 124.8 80.2799 124.693 78.8399 124.48C77.4265 124.293 76.0799 124.08 74.7999 123.84Z" fill="white"/>
</g>
</svg>
