<svg width="75" height="76" viewBox="0 0 75 76" fill="none" xmlns="http://www.w3.org/2000/svg">
<g id="Group 2">
<path id="Vector" d="M12.4501 30.065L10.4201 34.465L6.17007 30.965L3.65005 35.625L0.310059 33.165C0.670059 30.385 1.34006 27.705 2.28006 25.145L12.4501 30.065Z" fill="#EBEDC8"/>
<path id="Vector_2" d="M21.86 41.4949C22.57 48.2049 15.53 68.3149 15.53 68.3149C6.12 61.5349 0 50.4849 0 38.0049C0 36.3649 0.109998 34.7549 0.309998 33.1649L3.64999 35.6249L6.17001 30.9649L10.42 34.4649L12.45 30.0649L24.01 35.6649L24.07 35.6949L21.77 40.8949C21.81 41.0749 21.84 41.2749 21.86 41.4949Z" fill="#9AB5C1"/>
<path id="Vector_3" d="M71.41 22.675L59.84 28.335L43.79 36.175L43.68 36.205L38.95 20.705L36.88 23.605L32.31 17.125L24.08 35.695L24.02 35.665L12.46 30.065L2.29004 25.145C7.52004 10.855 21.25 0.655029 37.35 0.655029C52.52 0.655029 65.57 9.69503 71.42 22.675H71.41Z" fill="#74698C"/>
<path id="Vector_4" d="M54.39 71.235C49.28 73.865 43.49 75.345 37.34 75.345C29.2 75.345 21.67 72.735 15.53 68.315C15.53 68.315 22.57 48.205 21.86 41.495L26.93 35.625L29.79 40.525L33.35 35.155L36.54 40.165L39.55 35.155L42.72 40.895L44.39 38.565L54.34 71.145L54.39 71.235Z" fill="#C1867B"/>
<path id="Vector_5" d="M74.69 38.005C74.69 52.485 66.44 65.0449 54.39 71.2349L54.34 71.1449L44.39 38.565L43.67 36.205L43.78 36.175L59.83 28.335L63.74 32.845L66.5 29.425L69.25 33.5549L72.12 29.425L74.33 32.845C74.57 34.535 74.69 36.255 74.69 38.005Z" fill="#E2C6C1"/>
<path id="Vector_6" d="M74.33 32.845L72.12 29.425L69.25 33.555L66.5 29.425L63.74 32.845L59.83 28.3351L71.4 22.675C72.83 25.855 73.83 29.275 74.32 32.845H74.33Z" fill="#EBEDC8"/>
<path id="Vector_7" d="M44.39 38.565L42.72 40.895L39.55 35.155L36.54 40.165L33.35 35.155L29.79 40.525L26.93 35.625L21.86 41.495C21.84 41.275 21.81 41.075 21.77 40.895L24.07 35.695L32.3 17.125L36.87 23.605L38.94 20.705L43.67 36.205L44.39 38.565Z" fill="#EBEDC8"/>
<g id="Group">
<path id="Vector_8" d="M51.85 40.7251C51.84 39.5251 51.2 38.9851 49.78 38.3751L49.16 38.1051C47.5 37.3751 46.35 36.3151 46.33 34.4251C46.31 32.2951 47.88 30.9851 49.94 30.9651C51.03 30.9651 51.89 31.3351 52.6 31.9251L52.52 34.3351H51.54L51.06 31.5551L52.11 32.1551V33.0851C51.31 32.2051 50.71 31.8951 49.85 31.9051C48.58 31.9151 47.63 32.6451 47.64 34.0351C47.65 35.2051 48.32 35.8851 49.51 36.3851L50.15 36.6551C52.3 37.5751 53.14 38.6451 53.16 40.3851C53.18 42.5651 51.58 43.9151 49.35 43.9351C48.13 43.9451 46.94 43.5151 46.19 42.9851L46.27 40.3951H47.25L47.7 43.2351L46.64 42.7251V41.8351C47.65 42.6551 48.2 43.0251 49.31 43.0151C50.85 43.0051 51.87 42.1751 51.86 40.7351L51.85 40.7251Z" fill="#C1867B"/>
<path id="Vector_9" d="M50.3 44.2951L50.27 43.7351L54.19 43.4951L54.22 44.0551L52.42 44.3751L52.14 44.3951L50.31 44.2951H50.3ZM52.74 52.2251L52.79 52.9951L50.83 53.1151L50.8 52.5551L52.6 52.2351H52.74V52.2251ZM51.55 43.6651L52.89 43.5851C52.93 45.0251 53.02 46.4851 53.11 47.9251L53.17 48.9051C53.24 50.0951 53.33 51.5451 53.46 52.9551L52.12 53.0351C52.07 51.5951 51.99 50.1351 51.9 48.6951L51.86 47.9951C51.77 46.5251 51.68 45.0751 51.56 43.6651H51.55ZM57.76 50.0551L57.78 52.6951L52.79 52.9951L52.75 52.2951L57.25 52.0251L56.52 52.7751L56.92 50.1151L57.76 50.0651V50.0551Z" fill="#C1867B"/>
<path id="Vector_10" d="M49.82 35.625L50.02 36.115L46.58 37.495L46.38 37.005L47.9 36.175L48.15 36.075L49.82 35.615V35.625ZM45.25 29.245L44.98 28.565L46.7 27.875L46.9 28.365L45.38 29.195L45.26 29.245H45.25ZM48.88 36.575L47.7 37.045C47.23 35.765 46.71 34.485 46.2 33.215L45.85 32.355C45.43 31.305 44.91 30.035 44.38 28.805L45.56 28.335C46.03 29.615 46.55 30.895 47.06 32.165L47.31 32.775C47.83 34.065 48.34 35.345 48.88 36.575ZM41.4 32.695L40.59 30.335L44.98 28.565L45.23 29.175L41.27 30.765L41.7 29.875L42.14 32.385L41.4 32.685V32.695Z" fill="#C1867B"/>
</g>
</g>
</svg>
