<svg width="117" height="111" viewBox="0 0 117 111" fill="none" xmlns="http://www.w3.org/2000/svg">
<path d="M58.4997 0L116.956 111H0.0429688L58.4997 0Z" fill="#EBEDC8"/>
<path d="M31.9997 72.6C31.9997 68.3067 32.653 64.2933 33.9597 60.56C35.2663 56.8 37.0264 53.3733 39.2397 50.28C41.4797 47.16 44.013 44.4267 46.8397 42.08C49.6664 39.7333 52.613 37.8133 55.6797 36.32C58.773 34.8267 61.7863 33.8 64.7197 33.24L67.1597 39.08C63.4797 40.0667 60.1197 41.5867 57.0797 43.64C54.0397 45.6667 51.413 48.0533 49.1997 50.8C46.9863 53.52 45.253 56.4267 43.9997 59.52C42.773 62.6133 42.1197 65.7067 42.0397 68.8C41.933 72.4 42.1863 75.76 42.7997 78.88C43.4397 81.9733 44.613 84.4667 46.3197 86.36C48.0264 88.2533 50.4397 89.2 53.5597 89.2C55.9864 89.2 57.9997 88.56 59.5997 87.28C61.1997 86 62.3864 84.3333 63.1597 82.28C63.9597 80.2 64.3597 77.9867 64.3597 75.64C64.3597 72.4667 63.9463 69.9867 63.1197 68.2C62.3197 66.4133 61.2664 65.16 59.9597 64.44C58.653 63.72 57.2664 63.36 55.7997 63.36C54.253 63.36 52.893 63.56 51.7197 63.96C50.5463 64.36 49.6663 64.7467 49.0797 65.12L46.7197 59.64C47.1997 59.16 47.9597 58.6667 48.9997 58.16C50.0397 57.6267 51.293 57.1733 52.7597 56.8C54.253 56.4267 55.9197 56.24 57.7597 56.24C61.173 56.24 64.0663 57.04 66.4397 58.64C68.813 60.24 70.613 62.3733 71.8397 65.04C73.093 67.68 73.7197 70.5733 73.7197 73.72C73.7197 76.5467 73.2797 79.28 72.3997 81.92C71.5464 84.5333 70.2397 86.88 68.4797 88.96C66.7197 91.0133 64.5064 92.64 61.8397 93.84C59.173 95.04 56.0397 95.64 52.4397 95.64C48.173 95.64 44.5063 94.5867 41.4397 92.48C38.3997 90.3733 36.0663 87.5733 34.4397 84.08C32.813 80.56 31.9997 76.7333 31.9997 72.6Z" fill="white"/>
</svg>
