<svg width="135" height="148" viewBox="0 0 135 148" fill="none" xmlns="http://www.w3.org/2000/svg">
<path d="M67.5 0L125.957 111H9.04329L67.5 0Z" fill="#EBEDC8"/>
<path d="M43 72.6C43 68.3067 43.6533 64.2933 44.96 60.56C46.2667 56.8 48.0267 53.3733 50.24 50.28C52.48 47.16 55.0133 44.4267 57.84 42.08C60.6667 39.7333 63.6133 37.8133 66.68 36.32C69.7733 34.8267 72.7867 33.8 75.72 33.24L78.16 39.08C74.48 40.0667 71.12 41.5867 68.08 43.64C65.04 45.6667 62.4133 48.0533 60.2 50.8C57.9867 53.52 56.2533 56.4267 55 59.52C53.7733 62.6133 53.12 65.7067 53.04 68.8C52.9333 72.4 53.1867 75.76 53.8 78.88C54.44 81.9733 55.6133 84.4667 57.32 86.36C59.0267 88.2533 61.44 89.2 64.56 89.2C66.9867 89.2 69 88.56 70.6 87.28C72.2 86 73.3867 84.3333 74.16 82.28C74.96 80.2 75.36 77.9867 75.36 75.64C75.36 72.4667 74.9467 69.9867 74.12 68.2C73.32 66.4133 72.2667 65.16 70.96 64.44C69.6533 63.72 68.2667 63.36 66.8 63.36C65.2533 63.36 63.8933 63.56 62.72 63.96C61.5467 64.36 60.6667 64.7467 60.08 65.12L57.72 59.64C58.2 59.16 58.96 58.6667 60 58.16C61.04 57.6267 62.2933 57.1733 63.76 56.8C65.2533 56.4267 66.92 56.24 68.76 56.24C72.1733 56.24 75.0667 57.04 77.44 58.64C79.8133 60.24 81.6133 62.3733 82.84 65.04C84.0933 67.68 84.72 70.5733 84.72 73.72C84.72 76.5467 84.28 79.28 83.4 81.92C82.5467 84.5333 81.24 86.88 79.48 88.96C77.72 91.0133 75.5067 92.64 72.84 93.84C70.1733 95.04 67.04 95.64 63.44 95.64C59.1733 95.64 55.5067 94.5867 52.44 92.48C49.4 90.3733 47.0667 87.5733 45.44 84.08C43.8133 80.56 43 76.7333 43 72.6Z" fill="white"/>
</svg>
