<svg width="131" height="111" viewBox="0 0 131 111" fill="none" xmlns="http://www.w3.org/2000/svg">
<g id="Vector">
<path d="M65.5002 0L130.885 110.25H0.115234L65.5002 0Z" fill="#E2C6C1"/>
<path d="M46.8002 92.84L46.7202 86.56C47.8135 86.7467 48.9202 86.9067 50.0402 87.04C51.1868 87.1733 52.2668 87.24 53.2802 87.24C57.0402 87.24 60.3468 86.7733 63.2002 85.84C66.0802 84.88 68.3202 83.56 69.9202 81.88C71.5202 80.1733 72.3202 78.2267 72.3202 76.04C72.3202 73.8267 71.8668 71.8933 70.9602 70.24C70.0802 68.56 68.6535 67.2933 66.6802 66.44C64.7068 65.5867 62.1202 65.2667 58.9202 65.48L55.0402 66.44L53.2402 60.2C54.6002 59.9333 55.9202 59.6 57.2002 59.2C58.4802 58.8 59.6802 58.36 60.8002 57.88C63.4935 56.76 65.6002 55.3333 67.1202 53.6C68.6668 51.84 69.4535 49.9067 69.4802 47.8C69.5335 45.0267 68.6802 43.0533 66.9202 41.88C65.1868 40.7067 63.0402 40.12 60.4802 40.12C57.6535 40.12 55.2535 40.56 53.2802 41.44C51.3335 42.32 49.6668 43.2533 48.2802 44.24L44.8802 38.88C45.8668 38.0533 47.2002 37.1733 48.8802 36.24C50.5868 35.3067 52.5202 34.5067 54.6802 33.84C56.8402 33.1733 59.0668 32.84 61.3602 32.84C64.6135 32.84 67.5468 33.3733 70.1602 34.44C72.7735 35.48 74.8402 37.0267 76.3602 39.08C77.9068 41.1067 78.6802 43.6133 78.6802 46.6C78.6802 49.1333 78.0668 51.44 76.8402 53.52C75.6135 55.5733 73.9868 57.3467 71.9602 58.84C69.9335 60.3067 67.7335 61.44 65.3602 62.24V61.08C68.9602 61.0267 71.9868 61.6933 74.4402 63.08C76.8935 64.4667 78.7468 66.2667 80.0002 68.48C81.2535 70.6667 81.8802 73 81.8802 75.48C81.8802 78.68 80.8002 81.68 78.6402 84.48C76.5068 87.2533 73.4535 89.5067 69.4802 91.24C65.5335 92.9467 60.8135 93.8 55.3202 93.8C53.7735 93.8 52.2802 93.6933 50.8402 93.48C49.4268 93.2933 48.0802 93.08 46.8002 92.84Z" fill="white"/>
</g>
</svg>
