<svg width="131" height="111" viewBox="0 0 131 111" fill="none" xmlns="http://www.w3.org/2000/svg">
<g id="Vector">
<path d="M65.5002 0L130.885 111H0.115234L65.5002 0Z" fill="#EBEDC8"/>
<path d="M47.4002 95L46.0002 90.28C48.4802 88.6267 51.0135 86.72 53.6002 84.56C56.1868 82.4 58.6535 80.08 61.0002 77.6C63.3468 75.12 65.4535 72.5467 67.3202 69.88C69.1868 67.1867 70.6535 64.48 71.7202 61.76C72.8135 59.04 73.3602 56.3733 73.3602 53.76C73.3602 50.1867 72.4668 47.4533 70.6802 45.56C68.9202 43.6667 66.4535 42.72 63.2802 42.72C60.5602 42.72 58.0268 43.28 55.6802 44.4C53.3602 45.4933 51.4935 46.7867 50.0802 48.28L46.2002 42.72C47.2402 41.6267 48.6268 40.4933 50.3602 39.32C52.1202 38.12 54.2135 37.12 56.6402 36.32C59.0668 35.4933 61.7868 35.08 64.8002 35.08C69.0402 35.08 72.5068 35.8933 75.2001 37.52C77.9201 39.1467 79.9202 41.3333 81.2001 44.08C82.4802 46.8267 83.1202 49.8933 83.1202 53.28C83.1202 57.28 82.1468 61.3333 80.2001 65.44C78.2802 69.5467 75.6135 73.4933 72.2002 77.28C68.8135 81.04 64.8935 84.4667 60.4402 87.56L85.4002 87.2V95H47.4002Z" fill="white"/>
</g>
</svg>
