<svg width="51" height="46" viewBox="0 0 51 46" fill="none" xmlns="http://www.w3.org/2000/svg">
<path d="M25.34 45.271C38.7826 45.271 49.68 35.4579 49.68 23.3529C49.68 11.2479 38.7826 1.43481 25.34 1.43481C11.8974 1.43481 1 11.2479 1 23.3529C1 35.4579 11.8974 45.271 25.34 45.271Z" fill="#74698C" stroke="#C1867B" stroke-width="0.89" stroke-miterlimit="10"/>
<path d="M30.9797 9.92651H19.6997C14.58 9.92651 10.4297 13.6639 10.4297 18.2741V28.4317C10.4297 33.042 14.58 36.7793 19.6997 36.7793H30.9797C36.0994 36.7793 40.2497 33.042 40.2497 28.4317V18.2741C40.2497 13.6639 36.0994 9.92651 30.9797 9.92651Z" fill="#E2C6C1" stroke="#C1867B" stroke-width="3.54" stroke-miterlimit="10"/>
<path d="M25.8295 30.0076C29.9108 30.0076 33.2195 27.0282 33.2195 23.3529C33.2195 19.6777 29.9108 16.6982 25.8295 16.6982C21.7481 16.6982 18.4395 19.6777 18.4395 23.3529C18.4395 27.0282 21.7481 30.0076 25.8295 30.0076Z" fill="#E2C6C1" stroke="#C1867B" stroke-width="3.54" stroke-miterlimit="10"/>
<path d="M33.7198 16.383C34.8022 16.383 35.6798 15.5928 35.6798 14.618C35.6798 13.6432 34.8022 12.853 33.7198 12.853C32.6373 12.853 31.7598 13.6432 31.7598 14.618C31.7598 15.5928 32.6373 16.383 33.7198 16.383Z" fill="#C1867B"/>
</svg>
