<svg width="1440" height="344" viewBox="0 0 1440 344" fill="none" xmlns="http://www.w3.org/2000/svg">
<path d="M1021 343L1241.62 0L1447 343H1021Z" fill="#C1867B"/>
<g filter="url(#filter0_d_321_1421)">
<path d="M1181 89.6604L1240.97 0L1303 99L1271.98 76.5849L1259.58 99L1240.97 76.5849L1226.49 99L1214.08 76.5849L1181 89.6604Z" fill="white"/>
</g>
<mask id="mask0_321_1421" style="mask-type:alpha" maskUnits="userSpaceOnUse" x="-5" y="62" width="1059" height="281">
<path d="M-5 343L208.484 62L315.526 255.938L446.624 178.483L568.099 343L815.86 62L1054 343H568.099H-5Z" fill="#D9D9D9"/>
</mask>
<g mask="url(#mask0_321_1421)">
<rect width="1550" height="1540" transform="translate(1595.5 678.997) rotate(146.161)" fill="#C1867B"/>
<rect x="1595.5" y="678.997" width="62" height="1540" transform="rotate(146.161 1595.5 678.997)" fill="#EBEDC8"/>
<rect x="1698.5" y="609.946" width="62" height="1540" transform="rotate(146.161 1698.5 609.946)" fill="#EBEDC8"/>
<rect x="1492.51" y="748.048" width="62" height="1540" transform="rotate(146.161 1492.51 748.048)" fill="#EBEDC8"/>
<rect x="1389.51" y="817.099" width="62" height="1540" transform="rotate(146.161 1389.51 817.099)" fill="#EBEDC8"/>
<rect x="1286.52" y="886.149" width="62" height="1540" transform="rotate(146.161 1286.52 886.149)" fill="#EBEDC8"/>
<rect x="1183.52" y="955.2" width="62" height="1540" transform="rotate(146.161 1183.52 955.2)" fill="#EBEDC8"/>
<rect x="1080.53" y="1024.25" width="62" height="1540" transform="rotate(146.161 1080.53 1024.25)" fill="#EBEDC8"/>
<rect x="977.532" y="1093.3" width="62" height="1540" transform="rotate(146.161 977.532 1093.3)" fill="#EBEDC8"/>
<rect x="874.537" y="1162.35" width="62" height="1540" transform="rotate(146.161 874.537 1162.35)" fill="#EBEDC8"/>
<rect x="771.542" y="1231.4" width="62" height="1540" transform="rotate(146.161 771.542 1231.4)" fill="#EBEDC8"/>
<rect x="668.547" y="1300.46" width="62" height="1540" transform="rotate(146.161 668.547 1300.46)" fill="#EBEDC8"/>
<rect x="565.552" y="1369.51" width="62" height="1540" transform="rotate(146.161 565.552 1369.51)" fill="#EBEDC8"/>
<rect x="462.557" y="1438.56" width="62" height="1540" transform="rotate(146.161 462.557 1438.56)" fill="#EBEDC8"/>
<rect x="359.562" y="1507.61" width="62" height="1540" transform="rotate(146.161 359.562 1507.61)" fill="#EBEDC8"/>
</g>
<g filter="url(#filter1_d_321_1421)">
<path d="M341 237.66L427.508 148L517 247L472.254 224.585L454.356 247L427.508 224.585L406.627 247L388.729 224.585L341 237.66Z" fill="white"/>
</g>
<path d="M243 113.499L236.948 121.052L225.456 102.447L214.543 118.686L202.979 102.447L190.076 119.854L179.707 103.973L161.328 123C161.256 122.285 161.148 121.638 161 121.055L169.338 104.202L199.174 44L215.739 65.0038L223.241 55.6028L240.386 105.846L242.996 113.495L243 113.499Z" fill="#EBEDC8"/>
<path d="M847 344L987.345 126L1118 344H847Z" fill="#9AB5C1"/>
<path d="M1024 186.499L1017.95 194.052L1006.46 175.447L995.543 191.686L983.979 175.447L971.076 192.854L960.707 176.973L942.328 196C942.256 195.285 942.148 194.638 942 194.055L950.338 177.202L980.174 117L996.739 138.004L1004.24 128.603L1021.39 178.846L1024 186.495L1024 186.499Z" fill="#EBEDC8"/>
<path d="M449 343L589.345 125L720 343H449Z" fill="#C1867B"/>
<defs>
<filter id="filter0_d_321_1421" x="1177" y="0" width="130" height="107" filterUnits="userSpaceOnUse" color-interpolation-filters="sRGB">
<feFlood flood-opacity="0" result="BackgroundImageFix"/>
<feColorMatrix in="SourceAlpha" type="matrix" values="0 0 0 0 0 0 0 0 0 0 0 0 0 0 0 0 0 0 127 0" result="hardAlpha"/>
<feOffset dy="4"/>
<feGaussianBlur stdDeviation="2"/>
<feComposite in2="hardAlpha" operator="out"/>
<feColorMatrix type="matrix" values="0 0 0 0 0 0 0 0 0 0 0 0 0 0 0 0 0 0 0.25 0"/>
<feBlend mode="normal" in2="BackgroundImageFix" result="effect1_dropShadow_321_1421"/>
<feBlend mode="normal" in="SourceGraphic" in2="effect1_dropShadow_321_1421" result="shape"/>
</filter>
<filter id="filter1_d_321_1421" x="337" y="148" width="184" height="107" filterUnits="userSpaceOnUse" color-interpolation-filters="sRGB">
<feFlood flood-opacity="0" result="BackgroundImageFix"/>
<feColorMatrix in="SourceAlpha" type="matrix" values="0 0 0 0 0 0 0 0 0 0 0 0 0 0 0 0 0 0 127 0" result="hardAlpha"/>
<feOffset dy="4"/>
<feGaussianBlur stdDeviation="2"/>
<feComposite in2="hardAlpha" operator="out"/>
<feColorMatrix type="matrix" values="0 0 0 0 0 0 0 0 0 0 0 0 0 0 0 0 0 0 0.25 0"/>
<feBlend mode="normal" in2="BackgroundImageFix" result="effect1_dropShadow_321_1421"/>
<feBlend mode="normal" in="SourceGraphic" in2="effect1_dropShadow_321_1421" result="shape"/>
</filter>
</defs>
</svg>
