<svg width="957" height="300" viewBox="0 0 957 300" fill="none" xmlns="http://www.w3.org/2000/svg">
<g filter="url(#filter0_d_267_1344)">
<path d="M180 193.66L266.508 104L356 203L311.254 180.585L293.356 203L266.508 180.585L245.627 203L227.729 180.585L180 193.66Z" fill="white"/>
</g>
<path d="M82 69.499L75.9481 77.0519L64.456 58.4466L53.5434 74.6856L41.9793 58.4466L29.0761 75.8544L18.7072 59.9729L0.327779 79C0.255828 78.2851 0.147899 77.6381 0 77.0555L8.33831 60.2017L38.1739 0L54.7386 21.0038L62.2415 11.6028L79.3858 61.846L81.996 69.4954L82 69.499Z" fill="#EBEDC8"/>
<path d="M288 299L428.345 81L559 299H288Z" fill="#C1867B"/>
<path d="M686 300L826.345 82L957 300H686Z" fill="#9AB5C1"/>
<path d="M863 142.499L856.948 150.052L845.456 131.447L834.543 147.686L822.979 131.447L810.076 148.854L799.707 132.973L781.328 152C781.256 151.285 781.148 150.638 781 150.055L789.338 133.202L819.174 73L835.739 94.0038L843.241 84.6028L860.386 134.846L862.996 142.495L863 142.499Z" fill="#EBEDC8"/>
<defs>
<filter id="filter0_d_267_1344" x="176" y="104" width="184" height="107" filterUnits="userSpaceOnUse" color-interpolation-filters="sRGB">
<feFlood flood-opacity="0" result="BackgroundImageFix"/>
<feColorMatrix in="SourceAlpha" type="matrix" values="0 0 0 0 0 0 0 0 0 0 0 0 0 0 0 0 0 0 127 0" result="hardAlpha"/>
<feOffset dy="4"/>
<feGaussianBlur stdDeviation="2"/>
<feComposite in2="hardAlpha" operator="out"/>
<feColorMatrix type="matrix" values="0 0 0 0 0 0 0 0 0 0 0 0 0 0 0 0 0 0 0.25 0"/>
<feBlend mode="normal" in2="BackgroundImageFix" result="effect1_dropShadow_267_1344"/>
<feBlend mode="normal" in="SourceGraphic" in2="effect1_dropShadow_267_1344" result="shape"/>
</filter>
</defs>
</svg>
