<svg width="799" height="402" viewBox="0 0 799 402" fill="none" xmlns="http://www.w3.org/2000/svg">
<path opacity="0.9" d="M0 402L357.854 14L691 402H0Z" fill="#74698C"/>
<path opacity="0.9" d="M216 402L531.388 60L825 402H216Z" fill="#74698C"/>
<g filter="url(#filter0_d_264_1357)">
<path d="M230 155.774L363.695 0L502 172L432.847 133.057L405.186 172L363.695 133.057L331.424 172L303.763 133.057L230 155.774Z" fill="#E2C6C1"/>
</g>
<g filter="url(#filter1_d_264_1357)">
<path d="M455 144.66L531.678 55L611 154L571.339 131.585L555.475 154L531.678 131.585L513.169 154L497.305 131.585L455 144.66Z" fill="#9AB5C1"/>
</g>
<g filter="url(#filter2_d_264_1357)">
<path d="M375 221.66L451.678 132L531 231L491.339 208.585L475.475 231L451.678 208.585L433.169 231L417.305 208.585L375 221.66Z" fill="#EBEDC8"/>
</g>
<g filter="url(#filter3_d_264_1357)">
<path d="M230 155.774L363.695 0L502 172L432.847 133.057L405.186 172L363.695 133.057L331.424 172L303.763 133.057L230 155.774Z" fill="#E2C6C1"/>
</g>
<defs>
<filter id="filter0_d_264_1357" x="226" y="0" width="280" height="180" filterUnits="userSpaceOnUse" color-interpolation-filters="sRGB">
<feFlood flood-opacity="0" result="BackgroundImageFix"/>
<feColorMatrix in="SourceAlpha" type="matrix" values="0 0 0 0 0 0 0 0 0 0 0 0 0 0 0 0 0 0 127 0" result="hardAlpha"/>
<feOffset dy="4"/>
<feGaussianBlur stdDeviation="2"/>
<feComposite in2="hardAlpha" operator="out"/>
<feColorMatrix type="matrix" values="0 0 0 0 0 0 0 0 0 0 0 0 0 0 0 0 0 0 0.25 0"/>
<feBlend mode="normal" in2="BackgroundImageFix" result="effect1_dropShadow_264_1357"/>
<feBlend mode="normal" in="SourceGraphic" in2="effect1_dropShadow_264_1357" result="shape"/>
</filter>
<filter id="filter1_d_264_1357" x="451" y="55" width="164" height="107" filterUnits="userSpaceOnUse" color-interpolation-filters="sRGB">
<feFlood flood-opacity="0" result="BackgroundImageFix"/>
<feColorMatrix in="SourceAlpha" type="matrix" values="0 0 0 0 0 0 0 0 0 0 0 0 0 0 0 0 0 0 127 0" result="hardAlpha"/>
<feOffset dy="4"/>
<feGaussianBlur stdDeviation="2"/>
<feComposite in2="hardAlpha" operator="out"/>
<feColorMatrix type="matrix" values="0 0 0 0 0 0 0 0 0 0 0 0 0 0 0 0 0 0 0.25 0"/>
<feBlend mode="normal" in2="BackgroundImageFix" result="effect1_dropShadow_264_1357"/>
<feBlend mode="normal" in="SourceGraphic" in2="effect1_dropShadow_264_1357" result="shape"/>
</filter>
<filter id="filter2_d_264_1357" x="371" y="132" width="164" height="107" filterUnits="userSpaceOnUse" color-interpolation-filters="sRGB">
<feFlood flood-opacity="0" result="BackgroundImageFix"/>
<feColorMatrix in="SourceAlpha" type="matrix" values="0 0 0 0 0 0 0 0 0 0 0 0 0 0 0 0 0 0 127 0" result="hardAlpha"/>
<feOffset dy="4"/>
<feGaussianBlur stdDeviation="2"/>
<feComposite in2="hardAlpha" operator="out"/>
<feColorMatrix type="matrix" values="0 0 0 0 0 0 0 0 0 0 0 0 0 0 0 0 0 0 0.25 0"/>
<feBlend mode="normal" in2="BackgroundImageFix" result="effect1_dropShadow_264_1357"/>
<feBlend mode="normal" in="SourceGraphic" in2="effect1_dropShadow_264_1357" result="shape"/>
</filter>
<filter id="filter3_d_264_1357" x="226" y="0" width="280" height="180" filterUnits="userSpaceOnUse" color-interpolation-filters="sRGB">
<feFlood flood-opacity="0" result="BackgroundImageFix"/>
<feColorMatrix in="SourceAlpha" type="matrix" values="0 0 0 0 0 0 0 0 0 0 0 0 0 0 0 0 0 0 127 0" result="hardAlpha"/>
<feOffset dy="4"/>
<feGaussianBlur stdDeviation="2"/>
<feComposite in2="hardAlpha" operator="out"/>
<feColorMatrix type="matrix" values="0 0 0 0 0 0 0 0 0 0 0 0 0 0 0 0 0 0 0.25 0"/>
<feBlend mode="normal" in2="BackgroundImageFix" result="effect1_dropShadow_264_1357"/>
<feBlend mode="normal" in="SourceGraphic" in2="effect1_dropShadow_264_1357" result="shape"/>
</filter>
</defs>
</svg>
