<?xml version="1.0" encoding="UTF-8"?>
<svg id="Layer_1" data-name="Layer 1" xmlns="http://www.w3.org/2000/svg" viewBox="0 0 288 144">
  <defs>
    <style>
      .cls-1 {
        fill: #d56228;
      }

      .cls-2 {
        fill: #fff;
      }

      .cls-3 {
        fill: #e8a123;
      }

      .cls-4 {
        fill: #efe740;
      }

      .cls-5 {
        fill: #050505;
      }
    </style>
  </defs>
  <path class="cls-2" d="M117,114.62c-7.36,0-14.28-2.93-19.48-8.14l-35.91-8.43c-.15,0-.3,0-.45,0-3.91,0-7.62-2.15-9.67-5.6-1.92-3.23-2.2-7.13-.8-10.59l-32.93-7.73c-.44.05-.89.07-1.33.07-4.32,0-8.42-2.38-10.7-6.2-2.29-3.85-2.47-8.56-.48-12.6l4.96-10.08-7.76-7.98c-3.61-3.71-4.69-9.24-2.74-14.09,1.95-4.86,6.49-8.01,11.57-8.01.66,0,1.32.05,1.98.16l10.83,1.75,4.96-10.08c2.15-4.37,6.43-7.08,11.17-7.08,4.29,0,8.1,2.19,10.38,5.62l25.12,16.98c1.97-4.25,4.96-8.02,8.85-10.94l2.55-1.91h111.52l2.55,1.91c4.18,3.13,7.32,7.27,9.26,11.91l24.48-16.55c2.27-3.43,6.09-5.62,10.38-5.62,4.74,0,9.02,2.71,11.17,7.08l4.96,10.08,10.83-1.75c.66-.11,1.32-.16,1.98-.16,5.08,0,9.62,3.14,11.57,8.01,1.94,4.85.87,10.38-2.74,14.09l-7.76,7.98,4.96,10.08c1.99,4.04,1.81,8.76-.48,12.6-2.28,3.82-6.38,6.2-10.69,6.2h0c-.44,0-.89-.02-1.33-.07l-32.93,7.73c1.4,3.47,1.12,7.36-.8,10.59-2.06,3.45-5.76,5.6-9.67,5.6-.15,0-.3,0-.45,0l-37.67,8.84c-4.95,4.1-11.06,6.32-17.5,6.32h-51.72Z"/>
  <path class="cls-2" d="M273.76,26.69l-17.79,2.88-8.15-16.56c-1.25-2.54-4.92-1.94-5.35.87l-40.46,27.34.11-.36c2.45-7.78-.23-16.3-6.65-21.11h-105.21c-6.09,4.56-8.81,12.47-6.98,19.92L43.04,12.47c-.44-2.81-4.1-3.4-5.35-.87l-8.15,16.56-17.79-2.88c-2.73-.44-4.41,2.97-2.45,4.98l12.75,13.11-8.15,16.56c-1.25,2.54,1.38,5.24,3.84,3.94l45.2,10.61,1.48,1.52-4.71,9.58c-.72,1.47.8,3.03,2.22,2.28l40.71,9.56c3.4,4.45,8.64,7.19,14.37,7.19h51.72c4.96,0,9.57-2.06,12.93-5.51l41.94-9.85c1.42.75,2.94-.81,2.22-2.28l-4.71-9.58,1.48-1.52,45.2-10.61c2.46,1.3,5.09-1.41,3.84-3.94l-8.15-16.56,12.75-13.11c1.95-2.01.27-5.42-2.45-4.98Z"/>
  <g>
    <g id="Star">
      <polygon class="cls-3" points="153.79 79.45 220.97 40.6 220.29 35.97 154.12 77.01 153.79 79.45"/>
      <polygon class="cls-1" points="171.63 87.85 267.77 65.28 251.74 56.83 165.52 84.63 171.63 87.85"/>
      <polygon class="cls-1" points="221.83 35.09 239.62 32.21 242.46 13.87 161.98 68.26 160.73 73.26 221.83 35.09"/>
      <polygon class="cls-1" points="158.82 88.66 234.16 67.39 237 49.06 159.9 81.67 158.82 88.66"/>
      <line class="cls-4" x1="238.98" y1="69.94" x2="160.66" y2="89.63"/>
      <line class="cls-4" x1="276.21" y1="31.67" x2="174.84" y2="75.05"/>
      <polygon class="cls-3" points="237 49.06 220.97 40.6 153.88 79.3 159.9 81.67 237 49.06"/>
      <path class="cls-4" d="M238.98,69.94l12.75-13.11,16.03,8.46c2.46,1.3,5.09-1.41,3.84-3.94l-8.15-16.56,12.75-13.11c1.95-2.01.27-5.42-2.45-4.98l-17.79,2.88-8.15-16.56c-1.25-2.54-4.92-1.94-5.35.87l-2.85,18.34-17.79,2.88c-2.73.44-3.31,4.22-.86,5.52l16.03,8.46-2.85,18.34c-.44,2.81,2.87,4.55,4.82,2.54Z"/>
      <path class="cls-3" d="M234.59,66.71s-1.49,3.83,2.23,4.34c3.71.51-76.51,19.66-76.51,19.66,0,0-1.25-.69-1-1.88s75.28-22.12,75.28-22.12Z"/>
    </g>
    <g id="Small_Star" data-name="Small Star">
      <polygon class="cls-3" points="157.68 97.46 196.52 75 196.13 72.32 157.87 96.05 157.68 97.46"/>
      <polygon class="cls-1" points="167.99 102.32 223.59 89.27 214.31 84.38 164.46 100.46 167.99 102.32"/>
      <polygon class="cls-1" points="197.02 71.81 207.31 70.15 208.95 59.54 162.41 91 161.68 93.89 197.02 71.81"/>
      <polygon class="cls-1" points="160.58 102.79 204.15 90.49 205.79 79.89 161.21 98.75 160.58 102.79"/>
      <line class="cls-4" x1="206.94" y1="91.96" x2="161.64" y2="103.35"/>
      <line class="cls-4" x1="228.47" y1="69.84" x2="169.85" y2="94.92"/>
      <polygon class="cls-3" points="205.79 79.89 196.52 75 157.72 97.38 161.21 98.75 205.79 79.89"/>
      <path class="cls-4" d="M206.94,91.96l7.38-7.58,9.27,4.89c1.42.75,2.94-.81,2.22-2.28l-4.71-9.58,7.38-7.58c1.13-1.16.16-3.14-1.42-2.88l-10.29,1.66-4.71-9.58c-.72-1.47-2.84-1.12-3.09.5l-1.65,10.6-10.29,1.66c-1.58.25-1.92,2.44-.49,3.19l9.27,4.89-1.65,10.6c-.25,1.62,1.66,2.63,2.79,1.47Z"/>
      <path class="cls-3" d="M204.4,90.1s-.86,2.21,1.29,2.51-44.24,11.37-44.24,11.37c0,0-.73-.4-.58-1.09s43.53-12.79,43.53-12.79Z"/>
    </g>
    <g id="Star-2" data-name="Star">
      <polygon class="cls-3" points="131.71 78.05 64.53 39.2 65.21 34.57 131.38 75.6 131.71 78.05"/>
      <polygon class="cls-1" points="113.88 86.45 17.74 63.88 33.77 55.43 119.99 83.23 113.88 86.45"/>
      <polygon class="cls-1" points="63.68 33.69 45.89 30.81 43.04 12.47 123.52 66.86 124.78 71.86 63.68 33.69"/>
      <polygon class="cls-1" points="126.69 87.26 51.35 65.99 48.5 47.66 125.6 80.27 126.69 87.26"/>
      <line class="cls-4" x1="46.52" y1="68.54" x2="124.85" y2="88.23"/>
      <line class="cls-4" x1="9.3" y1="30.27" x2="110.66" y2="73.65"/>
      <polygon class="cls-3" points="48.5 47.66 64.53 39.2 131.63 77.9 125.6 80.27 48.5 47.66"/>
      <path class="cls-4" d="M46.52,68.54l-12.75-13.11-16.03,8.46c-2.46,1.3-5.09-1.41-3.84-3.94l8.15-16.56-12.75-13.11c-1.95-2.01-.27-5.42,2.45-4.98l17.79,2.88,8.15-16.56c1.25-2.54,4.92-1.94,5.35.87l2.85,18.34,17.79,2.88c2.73.44,3.31,4.22.86,5.52l-16.03,8.46,2.85,18.34c.44,2.81-2.87,4.55-4.82,2.54Z"/>
      <path class="cls-3" d="M50.91,65.31s1.49,3.83-2.23,4.34c-3.71.51,76.51,19.66,76.51,19.66,0,0,1.25-.69,1-1.88-.26-1.19-75.28-22.12-75.28-22.12Z"/>
    </g>
    <g id="Small_Star-2" data-name="Small Star">
      <polygon class="cls-3" points="127.83 96.06 88.98 73.6 89.38 70.92 127.64 94.65 127.83 96.06"/>
      <polygon class="cls-1" points="117.52 100.92 61.92 87.87 71.19 82.98 121.05 99.06 117.52 100.92"/>
      <polygon class="cls-1" points="88.49 70.41 78.2 68.75 76.55 58.14 123.09 89.6 123.82 92.49 88.49 70.41"/>
      <polygon class="cls-1" points="124.92 101.39 81.36 89.09 79.71 78.49 124.3 97.35 124.92 101.39"/>
      <line class="cls-4" x1="78.57" y1="90.56" x2="123.86" y2="101.95"/>
      <line class="cls-4" x1="57.04" y1="68.44" x2="115.66" y2="93.52"/>
      <polygon class="cls-3" points="79.71 78.49 88.98 73.6 127.78 95.98 124.3 97.35 79.71 78.49"/>
      <path class="cls-4" d="M78.57,90.56l-7.38-7.58-9.27,4.89c-1.42.75-2.94-.81-2.22-2.28l4.71-9.58-7.38-7.58c-1.13-1.16-.16-3.14,1.42-2.88l10.29,1.66,4.71-9.58c.72-1.47,2.84-1.12,3.09.5l1.65,10.6,10.29,1.66c1.58.25,1.92,2.44.49,3.19l-9.27,4.89,1.65,10.6c.25,1.62-1.66,2.63-2.79,1.47Z"/>
      <path class="cls-3" d="M81.11,88.7s.86,2.21-1.29,2.51c-2.15.3,44.24,11.37,44.24,11.37,0,0,.73-.4.58-1.09s-43.53-12.79-43.53-12.79Z"/>
    </g>
  </g>
  <g>
    <path class="cls-4" d="M90.25,19.75c-6.42,4.81-9.1,13.33-6.65,21.11l15.98,50.72c2.45,7.78,9.48,13.05,17.42,13.05h51.72c7.93,0,14.96-5.27,17.42-13.05l15.98-50.72c2.45-7.78-.23-16.3-6.65-21.11h-105.21Z"/>
    <path class="cls-3" d="M189.5,23.77c5.65,4.23,8.01,11.73,5.85,18.57l-14.06,44.62c-2.16,6.84-8.34,11.48-15.32,11.48h-45.5c-6.98,0-13.16-4.63-15.32-11.48l-14.06-44.62c-2.16-6.84.21-14.34,5.85-18.57h92.56Z"/>
  </g>
  <g>
    <g>
      <path class="cls-5" d="M97.2,43.06c0-1.03.49-1.53,1.31-1.61l2.33-7.45c-.84-.12-1.31-.67-1.31-1.61,0-1.01.59-1.61,1.58-1.61h5.56c1,0,1.58.61,1.58,1.61,0,.95-.47,1.49-1.33,1.61l2.31,7.45c.8.08,1.29.56,1.29,1.61s-.59,1.63-1.6,1.63h-2.27c-1,0-1.59-.61-1.59-1.63,0-.77.33-1.33.92-1.55l-.31-1.19h-3.6l-.31,1.17c.67.18,1.02.77,1.02,1.57,0,1.03-.59,1.63-1.59,1.63h-2.41c-1,0-1.58-.61-1.58-1.63ZM104.89,37.39l-.84-3.17h-.29l-.88,3.17h2.02Z"/>
      <path class="cls-5" d="M111.28,43.16c0-.85.47-1.37,1.21-1.51v-4.72c-.82-.12-1.21-.63-1.21-1.47,0-.93.55-1.51,1.68-1.51h.74c.96,0,1.51.46,1.57,1.29l.1,1.86h.12c.39-2.8,2.09-3.39,3.44-3.39,2,0,3.23,1.35,3.23,3.63v4.34c.76.12,1.19.63,1.19,1.49,0,.97-.57,1.53-1.57,1.53h-2.23c-1,0-1.59-.61-1.59-1.63,0-.34.25-1.11,1.08-1.35v-3.25c0-1.03-.53-1.63-1.49-1.63-1.21,0-1.98,1.01-1.98,2v2.84c.76.18,1.1.73,1.1,1.49,0,.97-.59,1.53-1.59,1.53h-2.23c-1,0-1.59-.56-1.59-1.53Z"/>
      <path class="cls-5" d="M123.31,46.24c0-.81.53-1.55,1.29-1.55.22,0,.43.06.65.24.39.3.8.73,1.57.73.8,0,1.27-.44,1.55-1.29l.16-.46c-.12.02-.22.02-.31.02-.68,0-1.43-.38-1.72-1.35l-1.88-5.59c-.94-.04-1.47-.61-1.47-1.53s.59-1.51,1.58-1.51h2c1,0,1.58.59,1.58,1.51,0,.69-.29,1.15-.8,1.39l1.43,4.62h.25l1.41-4.56c-.65-.2-1-.71-1-1.45,0-.93.59-1.51,1.6-1.51h2.02c1,0,1.59.59,1.59,1.51s-.49,1.43-1.33,1.51l-2.62,7.47c-.67,1.88-1.7,4.38-4.4,4.38-1.78,0-3.13-1.17-3.13-2.56Z"/>
      <path class="cls-5" d="M137.27,41.38v-4.52h-.9c-.82,0-1.29-.61-1.29-1.45s.49-1.47,1.29-1.47h.9v-1.17c0-.95.63-1.47,1.57-1.47,1.02,0,1.53.63,1.53,1.47v1.17h1.82c.8,0,1.29.63,1.29,1.47s-.49,1.45-1.29,1.45h-1.82v3.87c0,.83.35,1.19.92,1.19.8,0,1.08-.56,1.62-.56.47,0,.84.34.84,1.17,0,1.51-1.64,2.38-3.41,2.38-1.88,0-3.07-1.15-3.07-3.53Z"/>
      <path class="cls-5" d="M144.47,43.16c0-.81.41-1.33,1.19-1.49v-7.79c-.9-.06-1.43-.54-1.43-1.59,0-.95.59-1.51,1.59-1.51h1.43c.98,0,1.55.59,1.55,1.59v1.25c0,.56-.1,2.06-.37,3.47h.25c.37-2.8,2.09-3.39,3.44-3.39,2,0,3.23,1.35,3.23,3.63v4.38c.78.14,1.19.65,1.19,1.45,0,.97-.57,1.53-1.58,1.53h-2.21c-1,0-1.59-.61-1.59-1.63,0-.34.23-1.13,1.08-1.35v-3.25c0-1.03-.53-1.63-1.51-1.63-1.19,0-1.96,1.01-1.96,2v2.82c.7.16,1.1.75,1.1,1.51,0,.97-.59,1.53-1.58,1.53h-2.23c-1,0-1.59-.56-1.59-1.53Z"/>
      <path class="cls-5" d="M157.29,43.16c0-.81.45-1.35,1.21-1.49v-4.7c-.88-.14-1.23-.75-1.23-1.43,0-.77.45-1.59,1.6-1.59h1.39c.76,0,1.33.52,1.33,1.57v6.15c.76.14,1.21.69,1.21,1.49,0,.97-.59,1.53-1.59,1.53h-2.35c-1,0-1.59-.56-1.59-1.53ZM158.03,31.19c0-.95.51-1.63,1.78-1.63s1.76.69,1.76,1.63-.51,1.63-1.76,1.63-1.78-.67-1.78-1.63Z"/>
      <path class="cls-5" d="M163.61,43.16c0-.85.47-1.37,1.21-1.51v-4.72c-.82-.12-1.21-.63-1.21-1.47,0-.93.55-1.51,1.68-1.51h.74c.96,0,1.51.46,1.57,1.29l.1,1.86h.12c.39-2.8,2.09-3.39,3.44-3.39,2,0,3.23,1.35,3.23,3.63v4.34c.76.12,1.19.63,1.19,1.49,0,.97-.57,1.53-1.57,1.53h-2.23c-1,0-1.59-.61-1.59-1.63,0-.34.25-1.11,1.08-1.35v-3.25c0-1.03-.53-1.63-1.49-1.63-1.21,0-1.98,1.01-1.98,2v2.84c.76.18,1.1.73,1.1,1.49,0,.97-.59,1.53-1.59,1.53h-2.23c-1,0-1.59-.56-1.59-1.53Z"/>
      <path class="cls-5" d="M176.43,46.12c0-1.21.9-1.94,2.19-2.04v-.18c-1.15-.14-1.92-.65-1.92-1.67,0-.89.78-1.45,1.84-1.61-1.15-.5-1.68-1.63-1.68-2.99,0-2.56,1.98-3.91,4.72-3.91.82,0,2.04.22,2.68.48l1.31-.5c.98-.38,1.92-.08,1.92,1.05,0,.69-.39,1.21-1.25,1.23l-.94.02v.16c.7.32,1.08,1.13,1.08,2.02,0,2.24-2.21,3.25-4.77,3.23-.51,0-1.27-.08-1.9-.3-.33.18-.49.36-.49.67,0,.46.55.59,1.19.59h3.31c2.03,0,3.48.67,3.48,2.78,0,2-1.23,3.69-5.75,3.69-3.48,0-5.01-.83-5.01-2.7ZM184.49,45.28c0-.59-.51-.67-1.39-.67h-4.07c-.14.18-.22.4-.22.67,0,.71.84.93,2.82.93s2.86-.2,2.86-.93ZM183.71,37.57c0-.85-.98-1.23-2.11-1.23-1.25,0-2.13.32-2.13,1.25,0,.87.8,1.21,2.11,1.21.82,0,2.13-.14,2.13-1.23Z"/>
    </g>
    <g>
      <path class="cls-5" d="M133.01,64.83c0-.81.45-1.35,1.21-1.49v-4.7c-.88-.14-1.23-.75-1.23-1.43,0-.77.45-1.59,1.6-1.59h1.39c.76,0,1.33.52,1.33,1.57v6.15c.76.14,1.21.69,1.21,1.49,0,.97-.59,1.53-1.59,1.53h-2.35c-1,0-1.59-.56-1.59-1.53ZM133.75,52.87c0-.95.51-1.63,1.78-1.63s1.76.69,1.76,1.63-.51,1.63-1.76,1.63-1.78-.67-1.78-1.63Z"/>
      <path class="cls-5" d="M141.66,64.39h-.12v1.03c0,.59-.31,1.11-1,1.11s-.98-.52-.98-1.11v-2.34c0-.75.33-1.19.96-1.19.51,0,.8.22,1.08.75.39.73,1.04,1.17,2.62,1.17s2.02-.32,2.02-.85c0-1.49-6.4.52-6.4-4.14,0-2.18,1.49-3.43,3.76-3.43s3.15,1.09,3.27,2.68h.08v-1.51c0-.59.31-1.09.98-1.09s1,.5,1,1.09v2.24c0,.73-.43,1.15-.94,1.15-.45,0-.74-.16-1-.69-.35-.73-1.12-1.05-2.31-1.05-1.1,0-1.94.14-1.94.77,0,1.63,6.42-.3,6.42,3.89,0,2.56-1.88,3.71-4.01,3.71s-3.09-1.09-3.48-2.2Z"/>
    </g>
    <g>
      <path class="cls-5" d="M103.57,85.27c0-.93.45-1.47,1.23-1.61v-7.39c-.78-.14-1.23-.69-1.23-1.61,0-1.05.59-1.65,1.62-1.65h4.83c2.84,0,4.91,1.72,4.91,4.74s-2.09,4.78-4.97,4.78h-1.96v1.13c.8.12,1.27.67,1.27,1.61,0,1.07-.57,1.65-1.59,1.65h-2.52c-1.02,0-1.6-.59-1.6-1.65ZM109.73,79.58c1.35,0,1.96-.65,1.96-1.65s-.61-1.65-1.96-1.65h-1.72v3.31h1.72Z"/>
      <path class="cls-5" d="M115.6,81.54c0-3.29,1.78-5.61,5.26-5.61s5.28,2.32,5.28,5.59-1.78,5.63-5.26,5.63-5.28-2.32-5.28-5.61ZM123.27,81.54c0-1.76-.92-2.62-2.39-2.62s-2.41.87-2.41,2.62.92,2.62,2.41,2.62,2.39-.87,2.39-2.62Z"/>
      <path class="cls-5" d="M129.32,84.95h-.12v1.03c0,.59-.31,1.11-1,1.11s-.98-.52-.98-1.11v-2.34c0-.75.33-1.19.96-1.19.51,0,.8.22,1.08.75.39.73,1.04,1.17,2.62,1.17s2.02-.32,2.02-.85c0-1.49-6.4.52-6.4-4.14,0-2.18,1.49-3.43,3.76-3.43s3.15,1.09,3.27,2.68h.08v-1.51c0-.59.31-1.09.98-1.09s1,.5,1,1.09v2.24c0,.73-.43,1.15-.94,1.15-.45,0-.74-.16-1-.69-.35-.73-1.12-1.05-2.31-1.05-1.1,0-1.94.14-1.94.77,0,1.63,6.42-.3,6.42,3.89,0,2.56-1.88,3.71-4.01,3.71s-3.09-1.09-3.48-2.2Z"/>
      <path class="cls-5" d="M140.16,84.95h-.12v1.03c0,.59-.31,1.11-1,1.11s-.98-.52-.98-1.11v-2.34c0-.75.33-1.19.96-1.19.51,0,.8.22,1.08.75.39.73,1.04,1.17,2.62,1.17s2.02-.32,2.02-.85c0-1.49-6.4.52-6.4-4.14,0-2.18,1.49-3.43,3.76-3.43s3.15,1.09,3.27,2.68h.08v-1.51c0-.59.31-1.09.98-1.09s1,.5,1,1.09v2.24c0,.73-.43,1.15-.94,1.15-.45,0-.74-.16-1-.69-.35-.73-1.12-1.05-2.31-1.05-1.1,0-1.94.14-1.94.77,0,1.63,6.42-.3,6.42,3.89,0,2.56-1.88,3.71-4.01,3.71s-3.09-1.09-3.48-2.2Z"/>
      <path class="cls-5" d="M148.75,85.4c0-.81.45-1.35,1.21-1.49v-4.7c-.88-.14-1.23-.75-1.23-1.43,0-.77.45-1.59,1.6-1.59h1.39c.76,0,1.33.52,1.33,1.57v6.15c.76.14,1.21.69,1.21,1.49,0,.97-.59,1.53-1.59,1.53h-2.35c-1,0-1.59-.56-1.59-1.53ZM149.5,73.43c0-.95.51-1.63,1.78-1.63s1.76.69,1.76,1.63-.51,1.63-1.76,1.63-1.78-.67-1.78-1.63Z"/>
      <path class="cls-5" d="M158.79,83.74h-.2l-.08,1.88c-.1,1.27-.98,1.47-1.58,1.47-.72,0-1.6-.52-1.43-1.88l.16-2.02v-7.16c-.84-.1-1.31-.67-1.31-1.51,0-.95.59-1.51,1.6-1.51h1.25c.98,0,1.55.59,1.55,1.57v1.51c0,.65-.1,1.9-.35,3.41h.2c.37-2.48,1.78-3.57,3.48-3.57,2.33,0,3.97,1.41,3.97,5.43s-1.82,5.83-3.89,5.83c-1.53,0-3.07-.85-3.37-3.45ZM163.04,81.44c0-1.39-.72-2.38-2.17-2.38-1.68,0-2.21,1.31-2.21,2.46s.63,2.42,2.25,2.42c1.45,0,2.13-1.11,2.13-2.5Z"/>
      <path class="cls-5" d="M166.78,85.4c0-.81.45-1.35,1.21-1.49v-7.81c-.92-.04-1.45-.52-1.45-1.57,0-.95.57-1.51,1.57-1.51h1.45c.98,0,1.55.59,1.55,1.57v9.34c.76.12,1.19.67,1.19,1.47,0,.97-.59,1.53-1.59,1.53h-2.35c-1,0-1.59-.56-1.59-1.53Z"/>
      <path class="cls-5" d="M172.85,81.5c0-3.73,2.25-5.55,5.28-5.55,2.88,0,4.85,1.63,4.85,4.66,0,.89-.47,1.76-1.94,1.76h-5.11c.27,1.11,1.06,1.84,2.41,1.84,1.23,0,1.86-.44,2.33-.79.37-.26.63-.48,1.08-.48.72,0,1.14.61,1.14,1.33,0,1.69-2.29,2.91-4.6,2.91-3.54,0-5.44-2.12-5.44-5.67ZM180.09,80.33c-.02-.95-.78-1.67-2.05-1.67-.88,0-1.8.42-2.09,1.67h4.15Z"/>
    </g>
  </g>
</svg>