<?xml version="1.0" encoding="UTF-8"?>
<svg id="Layer_1" data-name="Layer 1" xmlns="http://www.w3.org/2000/svg" viewBox="0 0 288 216">
  <defs>
    <style>
      .cls-1 {
        fill: #eee641;
      }

      .cls-2 {
        fill: #d56228;
      }

      .cls-3 {
        fill: #fff;
      }

      .cls-4 {
        fill: #5bb4e5;
      }

      .cls-5 {
        fill: #179f74;
      }

      .cls-6 {
        fill: #cc79a8;
      }

      .cls-7 {
        fill: #e7a124;
      }

      .cls-8 {
        fill: #0c73b4;
      }
    </style>
  </defs>
  <g>
    <g>
      <path class="cls-3" d="M15.69,102.16c-3.8,0-7.26-1.24-10.03-3.59l-.14-.12c-3.12-2.73-4.91-6.64-4.91-10.72,0-2.95.88-5.71,2.56-8.04.08-1.18.13-2.51.16-3.99-1.7-2.32-2.64-5.13-2.64-8.14,0-4.63,2.21-8.83,6.08-11.53,2.63-1.84,5.79-2.81,9.16-2.81.62,0,1.33.02,2.15.07.8.03,1.69.05,2.65.05.51,0,1.76-.02,4.77-.1.92-.03,1.75-.04,2.52-.04,2.67,0,4.95.26,6.98.79,2.8.73,5.32,2.02,7.47,3.83,3.99,3.34,6.21,8.11,6.21,13.42,0,.79-.05,1.57-.15,2.34,1.45,2.61,2.2,5.57,2.2,8.73,0,4.74-1.74,9.18-5.02,12.86-2.86,3.18-8.06,6.96-16.72,6.96-.44,0-1.18-.01-3.6-.09,0,0-2.09-.08-2.55-.09l-2.01.02c-1.67.02-2.47.06-2.81.07-.99.08-1.7.12-2.35.12Z"/>
      <path class="cls-3" d="M23.03,89.32l-2.33.02c-1.63.02-2.82.06-3.57.1-.67.06-1.15.09-1.44.09-.71,0-1.27-.18-1.68-.53-.4-.35-.61-.78-.61-1.27,0-.32.08-.57.23-.75s.51-.47,1.09-.86c.34-.23.57-.59.69-1.07s.27-1.53.42-3.13c.22-2.49.33-5.56.33-9.2,0-1.34-.09-2.22-.27-2.66s-.6-.8-1.26-1.09c-.76-.32-1.15-.79-1.15-1.41,0-.5.23-.91.69-1.23s1.04-.48,1.76-.48c.39,0,.9.02,1.51.05,1.02.05,2.12.07,3.3.07.87,0,2.57-.03,5.12-.1.8-.02,1.52-.03,2.17-.03,1.54,0,2.78.12,3.72.37.94.25,1.76.66,2.46,1.24,1.13.95,1.7,2.22,1.7,3.8,0,.79-.17,1.56-.5,2.3s-.79,1.35-1.35,1.79c-.4.32-.61.61-.61.87,0,.29.24.53.73.72.95.38,1.81,1.01,2.59,1.9.8.93,1.2,2.08,1.2,3.48,0,1.64-.61,3.15-1.82,4.51-1.61,1.79-3.99,2.69-7.13,2.69-.43,0-1.48-.03-3.16-.09-1.53-.06-2.46-.09-2.81-.1ZM24.22,70.73v3.53c0,.56.07.95.22,1.18s.4.34.75.34c.86,0,1.49-.26,1.89-.78s.61-1.33.61-2.44-.21-1.9-.62-2.49-1.01-.88-1.77-.88c-.4,0-.69.11-.84.33s-.23.63-.23,1.21ZM24.22,80.6v1.63c0,1.5.11,2.49.33,2.98s.67.74,1.34.74c1.76,0,2.64-1.02,2.64-3.05,0-2.54-.98-3.8-2.95-3.8-.51,0-.86.11-1.06.33s-.29.61-.29,1.18Z"/>
      <path class="cls-3" d="M48.12,102.43c-5.48,0-10.48-1.78-14.44-5.14l-.06-.05c-1.99-1.71-3.63-3.76-4.89-6.1l-.03-.06c-1.64-3.11-2.48-6.45-2.48-9.92,0-4.67,1.52-9.1,4.38-12.82,2.38-3.1,5.45-5.44,9.12-6.96,2.73-1.14,5.69-1.72,8.78-1.72,5.12,0,9.84,1.61,13.65,4.66,2.05,1.64,3.73,3.61,5.01,5.87,1.61,2.85,2.43,5.86,2.43,8.95,0,1.76-.27,3.48-.79,5.08.03.39.05.78.05,1.17,0,2.83-.87,8.21-6.69,12.5-4.03,2.98-8.88,4.55-14.02,4.55Z"/>
      <path class="cls-3" d="M55.11,81.67h-8.16c-.36,0-.54.15-.54.46,0,.74.41,1.44,1.22,2.1s1.69.99,2.63.99c.56,0,1.17-.11,1.85-.32s1.23-.47,1.67-.78c.39-.27.71-.41.94-.41.3,0,.6.18.88.55s.43.74.43,1.13c0,.82-.52,1.62-1.56,2.38-1.84,1.36-3.96,2.04-6.37,2.04s-4.47-.7-6.11-2.09c-.8-.69-1.46-1.51-1.98-2.48-.68-1.29-1.02-2.65-1.02-4.08,0-1.92.59-3.64,1.77-5.17,1.02-1.33,2.31-2.31,3.89-2.96,1.18-.49,2.46-.74,3.83-.74,2.2,0,4.07.62,5.6,1.85.78.62,1.4,1.35,1.87,2.19.54.96.82,1.9.82,2.81,0,.74-.16,1.35-.47,1.82s-.72.71-1.21.71ZM47.41,78.46h1.75c.74,0,1.11-.34,1.11-1.01,0-.62-.18-1.12-.54-1.51s-.83-.58-1.41-.58c-.65,0-1.16.25-1.53.75-.35.47-.52.94-.52,1.42,0,.34.08.58.25.72s.46.21.88.21Z"/>
    </g>
    <g>
      <path class="cls-3" d="M22.01,156.08c-5.69,0-9.53-2.25-11.75-4.13l-.14-.12c-3.57-3.12-5.54-7.39-5.54-12.02,0-3.57,1.15-6.85,3.32-9.49.44-.53.92-1.04,1.47-1.55.06-.52.12-1.14.19-1.86.39-4.4.59-9.9.61-16.36-3.42-2.94-5.41-7.07-5.41-11.59,0-5.12,2.47-9.78,6.78-12.8,3.08-2.16,6.87-3.3,10.96-3.3,1.03,0,2.24.04,3.71.12,1.84.08,3.87.12,6.03.12,1.63,0,5-.07,10.02-.2,1.71-.05,3.32-.07,4.74-.07,4.26,0,7.8.38,10.8,1.16,3.76.98,7.13,2.7,9.99,5.11,5.12,4.28,7.95,10.44,7.95,17.32,0,2.51-.4,4.97-1.18,7.37,3.49,4.13,5.33,9.33,5.33,15.06,0,6.39-2.38,12.44-6.89,17.48-3.98,4.44-11.37,9.72-24.03,9.72-.71,0-2.13-.02-6.84-.18h-.04c-2.74-.1-4.54-.17-5.38-.2l-4.4.03c-3.64.05-5.51.12-6.45.18-1.7.14-2.89.21-3.84.21Z"/>
      <path class="cls-3" d="M36.88,143.04l-4.71.03c-3.3.05-5.72.12-7.24.21-1.36.12-2.33.17-2.92.17-1.43,0-2.57-.36-3.41-1.08-.82-.72-1.23-1.57-1.23-2.57,0-.65.15-1.16.46-1.53s1.04-.95,2.21-1.74c.68-.46,1.15-1.19,1.41-2.17.26-.98.54-3.09.84-6.33.45-5.04.67-11.26.67-18.64,0-2.71-.18-4.51-.54-5.4s-1.21-1.63-2.55-2.2c-1.55-.65-2.32-1.6-2.32-2.85,0-1.02.46-1.85,1.39-2.5.93-.65,2.11-.97,3.57-.97.8,0,1.82.03,3.06.1,2.06.09,4.29.14,6.68.14,1.76,0,5.21-.07,10.37-.21,1.62-.05,3.08-.07,4.39-.07,3.12,0,5.63.25,7.54.75,1.91.5,3.57,1.34,4.97,2.52,2.3,1.92,3.44,4.49,3.44,7.71,0,1.6-.34,3.15-1.02,4.67-.68,1.52-1.59,2.72-2.74,3.63-.82.65-1.23,1.24-1.23,1.77,0,.58.49,1.06,1.48,1.46,1.92.76,3.67,2.05,5.24,3.85,1.62,1.87,2.43,4.22,2.43,7.05,0,3.33-1.23,6.37-3.69,9.13-3.26,3.63-8.07,5.45-14.45,5.45-.87,0-3-.06-6.4-.17-3.09-.12-4.99-.19-5.69-.21ZM39.31,105.38v7.15c0,1.13.15,1.93.44,2.39s.8.69,1.53.69c1.73,0,3.01-.53,3.83-1.58.82-1.05,1.23-2.7,1.23-4.95s-.42-3.86-1.27-5.05-2.04-1.79-3.59-1.79c-.82,0-1.39.23-1.7.68s-.47,1.27-.47,2.45ZM39.31,125.37v3.3c0,3.03.22,5.04.67,6.04s1.35,1.49,2.71,1.49c3.56,0,5.34-2.06,5.34-6.18,0-5.14-1.99-7.71-5.98-7.71-1.03,0-1.75.22-2.14.66s-.6,1.24-.6,2.39Z"/>
      <path class="cls-3" d="M81.1,156.39c-5.67,0-9.98-.55-13.54-1.74l-.05-.02c-7.12-2.4-11.54-8.27-11.54-15.32,0-4.06,1.6-7.89,4.48-10.94.03-.66.06-1.46.08-2.43-2.68-2.8-4.21-6.42-4.21-10.37,0-5.22,2.6-10.03,7.15-13.19,2.35-1.63,5.37-2.96,9.5-4.16,4.77-1.41,8.94-2.11,12.72-2.15h.12c2.47,0,4.54.4,6.26,1.02,2.05-.65,4.23-.99,6.5-.99,5.6,0,10.56,2.01,14.36,5.82l.08.08c1.82,1.86,3.27,4.12,4.31,6.71,1.02,2.53,1.53,5.12,1.53,7.68,0,2.86-.63,5.71-1.88,8.48-1.21,2.69-2.88,5.02-4.96,6.93-1.52,1.41-3.19,2.56-4.99,3.44.35,1.33.51,2.66.51,3.93,0,4.17-1.61,8.14-4.54,11.18-2.46,2.56-5.7,4.31-9.36,5.07-3.18.65-7.16.96-12.52.96Z"/>
      <path class="cls-3" d="M85.81,108.71c1.24,0,2,.17,2.27.52s.51,1.46.72,3.33c.12,1.02.48,1.53,1.09,1.53.47,0,.91-.34,1.34-1.01,1.87-2.89,4.32-4.34,7.35-4.34,2.13,0,3.88.68,5.24,2.05.66.67,1.2,1.53,1.62,2.59s.63,2.07.63,3.04c0,1.09-.26,2.2-.77,3.35-.52,1.15-1.18,2.09-2,2.83-1.5,1.41-3.34,2.12-5.52,2.12-1.2,0-2.2-.21-3.01-.62s-1.87-1.26-3.18-2.53c-.49-.49-.95-.73-1.37-.73-.66,0-1.08.36-1.28,1.09s-.3,2.26-.3,4.6c0,3.49.13,5.88.39,7.15.16.69.39,1.17.69,1.44s.92.54,1.88.82c2.11.62,3.16,1.71,3.16,3.26,0,.95-.34,1.78-1.02,2.48-.68.71-1.58,1.17-2.71,1.41-2.25.46-5.55.69-9.91.69s-7.3-.36-9.46-1.08c-1.92-.65-2.88-1.77-2.88-3.37,0-1.2.7-2.28,2.11-3.23.68-.44,1.15-.84,1.41-1.2s.43-.85.53-1.48c.37-2.11.56-6,.56-11.7,0-1.04-.12-1.79-.35-2.24s-.7-.82-1.41-1.09c-1.66-.65-2.5-1.59-2.5-2.81,0-1.11.57-2.07,1.72-2.86s3.07-1.59,5.76-2.38c3.61-1.06,6.68-1.61,9.21-1.63Z"/>
      <path class="cls-3" d="M120.47,156.39c-5.31,0-9.62-.46-13.16-1.41l-.16-.04c-3.21-.91-6.04-2.68-8.17-5.12-2.48-2.85-3.85-6.47-3.85-10.21,0-3.32.99-6.4,2.86-8.93.44-.59.93-1.15,1.49-1.72,0-.15,0-.3,0-.46,0-.15,0-.7-.07-2.19-2.84-2.85-4.46-6.63-4.46-10.72,0-2.62.65-5.1,1.84-7.3-.77-1.92-1.17-4-1.17-6.17,0-7.23,4.63-13.37,12.38-16.42,4.42-1.74,8.78-2.63,12.96-2.63,4.5,0,8.45,1.05,11.72,3.11,4.9,3.08,7.71,8.07,7.71,13.68,0,1.81-.27,3.55-.79,5.2.72,1.77,1.11,3.74,1.11,5.84v18.12c.55.58,1.04,1.19,1.47,1.83,1.68,2.44,2.57,5.37,2.57,8.45,0,6.68-4.2,12.47-10.97,15.1-3.5,1.36-7.73,2-13.31,2Z"/>
      <path class="cls-3" d="M127.92,110.9v20.17c0,1.6.15,2.77.44,3.51s.88,1.42,1.78,2.05c.73.51,1.21.94,1.46,1.3s.37.82.37,1.37c0,2.98-3.83,4.48-11.49,4.48-4.12,0-7.39-.32-9.81-.97-.82-.23-1.48-.64-1.99-1.21s-.76-1.24-.76-1.98c0-.62.13-1.11.39-1.46s.91-.9,1.97-1.67c.73-.53,1.24-1.4,1.55-2.6s.46-3,.46-5.38c0-.76-.05-2.19-.16-4.29s-.18-3.31-.23-3.66c-.14-.95-.8-1.68-1.97-2.19-1.45-.62-2.18-1.55-2.18-2.78,0-1.46.95-2.55,2.85-3.26,2.62-.99,5.44-1.84,8.44-2.53,3-.69,5.32-1.04,6.96-1.04,1.29,0,1.93.72,1.93,2.15ZM120.96,95.69c2.04,0,3.66.38,4.85,1.13s1.79,1.76,1.79,3.04c0,1.78-.9,3.19-2.71,4.23-2.86,1.64-6.32,2.46-10.37,2.46-1.71,0-3.07-.32-4.08-.97-1.36-.83-2.04-1.99-2.04-3.47,0-1.99,1.44-3.55,4.32-4.69,2.93-1.16,5.67-1.74,8.22-1.74Z"/>
      <path class="cls-3" d="M151.22,169.41c-7.26,0-13.24-1.2-18.31-3.66l-.07-.03c-3.33-1.65-6.09-3.92-8.19-6.76-2.49-3.36-3.8-7.23-3.8-11.2,0-1.89.31-3.75.92-5.52-.67-2.01-.89-3.88-.89-5.45,0-2.14.43-5.17,2.24-8.45-.9-2.44-1.36-5.02-1.36-7.72,0-3.86,1.04-7.53,3.1-10.93,1.84-3.04,4.36-5.62,7.48-7.66l.07-.05c5.87-3.78,12.44-5.7,19.53-5.7,2.67,0,5.58.32,8.65.94.58.11,1.03.19,1.37.25.05-.03.1-.07.15-.11l.14-.11.15-.11c2.82-2.09,5.84-3.15,8.97-3.15,4.91,0,9.35,2.41,12.19,6.61,1.84,2.73,2.81,5.95,2.81,9.31,0,2.89-.74,5.84-2.2,8.79-.48.96-1,1.87-1.58,2.72-.22,2.47-.82,4.81-1.79,7,1.17,1.21,2.19,2.58,3.06,4.09,1.81,3.17,2.73,6.61,2.73,10.24,0,5.13-1.83,10.17-5.3,14.56l-.03.04c-3.67,4.61-8.82,7.98-15.31,10-4.39,1.36-9.34,2.04-14.75,2.04Z"/>
      <path class="cls-3" d="M171.4,106.63c.59,0,1.1.33,1.55.99s.67,1.43.67,2.31c0,.95-.3,2.02-.9,3.23s-1.32,2.16-2.16,2.88c-.54.46-.81.83-.81,1.11,0,.07.02.35.07.83.07.49.11.93.11,1.32,0,2.75-.94,5.07-2.81,6.94-1.69,1.67-3.86,2.96-6.52,3.89s-5.58,1.39-8.77,1.39c-.77,0-1.53-.05-2.28-.14-.61-.07-1.08-.1-1.41-.1-1.24,0-1.86.61-1.86,1.84,0,.79.4,1.41,1.21,1.86s1.9.68,3.29.68c.94,0,2.32-.13,4.15-.38,3.84-.53,6.68-.8,8.51-.8,2.77,0,4.91.45,6.43,1.35,1.22.69,2.19,1.67,2.9,2.92s1.07,2.59,1.07,4.03c0,2.34-.87,4.6-2.6,6.8-2.06,2.59-5.1,4.51-9.1,5.76-3.14.97-6.77,1.46-10.9,1.46-5.2,0-9.42-.79-12.65-2.36-1.5-.74-2.69-1.71-3.59-2.92-.89-1.2-1.34-2.45-1.34-3.75,0-.9.25-1.74.76-2.5.5-.76,1.14-1.31,1.92-1.63.7-.28,1.05-.58,1.05-.9,0-.25-.29-.62-.88-1.11-1.87-1.55-2.81-3.16-2.81-4.82,0-1.11.45-2.26,1.35-3.44s2.02-2.09,3.36-2.74c.56-.28.84-.56.84-.83,0-.32-.35-.81-1.05-1.46-2.41-2.2-3.62-4.77-3.62-7.71,0-1.55.43-3.03,1.28-4.44.86-1.41,2.04-2.61,3.57-3.61,3.77-2.43,7.96-3.64,12.55-3.64,1.83,0,3.87.23,6.12.69,2.13.42,3.6.62,4.39.62,2.55,0,5.1-.99,7.63-2.98.56-.42,1-.62,1.3-.62ZM144.65,145.4c-.59,0-.88.34-.88,1.01,0,1.37.75,2.47,2.25,3.31,1.5.84,3.44,1.27,5.83,1.27s4.09-.3,5.4-.9c1.3-.6,1.95-1.45,1.95-2.53,0-.58-.25-1.07-.74-1.48s-1.1-.61-1.83-.61c-.37,0-.91.05-1.62.14-1.31.21-2.78.31-4.39.31-1.2,0-2.34-.06-3.44-.17-.82-.07-1.49-.16-2-.28-.23-.05-.41-.07-.53-.07ZM152.31,113.81c-1.17,0-2.11.44-2.83,1.32s-1.07,2.05-1.07,3.51c0,2.5.39,4.5,1.16,6s1.79,2.26,3.06,2.26,2.23-.47,2.95-1.41,1.09-2.19,1.09-3.77c0-2.48-.38-4.4-1.14-5.78-.76-1.38-1.83-2.09-3.22-2.13Z"/>
      <path class="cls-3" d="M210.97,156.39c-4.95,0-8.72-.5-11.85-1.58-.06-.02-.12-.04-.17-.06-3.17,1.12-6.95,1.64-11.84,1.64-5.57,0-9.76-.54-13.19-1.69-8.62-2.9-11.69-9.65-11.69-15,0-4.28,1.62-7.3,2.98-9.07.4-.52.84-1.02,1.34-1.52.15-1.72.31-5,.31-11.07,0-2.15-.03-3.8-.07-5.04-3.91-3.87-4.43-8.37-4.43-10.48,0-5.42,2.7-10.29,7.4-13.35,2.32-1.51,5.4-2.73,9.99-3.96,5.37-1.47,9.77-2.18,13.47-2.18,4.22,0,8.05,1.55,10.8,4.38,2.24,2.31,3.59,5.26,3.89,8.47,8.62.22,14.12,4,17.25,7.18,2.43,2.47,4.18,5.41,5.18,8.75.75,2.51,1.14,5.43,1.21,9.18l.24,9.6c2.2,2.66,3.42,5.96,3.42,9.42,0,5.31-3.06,11.99-11.63,14.8-3.29,1.08-7.3,1.58-12.61,1.58Z"/>
      <path class="cls-3" d="M195.19,97.39l-.46,14.54c-.05,1.74.49,2.6,1.62,2.6.56,0,1.11-.38,1.65-1.15,2.27-3.26,5.31-4.89,9.1-4.89s6.69,1.12,8.89,3.37c.98.99,1.68,2.18,2.09,3.54.41,1.37.64,3.32.69,5.87l.32,12.53c.02,1.09.17,1.89.44,2.39s.9,1.15,1.88,1.91c.68.53,1.02,1.17,1.02,1.91,0,2.5-3.82,3.75-11.46,3.75-6.8,0-10.19-1.17-10.19-3.51,0-.39.06-.69.18-.9s.53-.76,1.23-1.67c.98-1.27,1.48-4.45,1.48-9.55,0-3.08-.29-5.32-.88-6.73-.77-1.92-2.16-2.88-4.15-2.88-1.43,0-2.48.51-3.16,1.53-.49.74-.74,2.13-.74,4.17v6.7c.16,2.96.3,4.64.42,5.03s.66,1.12,1.62,2.19c.45.49.67,1.05.67,1.7,0,2.61-3.44,3.92-10.33,3.92-8.06,0-12.09-1.35-12.09-4.06,0-.62.13-1.1.39-1.44s.89-.85,1.9-1.54c.89-.62,1.51-2.31,1.85-5.05s.51-7.28.51-13.62c0-4.97-.14-8.42-.42-10.34-.09-.72-.26-1.24-.51-1.58s-.71-.68-1.39-1.02c-1.45-.74-2.18-1.6-2.18-2.57,0-1.16.55-2.09,1.65-2.81,1.1-.72,3.21-1.49,6.33-2.33,4.22-1.16,7.58-1.74,10.09-1.74,1.36,0,2.02.58,1.97,1.74Z"/>
      <path class="cls-3" d="M241.52,156.63c-8.81,0-14.52-3.55-17.76-6.54-4.89-4.5-7.47-10.56-7.47-17.51v-6.75c-1.43-.89-2.45-1.89-3.11-2.66-3.29-3.86-3.29-8.24-3.29-9.68v-1.95c.17-4.89,2.62-9.17,6.73-11.75l16.56-10.28.42-.22c2.26-1.18,4.77-1.78,7.46-1.78h2.85c4.65,0,8.83,2.01,11.46,5.51.73.98,1.32,2.03,1.77,3.16,4.28.88,6.85,3.24,8.12,4.78,3.26,3.95,3.26,8.48,3.26,9.97v2.05c0,3.92-1.04,7.26-3.08,9.93-.39.5-.8.98-1.25,1.42.59.61,1.14,1.28,1.65,2,1.94,2.78,2.97,6.01,2.97,9.36,0,3-.9,8.77-6.92,13.77-5.6,4.7-12.64,7.18-20.35,7.18Z"/>
      <path class="cls-3" d="M245.39,117.59v11.73c0,1.39.35,2.52,1.04,3.4.69.88,1.58,1.32,2.65,1.32.91,0,2.12-.42,3.62-1.25.35-.21.7-.31,1.05-.31.56,0,1.08.34,1.55,1.01s.7,1.4.7,2.19c0,1.43-.8,2.81-2.39,4.13-3.33,2.8-7.36,4.2-12.09,4.2-3.75,0-6.76-1.05-9.03-3.14-2.27-2.09-3.41-4.85-3.41-8.28v-16.04c0-.53-.06-.86-.19-.99s-.46-.19-1-.19h-3.62c-.68,0-1.11-.11-1.3-.33s-.28-.73-.28-1.54v-1.53c.02-.69.29-1.2.81-1.53l16.1-10c.4-.21.89-.31,1.48-.31h2.85c.59,0,.98.13,1.18.4s.3.79.3,1.58v4.69c0,.69.11,1.15.33,1.35s.7.31,1.42.31h6.5c.87,0,1.43.16,1.69.47s.39.98.39,2v2.05c0,1.11-.16,1.88-.49,2.31s-.93.64-1.79.64h-6.36c-.66,0-1.1.12-1.34.35s-.35.67-.35,1.32Z"/>
      <path class="cls-3" d="M267.56,156.63c-5.34,0-10.2-1.91-14.05-5.53-4.09-3.86-6.33-9.05-6.33-14.63,0-4.45,1.37-8.54,3.99-11.96-1.22-2.49-2.23-5.12-3.01-7.85-1.05-3.69-1.58-7.24-1.58-10.53,0-5.14,1.31-9.71,3.91-13.58,3.82-5.72,10.05-9,17.1-9,5.49,0,10.62,2.14,14.45,6.02,3.01,3.02,6.56,8.43,6.56,17.09,0,3.59-.6,7.38-1.79,11.27-.73,2.39-1.63,4.65-2.7,6.77,2.53,3.42,3.86,7.43,3.86,11.74,0,5.42-2.06,10.34-5.96,14.22-3.93,3.91-8.92,5.97-14.45,5.97Z"/>
      <path class="cls-3" d="M267.6,96.18c2.09,0,3.85.74,5.31,2.22,1.94,1.94,2.92,4.7,2.92,8.26,0,2.36-.42,4.9-1.25,7.62-.83,2.72-1.94,5.14-3.32,7.27-1.57,2.41-2.84,3.61-3.8,3.61s-2.26-1.54-3.97-4.62c-1.27-2.27-2.27-4.7-3.01-7.29s-1.11-4.96-1.11-7.12c0-2.64.6-4.85,1.79-6.63,1.48-2.22,3.62-3.33,6.43-3.33ZM267.78,128.98c2.04,0,3.78.75,5.24,2.26,1.45,1.48,2.18,3.22,2.18,5.21s-.75,3.84-2.25,5.33c-1.5,1.49-3.29,2.24-5.38,2.24s-3.78-.68-5.24-2.05c-1.57-1.48-2.35-3.31-2.35-5.48,0-2.01.69-3.71,2.07-5.1,1.55-1.6,3.46-2.39,5.73-2.39Z"/>
    </g>
  </g>
  <g>
    <path class="cls-5" d="M23.03,89.32l-2.33.02c-1.63.02-2.82.06-3.57.1-.67.06-1.15.09-1.44.09-.71,0-1.27-.18-1.68-.53-.4-.35-.61-.78-.61-1.27,0-.32.08-.57.23-.75s.51-.47,1.09-.86c.34-.23.57-.59.69-1.07s.27-1.53.42-3.13c.22-2.49.33-5.56.33-9.2,0-1.34-.09-2.22-.27-2.66s-.6-.8-1.26-1.09c-.76-.32-1.15-.79-1.15-1.41,0-.5.23-.91.69-1.23s1.04-.48,1.76-.48c.39,0,.9.02,1.51.05,1.02.05,2.12.07,3.3.07.87,0,2.57-.03,5.12-.1.8-.02,1.52-.03,2.17-.03,1.54,0,2.78.12,3.72.37.94.25,1.76.66,2.46,1.24,1.13.95,1.7,2.22,1.7,3.8,0,.79-.17,1.56-.5,2.3s-.79,1.35-1.35,1.79c-.4.32-.61.61-.61.87,0,.29.24.53.73.72.95.38,1.81,1.01,2.59,1.9.8.93,1.2,2.08,1.2,3.48,0,1.64-.61,3.15-1.82,4.51-1.61,1.79-3.99,2.69-7.13,2.69-.43,0-1.48-.03-3.16-.09-1.53-.06-2.46-.09-2.81-.1ZM24.22,70.73v3.53c0,.56.07.95.22,1.18s.4.34.75.34c.86,0,1.49-.26,1.89-.78s.61-1.33.61-2.44-.21-1.9-.62-2.49-1.01-.88-1.77-.88c-.4,0-.69.11-.84.33s-.23.63-.23,1.21ZM24.22,80.6v1.63c0,1.5.11,2.49.33,2.98s.67.74,1.34.74c1.76,0,2.64-1.02,2.64-3.05,0-2.54-.98-3.8-2.95-3.8-.51,0-.86.11-1.06.33s-.29.61-.29,1.18Z"/>
    <path class="cls-5" d="M55.11,81.67h-8.16c-.36,0-.54.15-.54.46,0,.74.41,1.44,1.22,2.1s1.69.99,2.63.99c.56,0,1.17-.11,1.85-.32s1.23-.47,1.67-.78c.39-.27.71-.41.94-.41.3,0,.6.18.88.55s.43.74.43,1.13c0,.82-.52,1.62-1.56,2.38-1.84,1.36-3.96,2.04-6.37,2.04s-4.47-.7-6.11-2.09c-.8-.69-1.46-1.51-1.98-2.48-.68-1.29-1.02-2.65-1.02-4.08,0-1.92.59-3.64,1.77-5.17,1.02-1.33,2.31-2.31,3.89-2.96,1.18-.49,2.46-.74,3.83-.74,2.2,0,4.07.62,5.6,1.85.78.62,1.4,1.35,1.87,2.19.54.96.82,1.9.82,2.81,0,.74-.16,1.35-.47,1.82s-.72.71-1.21.71ZM47.41,78.46h1.75c.74,0,1.11-.34,1.11-1.01,0-.62-.18-1.12-.54-1.51s-.83-.58-1.41-.58c-.65,0-1.16.25-1.53.75-.35.47-.52.94-.52,1.42,0,.34.08.58.25.72s.46.21.88.21Z"/>
  </g>
  <g>
    <path class="cls-1" d="M36.88,143.04l-4.71.03c-3.3.05-5.72.12-7.24.21-1.36.12-2.33.17-2.92.17-1.43,0-2.57-.36-3.41-1.08-.82-.72-1.23-1.57-1.23-2.57,0-.65.15-1.16.46-1.53s1.04-.95,2.21-1.74c.68-.46,1.15-1.19,1.41-2.17.26-.98.54-3.09.84-6.33.45-5.04.67-11.26.67-18.64,0-2.71-.18-4.51-.54-5.4s-1.21-1.63-2.55-2.2c-1.55-.65-2.32-1.6-2.32-2.85,0-1.02.46-1.85,1.39-2.5.93-.65,2.11-.97,3.57-.97.8,0,1.82.03,3.06.1,2.06.09,4.29.14,6.68.14,1.76,0,5.21-.07,10.37-.21,1.62-.05,3.08-.07,4.39-.07,3.12,0,5.63.25,7.54.75,1.91.5,3.57,1.34,4.97,2.52,2.3,1.92,3.44,4.49,3.44,7.71,0,1.6-.34,3.15-1.02,4.67-.68,1.52-1.59,2.72-2.74,3.63-.82.65-1.23,1.24-1.23,1.77,0,.58.49,1.06,1.48,1.46,1.92.76,3.67,2.05,5.24,3.85,1.62,1.87,2.43,4.22,2.43,7.05,0,3.33-1.23,6.37-3.69,9.13-3.26,3.63-8.07,5.45-14.45,5.45-.87,0-3-.06-6.4-.17-3.09-.12-4.99-.19-5.69-.21ZM39.31,105.38v7.15c0,1.13.15,1.93.44,2.39s.8.69,1.53.69c1.73,0,3.01-.53,3.83-1.58.82-1.05,1.23-2.7,1.23-4.95s-.42-3.86-1.27-5.05-2.04-1.79-3.59-1.79c-.82,0-1.39.23-1.7.68s-.47,1.27-.47,2.45ZM39.31,125.37v3.3c0,3.03.22,5.04.67,6.04s1.35,1.49,2.71,1.49c3.56,0,5.34-2.06,5.34-6.18,0-5.14-1.99-7.71-5.98-7.71-1.03,0-1.75.22-2.14.66s-.6,1.24-.6,2.39Z"/>
    <path class="cls-2" d="M85.81,108.71c1.24,0,2,.17,2.27.52s.51,1.46.72,3.33c.12,1.02.48,1.53,1.09,1.53.47,0,.91-.34,1.34-1.01,1.87-2.89,4.32-4.34,7.35-4.34,2.13,0,3.88.68,5.24,2.05.66.67,1.2,1.53,1.62,2.59s.63,2.07.63,3.04c0,1.09-.26,2.2-.77,3.35-.52,1.15-1.18,2.09-2,2.83-1.5,1.41-3.34,2.12-5.52,2.12-1.2,0-2.2-.21-3.01-.62s-1.87-1.26-3.18-2.53c-.49-.49-.95-.73-1.37-.73-.66,0-1.08.36-1.28,1.09s-.3,2.26-.3,4.6c0,3.49.13,5.88.39,7.15.16.69.39,1.17.69,1.44s.92.54,1.88.82c2.11.62,3.16,1.71,3.16,3.26,0,.95-.34,1.78-1.02,2.48-.68.71-1.58,1.17-2.71,1.41-2.25.46-5.55.69-9.91.69s-7.3-.36-9.46-1.08c-1.92-.65-2.88-1.77-2.88-3.37,0-1.2.7-2.28,2.11-3.23.68-.44,1.15-.84,1.41-1.2s.43-.85.53-1.48c.37-2.11.56-6,.56-11.7,0-1.04-.12-1.79-.35-2.24s-.7-.82-1.41-1.09c-1.66-.65-2.5-1.59-2.5-2.81,0-1.11.57-2.07,1.72-2.86s3.07-1.59,5.76-2.38c3.61-1.06,6.68-1.61,9.21-1.63Z"/>
    <path class="cls-7" d="M127.92,110.9v20.17c0,1.6.15,2.77.44,3.51s.88,1.42,1.78,2.05c.73.51,1.21.94,1.46,1.3s.37.82.37,1.37c0,2.98-3.83,4.48-11.49,4.48-4.12,0-7.39-.32-9.81-.97-.82-.23-1.48-.64-1.99-1.21s-.76-1.24-.76-1.98c0-.62.13-1.11.39-1.46s.91-.9,1.97-1.67c.73-.53,1.24-1.4,1.55-2.6s.46-3,.46-5.38c0-.76-.05-2.19-.16-4.29s-.18-3.31-.23-3.66c-.14-.95-.8-1.68-1.97-2.19-1.45-.62-2.18-1.55-2.18-2.78,0-1.46.95-2.55,2.85-3.26,2.62-.99,5.44-1.84,8.44-2.53,3-.69,5.32-1.04,6.96-1.04,1.29,0,1.93.72,1.93,2.15ZM120.96,95.69c2.04,0,3.66.38,4.85,1.13s1.79,1.76,1.79,3.04c0,1.78-.9,3.19-2.71,4.23-2.86,1.64-6.32,2.46-10.37,2.46-1.71,0-3.07-.32-4.08-.97-1.36-.83-2.04-1.99-2.04-3.47,0-1.99,1.44-3.55,4.32-4.69,2.93-1.16,5.67-1.74,8.22-1.74Z"/>
    <path class="cls-6" d="M171.4,106.63c.59,0,1.1.33,1.55.99s.67,1.43.67,2.31c0,.95-.3,2.02-.9,3.23s-1.32,2.16-2.16,2.88c-.54.46-.81.83-.81,1.11,0,.07.02.35.07.83.07.49.11.93.11,1.32,0,2.75-.94,5.07-2.81,6.94-1.69,1.67-3.86,2.96-6.52,3.89s-5.58,1.39-8.77,1.39c-.77,0-1.53-.05-2.28-.14-.61-.07-1.08-.1-1.41-.1-1.24,0-1.86.61-1.86,1.84,0,.79.4,1.41,1.21,1.86s1.9.68,3.29.68c.94,0,2.32-.13,4.15-.38,3.84-.53,6.68-.8,8.51-.8,2.77,0,4.91.45,6.43,1.35,1.22.69,2.19,1.67,2.9,2.92s1.07,2.59,1.07,4.03c0,2.34-.87,4.6-2.6,6.8-2.06,2.59-5.1,4.51-9.1,5.76-3.14.97-6.77,1.46-10.9,1.46-5.2,0-9.42-.79-12.65-2.36-1.5-.74-2.69-1.71-3.59-2.92-.89-1.2-1.34-2.45-1.34-3.75,0-.9.25-1.74.76-2.5.5-.76,1.14-1.31,1.92-1.63.7-.28,1.05-.58,1.05-.9,0-.25-.29-.62-.88-1.11-1.87-1.55-2.81-3.16-2.81-4.82,0-1.11.45-2.26,1.35-3.44s2.02-2.09,3.36-2.74c.56-.28.84-.56.84-.83,0-.32-.35-.81-1.05-1.46-2.41-2.2-3.62-4.77-3.62-7.71,0-1.55.43-3.03,1.28-4.44.86-1.41,2.04-2.61,3.57-3.61,3.77-2.43,7.96-3.64,12.55-3.64,1.83,0,3.87.23,6.12.69,2.13.42,3.6.62,4.39.62,2.55,0,5.1-.99,7.63-2.98.56-.42,1-.62,1.3-.62ZM144.65,145.4c-.59,0-.88.34-.88,1.01,0,1.37.75,2.47,2.25,3.31,1.5.84,3.44,1.27,5.83,1.27s4.09-.3,5.4-.9c1.3-.6,1.95-1.45,1.95-2.53,0-.58-.25-1.07-.74-1.48s-1.1-.61-1.83-.61c-.37,0-.91.05-1.62.14-1.31.21-2.78.31-4.39.31-1.2,0-2.34-.06-3.44-.17-.82-.07-1.49-.16-2-.28-.23-.05-.41-.07-.53-.07ZM152.31,113.81c-1.17,0-2.11.44-2.83,1.32s-1.07,2.05-1.07,3.51c0,2.5.39,4.5,1.16,6s1.79,2.26,3.06,2.26,2.23-.47,2.95-1.41,1.09-2.19,1.09-3.77c0-2.48-.38-4.4-1.14-5.78-.76-1.38-1.83-2.09-3.22-2.13Z"/>
    <path class="cls-4" d="M195.19,97.39l-.46,14.54c-.05,1.74.49,2.6,1.62,2.6.56,0,1.11-.38,1.65-1.15,2.27-3.26,5.31-4.89,9.1-4.89s6.69,1.12,8.89,3.37c.98.99,1.68,2.18,2.09,3.54.41,1.37.64,3.32.69,5.87l.32,12.53c.02,1.09.17,1.89.44,2.39s.9,1.15,1.88,1.91c.68.53,1.02,1.17,1.02,1.91,0,2.5-3.82,3.75-11.46,3.75-6.8,0-10.19-1.17-10.19-3.51,0-.39.06-.69.18-.9s.53-.76,1.23-1.67c.98-1.27,1.48-4.45,1.48-9.55,0-3.08-.29-5.32-.88-6.73-.77-1.92-2.16-2.88-4.15-2.88-1.43,0-2.48.51-3.16,1.53-.49.74-.74,2.13-.74,4.17v6.7c.16,2.96.3,4.64.42,5.03s.66,1.12,1.62,2.19c.45.49.67,1.05.67,1.7,0,2.61-3.44,3.92-10.33,3.92-8.06,0-12.09-1.35-12.09-4.06,0-.62.13-1.1.39-1.44s.89-.85,1.9-1.54c.89-.62,1.51-2.31,1.85-5.05s.51-7.28.51-13.62c0-4.97-.14-8.42-.42-10.34-.09-.72-.26-1.24-.51-1.58s-.71-.68-1.39-1.02c-1.45-.74-2.18-1.6-2.18-2.57,0-1.16.55-2.09,1.65-2.81,1.1-.72,3.21-1.49,6.33-2.33,4.22-1.16,7.58-1.74,10.09-1.74,1.36,0,2.02.58,1.97,1.74Z"/>
    <path class="cls-8" d="M245.39,117.59v11.73c0,1.39.35,2.52,1.04,3.4.69.88,1.58,1.32,2.65,1.32.91,0,2.12-.42,3.62-1.25.35-.21.7-.31,1.05-.31.56,0,1.08.34,1.55,1.01s.7,1.4.7,2.19c0,1.43-.8,2.81-2.39,4.13-3.33,2.8-7.36,4.2-12.09,4.2-3.75,0-6.76-1.05-9.03-3.14-2.27-2.09-3.41-4.85-3.41-8.28v-16.04c0-.53-.06-.86-.19-.99s-.46-.19-1-.19h-3.62c-.68,0-1.11-.11-1.3-.33s-.28-.73-.28-1.54v-1.53c.02-.69.29-1.2.81-1.53l16.1-10c.4-.21.89-.31,1.48-.31h2.85c.59,0,.98.13,1.18.4s.3.79.3,1.58v4.69c0,.69.11,1.15.33,1.35s.7.31,1.42.31h6.5c.87,0,1.43.16,1.69.47s.39.98.39,2v2.05c0,1.11-.16,1.88-.49,2.31s-.93.64-1.79.64h-6.36c-.66,0-1.1.12-1.34.35s-.35.67-.35,1.32Z"/>
    <path class="cls-5" d="M267.6,96.18c2.09,0,3.85.74,5.31,2.22,1.94,1.94,2.92,4.7,2.92,8.26,0,2.36-.42,4.9-1.25,7.62-.83,2.72-1.94,5.14-3.32,7.27-1.57,2.41-2.84,3.61-3.8,3.61s-2.26-1.54-3.97-4.62c-1.27-2.27-2.27-4.7-3.01-7.29s-1.11-4.96-1.11-7.12c0-2.64.6-4.85,1.79-6.63,1.48-2.22,3.62-3.33,6.43-3.33ZM267.78,128.98c2.04,0,3.78.75,5.24,2.26,1.45,1.48,2.18,3.22,2.18,5.21s-.75,3.84-2.25,5.33c-1.5,1.49-3.29,2.24-5.38,2.24s-3.78-.68-5.24-2.05c-1.57-1.48-2.35-3.31-2.35-5.48,0-2.01.69-3.71,2.07-5.1,1.55-1.6,3.46-2.39,5.73-2.39Z"/>
  </g>
</svg>