<?xml version="1.0" encoding="UTF-8"?>
<svg id="Layer_1" data-name="Layer 1" xmlns="http://www.w3.org/2000/svg" viewBox="0 0 359.23 215.29">
  <defs>
    <style>
      .cls-1 {
        fill: none;
      }

      .cls-1, .cls-2, .cls-3 {
        stroke: #050505;
        stroke-miterlimit: 10;
      }

      .cls-4 {
        fill: #fff;
      }

      .cls-2 {
        stroke-width: .36px;
      }

      .cls-2, .cls-3, .cls-5 {
        fill: #050505;
      }

      .cls-3 {
        stroke-width: .56px;
      }
    </style>
  </defs>
  <path class="cls-4" d="M359.67,139.02l-1.12-78.63-11.91,9.19c.57-10.36,1.15-30.64,1.62-39.45,1.01-19.24.99-19.44.83-20.76-.47-3.93-3.13-8.7-9.14-9.24-.69-.06-1.54-.09-2.69-.12-1.84-.03-4.4-.01-7.8.05-5.54.12-13.24.36-22.87.72-16.37.63-32.92,1.43-33.09,1.43l-8.25.4-2.98,70.33-73.46-16.33c-4.65-1.83-9.38-3.8-14.06-5.87-21.97-9.74-47.03-15.42-70.51-16.68C49.98,31.72,11.86,52.92,10.27,53.83l-5.21,2.95.33,21.42.52,33.61.61,39.68,137.64,6.08.06,2.86,16.69-2.12,15.85.7c36.62,15.29,71.81,23.03,104.68,23.03,1,0,2-.01,3-.02,26.58-.38,51.52-6.18,70.22-16.35l5.33-2.9-.33-23.75ZM181.73,138.72l-1.36-.58-34.53-1.52-121.3-5.36-.94-61.15c11.61-5.27,41.6-16.72,79.97-15.06,21.5,1.14,44.46,6.35,64.59,15.28,5.38,2.38,10.8,4.64,16.13,6.7l1.34.53,93.85,2.08,3.05-56.82c16.92-.77,36.77-1.54,47.87-1.77-.11,2.13-.25,4.71-.4,7.81-.64,11.98-1.5,27.69-2.23,40.9l-.6,10.94,13.37.3.96,68.34c-20.61,9.38-74.78,25.27-159.75-10.62Z"/>
  <path class="cls-4" d="M103.9,44.56c-52.54-2.26-89.58,18.69-89.58,18.69l.23,14.77c-.15.08-.23.12-.23.12h.23s.26,16.99.26,16.99c-.64.34-.98.53-.98.53l.99.02.24,15.28c-.81.41-1.23.64-1.23.64l1.24.03.46,29.76,137.55,6.07.03,1.28,2.18-.28s0-.32-.02-.91l23.3,1.03c82.37,34.79,142.27,23.84,172.18,7.6l-.24-16.86c.08-.04.16-.08.24-.13h-.24s-.97-68.49-.97-68.49l-12.64-.28c.73-13.21,1.59-28.94,2.22-40.92.56-10.66.94-18.36.9-18.72-.14-1.22-66.13,1.94-66.13,1.94l-1.01,18.77-2.01,37.46-83.66-1.86c-5.16-2-10.41-4.17-15.76-6.54-23.29-10.32-45.55-14.81-65.62-15.88"/>
  <polygon class="cls-4" points="269.43 14.93 344.64 12.71 344.41 39.42 265.77 42.7 269.43 14.93"/>
  <polygon class="cls-4" points="277.34 25.2 335.38 23.49 335.33 29.29 276.48 31.75 277.34 25.2"/>
  <polygon class="cls-4" points="264.98 79.32 267.92 33.51 344.48 31.16 342.3 81.04 264.98 79.32"/>
  <polygon class="cls-4" points="276.44 43.75 334.84 41.96 333.6 70.34 274.82 69.03 276.44 43.75"/>
  <path class="cls-4" d="M350.33,156.26c-30.62,16.63-92.67,27.71-178.08-10.15-85.42-37.87-157.13-4.65-157.13-4.65l-1.21-78.13s71.72-40.57,157.13-2.7c85.42,37.87,147.46,26.78,178.08,10.15l1.21,85.48Z"/>
  <g>
    <g>
      <path class="cls-4" d="M12.93,187.38c-4.22,2.07-7.87,2.18-10.28.07-2.46-2.16-3.26-6.5-2.18-12.02,1.46-7.55,2.18-11.31,3.64-18.81,1.83-9.2,7.72-17.97,14.68-21,3.71-1.62,5.57-2.34,9.28-3.65,7.15-2.52,12.75,2.46,12.75,10.45,0,4.49-1.62,9.02-4.21,12.82-.28,7.73-5.17,15.55-11.4,19.42-2.78,5.64-7.25,10.24-12.29,12.71Z"/>
      <path class="cls-4" d="M9.66,172.87c1.46-7.43,2.19-11.14,3.65-18.52.65-3.2,2.56-6.63,5.49-7.91,3.71-1.62,5.57-2.34,9.28-3.65,1.71-.6,3.27.02,3.27,2.32,0,3.27-2.52,6.97-5.35,8.01-1.92.71-2.89,1.09-4.81,1.88-.26,1.26-.39,1.89-.65,3.15,1.02-.73,1.53-1.08,2.56-1.78.55-.37,1.02-.71,1.5-.9,1.47-.56,2.56.14,2.56,2.09,0,3.12-2.22,6.68-4.71,7.68-.27.11-.75.26-1.26.36-.89.18-1.33.27-2.22.47-.2,1.02-.31,1.54-.51,2.56-.58,2.87-2.28,6.31-5.53,7.91-3.1,1.52-3.85-.77-3.27-3.68Z"/>
      <path class="cls-4" d="M35.68,178.54c-9.94,2.86-17.12-1.72-16.88-12.27.28-12.32,8.07-29.04,21.62-32.4,9.93-2.46,16.71,4.6,16.88,15.2.21,13.01-9.53,25.39-21.62,29.47Z"/>
      <path class="cls-4" d="M28.28,162.55c0-7.91,5.39-16.17,12.14-17.85,4.94-1.23,7.4,1.33,7.4,5.85,0,7.87-5.42,15.23-12.14,17.16-4.94,1.42-7.4-.64-7.4-5.16Z"/>
      <path class="cls-4" d="M37.56,169.33c-6.3,1.71-11.04-1.74-11.04-8.71,0-7.75,5.29-15.83,12.03-17.61,6.3-1.66,11.05,2.81,11.05,9.75,0,7.78-5.29,14.73-12.03,16.57Z"/>
      <path class="cls-4" d="M40.12,154.79c0-.86-.44-1.26-1.57-.96-1.53.41-2.56,1.87-2.56,3.7,0,.9.48,1.26,1.57.97,1.54-.42,2.56-1.88,2.56-3.71Z"/>
      <path class="cls-4" d="M53.32,174.7c-4.64.7-8.82-.64-11.48-3.91-2.73-3.34-3.57-8.28-2.38-14.02.54-2.6.81-3.91,1.34-6.5-.7-1.67-1.08-3.61-1.08-5.74,0-9.02,6.62-17.86,15.07-19.04.94-.13,1.41-.19,2.35-.31,4.08-.5,7.78,1.21,10.13,4.54,2.38,3.37,3.13,7.86,2.09,12.58-.7,3.21-1.04,4.82-1.74,8.04.74,1.75,1.14,3.77,1.14,5.97,0,9.48-6.78,17.09-15.44,18.4Z"/>
      <path class="cls-4" d="M57.34,153.55c-.24,1.04-.2,1.43.44,1.35,1.09-.13,1.5.92,1.5,2.13,0,3.47-2.56,6.34-5.97,6.85-3.31.5-5.7-1.64-4.67-6.5.98-4.69,1.47-7.03,2.46-11.69-1.26-.45-1.91-1.66-1.91-3.21,0-3.23,2.56-5.73,5.59-6.16.94-.13,1.41-.19,2.35-.31,2.01-.25,3.75.99,3.04,4.29-1.13,5.29-1.7,7.94-2.83,13.25Z"/>
      <path class="cls-4" d="M65.46,173.4c-4.64.31-8.82-1.41-11.48-4.92-2.73-3.59-3.57-8.62-2.38-14.24.54-2.55.81-3.83,1.34-6.38-.7-1.74-1.08-3.71-1.08-5.84,0-9.02,6.62-17.23,15.07-17.71.94-.05,1.41-.08,2.35-.12,4.08-.17,7.78,1.83,10.13,5.33,2.38,3.55,3.13,8.09,2.09,12.74-.7,3.16-1.04,4.74-1.74,7.91.74,1.8,1.14,3.85,1.14,6.06,0,9.48-6.78,16.61-15.44,17.18Z"/>
      <path class="cls-4" d="M69.48,152.58c-.24,1.02-.2,1.41.44,1.39,1.09-.04,1.5,1.04,1.5,2.25,0,3.47-2.56,6.13-5.97,6.36-3.31.22-5.7-2.13-4.67-6.9.98-4.6,1.47-6.9,2.46-11.48-1.26-.56-1.91-1.82-1.91-3.38,0-3.23,2.56-5.51,5.59-5.68.94-.05,1.41-.08,2.35-.12,2.01-.08,3.75,1.29,3.04,4.54-1.13,5.2-1.7,7.81-2.83,13.03Z"/>
      <path class="cls-4" d="M79.99,173.09c-9.94-.23-16.9-7.09-16.88-17.87.03-12.26,8.56-25.79,21.62-25.35,10.06.34,16.87,10.07,16.88,19.87,0,12.24-8.76,23.47-21.62,23.35Z"/>
      <path class="cls-4" d="M72.59,154.74c0-7.91,5.39-14.37,12.14-14.04,4.94.24,7.4,3.47,7.4,7.99,0,7.87-5.42,13.73-12.14,13.58-4.94-.11-7.4-3.01-7.4-7.53Z"/>
      <path class="cls-4" d="M81.87,164.46c-6.3-.21-11.04-5.27-11.04-12.24,0-7.75,5.29-14.04,12.03-13.78,6.3.25,11.05,6,11.05,12.95,0,7.78-5.29,13.3-12.03,13.07Z"/>
      <path class="cls-4" d="M84.42,150.7c0-.86-.44-1.39-1.57-1.43-1.53-.06-2.56,1.09-2.56,2.92,0,.9.48,1.41,1.57,1.45,1.54.05,2.56-1.1,2.56-2.94Z"/>
      <path class="cls-4" d="M97.49,174.32c-4.86-.56-9.08-3.31-11.6-7.73-2.44-4.28-2.94-9.67-1.47-15.1-.46-1.48-.71-3.09-.71-4.77,0-9.46,6.78-16.62,15.44-15.56,2.25.28,4.14,1,5.72,1.93,1.59-.49,3.34-.61,5.2-.3,1.5.25,2.92.77,4.24,1.51,1.4-.26,2.9-.25,4.46.07,8.08,1.63,13.85,10.21,13.94,19.73.12,11.69-8.14,24.37-21.07,22.24-2.65-.44-5.11-1.43-7.24-2.82-2.36.84-4.77,1.04-6.91.79Z"/>
      <path class="cls-4" d="M123.24,151.91c0,8.65-5.53,14.68-11.6,13.61-4.06-.71-6.04-3.29-6.58-7.07-1.94,4.5-5.32,5.3-7.57,5.04-3.99-.46-5.49-4.3-3.65-9.27.38-1.04.57-1.56.95-2.59.34-.9.68-1.72-.14-1.81-.82-.08-1.47-.88-1.47-2.44,0-3.04,2.25-5.85,5.97-5.39,4.57.56,5.35,4.61,4.23,8.51-.23.81-.35,1.21-.58,2.02-.48,1.69-.58,2.84.24,2.96,1.06.15,1.64-.97,2.29-3.8.33-1.95.49-2.92.82-4.86.41-2.47,1.88-3.53,3.92-3.19,2.46.42,3.27,2.49,2.63,5.56-1.06,5.06-1.33,7.79.17,8.06,1.02.18,2.15-.93,2.15-3.23s-.65-3.71-.65-5.38c0-2.34,2.01-3.91,4.4-3.43,3.44.7,4.47,3.86,4.47,6.7Z"/>
      <path class="cls-4" d="M138.87,182.43c-4.14-1.08-7.73-3.85-10.11-7.86-2.45-4.13-3.27-9.16-2.24-13.85.1-.46.15-.68.26-1.14-.95-3.55-1.42-5.32-2.37-8.86-.5-1.84-.77-3.72-.77-5.51,0-8.8,6.35-14.6,14.15-12.58,2.46.64,4.77,1.99,6.77,3.86,2.41-.9,4.81-.65,6.7-.1,7.32,2.09,13.06,10.39,13.06,18.73,0,3.95-1.3,7.4-3.67,9.73-2.63,2.64-3.94,3.97-6.56,6.63-.13.59-.2.88-.34,1.47-1.69,7.61-7.67,11.35-14.87,9.47Z"/>
      <path class="cls-4" d="M135.73,165.46c.35-1.56.53-2.34.89-3.91-1.28-4.83-1.92-7.25-3.21-12.07-.2-.75-.31-1.44-.31-2.06,0-3.16,2.39-4.55,4.67-3.96,1.74.45,3.38,2.02,3.96,4.74.49,2.36.74,3.54,1.23,5.9.03,0,.04.01.07.02,1.8-2.26,2.7-3.38,4.5-5.62,1.09-1.33,2.22-1.72,3.72-1.29,2.15.61,3.58,2.86,3.58,5.09,0,1.17-.37,2.38-1.3,3.29-3.25,3.3-4.87,4.96-8.12,8.3-.35,1.55-.53,2.33-.89,3.89-.55,2.46-2.42,4.67-5.66,3.82-3.1-.81-3.68-3.67-3.14-6.15Z"/>
      <path class="cls-4" d="M158.17,187.84c-10.12-3.12-16.71-12.72-16.88-23.12-.19-11.77,9.16-22.78,21.62-18.86,10.14,3.19,16.68,13.05,16.88,23.49.23,11.83-9.24,22.34-21.62,18.49Z"/>
      <path class="cls-4" d="M150.77,167.35c0-7.91,5.39-12.69,12.14-10.65,4.94,1.49,7.4,5.21,7.4,9.73,0,7.87-5.42,12.58-12.14,10.59-4.94-1.46-7.4-5.15-7.4-9.67Z"/>
      <path class="cls-4" d="M160.05,179.71c-6.3-1.88-11.04-8.47-11.04-15.44,0-7.75,5.29-12.34,12.03-10.32,6.3,1.89,11.05,8.6,11.05,15.55,0,7.78-5.29,12.22-12.03,10.21Z"/>
      <path class="cls-4" d="M162.61,166.61c0-.86-.44-1.5-1.57-1.83-1.53-.46-2.56.41-2.56,2.24,0,.9.48,1.54,1.57,1.87,1.54.46,2.56-.44,2.56-2.27Z"/>
      <path class="cls-4" d="M175.67,193.16c-4.86-1.5-9.08-5.25-11.6-10.29-2.44-4.88-2.94-10.41-1.47-15.46-.46-1.6-.71-3.27-.71-4.95,0-9.46,6.78-14.82,15.44-12.14,2.4.74,4.39,1.88,6.03,3.17,1.79-.32,3.79-.17,5.95.49,4.19,1.29,7.97,4.44,10.37,8.68,2.38,4.2,3.14,8.88,2.13,13.19-.61,2.62-.92,3.93-1.53,6.55-.05.91-.07,1.36-.12,2.27-.5,9.38-6.17,14.08-14.13,11.62-1.82-.56-3.53-1.44-5.09-2.59-2.12.24-4.03-.15-5.28-.54Z"/>
      <path class="cls-4" d="M172.02,172.33c.38-.96.57-1.44.95-2.39.34-.83.68-1.58-.14-1.83-.82-.25-1.47-1.19-1.47-2.75,0-3.04,2.25-5.35,5.97-4.2,4.57,1.41,5.36,5.55,4.23,9.26-.23.77-.35,1.15-.58,1.92-.48,1.61-.58,2.74.24,3,1.06.33,1.64-.7,2.05-2.41.5-2.12.76-3.18,1.26-5.3.61-2.54,2.01-3.66,4.77-2.81,2.05.63,4.02,2.6,3.31,5.65-.7,2.98-1.04,4.47-1.74,7.46-.07,1.3-.1,1.96-.17,3.26-.17,3.22-1.4,5.3-4.67,4.29-2.76-.85-3.96-3.02-3.48-6.02.16-1.01.25-1.51.41-2.52-.18-.05-.27-.08-.44-.14-1.98,6.21-5.01,6.12-6.86,5.55-3.99-1.23-5.49-5.43-3.65-10.01Z"/>
      <path class="cls-4" d="M196.11,199.45c-4.36-1.32-8.09-4.42-10.51-8.69-2.41-4.26-3.16-9.05-2.13-13.51.58-2.52.88-3.78,1.46-6.3.05-.91.07-1.37.12-2.28.41-7.8,4.9-14.37,14-11.65,1.86.56,3.45,1.34,4.81,2.24,1.3-.13,2.69,0,4.12.41,1.3.37,2.59.98,3.83,1.78,3.28,2.12,5.96,5.49,7.39,9.49,1.18,3.28,2.04,8.44-.52,14.39-1.54,3.56-4.76,6.68-9.13,7.28-2.05,6.23-6.97,8.79-13.42,6.84Z"/>
      <path class="cls-4" d="M192.66,182.67c.67-2.88,1-4.32,1.67-7.21.07-1.3.1-1.96.17-3.26.17-3.22,1.3-5.33,4.54-4.36,2.97.89,3.99,2.7,3.62,5.63-.16,1.26-.25,1.89-.41,3.15.82-.62,1.54-2.55,2.01-3.65,1.33-3.08,3.34-2.89,4.6-2.06,2.39,1.54,2.42,4.66,1.13,7.65-1.06,2.43-4.33,4.45-7.91,1.52-.53,2.3-.8,3.46-1.33,5.76-.65,2.73-1.98,3.58-4.64,2.78-2.76-.84-4.13-3.01-3.45-5.96Z"/>
      <path class="cls-4" d="M219.63,205.71c-.09-.03-.13-.04-.22-.07-3.99-1.27-7.43-4.23-9.67-8.28-2.35-4.24-3.07-9.1-2.04-13.66,1.41-6.09,2.12-9.13,3.53-15.22,1.7-7.44,7.46-11.27,14.31-9.73,2.41.59,3.62.87,6.03,1.42,11.04,2.63,18.18,12.88,18.49,23.81.38,13.32-10.47,26.16-24.45,23.28-2.39-.6-3.59-.91-5.98-1.54Z"/>
      <path class="cls-4" d="M219.85,194.95c-2.93-.93-3.48-3.7-2.93-6.12,1.41-6.09,2.11-9.13,3.51-15.23.55-2.39,2.25-4.66,5.32-3.97,2.29.56,3.44.83,5.73,1.35,6.48,1.48,9.11,6.13,9.11,11.23,0,9.7-6.72,16.3-14.97,14.23-2.31-.58-3.46-.87-5.76-1.48Z"/>
      <path class="cls-4" d="M214.49,194.98c2.16-9.36,4.32-18.73,6.47-28.1,3.09.81,4.63,1.2,7.72,1.95,5.96,1.56,12.38,7.1,12.38,16.08,0,9.46-5.97,15.22-14.2,13.31-.02,0-.03,0-.06-.01-4.92-1.22-7.38-1.87-12.3-3.22Z"/>
      <path class="cls-4" d="M226.6,187.32c.05.01.08.02.14.03,2.83.66,4.84-.75,4.84-4.53,0-1.91-1.16-2.72-3.07-3.22-.05-.01-.08-.02-.14-.03-.71,3.1-1.06,4.65-1.77,7.75Z"/>
      <path class="cls-4" d="M243.55,211.73c-4.36-.84-8.09-3.62-10.51-7.7-2.41-4.06-3.16-8.81-2.13-13.35.58-2.56.88-3.85,1.46-6.41.05-.92.07-1.37.12-2.29.41-7.83,4.9-14.68,14-13.01,1.86.34,3.45.93,4.81,1.65,1.3-.3,2.69-.36,4.12-.15,1.3.19,2.59.61,3.83,1.22,3.28,1.62,5.96,4.54,7.39,8.3,1.18,3.08,2.04,8.1-.52,14.47-1.54,3.82-4.76,7.48-9.13,8.72-2.05,6.52-6.97,9.79-13.42,8.54Z"/>
      <path class="cls-4" d="M240.11,195.31c.67-2.95,1-4.42,1.67-7.38.07-1.31.1-1.97.17-3.28.17-3.24,1.3-5.45,4.54-4.86,2.97.54,3.99,2.22,3.62,5.19-.16,1.28-.25,1.92-.41,3.2.82-.72,1.54-2.74,2.01-3.91,1.33-3.25,3.34-3.34,4.6-2.69,2.39,1.2,2.42,4.31,1.13,7.48-1.06,2.58-4.33,5.08-7.91,2.6-.53,2.37-.8,3.56-1.33,5.92-.65,2.81-1.98,3.83-4.64,3.31-2.76-.54-4.13-2.58-3.44-5.6Z"/>
      <path class="cls-4" d="M266.54,215.11c-11.37-1.22-18.15-11.82-18.24-22.52-.1-11.58,8.69-21.6,20.63-20.66,8.68.68,17.53,6.47,17.53,17.64,0,2.91-.63,5.62-1.77,7.97.04.5.06,1,.06,1.51,0,9.48-8,17.03-18.21,16.06Z"/>
      <path class="cls-4" d="M257.78,194.07c0-6.27,4.03-11.91,11.15-11.32,5.42.45,8.05,3.38,8.05,6.69s-2.63,5.96-6.55,5.66c-1.47-.11-3.55-.61-4.98-1.57-.1.26-.14.61-.14.84,0,1.36,1.16,2.42,2.63,2.55,1.43.13,2.12-.3,2.73-.67.57-.35,1.16-.73,2.11-.67,1.64.1,2.49,1.47,2.49,3.26,0,3.27-3.92,5.9-8.73,5.45-5.97-.57-8.77-4.72-8.77-10.21Z"/>
      <path class="cls-4" d="M267.9,202.83c-1.39-.12-2.87-.51-4.41-1.16-4.28-1.81-6.41-2.77-10.69-4.78,1.82-4.33,2.73-6.5,4.55-10.87,1.98-4.74,6.26-7.42,10.93-7.02,5.96.51,10.81,5.97,10.81,12.54,0,4.03-1.8,7.7-4.82,9.72-1.82,1.22-4.03,1.77-6.37,1.56h0Z"/>
      <path class="cls-4" d="M269.61,191.03c0-.58-.55-1.13-1.33-1.2-1.23-.11-1.98.91-2.29,1.66,2.49,1.02,3.62.4,3.62-.46Z"/>
      <path class="cls-4" d="M281.83,215.95c-8.28-.1-14.24-8.2-14.28-18.35-.05-11.05,6.47-24.53,18.51-25.04,1.65-.07,3.33.24,4.82.78,1.57-.67,3.29-1.08,5.14-1.22,4.27-.33,8.05,1.34,10.39,4.75,1.41,2.06,3.45,6.57,1.32,13.89-.43,1.47-.64,2.21-1.07,3.67-.13.58-.19.87-.32,1.46-.06,1.15-.09,1.72-.15,2.86-.44,9.16-6.21,16.45-14.03,16.85-1.76.09-3.42-.18-4.94-.77-1.69.75-3.5,1.15-5.4,1.12Z"/>
      <path class="cls-4" d="M277.02,198.22c0-8.1,4.5-14.78,9.04-14.84,2.69-.03,4.71,1.74,3.92,7.27.19,0,.29-.01.48-.02.26-1.24.39-1.86.65-3.11.85-4.01,3.21-4.45,4.91-4.58,1.88-.14,4.06,1,2.76,5.38-.48,1.62-.72,2.43-1.19,4.04-.26,1.16-.39,1.74-.65,2.9-.08,1.57-.12,2.35-.2,3.91-.17,3.52-1.94,5.47-4.57,5.6-1.88.1-4.16-.74-3.55-4.77.16-1.06.25-1.6.41-2.66-.14,0-.2,0-.34.01-1.16,5.49-3.96,7.81-6.86,7.77-2.76-.03-4.81-2.5-4.81-6.91Z"/>
      <path class="cls-4" d="M286.91,206.89c-6.08.11-10.84-5.46-10.84-12.23,0-7.47,5.11-13.03,11.62-13.18,6.16-.14,10.98,4.7,10.98,11.52,0,7.43-5.17,13.77-11.76,13.89Z"/>
      <path class="cls-4" d="M289.19,193.6c0-.86-.55-1.31-1.5-1.28-1.26.03-2.15,1.09-2.15,2.53,0,.94.65,1.24,1.36,1.23,1.33-.02,2.29-1.11,2.29-2.47Z"/>
      <path class="cls-4" d="M302.16,214.91c-4.19.5-7.97-1.27-10.37-4.67-2.38-3.37-3.14-7.82-2.13-12.47.61-2.82.91-4.23,1.52-7.06.05-.93.07-1.39.12-2.31.57-11.03,7.32-16.28,13.76-17.17,2.14-.3,3.94-.17,5.43.19,1.83-1.1,3.67-1.82,5.39-2.2,1.85-.41,3.61-.47,5.21-.2,1.74-1.18,3.5-2.01,5.13-2.5,4.73-1.44,8.87-.59,11.34,2.63,2.48,3.22,2.96,8.31,1.42,14.56.46,1.27.73,2.78.71,4.43-.13,9.48-6.27,19.44-15.45,22.32-2.32.73-4.38.67-6.01.28-1.74,1.26-3.67,2.13-5.72,2.53-1.76.34-3.45.28-5-.15-1.63.95-3.42,1.57-5.34,1.79Z"/>
      <path class="cls-4" d="M298.85,199.8c.7-3.26,1.04-4.89,1.74-8.16.07-1.33.1-2,.17-3.33.17-3.29,1.3-5.84,4.3-6.26,2.76-.38,4.4.68,3.96,3.68-.2,1.36-.31,2.04-.51,3.4.1-.02.14-.02.24-.04,1.54-5.98,4.6-8.49,7.13-9.05,2.8-.61,4.4.79,3.99,5.02.1-.02.14-.04.24-.06,1.36-4.79,3.85-6.98,6.11-7.66,3.82-1.16,5.18,2.07,3.34,7.82-.38,1.2-.57,1.8-.95,3-.34,1.05-.68,2.01.14,1.75.82-.27,1.47.25,1.47,1.81,0,3.04-2.25,6.83-5.97,7.9-4.57,1.31-5.35-2.47-4.23-6.81.23-.9.35-1.35.58-2.25.48-1.88.72-3.11-.1-2.9-.75.19-1.57,1.48-1.98,3.53-.46,2.25-.7,3.37-1.16,5.61-.72,3.44-2.59,5.19-4.84,5.63-2.25.44-4.03-.84-3.38-3.91.6-2.83.9-4.24,1.5-7.08.17-.85.24-1.68-.44-1.56-.82.14-1.57,1.4-1.98,3.37-.5,2.36-.76,3.53-1.26,5.89-.61,2.82-2.01,4.6-4.78,4.93-2.05.24-4.02-.94-3.31-4.28Z"/>
      <path class="cls-4" d="M338.89,205.37c-11.99,4.97-17.36-2.25-17.36-10.3,0-3.19.83-6.32,2.25-9.11,0-.04,0-.08,0-.12.15-11.56,8.93-21.04,19.16-25.63,8.47-3.79,17.05-4.29,17.05,6.47,0,2.22-.45,4.62-1.26,7.03.11.75.19,1.57.16,2.37-.36,12.22-8.64,23.92-20.01,29.28Z"/>
      <path class="cls-4" d="M331.01,192.19c0-2.18,1.36-4.4,3.24-5.1.58-.22,1.19-.22,1.81.13,1.23.65,2.32.48,3.48,0,1.3-.54,2.18-1.29,2.18-1.8,0-.58-1.33-.11-2.59.33-2.99,1.06-5.87.89-5.87-2.97,0-4.71,4.06-9.2,9.69-11.74,4.3-1.94,7.57-2.33,7.57,1.06,0,2.26-1.81,5-3.58,5.87-.65.32-1.31.4-1.91.1-.47-.23-1.26-.42-2.42.1-1.23.55-1.81,1.3-1.81,1.73,0,.9,2.29-.26,3.27-.68,3.14-1.33,5.35-1.17,5.35,2.18,0,5.03-4.57,10.67-10.54,13.14-4.57,1.89-7.88,1.31-7.88-2.35Z"/>
    </g>
    <g>
      <path class="cls-5" d="M9.66,172.87c1.46-7.43,2.19-11.14,3.65-18.52.65-3.2,2.56-6.63,5.49-7.91,3.71-1.62,5.57-2.34,9.28-3.65,1.71-.6,3.27.02,3.27,2.32,0,3.27-2.52,6.97-5.35,8.01-1.92.71-2.89,1.09-4.81,1.88-.26,1.26-.39,1.89-.65,3.15,1.02-.73,1.53-1.08,2.56-1.78.55-.37,1.02-.71,1.5-.9,1.47-.56,2.56.14,2.56,2.09,0,3.12-2.22,6.68-4.71,7.68-.27.11-.75.26-1.26.36-.89.18-1.33.27-2.22.47-.2,1.02-.31,1.54-.51,2.56-.58,2.87-2.28,6.31-5.53,7.91-3.1,1.52-3.85-.77-3.27-3.68Z"/>
      <path class="cls-5" d="M28.28,162.55c0-7.91,5.39-16.17,12.14-17.85,4.94-1.23,7.4,1.33,7.4,5.85,0,7.87-5.42,15.23-12.14,17.16-4.94,1.42-7.4-.64-7.4-5.16ZM40.12,154.79c0-.86-.44-1.26-1.57-.96-1.53.41-2.56,1.87-2.56,3.7,0,.9.48,1.26,1.57.97,1.54-.42,2.56-1.88,2.56-3.71Z"/>
      <path class="cls-5" d="M57.34,153.55c-.24,1.04-.2,1.43.44,1.35,1.09-.13,1.5.92,1.5,2.13,0,3.47-2.56,6.34-5.97,6.85-3.31.5-5.7-1.64-4.67-6.5.98-4.69,1.47-7.03,2.46-11.69-1.26-.45-1.91-1.66-1.91-3.21,0-3.23,2.56-5.73,5.59-6.16.94-.13,1.41-.19,2.35-.31,2.01-.25,3.75.99,3.04,4.29-1.13,5.29-1.7,7.94-2.83,13.25Z"/>
      <path class="cls-5" d="M69.48,152.58c-.24,1.02-.2,1.41.44,1.39,1.09-.04,1.5,1.04,1.5,2.25,0,3.47-2.56,6.13-5.97,6.36-3.31.22-5.7-2.13-4.67-6.9.98-4.6,1.47-6.9,2.46-11.48-1.26-.56-1.91-1.82-1.91-3.38,0-3.23,2.56-5.51,5.59-5.68.94-.05,1.41-.08,2.35-.12,2.01-.08,3.75,1.29,3.04,4.54-1.13,5.2-1.7,7.81-2.83,13.03Z"/>
      <path class="cls-5" d="M72.59,154.74c0-7.91,5.39-14.37,12.14-14.04,4.94.24,7.4,3.47,7.4,7.99,0,7.87-5.42,13.73-12.14,13.58-4.94-.11-7.4-3.01-7.4-7.53ZM84.42,150.7c0-.86-.44-1.39-1.57-1.43-1.53-.06-2.56,1.09-2.56,2.92,0,.9.48,1.41,1.57,1.45,1.54.05,2.56-1.1,2.56-2.94Z"/>
      <path class="cls-5" d="M123.24,151.91c0,8.65-5.53,14.68-11.6,13.61-4.06-.71-6.04-3.29-6.58-7.07-1.94,4.5-5.32,5.3-7.57,5.04-3.99-.46-5.49-4.3-3.65-9.27.38-1.04.57-1.56.95-2.59.34-.9.68-1.72-.14-1.81-.82-.08-1.47-.88-1.47-2.44,0-3.04,2.25-5.85,5.97-5.39,4.57.56,5.35,4.61,4.23,8.51-.23.81-.35,1.21-.58,2.02-.48,1.69-.58,2.84.24,2.96,1.06.15,1.64-.97,2.29-3.8.33-1.95.49-2.92.82-4.86.41-2.47,1.88-3.53,3.92-3.19,2.46.42,3.27,2.49,2.63,5.56-1.06,5.06-1.33,7.79.17,8.06,1.02.18,2.15-.93,2.15-3.23s-.65-3.71-.65-5.38c0-2.34,2.01-3.91,4.4-3.43,3.44.7,4.47,3.86,4.47,6.7Z"/>
      <path class="cls-5" d="M135.73,165.46c.35-1.56.53-2.34.89-3.91-1.28-4.83-1.92-7.25-3.21-12.07-.2-.75-.31-1.44-.31-2.06,0-3.16,2.39-4.55,4.67-3.96,1.74.45,3.38,2.02,3.96,4.74.49,2.36.74,3.54,1.23,5.9.03,0,.04.01.07.02,1.8-2.26,2.7-3.38,4.5-5.62,1.09-1.33,2.22-1.72,3.72-1.29,2.15.61,3.58,2.86,3.58,5.09,0,1.17-.37,2.38-1.3,3.29-3.25,3.3-4.87,4.96-8.12,8.3-.35,1.55-.53,2.33-.89,3.89-.55,2.46-2.42,4.67-5.66,3.82-3.1-.81-3.68-3.67-3.14-6.15Z"/>
      <path class="cls-5" d="M150.77,167.35c0-7.91,5.39-12.69,12.14-10.65,4.94,1.49,7.4,5.21,7.4,9.73,0,7.87-5.42,12.58-12.14,10.59-4.94-1.46-7.4-5.15-7.4-9.67ZM162.61,166.61c0-.86-.44-1.5-1.57-1.83-1.53-.46-2.56.41-2.56,2.24,0,.9.48,1.54,1.57,1.87,1.54.46,2.56-.44,2.56-2.27Z"/>
      <path class="cls-5" d="M172.02,172.33c.38-.96.57-1.44.95-2.39.34-.83.68-1.58-.14-1.83-.82-.25-1.47-1.19-1.47-2.75,0-3.04,2.25-5.35,5.97-4.2,4.57,1.41,5.36,5.55,4.23,9.26-.23.77-.35,1.15-.58,1.92-.48,1.61-.58,2.74.24,3,1.06.33,1.64-.7,2.05-2.41.5-2.12.76-3.18,1.26-5.3.61-2.54,2.01-3.66,4.77-2.81,2.05.63,4.02,2.6,3.31,5.65-.7,2.98-1.04,4.47-1.74,7.46-.07,1.3-.1,1.96-.17,3.26-.17,3.22-1.4,5.3-4.67,4.29-2.76-.85-3.96-3.02-3.48-6.02.16-1.01.25-1.51.41-2.52-.18-.05-.27-.08-.44-.14-1.98,6.21-5.01,6.12-6.86,5.55-3.99-1.23-5.49-5.43-3.65-10.01Z"/>
      <path class="cls-5" d="M192.66,182.67c.67-2.88,1-4.32,1.67-7.21.07-1.3.1-1.96.17-3.26.17-3.22,1.3-5.33,4.54-4.36,2.97.89,3.99,2.7,3.62,5.63-.16,1.26-.25,1.89-.41,3.15.82-.62,1.54-2.55,2.01-3.65,1.33-3.08,3.34-2.89,4.6-2.06,2.39,1.54,2.42,4.66,1.13,7.65-1.06,2.43-4.33,4.45-7.91,1.52-.53,2.3-.8,3.46-1.33,5.76-.65,2.73-1.98,3.58-4.64,2.78-2.76-.84-4.13-3.01-3.45-5.96Z"/>
      <path class="cls-5" d="M219.85,194.95c-2.93-.93-3.48-3.7-2.93-6.12,1.41-6.09,2.11-9.13,3.51-15.23.55-2.39,2.25-4.66,5.32-3.97,2.29.56,3.44.83,5.73,1.35,6.48,1.48,9.11,6.13,9.11,11.23,0,9.7-6.72,16.3-14.97,14.23-2.31-.58-3.46-.87-5.76-1.48ZM226.6,187.32c.05.01.08.02.14.03,2.83.66,4.84-.75,4.84-4.53,0-1.91-1.16-2.72-3.07-3.22-.05-.01-.08-.02-.14-.03-.71,3.1-1.06,4.65-1.77,7.75Z"/>
      <path class="cls-5" d="M240.11,195.31c.67-2.95,1-4.42,1.67-7.38.07-1.31.1-1.97.17-3.28.17-3.24,1.3-5.45,4.54-4.86,2.97.54,3.99,2.22,3.62,5.19-.16,1.28-.25,1.92-.41,3.2.82-.72,1.54-2.74,2.01-3.91,1.33-3.25,3.34-3.34,4.6-2.69,2.39,1.2,2.42,4.31,1.13,7.48-1.06,2.58-4.33,5.08-7.91,2.6-.53,2.37-.8,3.56-1.33,5.92-.65,2.81-1.98,3.83-4.64,3.31-2.76-.54-4.13-2.58-3.44-5.6Z"/>
      <path class="cls-5" d="M257.78,194.07c0-6.27,4.03-11.91,11.15-11.32,5.42.45,8.05,3.38,8.05,6.69s-2.63,5.96-6.55,5.66c-1.47-.11-3.55-.61-4.98-1.57-.1.26-.14.61-.14.84,0,1.36,1.16,2.42,2.63,2.55,1.43.13,2.12-.3,2.73-.67.57-.35,1.16-.73,2.11-.67,1.64.1,2.49,1.47,2.49,3.26,0,3.27-3.92,5.9-8.73,5.45-5.97-.57-8.77-4.72-8.77-10.21ZM269.61,191.03c0-.58-.55-1.13-1.33-1.2-1.23-.11-1.98.91-2.29,1.66,2.49,1.02,3.62.4,3.62-.46Z"/>
      <path class="cls-5" d="M277.02,198.22c0-8.1,4.5-14.78,9.04-14.84,2.69-.03,4.71,1.74,3.92,7.27.19,0,.29-.01.48-.02.26-1.24.39-1.86.65-3.11.85-4.01,3.21-4.45,4.91-4.58,1.88-.14,4.06,1,2.76,5.38-.48,1.62-.72,2.43-1.19,4.04-.26,1.16-.39,1.74-.65,2.9-.08,1.57-.12,2.35-.2,3.91-.17,3.52-1.94,5.47-4.57,5.6-1.88.1-4.16-.74-3.55-4.77.16-1.06.25-1.6.41-2.66-.14,0-.2,0-.34.01-1.16,5.49-3.96,7.81-6.86,7.77-2.76-.03-4.81-2.5-4.81-6.91ZM289.19,193.6c0-.86-.55-1.31-1.5-1.28-1.26.03-2.15,1.09-2.15,2.53,0,.94.65,1.24,1.36,1.23,1.33-.02,2.29-1.11,2.29-2.47Z"/>
      <path class="cls-5" d="M298.85,199.8c.7-3.26,1.04-4.89,1.74-8.16.07-1.33.1-2,.17-3.33.17-3.29,1.3-5.84,4.3-6.26,2.76-.38,4.4.68,3.96,3.68-.2,1.36-.31,2.04-.51,3.4.1-.02.14-.02.24-.04,1.54-5.98,4.6-8.49,7.13-9.05,2.8-.61,4.4.79,3.99,5.02.1-.02.14-.04.24-.06,1.36-4.79,3.85-6.98,6.11-7.66,3.82-1.16,5.18,2.07,3.34,7.82-.38,1.2-.57,1.8-.95,3-.34,1.05-.68,2.01.14,1.75.82-.27,1.47.25,1.47,1.81,0,3.04-2.25,6.83-5.97,7.9-4.57,1.31-5.35-2.47-4.23-6.81.23-.9.35-1.35.58-2.25.48-1.88.72-3.11-.1-2.9-.75.19-1.57,1.48-1.98,3.53-.46,2.25-.7,3.37-1.16,5.61-.72,3.44-2.59,5.19-4.84,5.63-2.25.44-4.03-.84-3.38-3.91.6-2.83.9-4.24,1.5-7.08.17-.85.24-1.68-.44-1.56-.82.14-1.57,1.4-1.98,3.37-.5,2.36-.76,3.53-1.26,5.89-.61,2.82-2.01,4.6-4.78,4.93-2.05.24-4.02-.94-3.31-4.28Z"/>
      <path class="cls-5" d="M331.01,192.19c0-2.18,1.36-4.4,3.24-5.1.58-.22,1.19-.22,1.81.13,1.23.65,2.32.48,3.48,0,1.3-.54,2.18-1.29,2.18-1.8,0-.58-1.33-.11-2.59.33-2.99,1.06-5.87.89-5.87-2.97,0-4.71,4.06-9.2,9.69-11.74,4.3-1.94,7.57-2.33,7.57,1.06,0,2.26-1.81,5-3.58,5.87-.65.32-1.31.4-1.91.1-.47-.23-1.26-.42-2.42.1-1.23.55-1.81,1.3-1.81,1.73,0,.9,2.29-.26,3.27-.68,3.14-1.33,5.35-1.17,5.35,2.18,0,5.03-4.57,10.67-10.54,13.14-4.57,1.89-7.88,1.31-7.88-2.35Z"/>
    </g>
  </g>
  <path class="cls-5" d="M335.05,96.54s.33-5.97.82-14.72c.79-14.47,2.01-36.56,2.85-52.24.56-10.66.94-18.36.9-18.72-.14-1.22-66.13,1.94-66.13,1.94l-1.01,18.77-2.45,45.81-.44,8.16s-7.2-5.35-16.88-.91c-9.48,4.35-11.43,12.29-9.74,18.46,0,0,.58,11.06,17.69,7.8,17.11-3.26,13.23-33.24,13.23-33.24l2.17-33.82,58.4-1.79-1.73,39.59-.08,1.83s-9.28-9.94-21.91,3.79c-12.64,13.74-.36,21.57-.36,21.57,0,0,12.85,6.48,23.99-10.73l.72-1.56ZM276.06,31.83l.86-6.55,58.05-1.71-.05,5.8-58.86,2.46Z"/>
  <path class="cls-5" d="M102.7,77.76c0,.37-3.44-3.2-7.3-1.23-3.87,1.97-6.76,4.43-5.91,10.34,0,0,.86,4.55,5.69,4.31,4.83-.25,7.84-3.32,8.59-6.28.75-2.95,1.72-43.21,1.72-43.21l-1.93-.25-.86,36.31Z"/>
  <path class="cls-2" d="M52.98,60.45c.57-5.25-3.15-7.65-3.15-7.65-7.44-3.39-8.77,1.31-8.77,1.31-2.38,6.45,3.43,9.62,3.43,9.62,5.15,1.86,7.25-.66,7.25-.66l.1,31.16,1.52-.11s-.95-28.43-.38-33.67ZM51.74,60.99c-.04.22-2,3.83-6.96.22-4.96-3.61-2.48-6.67-2.48-6.67,0,0,2.77-2.73,7.06.55,0,0,2.96,2.73,2.39,5.9Z"/>
  <path class="cls-5" d="M151.73,107.94c0-.42-3.87,3.6-8.22,1.39-4.35-2.22-7.62-4.99-6.65-11.64,0,0,.97-5.13,6.41-4.85,5.44.28,8.82,3.74,9.67,7.07.85,3.33,1.93,48.64,1.93,48.64l-2.18.28-.97-40.88Z"/>
  <path class="cls-3" d="M219.62,68.84l-2.79-.2-.17,57.11s-3.85-4.61-13.29-1.2c0,0-10.66,5.81-6.29,17.64,0,0,2.44,8.62,16.08,2.4,0,0,6.81-4.41,5.77-14.03-1.05-9.62.7-61.72.7-61.72ZM212.28,140.38c-7.86,6.02-12.93,1.01-12.93,1.01,0,0-4.54-5.62,4.54-12.23,9.09-6.61,12.69,0,12.76.4,1.05,5.81-4.37,10.82-4.37,10.82Z"/>
  <path class="cls-1" d="M15.12,141.46s71.72-33.22,157.13,4.65c85.42,37.87,147.46,26.78,178.08,10.15"/>
  <path class="cls-1" d="M15.12,129.72s71.72-38.47,157.13-.6c85.42,37.87,147.46,26.78,178.08,10.15"/>
  <path class="cls-1" d="M13.42,111.67s71.72-39.52,157.13-1.65c85.42,37.87,147.46,26.78,178.08,10.15"/>
  <path class="cls-1" d="M13.42,95.74s71.72-40.57,157.13-2.7c85.42,37.87,147.46,26.78,178.08,10.15"/>
  <path class="cls-1" d="M13.91,78.22s71.72-38.47,157.13-.6c85.42,37.87,147.46,26.78,178.08,10.15"/>
  <path class="cls-1" d="M349.12,70.78c-30.62,16.63-92.67,27.71-178.08-10.15C85.62,22.76,13.91,63.33,13.91,63.33"/>
</svg>