<?xml version="1.0" encoding="UTF-8"?>
<svg id="Layer_1" data-name="Layer 1" xmlns="http://www.w3.org/2000/svg" viewBox="0 0 288 216">
  <defs>
    <style>
      .cls-1 {
        fill: #891f57;
      }

      .cls-2 {
        fill: #fff;
      }

      .cls-3 {
        fill: #e8a123;
      }

      .cls-4 {
        fill: #5ab3e5;
      }

      .cls-5 {
        fill: #f2ea2b;
      }

      .cls-6 {
        fill: #ab469a;
      }

      .cls-7 {
        fill: #0773b4;
      }

      .cls-8 {
        fill: #050505;
      }

      .cls-9 {
        fill: #159f75;
      }
    </style>
  </defs>
  <path class="cls-2" d="M213.42,216c-15.51,0-28.74-5.49-35.26-14.15-17.89-2.87-29.6-13.04-29.6-26.2,0-11.29,8.72-20.4,22.4-24.56-3.32-13.68-14.6-23.81-27.86-23.81s-24.3,9.91-27.75,23.37c17.65,2.8,29.67,13.01,29.67,26.23,0,14.41-14.4,25.3-34.77,26.81-7.12,6.93-19.09,11.08-32.61,11.08-15.52,0-28.74-5.49-35.26-14.15-17.89-2.87-29.6-13.04-29.6-26.2,0-12.22,10.57-22.08,26.54-25.61,2.1-27.31,12.71-52.67,30.35-72.17,19.58-21.65,45.55-33.57,73.13-33.57,54.89,0,100.14,47.95,103.65,108.25,20.16,1.63,34.33,12.43,34.33,26.78s-14.4,25.3-34.77,26.81c-7.12,6.93-19.09,11.08-32.61,11.08Z"/>
  <path class="cls-2" d="M241.58,161.43c-1.16-1.12-2.56-2.15-4.15-3.09-.26-58.01-42.53-104.95-94.62-104.95s-94.14,46.7-94.61,104.51c-14.78,1.13-26.16,8.09-26.16,16.52s11.16,15.26,25.74,16.49c2.67,7.72,15.03,13.55,29.86,13.55,13.08,0,24.24-4.54,28.53-10.9,16.42-.23,29.59-7.6,29.59-16.67s-13.38-16.55-29.96-16.67c-.42-.4-.87-.79-1.35-1.17h.54c.2-23.27,17.18-42.07,38.11-42.07s37.91,18.79,38.11,42.07h4.38c-15.56.73-27.78,7.89-27.78,16.62s11.16,15.26,25.74,16.49c2.67,7.72,15.03,13.55,29.86,13.55,13.08,0,24.24-4.54,28.53-10.9,16.42-.23,29.59-7.6,29.59-16.67s-13.38-16.55-29.96-16.67ZM196.74,140.48c1.37,4.77,2.23,9.78,2.54,14.97-.04.01-.09.03-.13.04-.26-5.2-1.08-10.23-2.41-15.01ZM192.39,158.63s-.04.02-.05.03c0-1.91-.11-3.81-.29-5.67.2,1.85.31,3.73.34,5.63ZM206.8,151.2c.09.8.15,1.6.21,2.41,0,0-.02,0-.03,0-.05-.81-.11-1.61-.19-2.41ZM225.34,148.52c.2,1.83.36,3.68.46,5.54-.02,0-.04,0-.05-.01-.08-1.86-.22-3.7-.41-5.53ZM186.48,158.99h.12s-.08,0-.12,0c0,0,0,0,0,0ZM189.63,158.99h2.19s-.1.06-.14.09c-.68-.04-1.36-.07-2.05-.09Z"/>
  <path class="cls-6" d="M142.81,53.4c-52.26,0-94.62,47.23-94.62,105.49h11.98c.44-50.62,37.38-91.5,82.89-91.5s82.45,40.88,82.89,91.5h11.48c0-58.27-42.37-105.49-94.62-105.49Z"/>
  <path class="cls-3" d="M142.87,66.3c-45.84,0-82.99,41.42-82.99,92.52h10.51c.38-44.4,32.78-80.25,72.7-80.25s72.31,35.85,72.7,80.25h10.07c0-51.1-37.16-92.52-82.99-92.52Z"/>
  <path class="cls-5" d="M142.99,77.49c-40.4,0-73.14,36.51-73.14,81.54h9.26c.34-39.13,28.89-70.73,64.07-70.73s63.74,31.6,64.07,70.73h8.87c0-45.04-32.75-81.54-73.14-81.54Z"/>
  <path class="cls-9" d="M143.04,87.46c-35.43,0-64.15,32.02-64.15,71.52h8.12c.3-34.32,25.34-62.03,56.2-62.03s55.9,27.72,56.2,62.03h7.78c0-39.5-28.72-71.52-64.15-71.52Z"/>
  <path class="cls-4" d="M142.88,96.2c-31.13,0-56.36,28.13-56.36,62.84h7.14c.26-30.15,22.27-54.5,49.37-54.5s49.11,24.35,49.37,54.5h6.84c0-34.71-25.24-62.84-56.36-62.84Z"/>
  <path class="cls-7" d="M142.91,103.88c-27.3,0-49.43,24.67-49.43,55.11h6.26c.23-26.44,19.53-47.8,43.3-47.8s43.07,21.36,43.3,47.8h6c0-30.44-22.13-55.11-49.43-55.11Z"/>
  <path class="cls-1" d="M142.98,110.54c-24.03,0-43.5,21.71-43.5,48.5h5.51c.2-23.27,17.18-42.07,38.11-42.07s37.91,18.79,38.11,42.07h5.28c0-26.79-19.48-48.5-43.5-48.5Z"/>
  <path class="cls-2" d="M135.77,176.88c0,9.07-13.18,16.44-29.59,16.67-4.28,6.37-15.44,10.9-28.53,10.9-14.83,0-27.19-5.83-29.86-13.55-14.58-1.23-25.74-8.14-25.74-16.49,0-9.21,13.61-16.68,30.41-16.68,1.18,0,2.32.04,3.46.11,5.58-3.72,14.02-6.09,23.47-6.09,11.33,0,21.2,3.39,26.43,8.44,16.58.12,29.96,7.54,29.96,16.67Z"/>
  <path class="cls-2" d="M213.42,216c-15.51,0-28.74-5.49-35.26-14.15-17.89-2.87-29.6-13.04-29.6-26.2,0-15.64,16.68-27,39.66-27,.43,0,.85,0,1.28.01,7-3.88,15.98-5.99,25.65-5.99,11.59,0,22.35,3.14,29.62,8.53,21.06,1.14,36.03,12.15,36.03,26.89s-14.4,25.3-34.77,26.81c-7.12,6.93-19.09,11.08-32.61,11.08Z"/>
  <path class="cls-2" d="M271.54,178.11c0,9.07-13.18,16.44-29.59,16.67-4.28,6.37-15.44,10.9-28.53,10.9-14.83,0-27.19-5.83-29.86-13.55-14.58-1.23-25.74-8.14-25.74-16.49,0-9.21,13.61-16.68,30.41-16.68,1.18,0,2.32.04,3.46.11,5.58-3.72,14.02-6.09,23.47-6.09,11.33,0,21.2,3.39,26.43,8.44,16.58.12,29.96,7.54,29.96,16.67Z"/>
  <g>
    <g>
      <path class="cls-2" d="M42.85,138.74c-1.18,8.14-3.62,23.44-13.44,25.85-7.24,0-10.86,0-18.1,0-13.49-4.7-10.4-27.73-9.43-38.2.67-3.86,1.05-5.76,1.89-9.48,2.47-7.26,8.95-27.94,19.81-22.69,1.65.8,2.97,2.76,3.79,5,1.03,0,2.02.28,2.95.81,2.67,1.54,4.22,4.85,4.87,9.09,1.18.61,1.78.92,2.96,1.53,7.54,7.11,6.63,18.63,4.7,28.09Z"/>
      <path class="cls-2" d="M48.65,116.13c-3.7,8.89-8.39,25.39-20.77,25.17-3.7-.75-5.54-1.13-9.24-1.88-13.77-6.81-9.14-30.29-5.12-41.42.38-1.06.57-1.59.97-2.63,4.55-9.22,14.35-29.59,27.67-21.07,3,2.69,4.49,4.04,7.49,6.73,8.07,8.91,3.71,23.5-.29,33.18-.29.76-.43,1.14-.7,1.91Z"/>
      <path class="cls-2" d="M56.5,98.85c-5.9,10.5-13.16,17.57-19.31,14.58-7.24-3.51-10.86-5.27-18.09-8.78-9.12-7.31-3.29-25.73,1.69-33.07,5.36-7.9,13.3-20.33,24.68-14.18,5.69,6.28,8.54,9.42,14.23,15.71,4.15,4.58,3.51,13.82-3.19,25.75Z"/>
      <path class="cls-2" d="M62.88,88.86c-6.8,9.4-14.63,15.12-20.48,11.37-6.88-4.42-10.32-6.63-17.2-11.05-9.35-8.78-.2-25.11,4.61-31.74,5.08-6.99,15.37-18.06,25.79-10.59,5.1,6.9,7.65,10.35,12.74,17.25,3.72,5.03,2.25,14.08-5.47,24.76Z"/>
      <path class="cls-2" d="M72.96,76.99c-6.13,6.59-17.45,15.7-26.77,9.43-3.11-2.52-4.66-3.78-7.77-6.3-9.69-10.07.29-28.33,8.49-35.9.69-.69,1.03-1.03,1.73-1.71,7.77-7.34,24.31-16.89,32.09-4.6,1.84,3.78,2.77,5.67,4.61,9.44,4.3,10.62-3.67,21.56-11.14,28.38-.51.49-.76.74-1.26,1.24Z"/>
      <path class="cls-2" d="M99.09,58.27c-1.36.66-3.02,1.37-4.9,1.93-1.33,1.16-2.78,2.24-4.36,3.24-3.04,1.93-7.64,4.29-13.34,4.6-.06,0-.09,0-.15,0-8.92.38-15.06-1.23-20.67-7.97-1.27-1.52-1.9-2.28-3.17-3.81-6.06-9.65,4.19-21.43,11.57-26.6,2.15-1.5,4.26-2.74,6.27-3.67,1.75-1.45,3.72-2.82,5.89-4.03,2.28-1.27,4.48-2.24,6.56-2.93,1.87-1.25,4.01-2.36,6.22-3.35,8.82-3.97,21.48-5.05,26.09,5.1.39,2.02.58,3.03.97,5.05,1.46,7.65.39,14.27-5.73,23.1-2.73,3.94-6.53,7.03-11.24,9.33Z"/>
      <path class="cls-2" d="M122.64,50.27c-10.18,2.07-18.95.06-21.35-6.98-.44-1.3-.66-1.95-1.11-3.25-4.9-2.68-8.84-6.02-11.57-12.99-.31-.79-.47-1.19-.78-1.98-2.96-10.98,10.96-18.53,19.38-20.57,2.5-.61,4.92-1.03,7.13-1.19,2.11-.73,4.51-1.28,7.02-1.7,8.28-1.4,24.18.05,25.04,11.41-.02.86-.03,1.29-.05,2.15-.19,7.56-2.7,12.23-6.32,16.66.03,1.4.04,2.11.07,3.51.14,7.5-7.31,12.87-17.47,14.93Z"/>
      <path class="cls-2" d="M141.53,48.27c-9.69.4-22.29-2.58-25.07-13.38-.84-4.18-1.26-6.27-2.1-10.45-1.61-13.57,15.87-20.14,26.79-19.68.91,0,1.37-.01,2.28,0,11.13.27,28.37,5.44,26.86,19.56-.83,4.18-1.24,6.28-2.06,10.46-2.74,10.82-15.33,13.85-25.02,13.49-.66,0-.99,0-1.66,0Z"/>
      <path class="cls-2" d="M167.33,51.38c-1.64-.42-3.19-.92-4.64-1.5-1.55-.04-3.12-.18-4.69-.42-8.5-1.33-18.66-5.21-18.97-16.66-.16-6-.24-9-.4-15,.76-11.24,15.83-12.91,24.22-11.55,2.49.4,4.83.96,6.9,1.68,2.18.14,4.51.54,6.85,1.1,8.39,2.02,21.77,9.53,18.78,20.34-2.53,6.47-3.79,9.7-6.31,16.17-2.31,5.93-10.24,8.78-21.72,5.83Z"/>
      <path class="cls-2" d="M177.21,54.47c-9.83-3.66-16.56-10.1-15.45-17.53,1.04-6.92,1.56-10.38,2.6-17.3,2.72-10.97,18.02-9.37,25.8-6.36,2.18.85,4.21,1.78,5.98,2.8,1.91.55,3.84,1.27,5.69,2.18,9.37,4.64,20.29,15.2,14.38,26.57-.58.95-.88,1.42-1.46,2.37-2.39,3.89-7.95,5.23-15.17,3.34-.09.18-.14.28-.23.46-2.83,5.67-10.98,7.63-22.15,3.47Z"/>
      <path class="cls-2" d="M199.13,65.98c-8.76-6.14-13.94-14.04-11.32-20.97,2.91-7.7,4.37-11.54,7.28-19.24,5.46-11.29,21.52-5.18,28.72.33,2.25,1.62,3.36,2.46,5.54,4.2,8.93,7.45,21.22,23.04,12.41,34.75-1.69,1.7-2.54,2.54-4.23,4.24-4.23,4.24-10.42,3.61-17.19.26-4.27,3.73-11.97,2.92-21.21-3.57Z"/>
      <path class="cls-2" d="M221.47,87.77c-1.06-1.42-2.01-2.83-2.86-4.24-1.16-1.03-2.28-2.16-3.36-3.32-6.16-6.65-11.7-17.06-7.19-26.12.31-.52.47-.79.78-1.31.89-1.5,2.09-2.67,3.56-3.48.19-1.12.55-2.15,1.09-3.04l1.32-2.21c8.38-11.23,25.08.52,30.97,8.42.64.76.96,1.14,1.58,1.91,7.12,9.13,16.45,27.2,5.5,36.99-4.38,2.91-6.58,4.36-10.96,7.27-4.93,3.27-12.68-.46-20.43-10.88Z"/>
      <path class="cls-2" d="M230.16,101.63c-5.13-9.32-9.6-22.25-2.17-31.68,1.86-2.06,2.79-3.09,4.65-5.15.17-2.39.9-4.5,2.29-6.1,1.61-1.85,3.73-2.62,6.1-2.47,10.15-1.63,17.77,7.06,22.29,15.24,5.5,9.96,7.33,20.52,5.74,26.79.32,6.91-1.65,12.03-5.18,13.57-2.8,1.22-5.93,0-8.95-2.65-.64,4.07-2.41,6.98-5.01,8.13-6.71,2.95-13.89-4.49-19.76-15.68Z"/>
      <path class="cls-2" d="M239.31,125.03c-.62-2.27-1.12-4.37-1.5-6.34-.85-1.75-1.66-3.71-2.5-5.75-3.44-8.36-6.07-18.75-.17-26.61,6.4-5.41,9.6-8.12,16.01-13.53,12.37-4.14,18.68,10.12,22.64,18.71,4.63,10.05,4.67,20.61,3.25,26.7,1.26,8.53,1.51,23.75-9,26.89-5.26.82-7.9,1.23-13.16,2.04-9.72-2.27-13.44-13.24-15.56-22.12Z"/>
      <path class="cls-2" d="M242.27,138.48c-1.61-8.72-2.71-23.64,5.16-28.65,1.43-.91,3.5-.91,5.42-.15.03-.02,10.9-7.79,10.9-7.79,3.01-2.18,6.88-1.32,10.77,3.16,3.92,4.53,7.42,12.48,9.1,22.5,1.69,10.07,1.16,20.01-.92,26.94-2.05,6.85-5.3,10.12-8.73,9.46,0,0-12.52-2.29-12.56-2.3-1.5,1.91-3.46,3.14-5,2.93-8.81-1.17-12.82-17.65-14.14-26.11Z"/>
      <path class="cls-2" d="M30.7,142.66c-7.16-1.4-10.73-2.1-17.89-3.51-2.28-.45-3.17-4.24-2.11-10.37.63-3.62.99-5.4,1.77-8.88.86-3.81,2.26-5.65,4.09-4.93,1.8.71,2.06,3.1,1.24,6.76-.22.95-.32,1.43-.52,2.4,1.18.38,1.78.57,2.96.96.13-.6.19-.89.32-1.49.67-3.04,1.84-4.51,3.37-3.93,1.56.59,1.83,2.53,1.19,5.46-.13.57-.19.86-.31,1.43,3.25,1.05,4.87,1.57,8.12,2.62,1.48.48,1.82,2.77,1.07,7.26-.73,4.42-1.79,6.51-3.3,6.21Z"/>
      <path class="cls-2" d="M31.79,120.97c-3.57-1.41-5.36-2.11-8.93-3.51-3.35-1.32-4.02-6.77-1.02-15.15.35-.99.54-1.48.9-2.46,3.12-8.27,6.76-10.98,9.84-8.92,3.28,2.2,4.92,3.3,8.2,5.49,3.08,2.06,2.94,6.33.3,13.33-.31.83-.47,1.24-.77,2.08-2.54,7.1-5.18,10.45-8.53,9.14ZM36.35,108.34c.16-.45.11-.86-.22-1.04-3.42-1.84-5.13-2.76-8.55-4.6-.33-.18-.67.06-.85.54-.04.11-.06.17-.1.28-.18.49-.1.95.23,1.12,3.44,1.78,5.16,2.67,8.6,4.46.33.17.63-.06.79-.51.04-.1.06-.15.09-.26Z"/>
      <path class="cls-2" d="M44.14,96.61c-6.76-4.67-10.14-7-16.9-11.67-1.36-.94-1.08-3.51,1.18-7.53,2.3-4.09,4.18-5.34,5.46-4.27,6.37,5.36,9.56,8.04,15.93,13.4,1.25,1.05.95,3.12-.94,6.48-1.86,3.31-3.4,4.51-4.72,3.59Z"/>
      <path class="cls-2" d="M50.8,84.98c-6.3-5.47-9.45-8.2-15.76-13.67-1.27-1.1-.77-3.55,1.84-7.15,2.65-3.67,4.63-4.64,5.8-3.42,5.85,6.09,8.78,9.13,14.64,15.22,1.15,1.2.66,3.18-1.51,6.19-2.14,2.96-3.78,3.91-5.01,2.84Z"/>
      <path class="cls-2" d="M56.13,72.37c-2.79-2.97-4.18-4.46-6.96-7.43-2.61-2.79-1.49-7.49,3.93-12.95.64-.64.96-.96,1.61-1.59,5.5-5.34,9.71-5.92,11.84-2.65,2.27,3.48,3.4,5.23,5.67,8.71,2.13,3.27.6,6.89-4.06,11.41-.55.53-.82.8-1.37,1.35-4.59,4.62-8.04,5.94-10.65,3.15ZM64.31,64.32c.29-.29.37-.66.13-.98-2.51-3.25-3.76-4.88-6.27-8.13-.24-.31-.62-.29-.94.03-.07.07-.11.11-.18.18-.32.32-.39.74-.15,1.05,2.55,3.21,3.82,4.82,6.37,8.04.24.31.59.27.88-.02.07-.07.1-.1.17-.17Z"/>
      <path class="cls-2" d="M81.49,55.54c-6.09-.26-9.46-1.73-12.95-7.22-1.08-1.69-1.62-2.54-2.7-4.24-.91-1.43.07-3.41,3.3-5.71,3.28-2.34,5.3-2.5,6.1-.99,1.21,2.29,1.82,3.44,3.03,5.73,1.45,2.73,2.88,5.18,3.79,5.8.08.05.12.08.2.13.06-.04.09-.06.15-.09,0-.1,0-.15,0-.26-.03-1.18-1.28-3.74-2.69-6.49-1.19-2.31-1.78-3.46-2.96-5.77-.78-1.52.37-3.37,3.78-5.28,3.47-1.94,5.49-1.88,6.16-.29,1.01,2.41,1.51,3.61,2.52,6.02,1.2,2.87,2.41,5.46,3.26,6.18.07.06.11.09.19.15.06-.03.09-.05.15-.08,0-.1.01-.15.02-.25.07-1.17-.95-3.85-2.11-6.74-.98-2.42-1.47-3.63-2.45-6.05-.65-1.6.66-3.3,4.22-4.82,3.62-1.55,5.63-1.27,6.15.39.62,1.95.93,2.93,1.55,4.88,2,6.32,1.35,10.11-2.01,15.67-.71,1.2-1.61,1.98-2.92,2.62-1.31.64-2.4.84-3.73.64-1.02-.15-1.9-.34-2.79-.55-.17.81-.48,1.7-.89,2.61-.6,1.28-1.43,2.16-2.67,2.94-1.25.79-2.31,1.1-3.66,1.06Z"/>
      <path class="cls-2" d="M115.7,38.61c-.53-2.5-.8-3.76-1.34-6.26-4.81-2.84-7.68-5.22-9.35-11.62-.22-.83-.32-1.24-.54-2.07-.44-1.68,1.13-3.14,4.97-4.13,3.9-1.01,5.91-.48,6.22,1.24.27,1.49.4,2.23.67,3.72.56,3.1,1.2,5.91,1.9,6.83.06.08.09.12.15.2.07-.01.1-.02.17-.04.03-.1.05-.15.08-.24.34-1.13-.07-3.99-.6-7.09-.25-1.49-.38-2.24-.63-3.73-.29-1.72,1.4-3,5.31-3.59,3.97-.6,5.92.13,6.08,1.87.08.86.12,1.29.2,2.14.6,6.62-1.26,9.97-4.73,14.47.35,2.56.52,3.84.87,6.39.22,1.62-1.07,2.8-4.25,3.44s-4.83.07-5.17-1.52Z"/>
      <path class="cls-2" d="M131.72,32.37c-.35-4.26-.53-6.39-.88-10.65-.33-4,3.18-6.57,10.39-6.64.85,0,1.28,0,2.13,0,7.2.04,10.72,2.6,10.41,6.6-.33,4.26-.5,6.39-.83,10.66-.31,4-3.59,5.66-9.7,5.62-.72,0-1.08,0-1.8,0-6.1.06-9.39-1.58-9.72-5.58ZM142.44,32.49c.39,0,.66-.22.67-.63.02-4.26.03-6.39.04-10.66,0-.41-.3-.67-.72-.67-.1,0-.14,0-.24,0-.42,0-.72.26-.72.67.03,4.26.05,6.39.08,10.66,0,.41.28.63.67.63.09,0,.13,0,.22,0Z"/>
      <path class="cls-2" d="M154.35,33.36c.54-5.97.8-8.96,1.34-14.93.16-1.74,2.05-2.52,5.84-1.95,3.85.57,5.48,1.88,5.19,3.6-.9,5.39-1.35,8.09-2.25,13.49-.13.77.23,1.29.83,1.41.16.03.33.03.51,0,1.04-5.82,1.56-8.73,2.61-14.55.31-1.71,2.26-2.3,5.98-1.34,3.78.97,5.29,2.44,4.85,4.12-1.75,6.76-2.63,10.15-4.39,16.91-.43,1.65-2.13,2.05-5.33,1.23-2.58-.66-3.98-1.58-4.19-2.84-.97.51-3.19,1.18-5.97.75-3.68-.57-5.36-1.97-5.01-5.89Z"/>
      <path class="cls-2" d="M176.43,40.56c1.84-6.72,2.75-10.09,4.59-16.81.46-1.67,2.46-2.05,6.07-.7,3.02,1.12,4.45,2.43,4.58,3.76,1.11-.33,3.53-.46,6.34.9,4.01,1.94,5.31,4.18,3.7,7.71-.47,1.02-.7,1.54-1.17,2.56-.67,1.46-2.41,1.41-5.54-.13-3.08-1.52-4.26-2.92-3.69-4.44.17-.45.25-.68.42-1.14.27-.72-.03-1.34-.64-1.6-.17-.07-.35-.11-.54-.11-1.93,5.39-2.89,8.08-4.82,13.47-.57,1.59-2.31,1.85-5.43.69-3.06-1.14-4.3-2.5-3.85-4.14Z"/>
      <path class="cls-2" d="M201.32,52.3c3.78-7.23,5.67-10.84,9.45-18.07,1.2-2.29,4.07-2.22,7.93.56,2.11,1.52,3.15,2.31,5.2,3.94,6.06,4.85,7.75,9.42,5.44,12.43-1.48,1.93-2.22,2.9-3.7,4.83-2.26,2.96-5.91,1.85-11.26-2.43-.58-.46-.87-.69-1.45-1.14-1.4,2.23-2.1,3.34-3.5,5.57-.86,1.38-2.55,1.16-5.29-.77-2.7-1.89-3.59-3.48-2.83-4.94ZM215.5,48.36c.31.24.47.36.78.61.34.27.7.28.91-.06,1.39-2.16,2.09-3.24,3.48-5.4.22-.33.1-.75-.26-1.03-.33-.26-.49-.39-.82-.64-1.64,2.61-2.46,3.91-4.09,6.52Z"/>
      <path class="cls-2" d="M220.34,64.48c.37-.47.55-.71.92-1.19,1.95-2.51,5.91-1.01,9.05,2.57,1.36,1.56,1.98,2.65,2.27,3.34,1.47-1.55,2.2-2.33,3.66-3.88.27-.28.23-.72-.07-1.07-.07-.08-.1-.12-.17-.2-.25-.3-.63-.37-.9-.08-.51.55-.76.83-1.27,1.38-1.05,1.15-2.64.45-5.06-2.18-2.46-2.67-3.13-4.42-2.16-5.66.63-.8.94-1.2,1.57-2,2.18-2.78,6.05-1.59,10.92,4.2.6.71.89,1.07,1.48,1.79,4.88,6.01,5.54,10.7,2.75,13.19-4.01,3.57-6.01,5.36-10.01,8.93-1.17,1.05-2.73.21-4.86-2.67-1.72-2.31-2.34-3.98-1.88-5.14-1.13-.16-3.08-1.1-4.89-3.09-2.23-2.46-3.4-5.62-1.36-8.25ZM228.12,73.15c.12.14.25.25.42.34.68-.72,1.02-1.08,1.7-1.8-.09-.17-.21-.31-.33-.45-.43-.52-1.03-.58-1.54-.03-.08.08-.11.13-.19.21-.5.55-.48,1.23-.06,1.74Z"/>
      <path class="cls-2" d="M238.22,83.79c3.14-2.65,4.71-3.98,7.85-6.63-.72-1.53-.63-2.69.35-3.54,1-.87,1.99-.64,3.03.69.43-.36.64-.54,1.06-.9,1.22-1.03,3.01.08,5.21,3.94,2.23,3.92,2.44,6.34,1.15,7.24-.43.3-.64.45-1.07.75.44.86.65,1.3,1.08,2.17,1.07,2.19,1.01,3.81-.29,4.63-1.27.81-2.4,0-3.43-2.12-.41-.85-.62-1.27-1.05-2.1-3.24,2.27-4.87,3.41-8.11,5.68-.84.59-.8,1.73-.31,2.73.03.07.05.11.09.18.83,1.7.63,2.76-.38,3.41-1.78,1.14-3.45-.04-5.46-3.87-2.73-5.2-3.3-9.22.29-12.26Z"/>
      <path class="cls-2" d="M243.37,101.75c6.97-4.35,10.46-6.52,17.43-10.87,1.36-.85,3.01.72,4.76,5.2,1.78,4.55,1.76,7.17.34,7.87-1.21.59-1.81.89-3.02,1.49.97.98,2.67,3.44,3.76,7.3,1.52,5.4,1.02,8.56-2.21,9.67-5.11,1.77-7.67,2.66-12.78,4.43-1.44.5-2.63-1.24-3.75-5.31-1.1-4.01-.98-6.16.42-6.82,4.43-2.09,6.65-3.14,11.09-5.23.64-.3.82-1.05.55-1.84-.07-.21-.17-.41-.31-.6-4.77,2.35-7.16,3.52-11.93,5.87-1.39.68-2.72-.8-4.18-4.54-1.44-3.68-1.5-5.77-.17-6.6Z"/>
      <path class="cls-2" d="M252.74,128.42c1.63-.54,3.61,2.14,4.29,6.2.68,4.05-.26,7.59-1.93,7.92-1.67.33-3.35-2.52-3.99-6.37-.64-3.85,0-7.21,1.63-7.75ZM258.84,129.05c4.65-2.28,6.97-3.46,11.58-5.9,1.82-.94,3.46,1.45,4.35,6.74.9,5.38.19,8.58-1.78,8.61-5.01.03-7.51.1-12.51.32-1.35.05-2.23-1.04-2.78-4.36-.57-3.4-.1-4.78,1.15-5.4Z"/>
    </g>
    <g>
      <path class="cls-8" d="M30.96,143.44c-7.16-1.36-10.74-2.04-17.9-3.39-2.28-.43-3.19-4.22-2.15-10.35.61-3.63.96-5.4,1.73-8.89.84-3.82,2.24-5.66,4.07-4.95,1.8.7,2.08,3.09,1.27,6.75-.21.96-.31,1.44-.51,2.4,1.19.37,1.78.56,2.96.94.12-.6.19-.89.31-1.49.66-3.04,1.82-4.51,3.35-3.95,1.56.58,1.84,2.52,1.21,5.45-.12.57-.18.86-.3,1.43,3.25,1.03,4.88,1.54,8.13,2.57,1.48.47,1.83,2.76,1.11,7.25-.71,4.42-1.76,6.51-3.27,6.23Z"/>
      <path class="cls-8" d="M31.95,121.75c-3.58-1.38-5.36-2.08-8.94-3.46-3.35-1.3-4.05-6.74-1.09-15.14.35-.99.53-1.49.89-2.46,3.08-8.28,6.7-11.01,9.79-8.96,3.29,2.18,4.93,3.27,8.22,5.45,3.08,2.04,2.97,6.31.36,13.32-.31.83-.46,1.25-.76,2.09-2.51,7.11-5.13,10.47-8.48,9.17ZM36.45,109.11c.16-.45.1-.86-.23-1.03-3.43-1.82-5.14-2.73-8.56-4.55-.33-.17-.67.06-.84.55-.04.11-.06.17-.1.28-.18.49-.09.95.24,1.12,3.45,1.76,5.17,2.64,8.62,4.41.33.17.62-.06.79-.51.04-.1.06-.15.09-.26Z"/>
      <path class="cls-8" d="M44.17,97.35c-6.78-4.63-10.17-6.95-16.94-11.58-1.36-.93-1.1-3.5,1.14-7.53,2.28-4.1,4.15-5.36,5.43-4.29,6.39,5.33,9.59,7.99,15.98,13.32,1.26,1.05.96,3.12-.91,6.48-1.84,3.31-3.37,4.52-4.7,3.61Z"/>
      <path class="cls-8" d="M50.76,85.71c-6.32-5.43-9.49-8.15-15.81-13.58-1.27-1.09-.78-3.54,1.8-7.16,2.63-3.67,4.6-4.66,5.78-3.44,5.88,6.06,8.82,9.08,14.7,15.14,1.15,1.19.68,3.17-1.48,6.19-2.12,2.97-3.75,3.92-4.99,2.85Z"/>
      <path class="cls-8" d="M56.02,73.08c-2.8-2.96-4.2-4.44-6.99-7.39-2.62-2.77-1.53-7.48,3.86-12.95.64-.65.96-.97,1.6-1.6,5.47-5.36,9.66-5.95,11.8-2.7,2.28,3.47,3.42,5.21,5.7,8.68,2.14,3.26.63,6.88-3.99,11.42-.55.54-.82.81-1.36,1.35-4.56,4.63-8,5.96-10.62,3.19ZM64.15,65.01c.29-.29.37-.67.13-.98-2.52-3.24-3.78-4.86-6.31-8.1-.24-.31-.62-.28-.94.03-.07.07-.11.11-.18.18-.32.32-.39.74-.14,1.05,2.56,3.2,3.84,4.8,6.4,8,.25.31.59.26.88-.03.07-.07.1-.1.17-.17Z"/>
      <path class="cls-8" d="M81.25,56.17c-6.08-.24-9.45-1.7-12.96-7.17-1.09-1.69-1.63-2.53-2.71-4.22-.92-1.43.05-3.41,3.26-5.72,3.26-2.35,5.28-2.52,6.08-1.01,1.22,2.28,1.83,3.43,3.05,5.71,1.46,2.73,2.9,5.16,3.81,5.79.08.05.12.08.2.13.06-.04.09-.06.15-.09,0-.1,0-.15,0-.26-.04-1.18-1.3-3.73-2.72-6.48-1.19-2.3-1.79-3.45-2.99-5.75-.79-1.52.35-3.36,3.74-5.29,3.45-1.95,5.47-1.9,6.14-.31,1.02,2.4,1.52,3.6,2.54,6.01,1.21,2.87,2.43,5.45,3.28,6.17.07.06.11.09.19.15.06-.03.09-.05.15-.08,0-.1,0-.15.02-.25.06-1.17-.96-3.85-2.14-6.73-.99-2.42-1.48-3.63-2.47-6.04-.65-1.6.64-3.3,4.19-4.83,3.6-1.56,5.61-1.29,6.14.36.63,1.95.94,2.93,1.56,4.88,2.03,6.31,1.39,10.1-1.93,15.67-.7,1.2-1.6,1.98-2.9,2.63-1.3.64-2.39.84-3.72.65-1.02-.15-1.89-.34-2.78-.54-.17.81-.48,1.7-.88,2.61-.59,1.28-1.41,2.16-2.65,2.95-1.24.79-2.3,1.11-3.64,1.08Z"/>
      <path class="cls-8" d="M115.28,39.12c-.54-2.5-.82-3.75-1.36-6.25-4.81-2.82-7.69-5.19-9.38-11.58-.22-.83-.33-1.24-.55-2.07-.45-1.68,1.11-3.14,4.93-4.15,3.88-1.02,5.89-.5,6.21,1.21.28,1.49.41,2.23.69,3.71.57,3.1,1.22,5.91,1.92,6.82.06.08.09.12.15.19.07-.01.1-.02.17-.04.03-.1.05-.15.08-.24.34-1.13-.09-3.99-.63-7.09-.26-1.49-.39-2.23-.64-3.72-.3-1.72,1.38-3.01,5.28-3.62,3.96-.62,5.91.11,6.07,1.84.08.86.12,1.29.2,2.14.63,6.61-1.22,9.98-4.66,14.49.36,2.56.54,3.83.9,6.39.23,1.62-1.05,2.8-4.22,3.46s-4.81.09-5.16-1.5Z"/>
      <path class="cls-8" d="M131.23,32.82c-.37-4.26-.55-6.39-.92-10.65-.34-3.99,3.15-6.58,10.33-6.69.85-.01,1.27-.02,2.12-.01,7.18.01,10.71,2.55,10.41,6.55-.32,4.26-.48,6.4-.79,10.66-.3,4-3.56,5.68-9.64,5.67-.72,0-1.08,0-1.8.01-6.08.09-9.37-1.54-9.71-5.54ZM141.92,32.88c.39,0,.66-.22.66-.63v-10.66c0-.41-.3-.67-.72-.67-.1,0-.14,0-.24,0-.42,0-.72.27-.72.68.05,4.26.07,6.39.12,10.66,0,.41.28.63.67.62.09,0,.13,0,.22,0Z"/>
      <path class="cls-8" d="M153.8,33.7c.51-5.98.77-8.96,1.28-14.94.15-1.74,2.04-2.53,5.81-1.98,3.84.55,5.47,1.85,5.19,3.57-.88,5.4-1.32,8.1-2.2,13.5-.13.77.24,1.29.83,1.41.16.03.33.03.51-.01,1.02-5.82,1.53-8.74,2.55-14.56.3-1.72,2.25-2.31,5.96-1.37,3.77.95,5.28,2.41,4.85,4.09-1.73,6.77-2.59,10.16-4.32,16.93-.42,1.65-2.12,2.06-5.31,1.26-2.58-.65-3.97-1.56-4.19-2.82-.97.52-3.17,1.2-5.95.78-3.67-.55-5.36-1.94-5.02-5.86Z"/>
      <path class="cls-8" d="M175.84,40.78c1.81-6.73,2.71-10.1,4.52-16.83.45-1.68,2.44-2.06,6.06-.74,3.02,1.11,4.45,2.4,4.58,3.73,1.11-.33,3.52-.48,6.33.86,4.01,1.92,5.31,4.15,3.71,7.68-.46,1.03-.7,1.54-1.16,2.57-.66,1.47-2.4,1.43-5.53-.1-3.08-1.5-4.26-2.9-3.7-4.41.17-.46.25-.68.42-1.14.27-.72-.03-1.33-.65-1.6-.17-.07-.35-.11-.54-.11-1.91,5.4-2.86,8.09-4.76,13.49-.56,1.6-2.3,1.86-5.41.72-3.06-1.12-4.29-2.48-3.85-4.12Z"/>
      <path class="cls-8" d="M200.7,52.36c3.75-7.24,5.63-10.87,9.38-18.11,1.19-2.3,4.06-2.24,7.92.51,2.11,1.5,3.15,2.28,5.2,3.9,6.07,4.8,7.76,9.35,5.47,12.38-1.47,1.94-2.21,2.91-3.68,4.85-2.25,2.97-5.9,1.89-11.25-2.35-.58-.46-.87-.68-1.45-1.13-1.39,2.24-2.08,3.35-3.47,5.59-.86,1.38-2.54,1.17-5.28-.73-2.7-1.87-3.59-3.46-2.83-4.91ZM214.83,48.33c.31.24.47.36.78.6.34.26.7.27.91-.06,1.38-2.17,2.08-3.25,3.46-5.42.21-.34.1-.75-.26-1.03-.33-.26-.49-.38-.82-.63-1.63,2.62-2.44,3.93-4.07,6.54Z"/>
      <path class="cls-8" d="M219.72,64.39c.37-.48.55-.71.92-1.19,1.94-2.52,5.9-1.05,9.04,2.5,1.37,1.54,1.99,2.63,2.28,3.31,1.46-1.56,2.19-2.34,3.65-3.9.27-.28.23-.72-.07-1.07-.07-.08-.1-.12-.17-.2-.25-.3-.63-.37-.89-.08-.51.55-.76.83-1.26,1.39-1.05,1.15-2.64.47-5.06-2.13-2.47-2.65-3.14-4.39-2.17-5.63.62-.8.94-1.2,1.56-2,2.17-2.79,6.03-1.63,10.92,4.11.6.7.9,1.06,1.48,1.78,4.89,5.96,5.56,10.64,2.78,13.14-3.99,3.59-5.99,5.39-9.98,8.99-1.17,1.05-2.72.23-4.86-2.62-1.72-2.29-2.35-3.96-1.89-5.12-1.13-.16-3.08-1.07-4.89-3.05-2.24-2.44-3.41-5.59-1.38-8.22ZM227.5,72.99c.12.14.25.25.42.34.68-.72,1.01-1.08,1.69-1.81-.09-.17-.21-.31-.33-.45-.43-.52-1.03-.57-1.53-.02-.08.08-.11.13-.19.21-.5.55-.48,1.23-.06,1.73Z"/>
      <path class="cls-8" d="M237.62,83.52c3.13-2.67,4.69-4,7.82-6.67-.72-1.52-.63-2.68.34-3.53.99-.88,1.99-.65,3.03.66.42-.36.64-.54,1.06-.9,1.22-1.04,3.01.06,5.21,3.89,2.24,3.89,2.46,6.3,1.17,7.21-.43.3-.64.45-1.07.76.44.86.66,1.29,1.09,2.16,1.07,2.17,1.02,3.79-.28,4.62-1.27.81-2.4.02-3.44-2.08-.41-.84-.62-1.26-1.05-2.08-3.23,2.29-4.85,3.43-8.09,5.72-.84.6-.79,1.73-.3,2.72.03.07.05.11.09.18.83,1.69.64,2.75-.37,3.4-1.78,1.15-3.45-.01-5.47-3.81-2.74-5.16-3.32-9.17.26-12.22Z"/>
      <path class="cls-8" d="M242.81,101.39c6.95-4.39,10.43-6.58,17.39-10.96,1.36-.86,3.01.7,4.77,5.15,1.79,4.52,1.78,7.13.36,7.84-1.21.6-1.81.9-3.01,1.5.97.97,2.68,3.4,3.78,7.24,1.54,5.37,1.05,8.51-2.18,9.65-5.11,1.8-7.66,2.7-12.76,4.5-1.44.51-2.64-1.22-3.77-5.26-1.11-3.98-.99-6.13.4-6.8,4.43-2.12,6.64-3.18,11.06-5.3.64-.3.81-1.05.55-1.84-.07-.21-.18-.41-.31-.59-4.76,2.37-7.14,3.56-11.91,5.93-1.39.69-2.72-.77-4.19-4.49-1.45-3.65-1.51-5.74-.18-6.58Z"/>
      <path class="cls-8" d="M252.26,127.87c1.63-.55,3.62,2.1,4.31,6.13.69,4.03-.23,7.55-1.9,7.89-1.67.34-3.36-2.49-4.01-6.3-.66-3.82-.03-7.17,1.6-7.72ZM258.37,128.44c4.64-2.31,6.95-3.5,11.55-5.96,1.82-.95,3.47,1.42,4.37,6.67.92,5.34.22,8.53-1.75,8.58-5.01.07-7.51.15-12.51.41-1.35.06-2.23-1.02-2.8-4.32-.58-3.38-.12-4.75,1.13-5.38Z"/>
    </g>
  </g>
</svg>