<?xml version="1.0" encoding="UTF-8"?>
<svg id="Layer_1" data-name="Layer 1" xmlns="http://www.w3.org/2000/svg" viewBox="0 0 216 216">
  <defs>
    <style>
      .cls-1 {
        fill: #fff;
      }

      .cls-2 {
        fill: #e8a123;
      }

      .cls-3 {
        fill: #5ab3e5;
      }

      .cls-4 {
        fill: none;
        stroke: #0773b4;
        stroke-miterlimit: 10;
        stroke-width: 3.75px;
      }

      .cls-5 {
        fill: #0773b4;
      }
    </style>
  </defs>
  <path class="cls-1" d="M108.04,216c-34.34,0-66.95-16.52-87.21-44.2C-14.36,123.76-3.89,56.05,44.16,20.87,62.8,7.22,84.84,0,107.9,0c34.34,0,66.95,16.52,87.22,44.2,17.04,23.27,24,51.79,19.6,80.3-4.41,28.51-19.65,53.59-42.93,70.64-18.65,13.65-40.69,20.87-63.74,20.87Z"/>
  <ellipse class="cls-1" cx="107.97" cy="108" rx="90.49" ry="90.48"/>
  <g>
    <ellipse class="cls-2" cx="107.97" cy="108" rx="90.49" ry="90.48"/>
    <path class="cls-4" d="M54.26,87.46s5.59-13.43,19.02-12.31c13.43,1.12,17.9,13.43,17.9,13.43"/>
    <path class="cls-5" d="M55.38,120.31h101.82s-5.59,44.75-46.99,44.75-54.83-44.75-54.83-44.75Z"/>
    <path class="cls-4" d="M126.42,88.58s5.59-13.43,19.02-12.31c13.43,1.12,17.9,13.43,17.9,13.43"/>
    <polygon class="cls-3" points="55.38 120.31 59.86 131.49 153.84 132.61 157.2 120.31 55.38 120.31"/>
  </g>
</svg>