<?xml version="1.0" encoding="UTF-8"?>
<svg id="Layer_1" data-name="Layer 1" xmlns="http://www.w3.org/2000/svg" viewBox="0 0 288 216">
  <defs>
    <style>
      .cls-1 {
        fill: #fff;
      }

      .cls-2 {
        fill: #e8a123;
      }

      .cls-3 {
        fill: #d56628;
      }

      .cls-4 {
        fill: none;
        stroke: #050505;
        stroke-miterlimit: 10;
        stroke-width: 2px;
      }

      .cls-5 {
        fill: #050505;
      }

      .cls-6 {
        fill: #159f75;
      }
    </style>
  </defs>
  <g>
    <path class="cls-1" d="M283.46,39.11C270.66,14.75,245.82.2,217.02.2c-36.87,0-57.38,14.92-68.21,27.79-7.41-8.98-17.1-15.94-28.96-20.76C105.12,1.26,90.31,0,80.47,0c-4.43,0-7.64.26-9.05.39C48.29.78,22.42,20.53,10.96,46.63c-7.4,16.87-8.77,35.6-3.94,54.15,5.57,21.44,19.16,42.47,40.39,62.5,37.57,35.46,72.37,52.71,106.39,52.71,37.49,0,72.87-21.29,108.16-65.07,30.41-37.74,38.45-79.54,21.5-111.81ZM167.06,163.42c-5.36-3.5-10.2-7.65-14.34-12.35-1.23-1.41-2.42-2.89-3.47-4.44-1.01,1.46-2.12,2.87-3.3,4.2-4.11,4.7-8.95,8.84-14.29,12.35-14.96,9.83-33.92,14.67-52.26,12.92-7.81-5.83-15.8-12.61-24-20.35-4.78-4.51-9.06-8.99-12.88-13.44,23.61,2.45,48.04.27,69.85-7.96,4.6-1.72,9.09-3.72,13.41-6.01,6.18-3.25,13.33-7.2,19.96-4.75,1.44.53,2.68,1.34,3.73,2.36.99-.91,2.17-1.63,3.49-2.12,6.64-2.45,13.83,1.49,20.04,4.75,4.29,2.25,8.72,4.23,13.28,5.94,21.24,8.02,45,10.34,68.06,8.23-.44.57-.89,1.14-1.36,1.72-9.75,12.1-19.66,22.65-29.8,31.42-19.52,2.81-40.09-1.99-56.1-12.48ZM149.45,125.96c-3.05,2.71-4.51,7.01-4.1,10.98.36,3.47,1.88,6.71,3.9,9.7,2.1-3.05,3.67-6.37,4.03-9.93.4-3.86-.97-8.02-3.83-10.74Z"/>
    <path class="cls-1" d="M149.45,125.96c2.86,2.72,4.23,6.88,3.83,10.74-.36,3.56-1.93,6.88-4.03,9.93-2.02-2.99-3.54-6.23-3.9-9.7-.41-3.97,1.05-8.27,4.1-10.98Z"/>
    <path class="cls-1" d="M145.95,150.83c1.18-1.33,2.29-2.74,3.3-4.2,1.05,1.55,2.24,3.03,3.47,4.44,4.14,4.7,8.98,8.85,14.34,12.35,16.01,10.48,36.59,15.28,56.1,12.48-41.96,36.29-87.93,42.02-143.77.2,18.34,1.75,37.3-3.08,52.26-12.92,5.34-3.51,10.18-7.65,14.29-12.35Z"/>
    <path class="cls-1" d="M254.32,142.76c-23.06,2.1-46.82-.21-68.06-8.23-4.55-1.71-8.98-3.69-13.28-5.94-6.2-3.25-13.39-7.2-20.04-4.75-1.32.49-2.5,1.22-3.49,2.12-1.05-1.01-2.29-1.82-3.73-2.36-6.62-2.45-13.77,1.49-19.96,4.75-4.33,2.28-8.81,4.29-13.41,6.01-21.81,8.22-46.24,10.41-69.85,7.96C-18.53,71.39,38.14,11.06,72.1,11.06c0,0,57.47-7.02,76.69,38.29,0,0,12.43-38.48,68.22-38.48s91.08,63.38,37.3,131.89Z"/>
    <path class="cls-3" d="M149.45,125.96c2.86,2.72,4.23,6.88,3.83,10.74-.36,3.56-1.93,6.88-4.03,9.93-2.02-2.99-3.54-6.23-3.9-9.7-.41-3.97,1.05-8.27,4.1-10.98Z"/>
    <path class="cls-3" d="M145.95,150.83c1.18-1.33,2.29-2.74,3.3-4.2,1.05,1.55,2.24,3.03,3.47,4.44,4.14,4.7,8.98,8.85,14.34,12.35,16.01,10.48,36.59,15.28,56.1,12.48-41.96,36.29-87.93,42.02-143.77.2,18.34,1.75,37.3-3.08,52.26-12.92,5.34-3.51,10.18-7.65,14.29-12.35Z"/>
    <path class="cls-3" d="M254.32,142.76c-23.06,2.1-46.82-.21-68.06-8.23-4.55-1.71-8.98-3.69-13.28-5.94-6.2-3.25-13.39-7.2-20.04-4.75-1.32.49-2.5,1.22-3.49,2.12-1.05-1.01-2.29-1.82-3.73-2.36-6.62-2.45-13.77,1.49-19.96,4.75-4.33,2.28-8.81,4.29-13.41,6.01-21.81,8.22-46.24,10.41-69.85,7.96C-18.53,71.39,38.14,11.06,72.1,11.06c0,0,57.47-7.02,76.69,38.29,0,0,12.43-38.48,68.22-38.48s91.08,63.38,37.3,131.89Z"/>
    <g>
      <path class="cls-6" d="M131.65,163.18c-14.96,9.83-33.92,14.67-52.26,12.92-7.81-5.83-15.8-12.61-24-20.35-4.78-4.51-9.06-8.99-12.88-13.44,23.61,2.45,48.04.27,69.85-7.96-.9,2.6-9.55,29.41,19.3,28.83Z"/>
      <path class="cls-6" d="M130.39,161.02c-15,9.8-33.17,14.23-51,12.58l1.26.34c-13.13-9.83-25.67-20.96-36.38-33.4-.59,1.42-1.18,2.85-1.77,4.27,18.54,1.9,37.47,1.02,55.6-3.44,5.06-1.24,10.04-2.78,14.91-4.61l-3.08-3.08c-3.34,9.66-3.29,22.66,6.4,28.62,4.53,2.79,10.1,3.46,15.31,3.37,3.21-.05,3.22-5.05,0-5-2.43.04-4.75-.07-6.99-.52-1.88-.38-3.51-.93-4.84-1.62-.7-.37-1.37-.79-2.01-1.26-.56-.4.37.33-.14-.11-.1-.09-.21-.17-.31-.26-.32-.28-.63-.58-.92-.89-.24-.26-.47-.52-.7-.79-.41-.49.3.43-.07-.09-.07-.1-.14-.2-.22-.31-.42-.61-.78-1.25-1.1-1.92-.08-.16-.15-.33-.23-.5.03.07.2.51.04.09-.13-.34-.25-.68-.36-1.02-.2-.63-.37-1.27-.5-1.92-.07-.35-.13-.7-.19-1.06-.02-.14-.06-.49.02.13-.02-.18-.04-.35-.06-.53-.07-.7-.11-1.4-.12-2.11-.02-1.24.04-2.47.17-3.7.03-.26.06-.53.09-.79-.09.84.03-.2.06-.4.08-.52.18-1.04.28-1.56.31-1.53.7-3.05,1.21-4.53.59-1.72-1.32-3.73-3.08-3.08-17.09,6.41-35.35,9.07-53.56,8.8-5.22-.08-10.43-.4-15.62-.93-2.35-.24-3.03,2.8-1.77,4.27,9.64,11.2,20.78,21.22,32.39,30.34,1.31,1.03,2.64,2.05,3.97,3.06.91.69,1.55,1.04,2.72,1.16.85.08,1.71.14,2.56.19,3.42.19,6.86.16,10.28-.08,6.75-.49,13.47-1.75,19.92-3.8,7.16-2.28,14.04-5.49,20.34-9.6,2.68-1.75.18-6.08-2.52-4.32Z"/>
    </g>
    <path class="cls-2" d="M145.35,136.93c.36,3.47,1.88,6.71,3.9,9.7-1.01,1.46-2.12,2.87-3.3,4.2-4.11,4.7-8.95,8.84-14.29,12.35-28.85.58-20.2-26.23-19.3-28.83,4.6-1.72,9.09-3.72,13.41-6.01,6.18-3.25,13.33-7.2,19.96-4.75,1.44.53,2.68,1.34,3.73,2.36-3.05,2.71-4.51,7.01-4.1,10.98Z"/>
    <path class="cls-1" d="M153.28,136.7c-.36,3.56-1.93,6.88-4.03,9.93-2.02-2.99-3.54-6.23-3.9-9.7-.41-3.97,1.05-8.27,4.1-10.98,2.86,2.72,4.23,6.88,3.83,10.74Z"/>
    <path class="cls-4" d="M134.27,163.06c-.9.06-1.77.11-2.61.12"/>
    <path class="cls-4" d="M112.43,134.15s-.02.07-.08.2"/>
    <g>
      <path class="cls-6" d="M254.32,142.76c-.44.57-.89,1.14-1.36,1.72-9.75,12.1-19.66,22.65-29.8,31.42-19.52,2.81-40.09-1.99-56.1-12.48,29.02.54,19.97-26.73,19.2-28.89,21.24,8.02,45,10.34,68.06,8.23Z"/>
      <path class="cls-6" d="M252.55,140.99c-9.32,11.94-19.7,23.21-31.15,33.14l1.1-.64c-14.54,2.05-29.85-.26-43.23-6.25-3.8-1.7-7.46-3.7-10.95-5.97l-1.26,4.66c8.17.12,17.39-2.04,21.39-9.96,2.71-5.37,2.62-11.63,1.47-17.4-.32-1.59-.71-3.17-1.25-4.7l-3.08,3.08c16.97,6.37,35.22,9.12,53.31,9.06,5.15-.02,10.29-.27,15.42-.73,1.34-.12,2.5-1.06,2.5-2.5,0-1.26-1.15-2.62-2.5-2.5-17.76,1.6-35.82.67-53.14-3.69-4.83-1.22-9.59-2.7-14.25-4.45-1.74-.65-3.68,1.36-3.08,3.08.42,1.18.74,2.39,1.02,3.6.24,1.04.41,2.08.58,3.13.09.56-.06-.61,0-.05.01.13.03.26.05.4.03.3.06.59.09.89.06.67.09,1.34.11,2.01.01.61,0,1.22-.02,1.82-.02.32-.04.65-.06.97-.02.19-.16,1.3-.05.57-.2,1.37-.53,2.7-1.01,4.01-.25.68.14-.24-.17.41-.16.33-.32.66-.5.98-.33.6-.7,1.17-1.12,1.72.38-.5-.34.38-.47.52-.22.24-.45.47-.69.69-.29.27-.6.54-.92.79.07-.06.39-.29.01-.02-.23.16-.46.32-.7.47-1.8,1.15-3.01,1.59-5.15,2.11-2.57.62-5.03.76-7.78.72-2.58-.04-3.27,3.35-1.26,4.66,11.33,7.37,24.42,11.79,37.85,13.18,3.39.35,6.79.49,10.2.41,1.63-.04,3.26-.12,4.89-.26.78-.07,1.55-.14,2.33-.23,1.05-.12,2.44-.07,3.37-.61,1.34-.78,2.55-2.18,3.7-3.22,1.39-1.26,2.77-2.55,4.13-3.85,2.47-2.37,4.89-4.8,7.25-7.29,5.82-6.12,11.38-12.52,16.58-19.17.83-1.06,1.04-2.5,0-3.54-.86-.86-2.7-1.07-3.54,0Z"/>
    </g>
    <path class="cls-2" d="M167.06,163.42c-5.36-3.5-10.2-7.65-14.34-12.35-1.23-1.41-2.42-2.89-3.47-4.44,2.1-3.05,3.67-6.37,4.03-9.93.4-3.86-.97-8.02-3.83-10.74.99-.91,2.17-1.63,3.49-2.12,6.64-2.45,13.83,1.49,20.04,4.75,4.29,2.25,8.72,4.23,13.28,5.94.77,2.17,9.82,29.44-19.2,28.89Z"/>
    <path class="cls-2" d="M153.28,136.7c-.36,3.56-1.93,6.88-4.03,9.93-2.02-2.99-3.54-6.23-3.9-9.7-.41-3.97,1.05-8.27,4.1-10.98,2.86,2.72,4.23,6.88,3.83,10.74Z"/>
    <path class="cls-4" d="M167.06,163.42c-.86-.01-1.75-.05-2.68-.12"/>
    <path class="cls-4" d="M186.26,134.52c-.02-.1-.05-.14-.05-.14"/>
  </g>
  <g>
    <path class="cls-5" d="M57.13,34.18c3.08,0,5.42.16,7.04.47.74.13,1.33.4,1.78.79s.67.84.67,1.34c0,.39-.17.78-.52,1.18-.5.61-.75,1.04-.75,1.31,0,.53.45,1.39,1.34,2.56.58.76,1.13,1.13,1.65,1.13.33,0,.65-.11.97-.34s.72-.64,1.22-1.23c.61-.73.92-1.3.92-1.73,0-.27-.04-.47-.11-.6s-.33-.45-.77-.96c-.31-.34-.47-.8-.47-1.38,0-1.67,2.4-2.51,7.21-2.51,2.72,0,4.48.12,5.3.36.52.15.95.43,1.28.84s.51.86.51,1.33c0,.61-.2,1.07-.59,1.38-.39.31-1.08.55-2.05.71-.89.16-1.67.49-2.33.97s-1.87,1.61-3.63,3.39c-2.14,2.18-3.47,3.78-3.99,4.81s-.79,2.57-.79,4.61c0,1.72.07,3.31.21,4.78.08.9.23,1.53.45,1.88s.68.69,1.37,1.03c1.15.56,1.72,1.27,1.72,2.11,0,2.02-3.16,3.02-9.47,3.02-2.59,0-5.04-.24-7.35-.71-1.95-.4-2.92-1.19-2.92-2.38,0-.92.6-1.58,1.79-1.98.89-.3,1.45-.67,1.67-1.13.5-1.02.75-3.44.75-7.25,0-1.19-.13-2.11-.38-2.77s-.8-1.52-1.65-2.57c-1.77-2.18-3.6-4.14-5.49-5.89-.82-.76-1.6-1.27-2.36-1.53-1.07-.37-1.71-.64-1.93-.82-.44-.36-.66-.83-.66-1.42,0-.99.79-1.71,2.38-2.15s4.24-.66,7.96-.66Z"/>
    <path class="cls-5" d="M95.38,42.83c2.87,0,5.39.7,7.56,2.11,1.55,1.01,2.8,2.32,3.74,3.93.97,1.69,1.46,3.45,1.46,5.29,0,3.22-1.56,5.95-4.69,8.2-2.98,2.15-6.4,3.22-10.25,3.22s-6.79-1.01-9.11-3.02c-2.26-1.96-3.39-4.51-3.39-7.65,0-3.5,1.38-6.36,4.15-8.58,2.89-2.34,6.4-3.51,10.53-3.51ZM93.49,47.96c-.69,0-1.24.24-1.66.72s-.62,1.12-.62,1.92c0,.89.18,2.1.53,3.63.35,1.53.77,2.89,1.26,4.08.49,1.22,1.28,1.82,2.38,1.82,1.4,0,2.1-.84,2.1-2.51,0-1.24-.18-2.66-.53-4.25s-.78-2.88-1.28-3.87c-.52-1.01-1.24-1.53-2.17-1.56Z"/>
    <path class="cls-5" d="M122.74,44.11v12.05c0,2.58.9,3.87,2.71,3.87.46,0,.9-.12,1.34-.37s.75-.54.92-.9c.35-.71.52-2.3.52-4.76s-.09-4.09-.26-4.98c-.06-.37-.17-.64-.33-.81s-.46-.37-.89-.59c-.89-.44-1.34-1.01-1.34-1.69,0-.92.77-1.56,2.31-1.91,2.92-.68,5.8-1.02,8.64-1.02,1.59,0,2.38.79,2.38,2.38,0,.16,0,.5-.02,1-.03.71-.05,1.58-.07,2.6v9.8c0,.5.46.96,1.37,1.38.77.36,1.15.87,1.15,1.56,0,1.33-1.67,2.36-5.02,3.09-1.96.43-3.86.64-5.7.64-.75,0-1.27-.08-1.54-.24s-.44-.48-.48-.96c-.08-.92-.38-1.38-.89-1.38-.19,0-.36.04-.52.12s-.64.38-1.44.9c-1.59,1.02-3.29,1.53-5.11,1.53-3.01,0-5.14-.82-6.38-2.47-1.05-1.38-1.58-3.7-1.58-6.96,0-1.22,0-2.25.02-3.11v-1.02c0-1.27-.12-2.21-.37-2.81s-.69-1.07-1.33-1.41c-.61-.3-1-.53-1.17-.71s-.25-.42-.25-.73c0-1.13.9-1.87,2.71-2.25,3.08-.64,6.15-.96,9.23-.96.93,0,1.39.37,1.39,1.11Z"/>
    <path class="cls-5" d="M185.06,49.63l4.45,9c.42.83.78,1.37,1.06,1.63s.71.43,1.3.52c1.13.16,1.7.7,1.7,1.62,0,1.08-.69,1.86-2.07,2.33s-3.64.71-6.78.71c-3.55,0-6.18-.14-7.89-.42-.79-.13-1.41-.4-1.87-.81s-.69-.9-.69-1.48c0-.44.12-.79.37-1.03s.69-.47,1.35-.68c.74-.24,1.11-.64,1.11-1.2,0-.99-.64-1.58-1.91-1.76-1.37-.18-3.29-.27-5.77-.27-2.09,0-3.34.12-3.74.36-.25.15-.47.41-.66.8s-.28.76-.28,1.11c0,.33.07.54.2.63s.57.26,1.31.48c.96.27,1.44.8,1.44,1.6,0,1.76-2.24,2.65-6.71,2.65-2.54,0-4.41-.16-5.61-.49-1.1-.31-1.65-.99-1.65-2.05,0-.46.12-.82.37-1.07s.68-.48,1.31-.69c1.02-.34,1.79-.82,2.32-1.43s1.28-1.93,2.25-3.95l3.32-6.87c1.22-2.52,2.05-4.41,2.46-5.66.42-1.25.63-2.48.65-3.68.02-1.27.1-2.16.25-2.66s.48-.98,1-1.46c1.08-1.04,2.47-1.56,4.15-1.56,1.59,0,3.1.59,4.55,1.76,2.01,1.6,4.93,6.26,8.76,13.98ZM168.67,52.43h4.62c.85,0,1.27-.18,1.27-.53,0-.49-.59-1.69-1.77-3.6-.53-.87-.94-1.46-1.22-1.76s-.58-.44-.89-.44c-.57,0-1.04.5-1.41,1.49-.06.13-.29.66-.68,1.58-.66,1.51-.99,2.42-.99,2.71,0,.37.36.56,1.08.56Z"/>
    <path class="cls-5" d="M205.46,42.98c.83,0,1.34.11,1.52.33s.34.93.48,2.13c.08.65.32.98.73.98.31,0,.61-.21.89-.64,1.26-1.85,2.9-2.78,4.92-2.78,1.43,0,2.6.44,3.51,1.31.44.43.8.98,1.08,1.66s.42,1.32.42,1.95c0,.7-.17,1.41-.52,2.15s-.79,1.34-1.34,1.81c-1,.9-2.24,1.36-3.7,1.36-.8,0-1.47-.13-2.01-.4s-1.25-.81-2.13-1.62c-.33-.31-.64-.47-.92-.47-.44,0-.73.23-.86.7s-.2,1.45-.2,2.95c0,2.24.09,3.76.26,4.58.11.44.26.75.46.92s.62.34,1.26.52c1.41.4,2.12,1.1,2.12,2.09,0,.61-.23,1.14-.68,1.59s-1.06.75-1.81.9c-1.51.3-3.72.44-6.64.44s-4.89-.23-6.34-.69c-1.29-.41-1.93-1.13-1.93-2.16,0-.77.47-1.46,1.41-2.07.46-.28.77-.54.94-.77s.29-.54.35-.94c.25-1.35.38-3.85.38-7.49,0-.67-.08-1.14-.24-1.43s-.47-.52-.94-.7c-1.11-.41-1.67-1.02-1.67-1.8,0-.71.38-1.32,1.15-1.83.77-.51,2.06-1.02,3.86-1.52,2.42-.68,4.47-1.03,6.17-1.04Z"/>
    <path class="cls-5" d="M241.49,55.03h-11.07c-.49,0-.73.2-.73.6,0,.96.55,1.87,1.66,2.72,1.11.85,2.3,1.28,3.57,1.28.75,0,1.59-.14,2.51-.41s1.68-.61,2.27-1.01c.53-.36.96-.53,1.27-.53.41,0,.81.24,1.2.71s.59.96.59,1.47c0,1.07-.71,2.1-2.12,3.09-2.5,1.76-5.38,2.65-8.64,2.65s-6.06-.9-8.29-2.71c-1.08-.89-1.98-1.96-2.68-3.22-.93-1.67-1.39-3.44-1.39-5.29,0-2.49.8-4.73,2.4-6.71,1.38-1.72,3.14-3,5.28-3.85,1.6-.64,3.34-.96,5.2-.96,2.98,0,5.52.8,7.61,2.4,1.05.8,1.9,1.75,2.54,2.85.74,1.24,1.11,2.46,1.11,3.65,0,.96-.21,1.75-.64,2.37s-.97.92-1.65.92ZM231.04,50.87h2.38c1,0,1.51-.44,1.51-1.31,0-.8-.24-1.45-.73-1.96s-1.12-.76-1.91-.76c-.88,0-1.57.33-2.07.98-.47.61-.71,1.22-.71,1.85,0,.44.11.76.34.93s.62.27,1.19.27Z"/>
    <path class="cls-5" d="M82.14,98.99v10.2c0,2.3.21,3.78.64,4.45.52.79,1.61,1.18,3.27,1.18,1.79,0,3.2-.37,4.24-1.11s1.76-1.9,2.17-3.47c.24-.96.77-1.44,1.6-1.44s1.51.35,2.04,1.06.79,1.62.79,2.75c0,1.84-.72,3.8-2.17,5.89-.46.67-.86,1.12-1.2,1.37s-.76.37-1.25.37l-5.23-.6h-16.46c-1.08,0-1.84-.12-2.28-.36-.64-.34-.97-.85-.97-1.53,0-.41.11-.72.32-.92s.73-.49,1.54-.86c.89-.4,1.47-.96,1.72-1.69.2-.61.31-2.38.31-5.31,0-1.36-.04-3.33-.12-5.89-.08-2.46-.13-4.31-.14-5.56,0-1.19-.1-2-.29-2.43s-.61-.75-1.24-.94c-1.04-.34-1.7-.62-1.98-.82-.5-.37-.75-.79-.75-1.27,0-1.08.95-1.9,2.85-2.47,1.62-.49,3.78-.73,6.5-.73,3.05,0,5.32.15,6.83.44,1.95.4,2.92,1.2,2.92,2.4,0,.49-.13.85-.39,1.09s-.89.56-1.9.96c-.6.25-.97.68-1.13,1.29s-.24,1.93-.24,3.98Z"/>
    <path class="cls-5" d="M112.05,97.46c2.87,0,5.39.7,7.56,2.11,1.55,1.01,2.8,2.32,3.74,3.93.97,1.69,1.46,3.45,1.46,5.29,0,3.22-1.56,5.95-4.69,8.2-2.98,2.15-6.4,3.22-10.25,3.22s-6.79-1.01-9.11-3.02c-2.26-1.96-3.39-4.51-3.39-7.65,0-3.5,1.38-6.36,4.15-8.58,2.89-2.34,6.4-3.51,10.53-3.51ZM110.17,102.6c-.69,0-1.24.24-1.66.72-.42.48-.62,1.12-.62,1.92,0,.89.18,2.1.53,3.63.35,1.53.77,2.89,1.26,4.08.49,1.22,1.28,1.82,2.38,1.82,1.4,0,2.1-.84,2.1-2.51,0-1.24-.18-2.66-.53-4.25s-.78-2.88-1.28-3.87c-.52-1.01-1.24-1.53-2.17-1.56Z"/>
    <path class="cls-5" d="M150.14,104.44l-6.1,11.2c-.94,1.73-1.74,2.94-2.4,3.61s-1.37,1.01-2.12,1.01-1.33-.25-1.79-.76c-.96-1.01-1.8-2.15-2.52-3.42l-6.69-11.98c-.36-.65-.71-1.12-1.05-1.41s-.8-.51-1.4-.66c-1.19-.33-1.79-.93-1.79-1.82s.74-1.56,2.21-1.98,3.81-.62,6.99-.62c2.67,0,4.64.18,5.9.54,1.26.36,1.9.92,1.9,1.68,0,.53-.3,1.04-.89,1.53-.38.33-.62.57-.73.73s-.16.37-.16.62c0,.5.35,1.34,1.04,2.51.69,1.14,1.33,1.71,1.93,1.71.39,0,.71-.14.97-.42s.71-1.01,1.37-2.18c.49-.86.73-1.51.73-1.96,0-.36-.25-.78-.75-1.27-.53-.53-.8-1.03-.8-1.49,0-.71.5-1.22,1.5-1.53,1-.31,2.63-.47,4.91-.47,3.2,0,4.8.65,4.8,1.96,0,.76-.57,1.3-1.72,1.65-.89.27-1.5.56-1.83.87s-.82,1.09-1.5,2.33Z"/>
    <path class="cls-5" d="M176,109.66h-11.07c-.49,0-.73.2-.73.6,0,.96.55,1.87,1.66,2.72s2.3,1.28,3.57,1.28c.75,0,1.59-.14,2.51-.41s1.68-.61,2.27-1.01c.53-.36.96-.53,1.27-.53.41,0,.81.24,1.2.71s.59.96.59,1.47c0,1.07-.71,2.1-2.12,3.09-2.5,1.76-5.38,2.65-8.64,2.65s-6.06-.9-8.29-2.71c-1.08-.89-1.98-1.96-2.68-3.22-.93-1.67-1.39-3.44-1.39-5.29,0-2.49.8-4.73,2.4-6.71,1.38-1.72,3.14-3,5.28-3.85,1.6-.64,3.34-.96,5.2-.96,2.98,0,5.52.8,7.61,2.4,1.05.8,1.9,1.75,2.54,2.85.74,1.24,1.11,2.46,1.11,3.65,0,.96-.21,1.75-.64,2.37s-.97.92-1.65.92ZM165.54,105.51h2.38c1,0,1.51-.44,1.51-1.31,0-.8-.24-1.45-.73-1.96s-1.12-.76-1.91-.76c-.88,0-1.57.33-2.07.98-.47.61-.71,1.22-.71,1.85,0,.44.11.76.34.93s.62.27,1.19.27Z"/>
    <path class="cls-5" d="M207.34,91.06v20.3c0,1.16.05,1.9.15,2.22s.39.64.86.96c.57.37.95.7,1.14.98s.29.62.29,1.02c0,1.19-1.26,2.09-3.79,2.71-2.28.55-4.55.82-6.83.82-.5,0-.83-.07-.98-.21s-.25-.48-.29-1.01c-.08-.76-.36-1.13-.85-1.13-.27,0-.68.22-1.25.67-1.6,1.23-3.38,1.85-5.35,1.85-2.43,0-4.62-.85-6.57-2.56-1.15-1.02-2.07-2.2-2.78-3.53-.94-1.73-1.41-3.49-1.41-5.27,0-2.09.61-4.11,1.84-6.05,1.13-1.79,2.67-3.17,4.62-4.13,1.63-.8,3.24-1.2,4.83-1.2,1.82,0,3.45.39,4.9,1.16.24.12.42.18.57.18.5,0,.75-.64.75-1.91,0-.55-.14-.97-.41-1.26s-.77-.54-1.47-.74c-.99-.3-1.48-.82-1.48-1.56,0-1.08,1.14-1.93,3.42-2.53,4.02-1.05,6.71-1.58,8.08-1.58s2.03.61,2.03,1.82ZM194.55,102.24c-1.02,0-1.83.51-2.43,1.53-.8,1.36-1.2,3.16-1.2,5.38,0,2.02.38,3.53,1.15,4.56.55.74,1.3,1.11,2.24,1.11,1.02,0,1.76-.56,2.23-1.68s.69-2.92.69-5.41c0-2.28-.27-3.8-.82-4.56-.42-.59-1.04-.9-1.86-.93Z"/>
    <path class="cls-5" d="M217.73,89.59c1.4,0,2.58.47,3.56,1.42,1.3,1.24,1.95,3.01,1.95,5.29,0,1.51-.28,3.14-.84,4.88-.56,1.74-1.3,3.29-2.23,4.66-1.05,1.54-1.9,2.31-2.54,2.31s-1.52-.99-2.66-2.96c-.85-1.45-1.52-3.01-2.01-4.67s-.74-3.18-.74-4.56c0-1.69.4-3.1,1.2-4.25.99-1.42,2.43-2.13,4.31-2.13ZM217.85,110.6c1.37,0,2.54.48,3.51,1.44.97.95,1.46,2.06,1.46,3.33s-.5,2.46-1.51,3.41c-1,.96-2.21,1.43-3.6,1.43s-2.54-.44-3.51-1.31c-1.05-.95-1.58-2.12-1.58-3.51,0-1.29.46-2.38,1.39-3.27,1.04-1.02,2.32-1.53,3.84-1.53Z"/>
  </g>
</svg>