<?xml version="1.0" encoding="UTF-8"?>
<svg id="Layer_1" data-name="Layer 1" xmlns="http://www.w3.org/2000/svg" viewBox="0 0 288 216">
  <defs>
    <style>
      .cls-1 {
        fill: #fff;
      }

      .cls-2 {
        fill: #e8a123;
      }

      .cls-3 {
        fill: #d56628;
      }

      .cls-4 {
        fill: none;
        stroke: #050505;
        stroke-miterlimit: 10;
        stroke-width: 2px;
      }

      .cls-5 {
        fill: #5ab3e5;
      }
    </style>
  </defs>
  <path class="cls-1" d="M283.46,39.11C270.66,14.75,245.82.2,217.02.2c-36.87,0-57.38,14.92-68.21,27.79-7.41-8.98-17.1-15.94-28.96-20.76C105.12,1.26,90.31,0,80.47,0c-4.43,0-7.64.26-9.05.39C48.29.78,22.42,20.53,10.96,46.63c-7.4,16.87-8.77,35.6-3.94,54.15,5.57,21.44,19.16,42.47,40.39,62.5,37.57,35.46,72.37,52.71,106.39,52.71,37.49,0,72.87-21.29,108.16-65.07,30.41-37.74,38.45-79.54,21.5-111.81ZM167.06,163.42c-5.36-3.5-10.2-7.65-14.34-12.35-1.23-1.41-2.42-2.89-3.47-4.44-1.01,1.46-2.12,2.87-3.3,4.2-4.11,4.7-8.95,8.84-14.29,12.35-14.96,9.83-33.92,14.67-52.26,12.92-7.81-5.83-15.8-12.61-24-20.35-4.78-4.51-9.06-8.99-12.88-13.44,23.61,2.45,48.04.27,69.85-7.96,4.6-1.72,9.09-3.72,13.41-6.01,6.18-3.25,13.33-7.2,19.96-4.75,1.44.53,2.68,1.34,3.73,2.36.99-.91,2.17-1.63,3.49-2.12,6.64-2.45,13.83,1.49,20.04,4.75,4.29,2.25,8.72,4.23,13.28,5.94,21.24,8.02,45,10.34,68.06,8.23-.44.57-.89,1.14-1.36,1.72-9.75,12.1-19.66,22.65-29.8,31.42-19.52,2.81-40.09-1.99-56.1-12.48ZM149.45,125.96c-3.05,2.71-4.51,7.01-4.1,10.98.36,3.47,1.88,6.71,3.9,9.7,2.1-3.05,3.67-6.37,4.03-9.93.4-3.86-.97-8.02-3.83-10.74Z"/>
  <path class="cls-1" d="M149.45,125.96c2.86,2.72,4.23,6.88,3.83,10.74-.36,3.56-1.93,6.88-4.03,9.93-2.02-2.99-3.54-6.23-3.9-9.7-.41-3.97,1.05-8.27,4.1-10.98Z"/>
  <path class="cls-1" d="M145.95,150.83c1.18-1.33,2.29-2.74,3.3-4.2,1.05,1.55,2.24,3.03,3.47,4.44,4.14,4.7,8.98,8.85,14.34,12.35,16.01,10.48,36.59,15.28,56.1,12.48-41.96,36.29-87.93,42.02-143.77.2,18.34,1.75,37.3-3.08,52.26-12.92,5.34-3.51,10.18-7.65,14.29-12.35Z"/>
  <path class="cls-1" d="M254.32,142.76c-23.06,2.1-46.82-.21-68.06-8.23-4.55-1.71-8.98-3.69-13.28-5.94-6.2-3.25-13.39-7.2-20.04-4.75-1.32.49-2.5,1.22-3.49,2.12-1.05-1.01-2.29-1.82-3.73-2.36-6.62-2.45-13.77,1.49-19.96,4.75-4.33,2.28-8.81,4.29-13.41,6.01-21.81,8.22-46.24,10.41-69.85,7.96C-18.53,71.39,38.14,11.06,72.1,11.06c0,0,57.47-7.02,76.69,38.29,0,0,12.43-38.48,68.22-38.48s91.08,63.38,37.3,131.89Z"/>
  <path class="cls-3" d="M149.45,125.96c2.86,2.72,4.23,6.88,3.83,10.74-.36,3.56-1.93,6.88-4.03,9.93-2.02-2.99-3.54-6.23-3.9-9.7-.41-3.97,1.05-8.27,4.1-10.98Z"/>
  <path class="cls-3" d="M145.95,150.83c1.18-1.33,2.29-2.74,3.3-4.2,1.05,1.55,2.24,3.03,3.47,4.44,4.14,4.7,8.98,8.85,14.34,12.35,16.01,10.48,36.59,15.28,56.1,12.48-41.96,36.29-87.93,42.02-143.77.2,18.34,1.75,37.3-3.08,52.26-12.92,5.34-3.51,10.18-7.65,14.29-12.35Z"/>
  <path class="cls-3" d="M254.32,142.76c-23.06,2.1-46.82-.21-68.06-8.23-4.55-1.71-8.98-3.69-13.28-5.94-6.2-3.25-13.39-7.2-20.04-4.75-1.32.49-2.5,1.22-3.49,2.12-1.05-1.01-2.29-1.82-3.73-2.36-6.62-2.45-13.77,1.49-19.96,4.75-4.33,2.28-8.81,4.29-13.41,6.01-21.81,8.22-46.24,10.41-69.85,7.96C-18.53,71.39,38.14,11.06,72.1,11.06c0,0,57.47-7.02,76.69,38.29,0,0,12.43-38.48,68.22-38.48s91.08,63.38,37.3,131.89Z"/>
  <g>
    <path class="cls-5" d="M131.65,163.18c-14.96,9.83-33.92,14.67-52.26,12.92-7.81-5.83-15.8-12.61-24-20.35-4.78-4.51-9.06-8.99-12.88-13.44,23.61,2.45,48.04.27,69.85-7.96-.9,2.6-9.55,29.41,19.3,28.83Z"/>
    <path class="cls-5" d="M130.39,161.02c-15,9.8-33.17,14.23-51,12.58l1.26.34c-13.13-9.83-25.67-20.96-36.38-33.4l-1.77,4.27c18.54,1.9,37.47,1.02,55.6-3.44,5.06-1.24,10.04-2.78,14.91-4.61-1.03-1.03-2.05-2.05-3.08-3.08-3.34,9.66-3.29,22.66,6.4,28.62,4.53,2.79,10.1,3.46,15.31,3.37,3.21-.05,3.22-5.05,0-5-2.43.04-4.75-.07-6.99-.52-1.88-.38-3.51-.93-4.84-1.62-.7-.37-1.37-.79-2.01-1.26-.56-.4.37.33-.14-.11-.1-.09-.21-.17-.31-.26-.32-.28-.63-.58-.92-.89-.24-.26-.47-.52-.7-.79-.41-.49.3.43-.07-.09-.07-.1-.14-.2-.22-.31-.42-.61-.78-1.25-1.1-1.92-.08-.16-.15-.33-.23-.5.03.07.2.51.04.09-.13-.34-.25-.68-.36-1.02-.2-.63-.37-1.27-.5-1.92-.07-.35-.13-.7-.19-1.06-.02-.14-.06-.49.02.13-.02-.18-.04-.35-.06-.53-.07-.7-.11-1.4-.12-2.11-.02-1.24.04-2.47.17-3.7.03-.26.06-.53.09-.79-.09.84.03-.2.06-.4.08-.52.18-1.04.28-1.56.31-1.53.7-3.05,1.21-4.53.59-1.72-1.32-3.73-3.08-3.08-17.09,6.41-35.35,9.07-53.56,8.8-5.22-.08-10.43-.4-15.62-.93-2.35-.24-3.03,2.8-1.77,4.27,9.64,11.2,20.78,21.22,32.39,30.34,1.31,1.03,2.64,2.05,3.97,3.06.91.69,1.55,1.04,2.72,1.16.85.08,1.71.14,2.56.19,3.42.19,6.86.16,10.28-.08,6.75-.49,13.47-1.75,19.92-3.8,7.16-2.28,14.04-5.49,20.34-9.6,2.68-1.75.18-6.08-2.52-4.32Z"/>
  </g>
  <path class="cls-2" d="M145.35,136.93c.36,3.47,1.88,6.71,3.9,9.7-1.01,1.46-2.12,2.87-3.3,4.2-4.11,4.7-8.95,8.84-14.29,12.35-28.85.58-20.2-26.23-19.3-28.83,4.6-1.72,9.09-3.72,13.41-6.01,6.18-3.25,13.33-7.2,19.96-4.75,1.44.53,2.68,1.34,3.73,2.36-3.05,2.71-4.51,7.01-4.1,10.98Z"/>
  <path class="cls-1" d="M153.28,136.7c-.36,3.56-1.93,6.88-4.03,9.93-2.02-2.99-3.54-6.23-3.9-9.7-.41-3.97,1.05-8.27,4.1-10.98,2.86,2.72,4.23,6.88,3.83,10.74Z"/>
  <path class="cls-4" d="M134.27,163.06c-.9.06-1.77.11-2.61.12"/>
  <path class="cls-4" d="M112.43,134.15s-.02.07-.08.2"/>
  <g>
    <path class="cls-5" d="M254.32,142.76c-.44.57-.89,1.14-1.36,1.72-9.75,12.1-19.66,22.65-29.8,31.42-19.52,2.81-40.09-1.99-56.1-12.48,29.02.54,19.97-26.73,19.2-28.89,21.24,8.02,45,10.34,68.06,8.23Z"/>
    <path class="cls-5" d="M252.55,140.99c-9.32,11.94-19.7,23.21-31.15,33.14l1.1-.64c-14.54,2.05-29.85-.26-43.23-6.25-3.8-1.7-7.46-3.7-10.95-5.97l-1.26,4.66c8.17.12,17.39-2.04,21.39-9.96,2.71-5.37,2.62-11.63,1.47-17.4-.32-1.59-.71-3.17-1.25-4.7-1.03,1.03-2.05,2.05-3.08,3.08,16.97,6.37,35.22,9.12,53.31,9.06,5.15-.02,10.29-.27,15.42-.73,1.34-.12,2.5-1.06,2.5-2.5,0-1.26-1.15-2.62-2.5-2.5-17.76,1.6-35.82.67-53.14-3.69-4.83-1.22-9.59-2.7-14.25-4.45-1.74-.65-3.68,1.36-3.08,3.08.42,1.18.74,2.39,1.02,3.6.24,1.04.41,2.08.58,3.13.09.56-.06-.61,0-.05.01.13.03.26.05.4.03.3.06.59.09.89.06.67.09,1.34.11,2.01.01.61,0,1.22-.02,1.82-.02.32-.04.65-.06.97-.02.19-.16,1.3-.05.57-.2,1.37-.53,2.7-1.01,4.01-.25.68.14-.24-.17.41-.16.33-.32.66-.5.98-.33.6-.7,1.17-1.12,1.72.38-.5-.34.38-.47.52-.22.24-.45.47-.69.69-.29.27-.6.54-.92.79.07-.06.39-.29.01-.02-.23.16-.46.32-.7.47-1.8,1.15-3.01,1.59-5.15,2.11-2.57.62-5.03.76-7.78.72-2.58-.04-3.27,3.35-1.26,4.66,11.33,7.37,24.42,11.79,37.85,13.18,3.39.35,6.79.49,10.2.41,1.63-.04,3.26-.12,4.89-.26.78-.07,1.55-.14,2.33-.23,1.05-.12,2.44-.07,3.37-.61,1.34-.78,2.55-2.18,3.7-3.22,1.39-1.26,2.77-2.55,4.13-3.85,2.47-2.37,4.89-4.8,7.25-7.29,5.82-6.12,11.38-12.52,16.58-19.17.83-1.06,1.04-2.5,0-3.54-.86-.86-2.7-1.07-3.54,0Z"/>
  </g>
  <path class="cls-2" d="M167.06,163.42c-5.36-3.5-10.2-7.65-14.34-12.35-1.23-1.41-2.42-2.89-3.47-4.44,2.1-3.05,3.67-6.37,4.03-9.93.4-3.86-.97-8.02-3.83-10.74.99-.91,2.17-1.63,3.49-2.12,6.64-2.45,13.83,1.49,20.04,4.75,4.29,2.25,8.72,4.23,13.28,5.94.77,2.17,9.82,29.44-19.2,28.89Z"/>
  <path class="cls-2" d="M153.28,136.7c-.36,3.56-1.93,6.88-4.03,9.93-2.02-2.99-3.54-6.23-3.9-9.7-.41-3.97,1.05-8.27,4.1-10.98,2.86,2.72,4.23,6.88,3.83,10.74Z"/>
  <path class="cls-4" d="M167.06,163.42c-.86-.01-1.75-.05-2.68-.12"/>
  <path class="cls-4" d="M186.26,134.52c-.02-.1-.05-.14-.05-.14"/>
</svg>