<?xml version="1.0" encoding="UTF-8"?>
<svg id="Layer_1" data-name="Layer 1" xmlns="http://www.w3.org/2000/svg" xmlns:xlink="http://www.w3.org/1999/xlink" viewBox="0 0 288 216">
  <defs>
    <style>
      .cls-1 {
        fill: #fff;
      }

      .cls-2 {
        fill: url(#radial-gradient);
      }

      .cls-3 {
        fill: url(#radial-gradient-3);
      }

      .cls-3, .cls-4, .cls-5, .cls-6, .cls-7, .cls-8, .cls-9 {
        stroke: #d6c87b;
        stroke-miterlimit: 10;
      }

      .cls-4 {
        fill: #999a36;
      }

      .cls-10 {
        fill: url(#radial-gradient-2);
      }

      .cls-5 {
        fill: url(#radial-gradient-8);
      }

      .cls-6 {
        fill: url(#radial-gradient-5);
      }

      .cls-7 {
        fill: url(#radial-gradient-4);
      }

      .cls-8 {
        fill: url(#radial-gradient-7);
      }

      .cls-9 {
        fill: url(#radial-gradient-6);
      }
    </style>
    <radialGradient id="radial-gradient" cx="137.71" cy="114.42" fx="137.71" fy="114.42" r="90.72" gradientTransform="translate(-34.34 130.66) rotate(-45) scale(1 .94)" gradientUnits="userSpaceOnUse">
      <stop offset="0" stop-color="#dbcb76"/>
      <stop offset=".45" stop-color="#dbcb77"/>
      <stop offset=".61" stop-color="#dbcc7e"/>
      <stop offset=".72" stop-color="#dbce8a"/>
      <stop offset=".81" stop-color="#dbd19b"/>
      <stop offset=".89" stop-color="#dcd5b1"/>
      <stop offset=".96" stop-color="#dcdacb"/>
      <stop offset="1" stop-color="#dddede"/>
    </radialGradient>
    <radialGradient id="radial-gradient-2" cx="140.73" cy="107.9" fx="140.73" fy="107.9" r="104.47" gradientTransform="translate(0 6.27) scale(1 .94)" xlink:href="#radial-gradient"/>
    <radialGradient id="radial-gradient-3" cx="36.15" cy="119.51" fx="36.15" fy="119.51" r="27.79" gradientTransform="translate(0 6.27) scale(1 .94)" gradientUnits="userSpaceOnUse">
      <stop offset="0" stop-color="#dbcb76"/>
      <stop offset="1" stop-color="#999a36"/>
    </radialGradient>
    <radialGradient id="radial-gradient-4" cx="92.66" cy="119.92" fx="92.66" fy="119.92" r="28.52" xlink:href="#radial-gradient-3"/>
    <radialGradient id="radial-gradient-5" cx="136.86" cy="119.95" fx="136.86" fy="119.95" r="22.81" xlink:href="#radial-gradient-3"/>
    <radialGradient id="radial-gradient-6" cx="180.76" cy="127.79" fx="180.76" fy="127.79" r="24.68" xlink:href="#radial-gradient-3"/>
    <radialGradient id="radial-gradient-7" cx="232.2" cy="127.79" fx="232.2" fy="127.79" r="21.35" xlink:href="#radial-gradient-3"/>
    <radialGradient id="radial-gradient-8" cx="267.88" cy="120.38" fx="267.88" fy="120.38" r="21.46" xlink:href="#radial-gradient-3"/>
  </defs>
  <path class="cls-1" d="M205.47,175.71c-3.24,3.24-7.26,5.57-11.6,6.72l-5.63,1.49-3.28-4.51c-1.65-2.27-3.48-4.41-5.45-6.39-10.62-10.62-25-16.21-40.5-15.74-15.49.47-30.24,6.95-41.53,18.24-2.2,2.2-4.25,4.58-6.1,7.06l-2.97,4.01-4.82-.21c-9.94-.44-18.26-7.14-20.71-16.67l-1.51-5.89,5.16-3.72c2.77-1.99,5.39-4.23,7.81-6.65,11.29-11.29,17.76-26.04,18.24-41.53.47-15.49-5.12-29.87-15.74-40.49-2.38-2.38-4.99-4.54-7.77-6.42l-4.36-2.95.96-5.38c.92-5.13,3.39-9.83,7.17-13.6,2.78-2.78,6.17-4.91,9.82-6.18l6.1-2.11,3.53,5.04c10.42,14.88,27.79,23.42,46.46,22.85h.47c15.32-.6,29.89-7.06,41.06-18.24,2.49-2.49,4.79-5.21,6.83-8.07l3.04-4.26,5.05.33c5.42.35,10.5,2.59,14.29,6.31,3.79,3.71,6.12,8.73,6.58,14.13l.4,4.71-3.78,3.12c-1.55,1.28-3.06,2.65-4.48,4.07-11.29,11.29-17.77,26.04-18.24,41.53-.47,15.49,5.11,29.88,15.74,40.5,1.36,1.36,2.81,2.66,4.33,3.88l3.13,2.52-.16,5.34c-.19,6.4-2.87,12.49-7.53,17.15Z"/>
  <g>
    <path class="cls-1" d="M140.74,215.78c-5.28,0-10.44-1.37-14.92-3.98l-5.8-3.37,1.01-6.34c.51-3.18.76-6.43.76-9.64,0-17.3-7.16-33.56-20.16-45.79-13-12.23-30.29-18.96-48.67-18.96-3.58,0-7.19.26-10.71.78l-5.68.84-3.75-4.1c-7.74-8.46-9.06-20.69-3.29-30.44l3.57-6.03,7.23,1.17c3.88.63,7.84.95,11.78.95,18.38,0,35.67-6.74,48.67-18.97,13-12.23,20.16-28.49,20.16-45.79,0-3.88-.37-7.76-1.1-11.55l-1.14-5.95,5.17-3.6c4.92-3.43,10.77-5.24,16.91-5.24,4.52,0,9.03,1.03,13.03,2.97l6.69,3.25-1.23,6.98c-3.63,20.6,3.56,41.7,19.23,56.44l.39.37c12.96,12,30.08,18.6,48.28,18.6,4.06,0,8.14-.34,12.14-1.01l5.94-1,3.84,4.38c4.13,4.7,6.44,10.66,6.5,16.78.06,6.11-2.13,12.1-6.15,16.87l-3.51,4.16-5.62-.54c-2.3-.22-4.65-.33-6.96-.33-18.39,0-35.67,6.74-48.67,18.97-13,12.23-20.16,28.49-20.16,45.79,0,2.21.12,4.46.37,6.68l.5,4.6-4.48,4.21c-5.37,5.05-12.51,7.84-20.1,7.84Z"/>
    <path class="cls-1" d="M241.29,118.35c-2.66-.25-5.33-.38-8.01-.38-20.26,0-40.52,7.27-55.98,21.81-15.46,14.54-23.19,33.6-23.19,52.67,0,2.56.14,5.12.42,7.67l-1,.94c-6.05,5.69-15.31,6.51-22.28,2.46.58-3.67.88-7.37.88-11.08,0-19.06-7.73-38.12-23.19-52.67-15.46-14.54-35.72-21.81-55.98-21.81-4.12,0-8.24.3-12.32.9-5.01-5.48-5.71-13.25-2.09-19.37,24.49,3.98,50.6-2.93,69.51-20.72,15.46-14.54,23.19-33.6,23.19-52.67,0-4.45-.42-8.89-1.26-13.28,5.58-3.89,13.01-4.37,19.05-1.44-4.03,22.9,3.34,47.24,22.12,64.91h0c19.02,17.89,45.31,24.78,69.93,20.66,5.43,6.19,5.51,15.14.22,21.4Z"/>
    <g>
      <path class="cls-1" d="M71.91,94.88c-2.99,0-5.43-.53-7.42-1.32-.03,0-.05.02-.08.02-2.16.67-4.77.97-8.46.97s-6.42-.39-8.79-1.24c-5.18-1.84-8.39-6.03-8.39-10.92,0-2.41.8-4.68,2.31-6.55.13-.16.25-.31.38-.45.02-1.03.03-2.78.03-5.75-1.77-1.95-2.74-4.47-2.74-7.09,0-3.08,1.31-5.97,3.69-8.12,1.66-1.5,3.71-2.56,6.09-3.13,1.38-.33,2.93-.49,4.74-.49.6,0,1.48.03,3.82.2.06,0,.26,0,.7,0,.57,0,1.66-.03,3.62-.18h.06c1.48-.11,2.47-.15,3.22-.15,4.88,0,9.15,1.24,12.68,3.69,4.22,2.93,6.54,7.31,6.54,12.32,0,1.56-.23,3.07-.69,4.51.54,1.02.98,2.15,1.33,3.39.58.53,1.11,1.13,1.57,1.78,1.29,1.82,1.98,3.95,1.98,6.15,0,2.5-.88,4.91-2.56,6.98-1.3,1.61-2.97,2.88-4.95,3.76l-.07.03c-2.44,1.07-5.26,1.58-8.61,1.58Z"/>
      <path class="cls-1" d="M61.43,74.48c-.47,0-.77.13-.9.4s-.19.89-.19,1.86c0,1.47.1,2.62.3,3.45.06.23.15.41.28.54s.36.28.7.47c.74.38,1.11.89,1.11,1.52,0,.77-.52,1.31-1.55,1.63-1.03.32-2.77.48-5.23.48-4.57,0-6.85-.81-6.85-2.44,0-.28.07-.5.2-.67s.44-.4.93-.71c.54-.34.91-.73,1.1-1.19s.32-1.25.4-2.38c.06-.82.09-3.78.09-8.86,0-1.61-.09-2.71-.26-3.29s-.54-1-1.11-1.27c-.54-.24-.91-.47-1.09-.67s-.28-.47-.28-.79c0-.43.18-.8.53-1.12s.84-.55,1.47-.71c.53-.13,1.26-.19,2.18-.19.41,0,1.43.06,3.05.17.31.02.8.03,1.46.03,1.11,0,2.59-.07,4.44-.21,1.17-.08,1.99-.12,2.46-.12,2.64,0,4.83.6,6.55,1.79,1.55,1.08,2.33,2.58,2.33,4.49,0,1.07-.27,2.04-.81,2.92s-1.29,1.54-2.24,1.98c-.39.19-.59.41-.59.66,0,.34.3.61.91.82,1.3.44,2.25,1.11,2.85,2s1.04,2.26,1.3,4.11c.11.77.27,1.26.48,1.49s.7.44,1.46.65c.23.07.43.22.59.44s.24.48.24.76c0,.36-.15.72-.44,1.09s-.68.65-1.15.86c-1.04.45-2.46.68-4.26.68-2.41,0-4.13-.6-5.16-1.79-.47-.53-.87-1.21-1.19-2.02s-.71-2.08-1.16-3.8c-.28-1.1-.64-1.88-1.08-2.33s-1.06-.7-1.88-.73ZM60.36,65.6l-.2,4.06v.16c0,.42.06.7.19.84s.39.21.79.21c1.09,0,1.88-.26,2.37-.79s.74-1.37.74-2.53c0-2.24-.85-3.36-2.54-3.36-.48,0-.82.1-1.02.31s-.31.58-.33,1.11Z"/>
      <path class="cls-1" d="M87.81,94.67c-5.05,0-9.63-1.55-13.25-4.47l-.05-.04c-1.81-1.48-3.31-3.27-4.46-5.31l-.03-.05c-1.5-2.71-2.27-5.62-2.27-8.65,0-4.06,1.38-7.92,4-11.15,2.18-2.71,5.01-4.76,8.38-6.09,2.51-1,5.24-1.5,8.09-1.5,4.69,0,9.01,1.4,12.48,4.05,1.85,1.41,3.38,3.11,4.53,5.06,1.44,2.43,2.18,4.99,2.18,7.59,0,1.69-.31,3.31-.91,4.8.07.51.11,1.03.11,1.55,0,2.29-.76,6.67-5.83,10.22-3.71,2.61-8.2,4-12.97,4Z"/>
      <path class="cls-1" d="M95.27,76.68h-8.7c-.38,0-.57.16-.57.47,0,.75.44,1.47,1.31,2.13.87.67,1.8,1,2.8,1,.59,0,1.25-.11,1.97-.32s1.32-.48,1.79-.79c.42-.28.75-.42,1-.42.32,0,.64.19.94.56s.46.75.46,1.15c0,.84-.56,1.64-1.67,2.42-1.96,1.38-4.23,2.07-6.79,2.07s-4.76-.71-6.52-2.12c-.85-.7-1.55-1.54-2.11-2.53-.73-1.31-1.09-2.69-1.09-4.14,0-1.95.63-3.7,1.89-5.26,1.09-1.35,2.47-2.35,4.15-3.01,1.26-.5,2.62-.75,4.09-.75,2.34,0,4.34.63,5.98,1.88.83.63,1.49,1.37,2,2.23.58.98.87,1.93.87,2.86,0,.75-.17,1.37-.5,1.85s-.77.72-1.3.72ZM87.05,73.42h1.87c.79,0,1.18-.34,1.18-1.03,0-.63-.19-1.14-.57-1.53s-.88-.59-1.5-.59c-.69,0-1.23.26-1.63.77-.37.48-.56.96-.56,1.45,0,.35.09.59.27.73s.49.21.93.21Z"/>
      <path class="cls-1" d="M113.1,94.67c-1.5,0-2.95-.2-4.31-.59-1.5.39-3.07.59-4.66.59-3.75,0-7.05-.91-9.8-2.7l-.04-.03c-2.03-1.33-3.65-3.07-4.8-5.16-1.16-2.09-1.74-4.33-1.74-6.66,0-2.04.47-4.02,1.38-5.84-.16-.76-.25-1.55-.25-2.36,0-2.78,1.03-5.47,2.99-7.76,1.33-1.56,3.03-2.88,5.05-3.91l.11-.05c3.73-1.86,7.71-2.8,11.84-2.8s8.3,1.17,11.54,3.39l.04.03c2.31,1.6,4.01,3.59,5.06,5.93.86,1.93,1.28,4.11,1.28,6.68v.13s-.02,1.14-.02,1.14c1.36,1.74,2.15,3.9,2.15,6.23,0,2.64-.95,5.25-2.74,7.53-1.32,1.68-2.99,3.07-4.96,4.14-2.52,1.38-5.24,2.08-8.09,2.08Z"/>
      <path class="cls-1" d="M108.84,67.12c2.15,0,3.97.51,5.46,1.53.79.55,1.34,1.17,1.66,1.87s.47,1.67.47,2.9l-.04,2.59c0,1.8.14,2.97.41,3.5.14.26.27.42.39.49s.38.13.78.19.59.3.59.73c0,.56-.24,1.14-.71,1.74s-1.09,1.11-1.84,1.52c-.93.51-1.89.77-2.91.77-1.3,0-2.32-.42-3.07-1.25-.26-.3-.5-.45-.72-.45-.25,0-.57.15-.98.44-1.23.85-2.63,1.27-4.2,1.27s-2.92-.33-3.92-.98c-.65-.43-1.17-.99-1.55-1.68s-.57-1.41-.57-2.17c0-1.21.52-2.28,1.55-3.2,1.62-1.46,4.04-2.2,7.26-2.21.72,0,1.17-.07,1.35-.2s.28-.44.28-.93c0-1.23-.14-2.12-.41-2.67s-.72-.83-1.33-.83c-.37,0-.7.1-.99.31s-.65.59-1.08,1.15c-1.1,1.47-2.25,2.21-3.44,2.21-.6,0-1.1-.17-1.48-.51s-.57-.78-.57-1.32.24-1.11.71-1.67,1.12-1.04,1.93-1.46c2.23-1.11,4.57-1.67,7-1.67ZM107.6,77.2c-.54,0-1.02.21-1.42.63s-.6.92-.6,1.5.14,1.01.43,1.35.66.51,1.13.51c.99,0,1.48-.78,1.48-2.35,0-.64-.07-1.07-.21-1.29s-.41-.34-.81-.35Z"/>
      <path class="cls-1" d="M128.13,94.67c-4.53,0-8.75-1.59-12.19-4.6l-.07-.06c-1.76-1.57-3.21-3.4-4.31-5.44-1.48-2.72-2.23-5.59-2.23-8.52,0-3.4.98-6.67,2.9-9.71,1.88-2.96,4.47-5.28,7.71-6.88l.04-.02c.63-.31,1.27-.58,1.92-.82,1.5-2.56,4.27-4.88,8.75-6.07h.05c4.33-1.14,6.97-1.6,9.11-1.6,6.8,0,11.93,4.79,11.93,11.15v13.82c1.26,1.81,1.93,3.93,1.93,6.13,0,4.3-2.81,9.6-10.71,11.53h-.05c-2.62.64-5.28.96-7.92.96-1.07,0-2.04-.12-2.92-.31-1.28.29-2.59.43-3.93.43Z"/>
      <path class="cls-1" d="M141.4,62.1v15.9c0,.91.04,1.49.12,1.74s.31.51.68.75c.44.29.74.55.9.77s.23.49.23.8c0,.93-.99,1.64-2.98,2.12-1.79.43-3.58.64-5.37.64-.39,0-.65-.06-.77-.17s-.19-.37-.23-.79c-.06-.59-.28-.89-.67-.89-.21,0-.54.17-.98.52-1.26.96-2.66,1.45-4.2,1.45-1.91,0-3.63-.67-5.16-2-.9-.8-1.63-1.72-2.18-2.77-.74-1.36-1.11-2.73-1.11-4.13,0-1.64.48-3.22,1.44-4.74.89-1.4,2.1-2.48,3.63-3.24,1.28-.63,2.55-.94,3.79-.94,1.43,0,2.72.3,3.85.91.19.09.33.14.44.14.39,0,.59-.5.59-1.5,0-.43-.11-.76-.32-.98s-.6-.42-1.16-.58c-.78-.23-1.17-.64-1.17-1.22,0-.85.89-1.51,2.68-1.99,3.16-.82,5.28-1.24,6.35-1.24s1.59.48,1.59,1.43ZM131.35,70.86c-.8,0-1.44.4-1.91,1.2-.63,1.07-.94,2.47-.94,4.21,0,1.58.3,2.77.91,3.57.43.58,1.02.87,1.76.87.8,0,1.39-.44,1.75-1.31s.55-2.29.55-4.24c0-1.79-.22-2.98-.65-3.57-.33-.46-.82-.71-1.46-.73Z"/>
      <path class="cls-1" d="M149.92,100.28c-4.27,0-8.12-1.27-11.13-3.67-3.2-2.54-4.97-6.13-4.97-10.08,0-3.2,1.2-6.22,3.4-8.58-.78-.68-1.46-1.47-2.04-2.35-1.18-1.8-1.81-3.84-1.81-5.89,0-4.68,3.09-10.2,11.77-11.68,2.07-.35,4.36-.52,6.82-.52,2.16,0,4.05.23,5.74.7,1.68-.46,3.51-.68,5.55-.68,2.91,0,5.34.46,7.42,1.41,4.22,1.91,6.84,5.78,6.84,10.09,0,2.93-1.16,5.68-3.26,7.75-.68.67-1.44,1.25-2.3,1.76-.06.15-.13.32-.2.5l-2.43,6.3c-.82,2.12-1.67,3.89-2.59,5.39-1.1,1.79-2.41,3.37-3.9,4.7-3.53,3.17-8,4.84-12.92,4.84Z"/>
      <path class="cls-1" d="M162.06,75.7l-2.44,6.32c-.6,1.57-1.21,2.85-1.82,3.84s-1.31,1.84-2.08,2.53c-1.6,1.44-3.54,2.16-5.79,2.16-1.83,0-3.31-.45-4.44-1.36-.88-.7-1.31-1.58-1.31-2.66,0-.89.31-1.65.92-2.26.61-.61,1.36-.91,2.25-.91s1.6.28,2.15.84c.26.26.43.48.52.68s.22.63.39,1.31c.14.51.44.77.93.77.38,0,.7-.16.96-.47s.39-.7.39-1.17c0-.55-.32-1.46-.96-2.73l-4.46-8.93c-.47-.93-.82-1.51-1.06-1.74s-.75-.52-1.55-.85c-.25-.09-.46-.28-.64-.55s-.27-.54-.27-.79c0-1.03,1.09-1.74,3.28-2.11,1.46-.24,3.12-.37,4.98-.37,1.31,0,2.34.13,3.09.38,1.01.34,1.52.91,1.52,1.72,0,.29-.14.63-.43,1.03-.27.37-.41.7-.41.99s.06.57.19.87.4.81.82,1.53c.47.81.88,1.22,1.24,1.22.38,0,.78-.36,1.18-1.07s.61-1.4.61-2.06c0-.53-.15-.97-.46-1.31-.47-.52-.7-.97-.7-1.34,0-.59.42-1.07,1.26-1.42.84-.35,1.96-.53,3.37-.53,2.62,0,3.92.59,3.92,1.78,0,.43-.13.77-.4,1.04s-.75.51-1.45.74c-.59.21-1.06.56-1.41,1.04-.54.78-1.17,2.06-1.87,3.85Z"/>
    </g>
    <g>
      <path class="cls-1" d="M190.23,94.57c-4.29,0-7.51-.39-10.13-1.23-5.48-1.74-8.89-6.01-8.89-11.12,0-1.72.42-3.39,1.21-4.88-1.08-.63-2.07-1.42-2.93-2.36-2.07-2.25-3.16-5.07-3.16-8.16,0-1.89.4-3.84,1.18-5.8.68-1.71,1.62-3.32,2.78-4.78,3.92-4.95,8.61-5.69,11.06-5.69.97,0,1.98.11,3,.32.41.08.61.1.66.11.03,0,.13,0,.3,0h9.52c.19-.01.28-.03.28-.03l.16-.04c1.24-.31,2.46-.47,3.64-.47,2.68,0,7.75.86,11.63,6.59,2.01,2.97,3.04,6.18,3.04,9.53,0,4.04-1.86,7.68-5.09,9.97-.54.38-1.11.72-1.7,1.02.74,1.48,1.13,3.12,1.13,4.82,0,4.99-3.31,9.21-8.65,11.01-2.39.81-5.26,1.18-9.04,1.18Z"/>
      <path class="cls-1" d="M185.31,60.71h9.76c1.05-.03,2.01-.17,2.87-.4.37-.09.7-.14.98-.14,1,0,1.97.7,2.92,2.09.94,1.39,1.42,2.83,1.42,4.3,0,1.01-.33,1.75-.98,2.21-.49.35-1.09.52-1.78.52-.65,0-1.22-.17-1.7-.51s-.96-.91-1.43-1.7c-.41-.72-.73-1.19-.96-1.41s-.52-.33-.85-.33c-.46,0-.78.18-.98.54s-.3.95-.3,1.78v9.75c0,1,.11,1.72.33,2.18s.64.8,1.26,1.04c.67.27,1.12.52,1.36.76s.36.57.36.98c0,.84-.6,1.46-1.8,1.86-1.2.41-3.05.61-5.54.61-3.06,0-5.33-.24-6.81-.71-1.25-.39-1.87-1.03-1.87-1.92,0-.48.22-.85.67-1.11.11-.06.55-.2,1.31-.42.47-.13.79-.37.97-.73s.32-1.05.44-2.07c.1-.91.19-2.37.28-4.4.09-2.03.13-3.78.13-5.27,0-1.04-.09-1.79-.26-2.23s-.46-.66-.85-.66c-.48,0-.95.33-1.41.98-.83,1.18-1.51,1.97-2.04,2.35-.63.45-1.24.68-1.83.68-.67,0-1.22-.24-1.65-.71s-.65-1.07-.65-1.8.17-1.51.52-2.38.81-1.66,1.39-2.39c.94-1.18,1.86-1.78,2.78-1.78.25,0,.53.03.85.1.67.13,1.21.21,1.64.26s.92.07,1.47.07Z"/>
      <path class="cls-1" d="M211.15,94.67c-5.53,0-10.43-1.71-14.16-4.93-3.93-3.39-6.01-7.94-6.01-13.15,0-5.62,2.38-10.5,6.87-14.11,4.13-3.33,9.31-5.09,15-5.09,4.38,0,8.35,1.13,11.8,3.37,2.55,1.65,4.62,3.8,6.14,6.4l.02.04c1.6,2.76,2.4,5.72,2.4,8.79,0,5.54-2.75,10.56-7.75,14.15-4.12,2.96-9.07,4.52-14.33,4.52Z"/>
      <path class="cls-1" d="M212.85,67.12c2.26,0,4.24.55,5.94,1.65,1.22.79,2.2,1.82,2.94,3.08.77,1.32,1.15,2.7,1.15,4.14,0,2.52-1.23,4.66-3.68,6.43-2.34,1.68-5.03,2.53-8.05,2.53s-5.34-.79-7.16-2.37c-1.78-1.53-2.67-3.53-2.67-5.99,0-2.74,1.09-4.98,3.26-6.72,2.27-1.83,5.03-2.75,8.27-2.75ZM211.37,71.14c-.54,0-.98.19-1.31.57s-.49.88-.49,1.51c0,.7.14,1.65.42,2.85s.61,2.27.99,3.2c.38.95,1.01,1.43,1.87,1.43,1.1,0,1.65-.66,1.65-1.97,0-.98-.14-2.08-.42-3.33s-.61-2.25-1.01-3.03c-.41-.79-.97-1.2-1.7-1.22Z"/>
    </g>
    <g>
      <path class="cls-1" d="M35.33,156.27c-4.27,0-8.79-.48-13.43-1.41-5.31-1.07-9.13-2.4-12.02-4.16l-.1-.06c-3.26-2.05-5.75-5.41-7.61-10.28-1.47-3.85-2.21-7.72-2.21-11.5,0-3.52,1.03-6.52,3.06-8.93.26-.31.54-.62.83-.9-1.86-3.81-2.39-7.4-2.39-10.25,0-3.79.93-7.5,2.77-11.01,1.79-3.42,4.32-6.41,7.53-8.88,6.55-5.15,14.52-7.76,23.68-7.76,3.46,0,7.5.62,12.31,1.88,1.36-.39,2.77-.59,4.21-.59,5.42,0,10.25,2.79,14.36,8.29,3.31,4.43,4.99,8.98,4.99,13.52,0,3.56-1.19,6.84-3.44,9.53,2.91,3.97,4.44,8.61,4.44,13.74,0,8.58-3.89,15.96-11.26,21.34-6.78,4.95-15.44,7.46-25.73,7.46Z"/>
      <path class="cls-1" d="M35.46,90.84c2.86,0,6.62.67,11.26,2,.56.16,1,.24,1.33.24.28,0,1.11-.24,2.5-.71.44-.16.92-.24,1.42-.24,1.86,0,3.83,1.39,5.9,4.16s3.11,5.41,3.11,7.92c0,1.46-.47,2.7-1.4,3.71-.93,1.01-2.06,1.51-3.4,1.51-1.11,0-2.02-.21-2.71-.63s-2.22-1.66-4.59-3.73c-3.34-2.93-6.62-4.39-9.84-4.39-1.56,0-2.8.35-3.73,1.06s-1.4,1.63-1.4,2.79c0,2.28,2.13,3.99,6.38,5.14,5.76,1.6,9.44,2.76,11.05,3.49,7.09,3.24,10.63,8.02,10.63,14.32,0,5.57-2.42,10.12-7.26,13.65-4.95,3.61-11.41,5.41-19.39,5.41-3.56,0-7.31-.4-11.26-1.2-3.95-.8-6.8-1.73-8.55-2.81-1.33-.84-2.54-2.66-3.61-5.47s-1.61-5.55-1.61-8.22c0-1.28.28-2.25.83-2.9.7-.84,1.57-1.26,2.63-1.26s2.07.51,3.04,1.53c.58.58,1.96,2.42,4.13,5.53,1.03,1.46,2.66,2.68,4.9,3.65s4.55,1.45,6.94,1.45c2.06,0,3.73-.36,5-1.08,1.28-.72,1.92-1.64,1.92-2.77,0-1.05-.5-1.95-1.5-2.71s-2.63-1.46-4.88-2.12c-3.98-1.18-7.01-2.26-9.09-3.24s-4.03-2.22-5.84-3.71c-4.39-3.66-6.59-7.82-6.59-12.48,0-2.3.57-4.54,1.71-6.73,1.14-2.18,2.75-4.07,4.84-5.67,4.67-3.69,10.37-5.53,17.1-5.53Z"/>
      <path class="cls-1" d="M107.19,156c-5.32,0-9.28-.49-12.47-1.53-.62-.2-1.22-.43-1.79-.68-.37.16-.76.32-1.15.46-3.31,1.2-7.41,1.76-12.9,1.76-6.06,0-10.54-.53-14.09-1.67-9.83-3.15-10.59-10.48-10.59-12.65,0-3.58,1.39-6.06,2.56-7.51.63-.78,1.36-1.49,2.35-2.26.02-.15.05-.31.07-.49.24-1.85.53-5.82.53-14.22,0-3.73-.08-6.19-.17-7.81-4.6-3.46-5.17-7.8-5.17-9.72,0-4.57,2.41-8.69,6.61-11.3,2.31-1.43,5.54-2.63,10.46-3.89,5.95-1.55,10.76-2.31,14.7-2.31,3.68,0,6.99,1.26,9.33,3.55,2.27,2.23,3.46,5.23,3.34,8.46l-.09,2.8c1.27-.2,2.57-.29,3.9-.29,7.19,0,13.4,2.33,17.96,6.75,2.34,2.26,4.02,4.96,4.98,8.02.76,2.4,1.16,5.41,1.24,9.18l.33,12.55c2.56,2.36,4.01,5.52,4.01,8.85,0,2.14-.76,9.38-10.48,12.41-3.4,1.06-7.67,1.55-13.45,1.55Z"/>
      <path class="cls-1" d="M88.47,93.86l-.54,16.44c-.06,1.96.58,2.94,1.92,2.94.67,0,1.32-.43,1.96-1.29,2.7-3.69,6.3-5.53,10.8-5.53s7.94,1.27,10.55,3.81c1.17,1.12,1.99,2.46,2.48,4,.49,1.54.76,3.75.81,6.63l.38,14.16c.03,1.23.2,2.13.52,2.71s1.06,1.29,2.23,2.16c.81.6,1.21,1.32,1.21,2.16,0,2.82-4.53,4.24-13.6,4.24-8.06,0-12.09-1.32-12.09-3.96,0-.44.07-.78.21-1.02s.63-.86,1.46-1.88c1.17-1.44,1.75-5.03,1.75-10.79,0-3.48-.35-6.02-1.04-7.61-.92-2.17-2.56-3.26-4.92-3.26-1.7,0-2.95.58-3.75,1.73-.58.84-.88,2.41-.88,4.71v7.57c.19,3.35.36,5.24.5,5.69s.78,1.27,1.92,2.47c.53.55.79,1.19.79,1.92,0,2.96-4.09,4.43-12.26,4.43-9.56,0-14.35-1.53-14.35-4.59,0-.71.15-1.25.46-1.63s1.06-.96,2.25-1.75c1.06-.71,1.79-2.61,2.19-5.71.4-3.1.6-8.23.6-15.4,0-5.62-.17-9.52-.5-11.69-.11-.81-.31-1.41-.6-1.79s-.84-.77-1.65-1.16c-1.72-.84-2.59-1.8-2.59-2.9,0-1.31.65-2.37,1.96-3.18,1.31-.81,3.81-1.69,7.51-2.63,5-1.31,8.99-1.96,11.97-1.96,1.61,0,2.39.65,2.34,1.96Z"/>
      <path class="cls-1" d="M137.59,156c-5.87,0-10.56-.47-14.35-1.44l-.13-.03c-2.9-.78-5.45-2.3-7.35-4.38-2.22-2.43-3.4-5.4-3.4-8.58,0-3.5,1.34-5.95,2.46-7.39.67-.86,1.48-1.66,2.63-2.56.05-.58.09-1.43.09-2.6,0-.39-.02-1.48-.18-4.36,0-.07,0-.13-.01-.2-3.31-2.47-5.19-6.03-5.19-10.04,0-2.99,1.02-5.72,2.88-7.97-1.36-2.15-2.09-4.62-2.09-7.25,0-3,1.13-10.39,11.64-14.33,4.67-1.76,9.25-2.65,13.58-2.65s8.21.94,11.31,2.8c4.39,2.63,6.91,6.87,6.91,11.63,0,2.15-.47,4.2-1.37,6.08.96,1.56,1.74,3.67,1.74,6.4v22.41c1.06.86,1.9,1.74,2.58,2.68,1.45,2.01,2.22,4.43,2.22,7,0,5.73-3.72,10.53-9.95,12.84-3.57,1.33-8.03,1.94-14.02,1.94Z"/>
      <path class="cls-1" d="M146.44,109.12v22.79c0,1.8.17,3.13.52,3.96s1.05,1.61,2.11,2.31c.86.58,1.44,1.07,1.73,1.47s.44.92.44,1.55c0,3.37-4.55,5.06-13.64,5.06-4.89,0-8.77-.37-11.64-1.1-.97-.26-1.76-.72-2.36-1.37s-.9-1.4-.9-2.24c0-.71.15-1.26.46-1.65s1.08-1.02,2.34-1.88c.86-.6,1.47-1.58,1.84-2.94s.54-3.39.54-6.08c0-.86-.06-2.48-.19-4.85-.13-2.37-.22-3.75-.27-4.14-.17-1.07-.95-1.9-2.34-2.47-1.72-.71-2.59-1.75-2.59-3.14,0-1.65,1.13-2.88,3.38-3.69,3.11-1.12,6.45-2.08,10.01-2.86,3.56-.78,6.31-1.18,8.26-1.18,1.53,0,2.29.81,2.29,2.43ZM138.18,91.94c2.42,0,4.34.43,5.76,1.28,1.42.85,2.13,1.99,2.13,3.43,0,2.01-1.07,3.61-3.21,4.79-3.39,1.86-7.49,2.79-12.3,2.79-2.03,0-3.64-.37-4.84-1.1-1.61-.94-2.42-2.25-2.42-3.92,0-2.25,1.71-4.01,5.13-5.3,3.48-1.31,6.73-1.96,9.76-1.96Z"/>
      <path class="cls-1" d="M165.04,156.04c-5.36,0-9.37-.59-12.65-1.87-5.81-2.26-9.28-6.89-9.28-12.37,0-2.61.72-4.93,2.15-6.9.49-.68,1.06-1.32,1.76-1.95.02-.3.05-.64.07-1.02.15-2.36.24-4.86.27-7.45-3.04-2.46-4.75-5.83-4.75-9.52,0-4.14,2.08-7.94,5.71-10.43,1.86-1.28,4.44-2.42,8.61-3.83h.03c2.92-.98,5.79-1.82,8.53-2.5,3.51-.87,5.82-1.24,7.73-1.24,2.56,0,5,.67,7.09,1.93,3.01-1.3,6.38-1.97,10.01-1.97,5.73,0,10.82,1.5,15.12,4.47l.07.05c3.31,2.32,5.7,5.2,7.11,8.57,1.14,2.72,1.77,6.02,2,10.4l.53,12.45c.1.1.36.36.36.36,1.56,1.57,3.42,4.3,3.42,8.42,0,5.94-3.98,10.86-10.4,12.85-3.37,1.04-7.99,1.51-14.99,1.51-5.42,0-9.17-.53-12.14-1.7-.31-.12-.61-.25-.9-.39-.46.19-.93.36-1.42.51-3.44,1.11-7.9,1.62-14.02,1.62Z"/>
      <path class="cls-1" d="M204.28,120.89l.58,13.81c.06,1.05.23,1.82.52,2.31s1.15,1.45,2.56,2.86c.42.42.63,1.01.63,1.77,0,1.73-1.1,2.93-3.29,3.61-2.2.68-6.12,1.02-11.76,1.02-3.84,0-6.55-.31-8.13-.94-1.64-.65-2.46-1.71-2.46-3.18,0-.52.08-.91.25-1.16s.72-.86,1.67-1.82c1.11-1.1,1.67-4.76,1.67-10.99,0-3.61-.44-6.28-1.33-8-.72-1.39-2.06-2.08-4-2.08s-3.14.56-3.84,1.69-1.04,3.16-1.04,6.12v7.77c0,1.54.1,2.6.31,3.18s.9,1.69,2.06,3.33c.31.47.46,1.01.46,1.61,0,1.54-1.14,2.68-3.42,3.41s-5.84,1.1-10.68,1.1c-7.73,0-11.59-1.5-11.59-4.51,0-.63.12-1.11.35-1.43s.8-.79,1.69-1.39c.72-.5,1.18-1.07,1.38-1.71s.38-2.22.54-4.73c.19-2.98.29-6.11.29-9.38,0-1.8-.15-2.99-.44-3.55s-1.13-1.25-2.52-2.06c-1.2-.71-1.79-1.57-1.79-2.59s.49-1.9,1.46-2.57,2.97-1.51,6.01-2.53c2.67-.89,5.24-1.64,7.72-2.26,2.47-.61,4.17-.92,5.09-.92.83,0,1.54.29,2.11.86s.85,1.26.85,2.04c0,.08-.01.41-.04.98-.03.21-.04.39-.04.55,0,1.26.56,1.88,1.67,1.88.67,0,1.38-.5,2.13-1.49,2.39-3.24,5.87-4.86,10.43-4.86,3.5,0,6.51.86,9.01,2.59,1.75,1.23,2.97,2.67,3.67,4.34.7,1.66,1.13,4.1,1.29,7.32Z"/>
      <path class="cls-1" d="M232.72,156.27c-8.35,0-15.56-2.4-21.42-7.13l-.05-.04c-2.87-2.35-5.26-5.2-7.11-8.48l-.03-.05c-2.41-4.34-3.63-9-3.63-13.84,0-6.55,2.14-12.52,6.37-17.74,3.54-4.39,8.11-7.71,13.57-9.87,4.08-1.62,8.53-2.44,13.21-2.44,7.68,0,14.4,2.15,19.97,6.4,2.89,2.19,5.25,4.83,7.03,7.85,2.17,3.65,3.27,7.41,3.27,11.17s-.93,6.77-2.77,9.44c.65,1.56.98,3.2.98,4.88,0,3.52-1.37,8.67-7.92,13.25-6.21,4.37-13.44,6.59-21.48,6.59ZM237.99,126.14"/>
      <path class="cls-1" d="M249.53,127.91h-19.6c-.86,0-1.29.35-1.29,1.06,0,1.7.98,3.3,2.94,4.81s4.07,2.26,6.32,2.26c1.33,0,2.82-.24,4.44-.73,1.63-.48,2.97-1.08,4.02-1.79.95-.63,1.7-.94,2.25-.94.72,0,1.43.42,2.13,1.26s1.04,1.7,1.04,2.59c0,1.88-1.25,3.7-3.75,5.45-4.42,3.11-9.52,4.67-15.31,4.67s-10.73-1.6-14.68-4.79c-1.92-1.57-3.5-3.47-4.75-5.69-1.64-2.96-2.46-6.07-2.46-9.34,0-4.39,1.42-8.34,4.25-11.85,2.45-3.03,5.56-5.3,9.34-6.79,2.84-1.12,5.91-1.69,9.22-1.69,5.28,0,9.77,1.41,13.47,4.24,1.86,1.41,3.36,3.09,4.5,5.02,1.31,2.2,1.96,4.34,1.96,6.43,0,1.7-.38,3.09-1.13,4.18s-1.72,1.63-2.92,1.63ZM231.01,120.58h4.21c1.78,0,2.67-.77,2.67-2.31,0-1.41-.43-2.56-1.29-3.45-.86-.89-1.99-1.33-3.38-1.33-1.56,0-2.78.58-3.67,1.73-.83,1.07-1.25,2.16-1.25,3.26,0,.78.2,1.33.6,1.65s1.11.47,2.11.47Z"/>
      <path class="cls-1" d="M267.84,156.27c-5.08,0-9.69-1.73-13.34-4.99-3.93-3.53-6-8.11-6-13.24,0-4.81,1.86-9.15,5.38-12.54.11-.11.23-.22.34-.33-.1-.16-.19-.32-.27-.47-1.87-3.19-3.37-6.65-4.45-10.28-1.13-3.77-1.7-7.36-1.7-10.68,0-4.9,1.29-9.22,3.83-12.84,3.67-5.25,9.44-8.14,16.26-8.14,5.28,0,10.01,1.88,13.69,5.44,2.93,2.81,6.41,7.88,6.41,16.14,0,3.61-.65,7.45-1.92,11.42-1.11,3.46-2.59,6.65-4.39,9.52.03.03.06.06.09.09,3.58,3.49,5.47,7.85,5.47,12.63s-1.96,9.36-5.67,12.87c-3.73,3.54-8.47,5.41-13.72,5.41Z"/>
      <path class="cls-1" d="M267.88,92.49c2.47,0,4.57.84,6.3,2.51,2.31,2.2,3.46,5.31,3.46,9.34,0,2.67-.49,5.54-1.48,8.61s-2.3,5.81-3.94,8.22c-1.86,2.72-3.36,4.08-4.5,4.08s-2.68-1.74-4.71-5.22c-1.5-2.56-2.69-5.31-3.57-8.24-.88-2.93-1.31-5.61-1.31-8.04,0-2.98.71-5.48,2.13-7.49,1.75-2.51,4.3-3.77,7.63-3.77ZM268.09,129.56c2.42,0,4.49.85,6.21,2.55,1.72,1.67,2.59,3.64,2.59,5.88s-.89,4.34-2.67,6.02c-1.78,1.69-3.91,2.53-6.38,2.53s-4.49-.77-6.21-2.31c-1.86-1.67-2.79-3.74-2.79-6.2,0-2.28.82-4.2,2.46-5.77,1.84-1.8,4.1-2.71,6.8-2.71Z"/>
    </g>
  </g>
  <path class="cls-2" d="M207.39,54.14c-1.79,1.48-3.51,3.04-5.15,4.68-12.44,12.44-20.42,29.35-20.98,47.77-.56,18.42,6.39,34.87,18.1,46.58,1.57,1.57,3.23,3.06,4.97,4.45l-.04,1.19c-.22,7.21-5.4,13.4-12.17,15.19-1.9-2.61-3.99-5.07-6.26-7.34-11.71-11.71-28.16-18.66-46.58-18.1-18.42.56-35.33,8.54-47.77,20.98-2.53,2.53-4.87,5.24-7.01,8.12-6.44-.29-11.64-4.63-13.18-10.61,17.48-12.6,29.27-32.87,29.96-55.41.56-18.42-6.4-34.87-18.1-46.58-2.73-2.73-5.72-5.2-8.93-7.38,1.04-5.82,5.3-10.67,10.81-12.58,11.59,16.54,31.05,26.95,53.43,26.27h0c22.66-.69,43.04-12.61,55.62-30.25,7.14.46,12.68,5.91,13.27,13.01Z"/>
  <path class="cls-10" d="M241.29,118.35c-2.66-.25-5.33-.38-8.01-.38-20.26,0-40.52,7.27-55.98,21.81-15.46,14.54-23.19,33.6-23.19,52.67,0,2.56.14,5.12.42,7.67l-1,.94c-6.05,5.69-15.31,6.51-22.28,2.46.58-3.67.88-7.37.88-11.08,0-19.06-7.73-38.12-23.19-52.67-15.46-14.54-35.72-21.81-55.98-21.81-4.12,0-8.24.3-12.32.9-5.01-5.48-5.71-13.25-2.09-19.37,24.49,3.98,50.6-2.93,69.51-20.72,15.46-14.54,23.19-33.6,23.19-52.67,0-4.45-.42-8.89-1.26-13.28,5.58-3.89,13.01-4.37,19.05-1.44-4.03,22.9,3.34,47.24,22.12,64.91h0c19.02,17.89,45.31,24.78,69.93,20.66,5.43,6.19,5.51,15.14.22,21.4Z"/>
  <g>
    <path class="cls-4" d="M61.43,74.48c-.47,0-.77.13-.9.4s-.19.89-.19,1.86c0,1.47.1,2.62.3,3.45.06.23.15.41.28.54s.36.28.7.47c.74.38,1.11.89,1.11,1.52,0,.77-.52,1.31-1.55,1.63-1.03.32-2.77.48-5.23.48-4.57,0-6.85-.81-6.85-2.44,0-.28.07-.5.2-.67s.44-.4.93-.71c.54-.34.91-.73,1.1-1.19s.32-1.25.4-2.38c.06-.82.09-3.78.09-8.86,0-1.61-.09-2.71-.26-3.29s-.54-1-1.11-1.27c-.54-.24-.91-.47-1.09-.67s-.28-.47-.28-.79c0-.43.18-.8.53-1.12s.84-.55,1.47-.71c.53-.13,1.26-.19,2.18-.19.41,0,1.43.06,3.05.17.31.02.8.03,1.46.03,1.11,0,2.59-.07,4.44-.21,1.17-.08,1.99-.12,2.46-.12,2.64,0,4.83.6,6.55,1.79,1.55,1.08,2.33,2.58,2.33,4.49,0,1.07-.27,2.04-.81,2.92s-1.29,1.54-2.24,1.98c-.39.19-.59.41-.59.66,0,.34.3.61.91.82,1.3.44,2.25,1.11,2.85,2s1.04,2.26,1.3,4.11c.11.77.27,1.26.48,1.49s.7.44,1.46.65c.23.07.43.22.59.44s.24.48.24.76c0,.36-.15.72-.44,1.09s-.68.65-1.15.86c-1.04.45-2.46.68-4.26.68-2.41,0-4.13-.6-5.16-1.79-.47-.53-.87-1.21-1.19-2.02s-.71-2.08-1.16-3.8c-.28-1.1-.64-1.88-1.08-2.33s-1.06-.7-1.88-.73ZM60.36,65.6l-.2,4.06v.16c0,.42.06.7.19.84s.39.21.79.21c1.09,0,1.88-.26,2.37-.79s.74-1.37.74-2.53c0-2.24-.85-3.36-2.54-3.36-.48,0-.82.1-1.02.31s-.31.58-.33,1.11Z"/>
    <path class="cls-4" d="M95.27,76.68h-8.7c-.38,0-.57.16-.57.47,0,.75.44,1.47,1.31,2.13.87.67,1.8,1,2.8,1,.59,0,1.25-.11,1.97-.32s1.32-.48,1.79-.79c.42-.28.75-.42,1-.42.32,0,.64.19.94.56s.46.75.46,1.15c0,.84-.56,1.64-1.67,2.42-1.96,1.38-4.23,2.07-6.79,2.07s-4.76-.71-6.52-2.12c-.85-.7-1.55-1.54-2.11-2.53-.73-1.31-1.09-2.69-1.09-4.14,0-1.95.63-3.7,1.89-5.26,1.09-1.35,2.47-2.35,4.15-3.01,1.26-.5,2.62-.75,4.09-.75,2.34,0,4.34.63,5.98,1.88.83.63,1.49,1.37,2,2.23.58.98.87,1.93.87,2.86,0,.75-.17,1.37-.5,1.85s-.77.72-1.3.72ZM87.05,73.42h1.87c.79,0,1.18-.34,1.18-1.03,0-.63-.19-1.14-.57-1.53s-.88-.59-1.5-.59c-.69,0-1.23.26-1.63.77-.37.48-.56.96-.56,1.45,0,.35.09.59.27.73s.49.21.93.21Z"/>
    <path class="cls-4" d="M108.84,67.12c2.15,0,3.97.51,5.46,1.53.79.55,1.34,1.17,1.66,1.87s.47,1.67.47,2.9l-.04,2.59c0,1.8.14,2.97.41,3.5.14.26.27.42.39.49s.38.13.78.19.59.3.59.73c0,.56-.24,1.14-.71,1.74s-1.09,1.11-1.84,1.52c-.93.51-1.89.77-2.91.77-1.3,0-2.32-.42-3.07-1.25-.26-.3-.5-.45-.72-.45-.25,0-.57.15-.98.44-1.23.85-2.63,1.27-4.2,1.27s-2.92-.33-3.92-.98c-.65-.43-1.17-.99-1.55-1.68s-.57-1.41-.57-2.17c0-1.21.52-2.28,1.55-3.2,1.62-1.46,4.04-2.2,7.26-2.21.72,0,1.17-.07,1.35-.2s.28-.44.28-.93c0-1.23-.14-2.12-.41-2.67s-.72-.83-1.33-.83c-.37,0-.7.1-.99.31s-.65.59-1.08,1.15c-1.1,1.47-2.25,2.21-3.44,2.21-.6,0-1.1-.17-1.48-.51s-.57-.78-.57-1.32.24-1.11.71-1.67,1.12-1.04,1.93-1.46c2.23-1.11,4.57-1.67,7-1.67ZM107.6,77.2c-.54,0-1.02.21-1.42.63s-.6.92-.6,1.5.14,1.01.43,1.35.66.51,1.13.51c.99,0,1.48-.78,1.48-2.35,0-.64-.07-1.07-.21-1.29s-.41-.34-.81-.35Z"/>
    <path class="cls-4" d="M141.4,62.1v15.9c0,.91.04,1.49.12,1.74s.31.51.68.75c.44.29.74.55.9.77s.23.49.23.8c0,.93-.99,1.64-2.98,2.12-1.79.43-3.58.64-5.37.64-.39,0-.65-.06-.77-.17s-.19-.37-.23-.79c-.06-.59-.28-.89-.67-.89-.21,0-.54.17-.98.52-1.26.96-2.66,1.45-4.2,1.45-1.91,0-3.63-.67-5.16-2-.9-.8-1.63-1.72-2.18-2.77-.74-1.36-1.11-2.73-1.11-4.13,0-1.64.48-3.22,1.44-4.74.89-1.4,2.1-2.48,3.63-3.24,1.28-.63,2.55-.94,3.79-.94,1.43,0,2.72.3,3.85.91.19.09.33.14.44.14.39,0,.59-.5.59-1.5,0-.43-.11-.76-.32-.98s-.6-.42-1.16-.58c-.78-.23-1.17-.64-1.17-1.22,0-.85.89-1.51,2.68-1.99,3.16-.82,5.28-1.24,6.35-1.24s1.59.48,1.59,1.43ZM131.35,70.86c-.8,0-1.44.4-1.91,1.2-.63,1.07-.94,2.47-.94,4.21,0,1.58.3,2.77.91,3.57.43.58,1.02.87,1.76.87.8,0,1.39-.44,1.75-1.31s.55-2.29.55-4.24c0-1.79-.22-2.98-.65-3.57-.33-.46-.82-.71-1.46-.73Z"/>
    <path class="cls-4" d="M162.06,75.7l-2.44,6.32c-.6,1.57-1.21,2.85-1.82,3.84s-1.31,1.84-2.08,2.53c-1.6,1.44-3.54,2.16-5.79,2.16-1.83,0-3.31-.45-4.44-1.36-.88-.7-1.31-1.58-1.31-2.66,0-.89.31-1.65.92-2.26.61-.61,1.36-.91,2.25-.91s1.6.28,2.15.84c.26.26.43.48.52.68s.22.63.39,1.31c.14.51.44.77.93.77.38,0,.7-.16.96-.47s.39-.7.39-1.17c0-.55-.32-1.46-.96-2.73l-4.46-8.93c-.47-.93-.82-1.51-1.06-1.74s-.75-.52-1.55-.85c-.25-.09-.46-.28-.64-.55s-.27-.54-.27-.79c0-1.03,1.09-1.74,3.28-2.11,1.46-.24,3.12-.37,4.98-.37,1.31,0,2.34.13,3.09.38,1.01.34,1.52.91,1.52,1.72,0,.29-.14.63-.43,1.03-.27.37-.41.7-.41.99s.06.57.19.87.4.81.82,1.53c.47.81.88,1.22,1.24,1.22.38,0,.78-.36,1.18-1.07s.61-1.4.61-2.06c0-.53-.15-.97-.46-1.31-.47-.52-.7-.97-.7-1.34,0-.59.42-1.07,1.26-1.42.84-.35,1.96-.53,3.37-.53,2.62,0,3.92.59,3.92,1.78,0,.43-.13.77-.4,1.04s-.75.51-1.45.74c-.59.21-1.06.56-1.41,1.04-.54.78-1.17,2.06-1.87,3.85Z"/>
  </g>
  <g>
    <path class="cls-4" d="M185.31,60.71h9.76c1.05-.03,2.01-.17,2.87-.4.37-.09.7-.14.98-.14,1,0,1.97.7,2.92,2.09.94,1.39,1.42,2.83,1.42,4.3,0,1.01-.33,1.75-.98,2.21-.49.35-1.09.52-1.78.52-.65,0-1.22-.17-1.7-.51s-.96-.91-1.43-1.7c-.41-.72-.73-1.19-.96-1.41s-.52-.33-.85-.33c-.46,0-.78.18-.98.54s-.3.95-.3,1.78v9.75c0,1,.11,1.72.33,2.18s.64.8,1.26,1.04c.67.27,1.12.52,1.36.76s.36.57.36.98c0,.84-.6,1.46-1.8,1.86-1.2.41-3.05.61-5.54.61-3.06,0-5.33-.24-6.81-.71-1.25-.39-1.87-1.03-1.87-1.92,0-.48.22-.85.67-1.11.11-.06.55-.2,1.31-.42.47-.13.79-.37.97-.73s.32-1.05.44-2.07c.1-.91.19-2.37.28-4.4.09-2.03.13-3.78.13-5.27,0-1.04-.09-1.79-.26-2.23s-.46-.66-.85-.66c-.48,0-.95.33-1.41.98-.83,1.18-1.51,1.97-2.04,2.35-.63.45-1.24.68-1.83.68-.67,0-1.22-.24-1.65-.71s-.65-1.07-.65-1.8.17-1.51.52-2.38.81-1.66,1.39-2.39c.94-1.18,1.86-1.78,2.78-1.78.25,0,.53.03.85.1.67.13,1.21.21,1.64.26s.92.07,1.47.07Z"/>
    <path class="cls-4" d="M212.85,67.12c2.26,0,4.24.55,5.94,1.65,1.22.79,2.2,1.82,2.94,3.08.77,1.32,1.15,2.7,1.15,4.14,0,2.52-1.23,4.66-3.68,6.43-2.34,1.68-5.03,2.53-8.05,2.53s-5.34-.79-7.16-2.37c-1.78-1.53-2.67-3.53-2.67-5.99,0-2.74,1.09-4.98,3.26-6.72,2.27-1.83,5.03-2.75,8.27-2.75ZM211.37,71.14c-.54,0-.98.19-1.31.57s-.49.88-.49,1.51c0,.7.14,1.65.42,2.85s.61,2.27.99,3.2c.38.95,1.01,1.43,1.87,1.43,1.1,0,1.65-.66,1.65-1.97,0-.98-.14-2.08-.42-3.33s-.61-2.25-1.01-3.03c-.41-.79-.97-1.2-1.7-1.22Z"/>
  </g>
  <g>
    <path class="cls-3" d="M35.46,90.84c2.86,0,6.62.67,11.26,2,.56.16,1,.24,1.33.24.28,0,1.11-.24,2.5-.71.44-.16.92-.24,1.42-.24,1.86,0,3.83,1.39,5.9,4.16s3.11,5.41,3.11,7.92c0,1.46-.47,2.7-1.4,3.71-.93,1.01-2.06,1.51-3.4,1.51-1.11,0-2.02-.21-2.71-.63s-2.22-1.66-4.59-3.73c-3.34-2.93-6.62-4.39-9.84-4.39-1.56,0-2.8.35-3.73,1.06s-1.4,1.63-1.4,2.79c0,2.28,2.13,3.99,6.38,5.14,5.76,1.6,9.44,2.76,11.05,3.49,7.09,3.24,10.63,8.02,10.63,14.32,0,5.57-2.42,10.12-7.26,13.65-4.95,3.61-11.41,5.41-19.39,5.41-3.56,0-7.31-.4-11.26-1.2-3.95-.8-6.8-1.73-8.55-2.81-1.33-.84-2.54-2.66-3.61-5.47s-1.61-5.55-1.61-8.22c0-1.28.28-2.25.83-2.9.7-.84,1.57-1.26,2.63-1.26s2.07.51,3.04,1.53c.58.58,1.96,2.42,4.13,5.53,1.03,1.46,2.66,2.68,4.9,3.65s4.55,1.45,6.94,1.45c2.06,0,3.73-.36,5-1.08,1.28-.72,1.92-1.64,1.92-2.77,0-1.05-.5-1.95-1.5-2.71s-2.63-1.46-4.88-2.12c-3.98-1.18-7.01-2.26-9.09-3.24s-4.03-2.22-5.84-3.71c-4.39-3.66-6.59-7.82-6.59-12.48,0-2.3.57-4.54,1.71-6.73,1.14-2.18,2.75-4.07,4.84-5.67,4.67-3.69,10.37-5.53,17.1-5.53Z"/>
    <path class="cls-7" d="M88.47,93.86l-.54,16.44c-.06,1.96.58,2.94,1.92,2.94.67,0,1.32-.43,1.96-1.29,2.7-3.69,6.3-5.53,10.8-5.53s7.94,1.27,10.55,3.81c1.17,1.12,1.99,2.46,2.48,4,.49,1.54.76,3.75.81,6.63l.38,14.16c.03,1.23.2,2.13.52,2.71s1.06,1.29,2.23,2.16c.81.6,1.21,1.32,1.21,2.16,0,2.82-4.53,4.24-13.6,4.24-8.06,0-12.09-1.32-12.09-3.96,0-.44.07-.78.21-1.02s.63-.86,1.46-1.88c1.17-1.44,1.75-5.03,1.75-10.79,0-3.48-.35-6.02-1.04-7.61-.92-2.17-2.56-3.26-4.92-3.26-1.7,0-2.95.58-3.75,1.73-.58.84-.88,2.41-.88,4.71v7.57c.19,3.35.36,5.24.5,5.69s.78,1.27,1.92,2.47c.53.55.79,1.19.79,1.92,0,2.96-4.09,4.43-12.26,4.43-9.56,0-14.35-1.53-14.35-4.59,0-.71.15-1.25.46-1.63s1.06-.96,2.25-1.75c1.06-.71,1.79-2.61,2.19-5.71.4-3.1.6-8.23.6-15.4,0-5.62-.17-9.52-.5-11.69-.11-.81-.31-1.41-.6-1.79s-.84-.77-1.65-1.16c-1.72-.84-2.59-1.8-2.59-2.9,0-1.31.65-2.37,1.96-3.18,1.31-.81,3.81-1.69,7.51-2.63,5-1.31,8.99-1.96,11.97-1.96,1.61,0,2.39.65,2.34,1.96Z"/>
    <path class="cls-6" d="M146.44,109.12v22.79c0,1.8.17,3.13.52,3.96s1.05,1.61,2.11,2.31c.86.58,1.44,1.07,1.73,1.47s.44.92.44,1.55c0,3.37-4.55,5.06-13.64,5.06-4.89,0-8.77-.37-11.64-1.1-.97-.26-1.76-.72-2.36-1.37s-.9-1.4-.9-2.24c0-.71.15-1.26.46-1.65s1.08-1.02,2.34-1.88c.86-.6,1.47-1.58,1.84-2.94s.54-3.39.54-6.08c0-.86-.06-2.48-.19-4.85-.13-2.37-.22-3.75-.27-4.14-.17-1.07-.95-1.9-2.34-2.47-1.72-.71-2.59-1.75-2.59-3.14,0-1.65,1.13-2.88,3.38-3.69,3.11-1.12,6.45-2.08,10.01-2.86,3.56-.78,6.31-1.18,8.26-1.18,1.53,0,2.29.81,2.29,2.43ZM138.18,91.94c2.42,0,4.34.43,5.76,1.28,1.42.85,2.13,1.99,2.13,3.43,0,2.01-1.07,3.61-3.21,4.79-3.39,1.86-7.49,2.79-12.3,2.79-2.03,0-3.64-.37-4.84-1.1-1.61-.94-2.42-2.25-2.42-3.92,0-2.25,1.71-4.01,5.13-5.3,3.48-1.31,6.73-1.96,9.76-1.96Z"/>
    <path class="cls-9" d="M204.28,120.89l.58,13.81c.06,1.05.23,1.82.52,2.31s1.15,1.45,2.56,2.86c.42.42.63,1.01.63,1.77,0,1.73-1.1,2.93-3.29,3.61-2.2.68-6.12,1.02-11.76,1.02-3.84,0-6.55-.31-8.13-.94-1.64-.65-2.46-1.71-2.46-3.18,0-.52.08-.91.25-1.16s.72-.86,1.67-1.82c1.11-1.1,1.67-4.76,1.67-10.99,0-3.61-.44-6.28-1.33-8-.72-1.39-2.06-2.08-4-2.08s-3.14.56-3.84,1.69-1.04,3.16-1.04,6.12v7.77c0,1.54.1,2.6.31,3.18s.9,1.69,2.06,3.33c.31.47.46,1.01.46,1.61,0,1.54-1.14,2.68-3.42,3.41s-5.84,1.1-10.68,1.1c-7.73,0-11.59-1.5-11.59-4.51,0-.63.12-1.11.35-1.43s.8-.79,1.69-1.39c.72-.5,1.18-1.07,1.38-1.71s.38-2.22.54-4.73c.19-2.98.29-6.11.29-9.38,0-1.8-.15-2.99-.44-3.55s-1.13-1.25-2.52-2.06c-1.2-.71-1.79-1.57-1.79-2.59s.49-1.9,1.46-2.57,2.97-1.51,6.01-2.53c2.67-.89,5.24-1.64,7.72-2.26,2.47-.61,4.17-.92,5.09-.92.83,0,1.54.29,2.11.86s.85,1.26.85,2.04c0,.08-.01.41-.04.98-.03.21-.04.39-.04.55,0,1.26.56,1.88,1.67,1.88.67,0,1.38-.5,2.13-1.49,2.39-3.24,5.87-4.86,10.43-4.86,3.5,0,6.51.86,9.01,2.59,1.75,1.23,2.97,2.67,3.67,4.34.7,1.66,1.13,4.1,1.29,7.32Z"/>
    <path class="cls-8" d="M249.53,127.91h-19.6c-.86,0-1.29.35-1.29,1.06,0,1.7.98,3.3,2.94,4.81s4.07,2.26,6.32,2.26c1.33,0,2.82-.24,4.44-.73,1.63-.48,2.97-1.08,4.02-1.79.95-.63,1.7-.94,2.25-.94.72,0,1.43.42,2.13,1.26s1.04,1.7,1.04,2.59c0,1.88-1.25,3.7-3.75,5.45-4.42,3.11-9.52,4.67-15.31,4.67s-10.73-1.6-14.68-4.79c-1.92-1.57-3.5-3.47-4.75-5.69-1.64-2.96-2.46-6.07-2.46-9.34,0-4.39,1.42-8.34,4.25-11.85,2.45-3.03,5.56-5.3,9.34-6.79,2.84-1.12,5.91-1.69,9.22-1.69,5.28,0,9.77,1.41,13.47,4.24,1.86,1.41,3.36,3.09,4.5,5.02,1.31,2.2,1.96,4.34,1.96,6.43,0,1.7-.38,3.09-1.13,4.18s-1.72,1.63-2.92,1.63ZM231.01,120.58h4.21c1.78,0,2.67-.77,2.67-2.31,0-1.41-.43-2.56-1.29-3.45-.86-.89-1.99-1.33-3.38-1.33-1.56,0-2.78.58-3.67,1.73-.83,1.07-1.25,2.16-1.25,3.26,0,.78.2,1.33.6,1.65s1.11.47,2.11.47Z"/>
    <path class="cls-5" d="M267.88,92.49c2.47,0,4.57.84,6.3,2.51,2.31,2.2,3.46,5.31,3.46,9.34,0,2.67-.49,5.54-1.48,8.61s-2.3,5.81-3.94,8.22c-1.86,2.72-3.36,4.08-4.5,4.08s-2.68-1.74-4.71-5.22c-1.5-2.56-2.69-5.31-3.57-8.24-.88-2.93-1.31-5.61-1.31-8.04,0-2.98.71-5.48,2.13-7.49,1.75-2.51,4.3-3.77,7.63-3.77ZM268.09,129.56c2.42,0,4.49.85,6.21,2.55,1.72,1.67,2.59,3.64,2.59,5.88s-.89,4.34-2.67,6.02c-1.78,1.69-3.91,2.53-6.38,2.53s-4.49-.77-6.21-2.31c-1.86-1.67-2.79-3.74-2.79-6.2,0-2.28.82-4.2,2.46-5.77,1.84-1.8,4.1-2.71,6.8-2.71Z"/>
  </g>
</svg>