<?xml version="1.0" encoding="UTF-8"?>
<svg id="Layer_1" data-name="Layer 1" xmlns="http://www.w3.org/2000/svg" viewBox="0 0 216 216">
  <defs>
    <style>
      .cls-1 {
        fill: #fff;
      }

      .cls-2 {
        fill: #e8a123;
      }

      .cls-3 {
        fill: #5ab3e5;
      }

      .cls-4 {
        fill: #0773b4;
      }
    </style>
  </defs>
  <path class="cls-1" d="M108.1,216c-34.34,0-66.95-16.52-87.22-44.2C3.84,148.53-3.12,120.01,1.29,91.5,5.69,63,20.94,37.91,44.22,20.87,62.86,7.22,84.9,0,107.95,0c34.34,0,66.95,16.52,87.22,44.2,35.19,48.04,24.72,115.75-23.33,150.93-18.65,13.65-40.69,20.87-63.74,20.87Z"/>
  <ellipse class="cls-1" cx="108.03" cy="108" rx="90.63" ry="90.62"/>
  <ellipse class="cls-2" cx="108.03" cy="108" rx="90.63" ry="90.62"/>
  <circle class="cls-3" cx="73.37" cy="81.81" r="27.64"/>
  <circle class="cls-4" cx="82.77" cy="79.81" r="14.53"/>
  <circle class="cls-3" cx="143.89" cy="78.87" r="27.64"/>
  <circle class="cls-4" cx="134.49" cy="76.87" r="14.53"/>
  <path class="cls-4" d="M100.8,114.41c-14.55,5.53-22.61,24.15-18,41.6,4.61,17.45,20.14,27.12,34.69,21.59,14.55-5.53,22.61-24.15,18-41.6-4.61-17.45-20.14-27.12-34.69-21.59Z"/>
</svg>