<?xml version="1.0" encoding="UTF-8"?>
<svg id="Layer_1" data-name="Layer 1" xmlns="http://www.w3.org/2000/svg" viewBox="0 0 288 216">
  <defs>
    <style>
      .cls-1 {
        fill: #11793d;
      }

      .cls-2, .cls-3, .cls-4, .cls-5, .cls-6, .cls-7 {
        stroke-miterlimit: 10;
      }

      .cls-2, .cls-4, .cls-5, .cls-6, .cls-7 {
        stroke: #050606;
      }

      .cls-2, .cls-4, .cls-6, .cls-8 {
        fill: #050505;
      }

      .cls-2, .cls-7 {
        stroke-width: .07px;
      }

      .cls-3 {
        stroke: #8acae7;
        stroke-width: 13.27px;
      }

      .cls-3, .cls-9 {
        fill: #fff;
      }

      .cls-4 {
        stroke-width: .04px;
      }

      .cls-10 {
        fill: #231f20;
      }

      .cls-5, .cls-6 {
        stroke-width: .1px;
      }

      .cls-5, .cls-7 {
        fill: none;
      }

      .cls-11 {
        fill: #3dab99;
      }

      .cls-12 {
        fill: #323087;
      }

      .cls-13 {
        fill: #88cced;
      }

      .cls-14 {
        fill: #cd6677;
      }

      .cls-15 {
        fill: #dbcb76;
      }

      .cls-16 {
        fill: #882056;
      }
    </style>
  </defs>
  <path class="cls-9" d="M146.79,178.12c-36.29,0-70.58-6.53-96.56-18.4-28.73-13.12-44.56-31.61-44.56-52.07s15.82-38.94,44.56-52.06c25.98-11.86,60.27-18.4,96.56-18.4s70.58,6.53,96.56,18.4c28.73,13.12,44.56,31.61,44.56,52.06s-15.82,38.94-44.56,52.07c-25.98,11.86-60.27,18.4-96.56,18.4Z"/>
  <ellipse class="cls-9" cx="137.2" cy="114.05" rx="117.63" ry="53.73"/>
  <ellipse class="cls-3" cx="146.79" cy="107.66" rx="130.06" ry="59.41"/>
  <g>
    <g>
      <path class="cls-9" d="M220.47,89.67c-1.13,0-2.28-.14-3.43-.43-2.39-.53-6.38-2.99-6.98-9.15l-.02-.22v-.06c0-.12-.04-.28-.07-.39-.76-.95-1.13-2.16-1-3.39.14-1.32.81-2.49,1.9-3.32,1.07-1.12,2.39-1.9,3.83-2.24.73-.18,1.52-.27,2.32-.27.03,0,.16,0,.2,0,.96,0,2.94.24,5.35,1.87,1.39.94,4.93,2.59,6.14,2.88.41-.01,1.11-.06,1.75-.11,1.24-.09,2.64-.18,3.79-.18s2.31.07,3.39.62l.77.38s.58.67.6.68c.53.48.85,1.01,1.04,1.43l.95,2.06-1.16,1.98c-1.25,2.12-3.51,2.28-5.17,2.41h-.11s-.11.01-.11.01c-1.29.03-2.82.18-3.65.34-1.91,2.08-2.56,2.52-2.92,2.74l-.05.04c-.84.57-3.41,2.31-7.37,2.31Z"/>
      <path class="cls-9" d="M213.53,76.15s.22-.15.47-.42c.47-.5,1.06-.88,1.73-1.04.41-.1.89-.16,1.44-.15,0,0,1.17-.1,2.99,1.12,1.81,1.23,6.83,3.63,8.38,3.63s6.34-.56,7.19-.13c0,0,.19.21-.37.24,0,0,.69.01.77.19s-1.75.31-1.75.31c0,0-5.82.13-6.34,1.29,0,0-1.92,2.13-2.44,2.45s-3.17,2.48-7.58,1.36c0,0-3.17-.59-3.63-5.34,0,0-.05-1.9-1.01-2.95,0,0-.26-.28.16-.57Z"/>
      <path class="cls-9" d="M215.93,81.15c-2.65,0-4.81-2.17-4.81-4.85s2.16-4.84,4.81-4.84,4.81,2.17,4.81,4.84-2.16,4.85-4.81,4.85Z"/>
      <ellipse class="cls-9" cx="215.93" cy="76.3" rx=".47" ry=".51"/>
      <path class="cls-9" d="M216.04,80.8c-2.53,0-4.6-2.07-4.6-4.61s2.06-4.61,4.6-4.61,4.6,2.07,4.6,4.61-2.06,4.61-4.6,4.61Z"/>
      <ellipse class="cls-9" cx="216.04" cy="76.19" rx=".26" ry=".28"/>
      <path class="cls-9" d="M214.99,71.49l6.5,6.31-5.61,2.69c-.49.24-1.31.52-2.4.52-.74,0-1.49-.13-2.23-.39"/>
      <path class="cls-9" d="M212.29,76.38l1.27-.23.44.43s-.49.23-1.29-.05l-.42-.15Z"/>
      <path class="cls-9" d="M222.79,85.36c-4.27,0-6.9-2.2-7.38-2.64l4.86-7.09c.92.46,1.97.69,3.14.69.92,0,1.56-.15,1.57-.16h-.05s2.73,8.24,2.73,8.24c-1.61.63-3.25.96-4.86.96Z"/>
      <path class="cls-9" d="M218.33,79.51s2.99,2.72,7.74.85c0,0-3.9,1.07-7.74-.85Z"/>
    </g>
    <g>
      <path class="cls-9" d="M26.41,82.93c-4.89,0-8.09-2.16-9.14-2.87l-.1-.07c-.38-.23-1.25-.8-3.99-3.83-1.1-.29-3.61-.56-5.74-.61h-.11s-.11-.01-.11-.01c-2.22-.16-4.51-.33-5.79-2.51l-1.15-1.96.95-2.1c.23-.5.59-1.05,1.13-1.52.03-.03.06-.07.08-.1l.56-.64.76-.38c1.12-.56,2.38-.68,3.92-.68s3.39.13,5.04.24c1.02.07,2.07.14,2.63.15,1.54-.26,6.95-2.75,9.06-4.18,2.93-1.98,5.26-2.28,6.39-2.28.06,0,.23,0,.27,0,.97,0,1.91.11,2.79.32,1.69.41,3.25,1.33,4.5,2.68.01.01.02.02.03.03,1.19.86,1.92,2.1,2.07,3.5.14,1.33-.29,2.65-1.17,3.64-.13.23-.27.84-.29,1.28v.18s-.02.1-.02.1c-.73,7.5-5.47,10.46-8.28,11.06-1.45.36-2.9.54-4.31.54h0Z"/>
      <path class="cls-9" d="M35.85,66.13s-.3-.21-.63-.57c-.64-.68-1.44-1.2-2.35-1.42-.56-.13-1.2-.21-1.95-.2,0,0-1.59-.14-4.06,1.53-2.46,1.67-9.28,4.93-11.38,4.93-2.1,0-8.61-.76-9.76-.18,0,0-.25.29.51.33,0,0-.94.02-1.05.25s2.37.42,2.37.42c0,0,7.9.18,8.61,1.76,0,0,2.6,2.9,3.32,3.33s4.3,3.37,10.29,1.85c0,0,4.3-.8,4.93-7.25,0,0,.07-2.58,1.38-4.01,0,0,.35-.37-.22-.77Z"/>
      <path class="cls-9" d="M32.58,71.36c-2.75,0-4.98-2.25-4.98-5.03s2.23-5.03,4.98-5.03,4.98,2.25,4.98,5.03-2.23,5.03-4.98,5.03Z"/>
      <ellipse class="cls-9" cx="32.58" cy="66.34" rx=".64" ry=".69"/>
      <path class="cls-9" d="M32.44,70.89c-2.59,0-4.69-2.11-4.69-4.71s2.1-4.71,4.69-4.71,4.69,2.11,4.69,4.71-2.1,4.71-4.69,4.71Z"/>
      <ellipse class="cls-9" cx="32.44" cy="66.18" rx=".35" ry=".37"/>
      <path class="cls-9" d="M38.38,70.73c-.81.29-1.65.44-2.48.44h0c-1.25,0-2.16-.34-2.58-.55l-5.62-2.69,6.66-6.46"/>
      <path class="cls-9" d="M37.52,66.43l-1.73-.31-.6.58s.66.32,1.76-.07l.57-.2Z"/>
      <path class="cls-9" d="M23.26,77.08c-2,0-4.03-.4-6.04-1.19l2.73-8.22s1.02.25,2.47.25c1.82,0,3.49-.37,4.95-1.1l4.86,7.09c-.36.33-3.65,3.18-8.98,3.18Z"/>
      <path class="cls-9" d="M29.32,70.69s-4.06,3.7-10.51,1.16c0,0,5.29,1.45,10.51-1.16Z"/>
    </g>
    <g>
      <path class="cls-9" d="M254.16,129.6c-1.44,0-2.92-.19-4.4-.55-2.86-.61-7.68-3.61-8.42-11.26l-.02-.19v-.09c-.03-.47-.18-1.13-.32-1.37-.89-1-1.32-2.32-1.18-3.66.14-1.4.88-2.64,2.08-3.51.01-.01.03-.03.05-.04,1.27-1.36,2.85-2.3,4.57-2.71.89-.22,1.85-.33,2.84-.33.04,0,.08,0,.12,0,.05,0,.1,0,.16,0,1.15,0,3.52.3,6.5,2.32,2.19,1.48,7.8,4.06,9.37,4.32.58,0,1.66-.08,2.72-.16,1.7-.12,3.62-.25,5.17-.25s2.84.12,3.97.68l.76.38.56.64s.06.07.09.11c.55.47.9,1.02,1.14,1.52l.96,2.07-1.16,2c-1.29,2.18-3.61,2.35-5.86,2.51h-.11s-.11.01-.11.01c-2.23.05-4.83.34-5.96.64-2.82,3.12-3.71,3.7-4.09,3.94l-.11.07c-1.07.72-4.33,2.93-9.32,2.93Z"/>
      <path class="cls-9" d="M244.47,112.46s.31-.22.65-.58c.65-.7,1.48-1.23,2.41-1.46.57-.14,1.23-.22,2.01-.2,0,0,1.63-.14,4.17,1.57,2.53,1.71,9.53,5.06,11.69,5.06s8.84-.78,10.03-.19c0,0,.26.3-.52.33,0,0,.97.02,1.08.26s-2.44.43-2.44.43c0,0-8.11.19-8.84,1.81,0,0-2.67,2.98-3.41,3.42s-4.42,3.46-10.57,1.9c0,0-4.42-.82-5.06-7.44,0,0-.07-2.65-1.41-4.12,0,0-.36-.38.22-.79Z"/>
      <path class="cls-9" d="M247.82,117.72c-2.76,0-5-2.26-5-5.04s2.24-5.04,5-5.04,5,2.26,5,5.04-2.24,5.04-5,5.04Z"/>
      <ellipse class="cls-9" cx="247.82" cy="112.67" rx=".66" ry=".71"/>
      <path class="cls-9" d="M247.97,117.23c-2.59,0-4.7-2.12-4.7-4.72s2.11-4.72,4.7-4.72,4.7,2.12,4.7,4.72-2.11,4.72-4.7,4.72Z"/>
      <ellipse class="cls-9" cx="247.97" cy="112.51" rx=".36" ry=".38"/>
      <path class="cls-9" d="M245.95,107.8l6.68,6.48-5.61,2.69c-.43.21-1.34.55-2.6.55-.84,0-1.69-.15-2.53-.45"/>
      <path class="cls-9" d="M242.75,112.77l1.78-.32.61.6s-.68.33-1.81-.07l-.59-.2Z"/>
      <path class="cls-9" d="M257.4,123.59c-5.44,0-8.78-2.9-9.15-3.24l4.86-7.09c1.52.76,3.25,1.15,5.14,1.15,1.53,0,2.59-.27,2.6-.27l2.7,8.23c-2.05.81-4.12,1.21-6.16,1.21Z"/>
      <path class="cls-9" d="M251.17,117.15s4.17,3.8,10.79,1.19c0,0-5.43,1.49-10.79-1.19Z"/>
    </g>
    <g>
      <path class="cls-9" d="M33.4,109.69c-1.97,0-4.06-.23-6.21-.7-2.44-.52-4.18-1.16-5.48-2.01l-.04-.03c-1.46-.97-2.53-2.52-3.38-4.89-.67-1.87-1.01-3.75-1.01-5.57,0-1.64.45-3.03,1.33-4.14.19-.24.4-.47.61-.67-.97-1.95-1.23-3.79-1.23-5.23,0-1.81.42-3.59,1.25-5.28.81-1.65,1.95-3.08,3.41-4.27,2.99-2.5,6.62-3.76,10.81-3.76,1.62,0,3.52.32,5.8.96.63-.21,1.29-.32,1.97-.32,2.37,0,4.5,1.32,6.33,3.92,1.49,2.13,2.25,4.3,2.25,6.46,0,1.78-.6,3.41-1.72,4.7-.01.01-.03.03-.04.04,1.46,1.97,2.23,4.31,2.23,6.89,0,4.13-1.76,7.67-5.09,10.26-3.1,2.4-7.06,3.62-11.79,3.62Z"/>
      <path class="cls-9" d="M33.46,77.48c1.35,0,3.11.33,5.3,1,.26.08.47.12.63.12.13,0,.52-.12,1.18-.35.21-.08.43-.12.67-.12.88,0,1.8.69,2.78,2.08.97,1.39,1.46,2.71,1.46,3.96,0,.73-.22,1.35-.66,1.85s-.97.76-1.6.76c-.52,0-.95-.1-1.28-.31s-1.05-.83-2.16-1.86c-1.57-1.47-3.11-2.2-4.63-2.2-.73,0-1.32.18-1.76.53s-.66.82-.66,1.39c0,1.14,1,2,3,2.57,2.71.8,4.44,1.38,5.2,1.75,3.34,1.62,5.01,4.01,5.01,7.16,0,2.79-1.14,5.06-3.42,6.83-2.33,1.81-5.37,2.71-9.13,2.71-1.67,0-3.44-.2-5.3-.6-1.86-.4-3.2-.87-4.02-1.4-.63-.42-1.19-1.33-1.7-2.74-.5-1.41-.76-2.78-.76-4.11,0-.64.13-1.13.39-1.45.33-.42.74-.63,1.24-.63s.97.26,1.43.77c.27.29.92,1.21,1.94,2.77.48.73,1.25,1.34,2.31,1.83s2.14.73,3.27.73c.97,0,1.75-.18,2.36-.54s.9-.82.9-1.38c0-.52-.24-.97-.71-1.35s-1.24-.73-2.3-1.06c-1.87-.59-3.3-1.13-4.28-1.62-.98-.49-1.9-1.11-2.75-1.85-2.07-1.83-3.1-3.91-3.1-6.24,0-1.15.27-2.27.8-3.37s1.3-2.04,2.28-2.84c2.2-1.84,4.88-2.77,8.05-2.77Z"/>
      <path class="cls-9" d="M54.25,109.55c-2.71,0-4.88-.23-6.61-.7l-.06-.02c-1.27-.36-2.37-1.06-3.2-2.03-.96-1.12-1.47-2.49-1.47-3.95,0-1.61.57-2.74,1.06-3.39.32-.43.72-.84,1.31-1.32.03-.31.06-.8.06-1.57,0-.2-.01-.76-.08-2.21,0-.12-.01-.24-.02-.34-1.54-1.14-2.43-2.83-2.43-4.75,0-1.5.53-2.86,1.48-3.94-.72-1.06-1.11-2.32-1.11-3.67s.5-4.83,5.15-6.68c2.14-.85,4.22-1.29,6.2-1.29s3.67.44,5.04,1.32c1.91,1.22,3.01,3.18,3.01,5.38,0,1.09-.25,2.13-.71,3.06.57.88.89,1.97.89,3.18,0,0,0,11.44,0,11.45.55.45.97.9,1.3,1.39.62.92.95,2.03.95,3.21,0,2.64-1.63,4.86-4.35,5.94-1.6.63-3.69.94-6.41.94Z"/>
      <path class="cls-9" d="M58.41,86.63v11.4c0,.9.08,1.56.25,1.98s.49.8.99,1.16c.41.29.68.53.81.74s.21.46.21.78c0,1.69-2.14,2.53-6.42,2.53-2.3,0-4.13-.18-5.48-.55-.46-.13-.83-.36-1.11-.69-.28-.33-.42-.7-.42-1.12,0-.35.07-.63.22-.82s.51-.51,1.1-.94c.41-.3.69-.79.86-1.47s.26-1.69.26-3.04c0-.43-.03-1.24-.09-2.42s-.1-1.87-.13-2.07c-.08-.54-.44-.95-1.1-1.24-.81-.35-1.22-.88-1.22-1.57,0-.82.53-1.44,1.59-1.84,1.47-.56,3.04-1.04,4.71-1.43,1.67-.39,2.97-.59,3.89-.59.72,0,1.08.41,1.08,1.22ZM54.52,78.03c1.14,0,2.04.21,2.71.64s1,1,1,1.72c0,1.01-.5,1.81-1.51,2.39-1.6.93-3.53,1.39-5.79,1.39-.96,0-1.71-.18-2.28-.55-.76-.47-1.14-1.13-1.14-1.96,0-1.13.8-2.01,2.41-2.65,1.64-.65,3.17-.98,4.59-.98Z"/>
      <path class="cls-9" d="M67.16,109.57c-2.45,0-4.28-.28-5.75-.89-2.53-1.05-4.04-3.18-4.04-5.7,0-1.2.31-2.26.92-3.15.25-.36.54-.69.91-1.03.02-.2.03-.44.05-.72.08-1.27.12-2.62.13-4.01-1.44-1.15-2.24-2.76-2.24-4.51,0-1.9.9-3.65,2.47-4.79.84-.61,2.01-1.16,3.92-1.84,1.38-.49,2.71-.9,3.99-1.24,1.61-.42,2.65-.61,3.5-.61,1.2,0,2.33.36,3.28,1.03,1.41-.7,3.01-1.05,4.77-1.05,2.58,0,4.87.72,6.81,2.14,1.51,1.12,2.57,2.49,3.2,4.08.51,1.29.8,2.94.9,5.04l.26,6.42c.08.09.18.19.29.31.68.73,1.48,1.98,1.48,3.86,0,2.74-1.74,5.01-4.53,5.93-1.53.5-3.65.73-6.89.73-2.48,0-4.18-.25-5.51-.81-.21-.09-.42-.19-.61-.3-.27.13-.56.24-.85.34-1.57.53-3.61.78-6.43.78Z"/>
      <path class="cls-9" d="M85.63,92.51l.27,6.91c.03.52.11.91.25,1.16s.54.73,1.21,1.43c.2.21.29.5.29.88,0,.86-.52,1.47-1.55,1.81s-2.88.51-5.53.51c-1.81,0-3.08-.16-3.83-.47-.77-.33-1.16-.86-1.16-1.59,0-.26.04-.45.12-.58s.34-.43.79-.91c.52-.55.79-2.38.79-5.5,0-1.81-.21-3.14-.63-4-.34-.69-.97-1.04-1.88-1.04s-1.48.28-1.81.84-.49,1.58-.49,3.06v3.89c0,.77.05,1.3.15,1.59s.42.84.97,1.67c.14.24.22.5.22.8,0,.77-.54,1.34-1.61,1.71-1.07.37-2.75.55-5.02.55-3.64,0-5.46-.75-5.46-2.26,0-.31.06-.55.17-.72s.38-.4.79-.7c.34-.25.56-.53.65-.85s.18-1.11.26-2.37c.09-1.49.14-3.06.14-4.69,0-.9-.07-1.49-.21-1.78s-.53-.62-1.19-1.03c-.56-.35-.84-.79-.84-1.3s.23-.95.69-1.29,1.4-.76,2.83-1.27c1.26-.44,2.47-.82,3.63-1.13,1.16-.31,1.96-.46,2.39-.46.39,0,.72.14.99.43s.4.63.4,1.02c0,.04,0,.2-.02.49-.01.1-.02.2-.02.27,0,.63.26.94.79.94.31,0,.65-.25,1-.75,1.13-1.62,2.76-2.43,4.91-2.43,1.65,0,3.06.43,4.24,1.3.82.61,1.4,1.34,1.73,2.17s.53,2.05.61,3.66Z"/>
      <path class="cls-9" d="M98.39,116.91c-3.61,0-6.55-.58-8.98-1.78-1.48-.74-2.68-1.74-3.59-2.98-1.04-1.42-1.58-3.04-1.58-4.68,0-1.09.26-2.15.74-3.12-.56-1.15-.72-2.23-.72-3.09,0-1.58.54-3.11,1.62-4.54-.74-1.41-1.13-2.97-1.13-4.61s.45-3.26,1.33-4.74c.81-1.36,1.93-2.51,3.32-3.43,2.84-1.85,5.99-2.78,9.4-2.78,1.31,0,2.74.16,4.28.48,1.1.22,1.53.26,1.62.27.51-.02,1.11-.41,1.53-.74l.1-.08c1.1-.82,2.18-1.22,3.33-1.22,1.79,0,3.42.91,4.47,2.49.72,1.08,1.1,2.36,1.1,3.71,0,1.2-.32,2.46-.94,3.73-.32.66-.7,1.26-1.12,1.8-.04,2.07-.67,3.97-1.83,5.58,1.19.76,2.14,1.79,2.86,3.05.77,1.36,1.16,2.85,1.16,4.41,0,2.3-.8,4.5-2.37,6.51-1.71,2.17-4.13,3.76-7.2,4.73-2.17.68-4.66,1.03-7.39,1.03Z"/>
      <path class="cls-9" d="M109.66,84.21c.33,0,.61.19.86.56s.37.81.37,1.31c0,.54-.17,1.14-.5,1.83s-.74,1.22-1.21,1.63c-.3.26-.45.47-.45.63,0,.04.01.2.04.47.04.27.06.52.06.75,0,1.56-.52,2.87-1.57,3.93-.94.94-2.16,1.67-3.64,2.2s-3.12.79-4.9.79c-.43,0-.86-.03-1.28-.08-.34-.04-.6-.06-.79-.06-.69,0-1.04.35-1.04,1.04,0,.44.23.79.68,1.05s1.06.38,1.84.38c.52,0,1.3-.07,2.32-.22,2.15-.3,3.73-.45,4.75-.45,1.54,0,2.74.26,3.59.77.68.39,1.22.94,1.62,1.65s.6,1.47.6,2.28c0,1.32-.48,2.6-1.45,3.85-1.15,1.47-2.85,2.55-5.08,3.26-1.75.55-3.78.82-6.08.82-2.9,0-5.26-.44-7.07-1.33-.84-.42-1.5-.97-2-1.65-.5-.68-.75-1.39-.75-2.12,0-.51.14-.98.42-1.41s.64-.74,1.07-.92c.39-.16.59-.33.59-.51,0-.14-.16-.35-.49-.63-1.05-.88-1.57-1.79-1.57-2.73,0-.63.25-1.28.76-1.94s1.13-1.18,1.87-1.55c.31-.16.47-.31.47-.47,0-.18-.2-.46-.59-.82-1.35-1.24-2.02-2.7-2.02-4.36,0-.88.24-1.71.72-2.51s1.14-1.48,1.99-2.04c2.11-1.37,4.44-2.06,7.01-2.06,1.02,0,2.16.13,3.42.39,1.19.24,2.01.35,2.45.35,1.43,0,2.85-.56,4.26-1.69.31-.24.56-.35.73-.35ZM94.72,106.13c-.33,0-.49.19-.49.57,0,.77.42,1.4,1.26,1.87s1.92.72,3.26.72,2.29-.17,3.01-.51,1.09-.82,1.09-1.43c0-.33-.14-.61-.41-.83s-.61-.34-1.02-.34c-.21,0-.51.03-.9.08-.73.12-1.55.18-2.45.18-.67,0-1.31-.03-1.92-.1-.46-.04-.83-.09-1.12-.16-.13-.03-.23-.04-.29-.04ZM99,88.27c-.65,0-1.18.25-1.58.75s-.6,1.16-.6,1.98c0,1.41.22,2.55.65,3.4.43.85,1,1.28,1.71,1.28s1.24-.26,1.65-.79.61-1.24.61-2.13c0-1.4-.21-2.49-.64-3.27s-1.02-1.18-1.8-1.21Z"/>
    </g>
    <g>
      <path class="cls-9" d="M136.76,109.55c-2.46,0-4.83-.24-7.05-.73-5.43-1.18-5.85-5.15-5.85-6.34,0-2.33,1.24-4.29,3.37-5.4.07-.71.14-1.88.14-3.75,0-.6-.05-.9-.07-.99-.04-.08-.22-.42-.74-1.09-1.34-1.74-2.74-3.34-4.16-4.73-.27-.26-.43-.37-.48-.4-1.48-.54-2.24-.94-2.87-1.48-1.33-1.14-2.07-2.76-2.07-4.55,0-1.07.37-4.68,5.1-6.06,1.76-.51,4.25-.75,7.85-.75,2.87,0,5.07.16,6.71.5.99.19,1.88.54,2.66,1.05.44-.27.92-.51,1.44-.7,1.52-.56,3.43-.82,6.01-.82,3.56,0,4.84.24,5.69.51,1.28.39,2.4,1.17,3.23,2.25.86,1.12,1.32,2.44,1.32,3.82,0,1.82-.72,3.43-2.04,4.54-.93.78-2.11,1.28-3.7,1.57-.08.02-.11.03-.11.03-.04.03-.6.48-2.49,2.51-2.12,2.29-2.55,3.09-2.59,3.17,0,.01-.23.55-.23,2.19,0,1.21.04,2.35.12,3.39,2.69,1.76,3,4.23,3,5.26s-.35,4.57-4.92,6.11c-1.78.6-4.17.9-7.31.9Z"/>
      <path class="cls-9" d="M129.95,77.62c2.56,0,4.52.14,5.87.41.61.12,1.11.35,1.48.7s.56.74.56,1.19c0,.34-.14.69-.43,1.04-.42.54-.63.92-.63,1.16,0,.47.37,1.22,1.12,2.26.48.67.94,1,1.37,1,.27,0,.54-.1.8-.3s.6-.57,1.02-1.09c.51-.64.77-1.15.77-1.53,0-.24-.03-.41-.09-.53s-.27-.4-.64-.84c-.26-.3-.39-.71-.39-1.22,0-1.48,2-2.22,6.01-2.22,2.26,0,3.74.1,4.42.31.43.13.79.38,1.07.75s.42.76.42,1.18c0,.54-.16.94-.49,1.22s-.9.48-1.71.63c-.75.14-1.39.43-1.94.85-.55.43-1.56,1.42-3.02,2.99-1.78,1.92-2.89,3.34-3.33,4.25s-.66,2.27-.66,4.07c0,1.52.06,2.92.18,4.22.07.8.19,1.35.37,1.66s.56.61,1.14.91c.96.5,1.43,1.12,1.43,1.86,0,1.78-2.63,2.67-7.89,2.67-2.16,0-4.2-.21-6.12-.63-1.62-.35-2.43-1.05-2.43-2.1,0-.81.5-1.39,1.49-1.75.75-.26,1.21-.6,1.39-1,.42-.9.63-3.04.63-6.4,0-1.05-.1-1.86-.31-2.44s-.67-1.34-1.37-2.27c-1.48-1.92-3-3.66-4.57-5.2-.68-.67-1.33-1.12-1.96-1.35-.89-.33-1.43-.57-1.61-.73-.37-.31-.55-.73-.55-1.26,0-.88.66-1.51,1.98-1.89,1.32-.39,3.53-.58,6.63-.58Z"/>
      <path class="cls-9" d="M160.02,109.69c-4.23,0-7.78-1.28-10.53-3.81-2.77-2.54-4.23-5.98-4.23-9.95,0-4.34,1.72-8.1,4.98-10.88,3.19-2.74,7.1-4.14,11.59-4.14,3.28,0,6.23.88,8.76,2.63,1.85,1.27,3.35,2.94,4.46,4.96,1.17,2.15,1.75,4.42,1.75,6.76,0,2.92-.97,7.15-5.61,10.69-3.25,2.48-7.01,3.74-11.17,3.74Z"/>
      <path class="cls-9" d="M161.83,85.25c2.39,0,4.49.62,6.3,1.86,1.3.89,2.34,2.05,3.12,3.47.81,1.49,1.22,3.05,1.22,4.67,0,2.84-1.3,5.25-3.91,7.24-2.49,1.9-5.33,2.85-8.54,2.85s-5.66-.89-7.6-2.67c-1.88-1.73-2.83-3.98-2.83-6.75,0-3.09,1.15-5.61,3.45-7.58,2.41-2.07,5.33-3.1,8.77-3.1ZM160.26,89.79c-.58,0-1.04.21-1.38.64s-.52.99-.52,1.7c0,.79.15,1.85.44,3.21s.64,2.55,1.05,3.6c.41,1.07,1.07,1.61,1.98,1.61,1.16,0,1.75-.74,1.75-2.22,0-1.1-.15-2.35-.44-3.75-.29-1.4-.65-2.54-1.07-3.42-.43-.89-1.03-1.35-1.81-1.37Z"/>
      <path class="cls-9" d="M191.05,109.57c-.94,0-2.34-.09-3.59-.88-.04-.03-.08-.05-.13-.08-1.46.63-3,.95-4.6.95-4.96,0-7.55-2.18-8.85-4-1.42-1.97-2.12-4.81-2.12-8.66,0-1.08,0-2.01.02-2.78v-.87c0-.15,0-.29,0-.41-.54-.35-.96-.69-1.3-1.09-.84-.96-1.28-2.17-1.28-3.51,0-2.41,1.49-5.31,5.67-6.22,2.85-.63,5.75-.94,8.62-.94,1.42,0,2.67.45,3.61,1.21.21-.07.43-.13.65-.18,2.75-.68,5.53-1.03,8.23-1.03,3.72,0,6.32,2.65,6.32,6.44,0,.16,0,.5-.02,1.01v.05c-.03.58-.04,1.3-.06,2.15v6.78c1.34,1.11,2.1,2.69,2.1,4.44,0,2.38-1.31,5.52-7.55,6.96-1.94.45-3.87.68-5.72.68ZM189.01,97.59"/>
      <path class="cls-9" d="M184.63,86.39v10.64c0,2.28.75,3.42,2.26,3.42.38,0,.75-.11,1.12-.32s.62-.48.77-.79c.29-.63.43-2.03.43-4.2s-.07-3.61-.22-4.4c-.05-.33-.14-.57-.27-.72s-.38-.32-.75-.52c-.75-.39-1.12-.89-1.12-1.49,0-.81.64-1.37,1.92-1.69,2.43-.6,4.83-.9,7.2-.9,1.32,0,1.98.7,1.98,2.1,0,.14,0,.44-.02.88-.03.63-.05,1.39-.06,2.3v8.66c0,.44.38.85,1.14,1.22.64.31.96.77.96,1.37,0,1.18-1.39,2.09-4.18,2.73-1.64.38-3.22.57-4.75.57-.63,0-1.06-.07-1.29-.22s-.36-.43-.4-.84c-.07-.81-.31-1.22-.75-1.22-.16,0-.3.04-.43.11s-.53.34-1.2.79c-1.32.9-2.74,1.35-4.26,1.35-2.51,0-4.29-.73-5.32-2.18-.88-1.22-1.32-3.26-1.32-6.14,0-1.07,0-1.99.02-2.75v-.9c0-1.13-.1-1.95-.3-2.48s-.57-.95-1.11-1.25c-.51-.26-.83-.47-.97-.63s-.21-.37-.21-.65c0-.99.75-1.66,2.26-1.98,2.56-.56,5.13-.84,7.69-.84.77,0,1.16.33,1.16.98Z"/>
      <path class="cls-9" d="M207.66,109.55c-2.82,0-5-.27-6.66-.83-2.86-.98-4.56-3.23-4.56-6.02,0-1.13.33-3.18,2.42-4.92.06-.73.12-1.92.14-3.86-1.51-1.14-2.37-2.78-2.37-4.65,0-2.06.99-3.89,2.8-5.17,1.06-.74,2.48-1.37,4.49-1.96,2.41-.72,4.49-1.08,6.33-1.1h.04c.59,0,2.07,0,3.41.83,1.14-.53,2.39-.81,3.71-.81,2.36,0,4.44.85,6.02,2.46.79.82,1.4,1.79,1.84,2.91.44,1.1.66,2.22.66,3.31,0,1.22-.27,2.45-.81,3.66-.52,1.18-1.24,2.19-2.12,3.01-1.35,1.28-3.01,2.06-4.85,2.29.94,1.06,1.46,2.41,1.46,3.92,0,1.66-.61,3.18-1.76,4.39-.98,1.03-2.29,1.74-3.77,2.05-1.56.33-3.66.48-6.42.48Z"/>
      <path class="cls-9" d="M210.29,85.39c.69,0,1.12.1,1.27.29s.28.82.4,1.88c.07.58.27.86.61.86.26,0,.51-.19.75-.57,1.05-1.64,2.41-2.45,4.1-2.45,1.19,0,2.17.39,2.92,1.16.37.38.67.87.9,1.46s.35,1.17.35,1.72c0,.61-.14,1.25-.43,1.89-.29.65-.66,1.18-1.12,1.6-.84.8-1.86,1.2-3.08,1.2-.67,0-1.23-.12-1.68-.35s-1.04-.71-1.78-1.43c-.27-.27-.53-.41-.77-.41-.37,0-.61.21-.72.62s-.17,1.28-.17,2.6c0,1.98.07,3.32.22,4.04.09.39.22.66.38.81s.51.3,1.05.46c1.18.35,1.77.97,1.77,1.84,0,.54-.19,1-.57,1.4s-.88.66-1.51.79c-1.26.26-3.1.39-5.53.39s-4.08-.2-5.28-.61c-1.07-.37-1.61-1-1.61-1.9,0-.68.39-1.29,1.18-1.83.38-.25.64-.47.79-.68s.24-.48.29-.83c.21-1.19.31-3.4.31-6.61,0-.59-.07-1.01-.2-1.27s-.39-.46-.79-.62c-.93-.37-1.39-.9-1.39-1.59,0-.63.32-1.17.96-1.62.64-.45,1.71-.9,3.22-1.34,2.02-.6,3.73-.91,5.14-.92Z"/>
    </g>
    <g>
      <path class="cls-9" d="M64.88,150.75c-2.88,0-5.67-.61-8.3-1.8-3.29-1.5-5.9-3.8-7.77-6.84-1.79-2.9-2.7-6.14-2.7-9.63,0-4.05,1.18-7.69,3.5-10.83,2.07-2.79,4.86-4.86,8.3-6.15,2.24-.86,4.75-1.3,7.45-1.3,4.32,0,8.17,1.27,11.45,3.78,2.23,1.73,4.03,3.96,5.38,6.64,1.34,2.72,2.01,5.47,2.01,8.23,0,4.12-1.37,7.85-4.08,11.07-2.25,2.69-5.2,4.64-8.76,5.79-2.15.69-4.33,1.04-6.5,1.04Z"/>
      <path class="cls-9" d="M65.37,118.54c3.36,0,6.3.96,8.81,2.89,1.7,1.32,3.08,3.04,4.14,5.14,1.03,2.09,1.55,4.19,1.55,6.28,0,3.09-1.02,5.85-3.06,8.28-1.73,2.07-3.98,3.55-6.77,4.46-1.71.55-3.43.82-5.16.82-2.26,0-4.43-.47-6.5-1.41-2.5-1.14-4.46-2.86-5.87-5.16-1.37-2.22-2.06-4.68-2.06-7.36,0-3.11.88-5.86,2.65-8.24,1.57-2.12,3.68-3.68,6.34-4.67,1.78-.68,3.76-1.02,5.93-1.02ZM63.5,124.17c-1.1,0-1.97.49-2.61,1.47-.5.73-.75,1.6-.75,2.61,0,1.48.3,3.19.9,5.13.6,1.94,1.36,3.67,2.28,5.17.41.64.91,1.15,1.5,1.53s1.2.57,1.82.57c.99,0,1.8-.37,2.4-1.12s.91-1.73.91-2.94c0-1.58-.26-3.29-.77-5.12s-1.17-3.4-1.98-4.69c-.5-.8-1.07-1.43-1.73-1.88-.65-.46-1.32-.7-1.98-.73Z"/>
      <path class="cls-9" d="M107.82,150.69c-1.7,0-3.28-.75-4.7-2.23-.74-.77-1.53-1.83-2.47-3.32l-.99,1.71c-1.91,3.3-4.5,3.79-5.87,3.79-1.49,0-2.91-.51-4.09-1.49-.81-.67-1.56-1.6-2.3-2.84l-5.85-9.74c-.58-.94-.98-1.49-1.21-1.8l-.13-.04c-1.19-.38-2.21-1.13-2.95-2.17-.71-1-1.08-2.18-1.08-3.4,0-1.14.4-4.97,5.58-6.32h.04c1.91-.49,3.99-.73,6.19-.73,2.67,0,4.64.27,6.21.86.28.11.56.22.82.35.84-.38,1.86-.68,3.1-.87,1.46-.23,3.19-.34,5.12-.34,2.57,0,4.42.25,5.82.78.35.13.67.28.98.46.19-.11.39-.21.6-.3,1.43-.62,3.23-.93,5.49-.93,1.39,0,2.67.11,3.8.34h.05c1.33.29,2.51.93,3.42,1.86,1.1,1.13,1.71,2.6,1.71,4.14,0,1.71-.74,3.25-2.07,4.36-.61.52-1.28.81-2.31,1.18-.08.14-.2.35-.34.64l-4.92,9.53c-1.57,3.03-3.86,6.51-7.66,6.51Z"/>
      <path class="cls-9" d="M104.11,142.48l-2.02-3.24c-.47-.73-.78-1.17-.91-1.32s-.32-.22-.54-.22c-.47,0-.96.43-1.45,1.3l-3.28,5.65c-.63,1.09-1.33,1.63-2.12,1.63-.48,0-.93-.17-1.33-.5s-.84-.9-1.32-1.7l-5.89-9.79c-.98-1.58-1.75-2.62-2.3-3.1-.26-.21-.74-.41-1.43-.61-.29-.09-.53-.27-.72-.54s-.28-.57-.28-.89c0-1.01.78-1.71,2.34-2.12,1.57-.39,3.28-.59,5.14-.59,4.17,0,6.26.78,6.26,2.34,0,.29-.2.73-.61,1.32-.08.12-.12.24-.12.37,0,.29.31,1,.92,2.14.68,1.3,1.27,1.94,1.77,1.94.29,0,.65-.33,1.1-.98s.67-1.18.67-1.59-.1-.73-.29-.97-.66-.62-1.39-1.15c-.44-.31-.67-.69-.67-1.12,0-1.02,1.05-1.69,3.14-2,1.27-.2,2.76-.29,4.48-.29,1.98,0,3.4.17,4.28.5s1.32.87,1.32,1.62c0,.3-.05.54-.16.73s-.39.51-.84.98c-.14.16-.22.36-.22.61,0,.35.3,1.1.9,2.24.52.99,1,1.49,1.43,1.49.47,0,1.07-.63,1.79-1.9.52-.96.79-1.59.79-1.9,0-.25-.21-.63-.63-1.16-.3-.37-.45-.77-.45-1.2,0-.68.31-1.15.92-1.41.86-.38,2.12-.57,3.77-.57,1.11,0,2.1.09,2.96.26.5.1.9.32,1.22.64s.47.69.47,1.11-.18.77-.55,1.06c-.07.07-.52.25-1.37.55-.48.18-.88.44-1.2.79s-.69.95-1.14,1.83l-4.91,9.5c-1.44,2.77-2.71,4.16-3.81,4.16-.47,0-.99-.3-1.56-.89s-1.29-1.59-2.15-2.97Z"/>
      <path class="cls-9" d="M126.63,150.63c-2.45,0-4.28-.28-5.75-.89-2.53-1.05-4.04-3.18-4.04-5.7,0-1.2.31-2.26.92-3.15.25-.36.54-.69.91-1.03.02-.2.03-.44.05-.72.08-1.27.12-2.62.13-4.01-1.44-1.15-2.24-2.76-2.24-4.51,0-1.9.9-3.65,2.47-4.79.84-.61,2.01-1.16,3.92-1.84,1.37-.49,2.71-.9,3.98-1.24,1.61-.42,2.65-.6,3.5-.6,1.2,0,2.33.36,3.28,1.03,1.41-.7,3.01-1.05,4.77-1.05,2.58,0,4.87.72,6.81,2.14,1.51,1.12,2.57,2.49,3.2,4.08.51,1.28.8,2.93.91,5.04l.26,6.42c.08.09.18.19.29.31.68.73,1.48,1.98,1.48,3.86,0,2.74-1.74,5.01-4.53,5.93-1.53.5-3.66.73-6.89.73-2.48,0-4.18-.25-5.51-.81-.21-.09-.42-.19-.61-.3-.27.13-.56.24-.85.34-1.56.53-3.61.78-6.43.78Z"/>
      <path class="cls-9" d="M145.1,133.57l.27,6.91c.03.52.11.91.25,1.16s.54.73,1.21,1.43c.2.21.29.5.29.88,0,.86-.52,1.47-1.55,1.81-1.03.34-2.88.51-5.53.51-1.81,0-3.08-.16-3.83-.47-.77-.33-1.16-.86-1.16-1.59,0-.26.04-.45.12-.58s.34-.43.79-.91c.52-.55.79-2.38.79-5.5,0-1.81-.21-3.14-.63-4-.34-.69-.97-1.04-1.88-1.04s-1.48.28-1.81.84-.49,1.58-.49,3.06v3.89c0,.77.05,1.3.15,1.59s.42.84.97,1.67c.14.24.22.5.22.8,0,.77-.54,1.34-1.61,1.71-1.07.37-2.75.55-5.02.55-3.64,0-5.46-.75-5.46-2.26,0-.31.06-.55.17-.72s.38-.4.79-.7c.34-.25.56-.53.65-.85s.18-1.11.26-2.37c.09-1.49.14-3.06.14-4.69,0-.9-.07-1.49-.21-1.78s-.53-.62-1.19-1.03c-.56-.35-.84-.79-.84-1.3s.23-.95.69-1.29,1.4-.76,2.83-1.27c1.26-.44,2.47-.82,3.63-1.13s1.96-.46,2.39-.46c.39,0,.72.14.99.43s.4.63.4,1.02c0,.04,0,.2-.02.49-.01.1-.02.2-.02.27,0,.63.26.94.79.94.31,0,.65-.25,1-.75,1.13-1.62,2.76-2.43,4.91-2.43,1.65,0,3.06.43,4.24,1.3.82.61,1.4,1.34,1.73,2.17.33.83.53,2.05.61,3.66Z"/>
    </g>
    <g>
      <path class="cls-9" d="M171.95,150.63c-3.76,0-6.58-.34-8.63-1.04-3.07-1.04-4.92-3.38-4.92-6.27,0-2.02.99-3.81,2.71-4.91l.11-.07.11-.06c.2-.11.4-.21.68-.32.09-.93.19-2.5.27-4.65,0-.19.01-.38.02-.57-.76.27-1.53.41-2.32.41-1.96,0-3.75-.82-5.03-2.3-1.14-1.32-1.74-3-1.74-4.87,0-1.33.28-2.75.83-4.21.51-1.35,1.2-2.62,2.06-3.77,1.85-2.48,4.01-3.75,6.42-3.75.58,0,1.17.07,1.82.21.7.14,1.11.2,1.33.23.28.03.64.05,1.06.05h10.26c.73-.03,1.38-.13,1.93-.28l.08-.02c.77-.2,1.47-.3,2.16-.3,1.81,0,4.45.76,6.75,4.36,1.45,2.27,2.18,4.69,2.18,7.18s-.98,4.61-2.76,5.96c-1.28.96-2.83,1.47-4.5,1.47-.78,0-1.54-.12-2.26-.34,0,0,0,5.21,0,5.24.81.43,1.44.88,1.93,1.41.72.76,1.58,2.08,1.58,4.1,0,2.8-1.79,5.11-4.79,6.18-1.79.64-4.12.94-7.34.94Z"/>
      <path class="cls-9" d="M166.72,119.09h10.34c1.11-.04,2.13-.19,3.04-.45.39-.1.74-.16,1.04-.16,1.06,0,2.09.79,3.09,2.36,1,1.57,1.5,3.19,1.5,4.85,0,1.14-.35,1.97-1.04,2.49-.52.39-1.15.59-1.88.59-.69,0-1.3-.19-1.81-.58-.51-.39-1.01-1.02-1.51-1.91-.43-.81-.77-1.34-1.02-1.59s-.55-.37-.9-.37c-.48,0-.83.2-1.04.61s-.31,1.07-.31,2v10.99c0,1.13.12,1.94.35,2.45s.68.9,1.33,1.18c.71.3,1.19.59,1.44.85s.38.64.38,1.11c0,.94-.64,1.64-1.91,2.1-1.28.46-3.24.69-5.88.69-3.25,0-5.65-.27-7.22-.8-1.32-.44-1.98-1.16-1.98-2.16,0-.54.24-.96.71-1.26.12-.07.58-.22,1.39-.47.5-.14.84-.42,1.03-.82s.34-1.18.46-2.34c.1-1.02.2-2.67.29-4.96.09-2.28.14-4.26.14-5.94,0-1.18-.09-2.02-.27-2.51s-.48-.75-.9-.75c-.51,0-1.01.37-1.49,1.1-.88,1.33-1.6,2.22-2.16,2.65-.67.51-1.32.77-1.94.77-.71,0-1.29-.26-1.75-.79s-.69-1.21-.69-2.03.18-1.7.55-2.68.86-1.87,1.47-2.7c.99-1.33,1.98-2,2.94-2,.26,0,.56.04.9.12.71.14,1.29.24,1.74.29s.97.08,1.56.08Z"/>
      <path class="cls-9" d="M203.64,150.63c-.94,0-2.34-.09-3.6-.88-.04-.03-.08-.05-.13-.08-1.46.63-3,.95-4.6.95-4.96,0-7.56-2.18-8.85-4-1.42-1.97-2.12-4.81-2.12-8.66,0-1.08,0-2.01.02-2.79v-.86c0-.15,0-.29,0-.41-.54-.35-.96-.69-1.3-1.09-.84-.96-1.28-2.17-1.28-3.5,0-2.41,1.49-5.31,5.67-6.22,2.85-.63,5.75-.94,8.62-.94,1.42,0,2.67.44,3.61,1.21.21-.07.43-.13.65-.18,2.75-.68,5.53-1.03,8.24-1.03,3.72,0,6.32,2.65,6.32,6.44,0,.17,0,.5-.02,1.01v.05c-.03.58-.04,1.3-.06,2.15v6.77c1.34,1.11,2.1,2.69,2.1,4.44,0,2.38-1.31,5.52-7.55,6.96-1.94.45-3.87.68-5.72.68ZM201.61,138.65"/>
      <path class="cls-9" d="M197.23,127.45v10.64c0,2.28.75,3.42,2.26,3.42.38,0,.75-.11,1.12-.32s.62-.48.77-.79c.29-.63.43-2.03.43-4.2s-.07-3.61-.22-4.4c-.05-.33-.14-.57-.27-.72s-.38-.32-.75-.52c-.75-.39-1.12-.89-1.12-1.49,0-.81.64-1.37,1.92-1.69,2.43-.6,4.83-.9,7.2-.9,1.32,0,1.98.7,1.98,2.1,0,.14,0,.44-.02.88-.03.63-.05,1.39-.06,2.3v8.66c0,.44.38.85,1.14,1.22.64.31.96.77.96,1.37,0,1.18-1.39,2.09-4.18,2.73-1.64.38-3.22.57-4.75.57-.63,0-1.06-.07-1.29-.22s-.36-.43-.4-.84c-.07-.81-.31-1.22-.75-1.22-.16,0-.3.04-.43.11s-.53.34-1.2.79c-1.32.9-2.74,1.35-4.26,1.35-2.51,0-4.29-.73-5.32-2.18-.88-1.22-1.32-3.26-1.32-6.14,0-1.07,0-1.99.02-2.75v-.9c0-1.13-.1-1.95-.3-2.48s-.57-.95-1.11-1.25c-.51-.26-.83-.47-.97-.63s-.21-.37-.21-.65c0-.99.75-1.66,2.26-1.98,2.56-.56,5.13-.84,7.69-.84.77,0,1.16.33,1.16.98Z"/>
      <path class="cls-9" d="M219.05,150.63c-2.45,0-4.28-.28-5.75-.89-2.53-1.05-4.04-3.18-4.04-5.7,0-1.2.31-2.26.92-3.16.24-.36.53-.69.9-1.02.02-.2.03-.44.05-.72.08-1.27.12-2.62.13-4.01-1.44-1.15-2.24-2.76-2.24-4.51,0-1.9.9-3.65,2.47-4.79.84-.61,2.01-1.16,3.92-1.85,1.37-.49,2.71-.9,3.98-1.24,1.61-.42,2.65-.6,3.5-.6,1.2,0,2.33.36,3.28,1.03,1.41-.7,3.01-1.05,4.77-1.05,2.58,0,4.87.72,6.81,2.13,1.51,1.12,2.57,2.49,3.2,4.08.51,1.29.8,2.93.91,5.04l.26,6.42c.08.09.18.19.29.31.68.73,1.48,1.98,1.48,3.86,0,2.74-1.74,5.01-4.53,5.93-1.53.5-3.66.73-6.89.73-2.48,0-4.18-.25-5.51-.81-.21-.09-.42-.19-.61-.3-.27.13-.56.24-.85.34-1.56.53-3.6.78-6.43.78Z"/>
      <path class="cls-9" d="M237.52,133.57l.27,6.91c.03.52.11.91.25,1.16s.54.73,1.21,1.43c.2.21.29.5.29.88,0,.86-.52,1.47-1.55,1.81-1.03.34-2.88.51-5.53.51-1.81,0-3.08-.16-3.83-.47-.77-.33-1.16-.86-1.16-1.59,0-.26.04-.45.12-.58s.34-.43.79-.91c.52-.55.79-2.38.79-5.5,0-1.81-.21-3.14-.63-4-.34-.69-.97-1.04-1.88-1.04s-1.48.28-1.81.84-.49,1.58-.49,3.06v3.89c0,.77.05,1.3.15,1.59s.42.84.97,1.67c.14.24.22.5.22.8,0,.77-.54,1.34-1.61,1.71-1.07.37-2.75.55-5.02.55-3.64,0-5.46-.75-5.46-2.26,0-.31.06-.55.17-.72s.38-.4.79-.7c.34-.25.56-.53.65-.85s.18-1.11.26-2.37c.09-1.49.14-3.06.14-4.69,0-.9-.07-1.49-.21-1.78s-.53-.62-1.19-1.03c-.56-.35-.84-.79-.84-1.3s.23-.95.69-1.29,1.4-.76,2.83-1.27c1.26-.44,2.47-.82,3.63-1.13s1.96-.46,2.39-.46c.39,0,.72.14.99.43s.4.63.4,1.02c0,.04,0,.2-.02.49-.01.1-.02.2-.02.27,0,.63.26.94.79.94.31,0,.65-.25,1-.75,1.13-1.62,2.76-2.43,4.91-2.43,1.65,0,3.06.43,4.24,1.3.82.61,1.4,1.34,1.73,2.17.33.83.53,2.05.61,3.66Z"/>
      <path class="cls-9" d="M250.91,150.75c-3.8,0-7.08-1.16-9.74-3.44-1.32-1.15-2.41-2.53-3.25-4.11-1.11-2.12-1.66-4.37-1.66-6.7,0-3.16.97-6.04,2.89-8.56,1.61-2.12,3.69-3.73,6.17-4.77,1.86-.78,3.88-1.18,6.02-1.18,3.5,0,6.55,1.04,9.07,3.09,1.3,1.05,2.37,2.32,3.18,3.78.97,1.73,1.47,3.53,1.47,5.32,0,1.7-.41,3.2-1.23,4.45-.05.07-.09.14-.14.21.35.8.53,1.64.53,2.5,0,1.64-.61,4.05-3.51,6.21-2.83,2.12-6.13,3.19-9.79,3.19Z"/>
      <path class="cls-9" d="M258.82,137.09h-9.22c-.41,0-.61.18-.61.53,0,.85.46,1.65,1.38,2.4s1.91,1.13,2.97,1.13c.63,0,1.32-.12,2.09-.36.77-.24,1.4-.54,1.89-.89.44-.31.8-.47,1.06-.47.34,0,.67.21,1,.63s.49.85.49,1.3c0,.94-.59,1.85-1.77,2.73-2.08,1.56-4.48,2.34-7.2,2.34s-5.05-.8-6.91-2.39c-.9-.79-1.65-1.73-2.24-2.85-.77-1.48-1.16-3.04-1.16-4.67,0-2.2.67-4.17,2-5.93,1.15-1.52,2.62-2.65,4.4-3.4,1.33-.56,2.78-.84,4.34-.84,2.49,0,4.6.71,6.34,2.12.88.71,1.58,1.54,2.12,2.51.61,1.1.92,2.17.92,3.22,0,.85-.18,1.55-.53,2.09-.35.54-.81.81-1.37.81ZM250.1,133.41h1.98c.84,0,1.26-.39,1.26-1.16,0-.71-.2-1.28-.61-1.73s-.94-.67-1.59-.67c-.73,0-1.31.29-1.73.86-.39.54-.59,1.08-.59,1.63,0,.39.09.67.28.82s.52.24.99.24Z"/>
      <path class="cls-9" d="M267.3,150.75c-2.35,0-4.5-.86-6.22-2.48-1.81-1.73-2.76-3.97-2.76-6.49s.96-4.82,2.78-6.51c1.71-1.58,3.83-2.43,6.15-2.46h.05c2.35,0,4.5.86,6.22,2.48,1.8,1.7,2.76,3.97,2.76,6.55s-.94,4.7-2.73,6.41c-1.74,1.64-3.89,2.5-6.24,2.5Z"/>
      <path class="cls-9" d="M267.3,137.14c1.24,0,2.32.43,3.24,1.3.93.88,1.39,2.01,1.39,3.4,0,1.3-.46,2.39-1.39,3.28-.92.86-2,1.3-3.24,1.3s-2.32-.43-3.24-1.3c-.93-.89-1.39-2-1.39-3.34s.46-2.47,1.39-3.34c.92-.85,2-1.28,3.24-1.3Z"/>
    </g>
  </g>
  <g>
    <path class="cls-14" d="M213.53,76.15s.22-.15.47-.42c.47-.5,1.06-.88,1.73-1.04.41-.1.89-.16,1.44-.15,0,0,1.17-.1,2.99,1.12,1.81,1.23,6.83,3.63,8.38,3.63s6.34-.56,7.19-.13c0,0,.19.21-.37.24,0,0,.69.01.77.19s-1.75.31-1.75.31c0,0-5.82.13-6.34,1.29,0,0-1.92,2.13-2.44,2.45s-3.17,2.48-7.58,1.36c0,0-3.17-.59-3.63-5.34,0,0-.05-1.9-1.01-2.95,0,0-.26-.28.16-.57Z"/>
    <ellipse class="cls-10" cx="215.93" cy="76.3" rx=".47" ry=".51"/>
    <ellipse class="cls-9" cx="216.04" cy="76.19" rx=".26" ry=".28"/>
    <path class="cls-10" d="M212.29,76.38l1.27-.23.44.43s-.49.23-1.29-.05l-.42-.15Z"/>
    <path class="cls-16" d="M218.33,79.51s2.99,2.72,7.74.85c0,0-3.9,1.07-7.74-.85Z"/>
  </g>
  <g id="Notes_On_Top" data-name="Notes On Top">
    <g>
      <path class="cls-9" d="M47.17,67.51c2.05,0,4.01-.38,5.85-.9.06-.02.11-.03.17-.05,1.48-.43,2.88-.96,3.92-1.55.12-.07.18-.1.3-.17,0-.53-.01-.8-.02-1.33-.02-1.76-.04-2.64-.06-4.39-.27.21-.4.31-.67.54.03-.58.06-1.72.09-2.21.06-1.08.06-1.09.05-1.16-.03-.22-.18-.48-.51-.48-.04,0-.09,0-.15,0-.1,0-.25.02-.44.05-.31.05-.74.13-1.28.26-.91.23-1.84.56-1.85.56-.18.07-.28.1-.46.17-.07,1.59-.1,2.39-.17,3.98-1.64.18-2.46.35-4.1.67-.26,0-.52,0-.79,0-1.23-.03-2.64.21-3.94.59-3.02.86-5.16,2.1-5.25,2.15-.12.07-.17.1-.29.17,0,.48.01.72.02,1.2.01.75.02,1.13.03,1.88.01.89.02-.67.03.21l9.51-.19ZM47.45,66.26s-.05,0-.08,0c-.77.29-1.16-.57-1.93-.3-2.59-.05-4.07,1.45-6.78,1.56-.02-1.36-.03-1.05-.05-2.41.65-.35,2.33-1.22,4.47-1.83,1.19-.34,2.48-.56,3.61-.53.3,0,.6,0,.9,0,.03,0,.04,0,.07,0,2.1-.24,3.15-.4,5.24-.38.07.17.1.25.17.42.94-.31,2.05-.57,2.67-.66,0,.12-.01-1.19-.02-1.02-.03.67-.08-.63-.12.11-.01-.34-.02-.51-.03-.84.3-.03.45-.05.75-.07.02,1.52.03,2.29.05,3.81-1.15.62-4.18,2.16-8.92,2.13Z"/>
      <path class="cls-9" d="M52.35,57.47c1.68-.58,2.52-.82,4.2-.98,0,.6,0,.9-.01,1.49-1.76.2-2.64.46-4.39,1.11.08-.65.12-.97.2-1.62Z"/>
      <path class="cls-9" d="M52.79,57.91c1.3-.42,1.95-.6,3.24-.77,0,.13,0,.19,0,.32-1.32.2-1.97.38-3.29.83.02-.15.03-.23.05-.38Z"/>
      <path class="cls-9" d="M52.74,58.96c1.3-.43,1.96-.61,3.26-.79-.03.64-.04.96-.07,1.59-1.31.12-1.97.27-3.28.64.04-.58.05-.86.09-1.44Z"/>
      <path class="cls-9" d="M56.87,64.49c-1.71,1-5.18,2.54-9.95,2.4-4.77-.14-8.78,2.23-8.78,2.23-.03-1.74-.04-2.62-.07-4.36,0,0,4.01-2.76,8.78-2.62,4.77.14,8.24-1.42,9.95-2.43.03,1.91.04,2.86.07,4.77Z"/>
      <path class="cls-8" d="M56.01,61.22s.02-.34.05-.83c.04-.81.11-2.05.16-2.93.03-.6.05-1.03.05-1.05,0-.07-3.69.88-3.69.88-.02.43-.03.64-.06,1.07-.05,1.04-.08,1.56-.14,2.6,0,.19-.01.28-.02.46,0,0-.4-.17-.94.26-.53.43-.64.92-.54,1.23,0,0,.03.59.99.09.96-.5.74-2.09.74-2.09.05-.77.07-1.16.12-1.93,1.3-.43,1.96-.61,3.26-.79-.04.89-.06,1.33-.1,2.22,0,.04,0,.06,0,.1,0,0-.52-.5-1.22.41-.71.91-.02,1.21-.02,1.21,0,0,.72.22,1.34-.81.02-.04.02-.05.04-.09ZM52.72,58.3c.02-.15.03-.23.05-.38,1.3-.42,1.95-.6,3.24-.78,0,.13,0,.19,0,.32-1.32.2-1.97.38-3.29.83Z"/>
      <path class="cls-8" d="M43.03,64.56s-.19-.12-.41.06c-.22.18-.38.36-.33.68,0,0,.05.24.32.14.27-.1.44-.33.48-.51.04-.18.1-2.45.1-2.45-.04,0-.06.01-.11.02-.02.82-.03,1.23-.05,2.04Z"/>
      <path class="cls-4" d="M39.99,64.97c.02-.16-.09-.2-.09-.2-.22-.06-.25.08-.25.08-.07.2.1.26.1.26.15.03.21-.06.21-.06,0,.36,0,.54,0,.9.02,0,.03,0,.04-.01,0,0-.03-.82-.01-.97ZM39.95,65s-.06.12-.2.04c-.14-.08-.07-.18-.07-.18,0,0,.08-.09.2-.02,0,0,.09.06.07.16Z"/>
      <path class="cls-8" d="M45.77,65.23s-.22.29-.46.26c-.24-.03-.43-.11-.37-.5,0,0,.05-.31.36-.41.3-.1.49.01.54.18.05.17.11,2.67.11,2.67-.05.03-.07.04-.12.06-.02-.9-.03-1.36-.05-2.26Z"/>
      <path class="cls-2" d="M49.56,61.49c-.06.02-.09.03-.16.05,0,1.28,0,1.92,0,3.19,0,0-.21-.17-.74.23,0,0-.6.57-.35,1.13,0,0,.14.42.9-.23,0,0,.38-.4.32-.91-.06-.51.04-3.46.04-3.46ZM49.15,65.65c-.44.51-.72.35-.72.35,0,0-.25-.21.25-.79.51-.58.71-.29.71-.27.06.3-.24.7-.24.7Z"/>
      <g>
        <path class="cls-7" d="M38.07,67.1s4.08-.34,8.85-.2c4.77.14,8.24-1.4,9.95-2.4"/>
        <path class="cls-7" d="M56.87,63.54c-1.71,1-5.18,2.54-9.95,2.4-4.77-.14-8.85.94-8.85.94"/>
        <path class="cls-7" d="M56.77,62.48c-1.71,1.02-5.18,2.58-9.95,2.44-4.77-.14-8.78,1.82-8.78,1.82"/>
        <path class="cls-7" d="M56.77,61.53c-1.71,1.02-5.18,2.58-9.95,2.44-4.77-.14-8.78,2.61-8.78,2.61"/>
        <path class="cls-7" d="M56.8,60.67c-1.71,1.01-5.18,2.57-9.95,2.43-4.77-.14-8.78,3.23-8.78,3.23"/>
        <path class="cls-7" d="M56.8,59.72c-1.71,1.01-5.18,2.57-9.95,2.43-4.77-.14-8.78,4.08-8.78,4.08"/>
      </g>
    </g>
  </g>
  <g>
    <path class="cls-13" d="M35.85,66.13s-.3-.21-.63-.57c-.64-.68-1.44-1.2-2.35-1.42-.56-.13-1.2-.21-1.95-.2,0,0-1.59-.14-4.06,1.53-2.46,1.67-9.28,4.93-11.38,4.93-2.1,0-8.61-.76-9.76-.18,0,0-.25.29.51.33,0,0-.94.02-1.05.25s2.37.42,2.37.42c0,0,7.9.18,8.61,1.76,0,0,2.6,2.9,3.32,3.33s4.3,3.37,10.29,1.85c0,0,4.3-.8,4.93-7.25,0,0,.07-2.58,1.38-4.01,0,0,.35-.37-.22-.77Z"/>
    <ellipse class="cls-10" cx="32.58" cy="66.34" rx=".64" ry=".69"/>
    <ellipse class="cls-9" cx="32.44" cy="66.18" rx=".35" ry=".37"/>
    <path class="cls-10" d="M37.52,66.43l-1.73-.31-.6.58s.66.32,1.76-.07l.57-.2Z"/>
    <path class="cls-12" d="M29.32,70.69s-4.06,3.7-10.51,1.16c0,0,5.29,1.45,10.51-1.16Z"/>
  </g>
  <g>
    <path class="cls-11" d="M244.47,112.46s.31-.22.65-.58c.65-.7,1.48-1.23,2.41-1.46.57-.14,1.23-.22,2.01-.2,0,0,1.63-.14,4.17,1.57,2.53,1.71,9.53,5.06,11.69,5.06s8.84-.78,10.03-.19c0,0,.26.3-.52.33,0,0,.97.02,1.08.26s-2.44.43-2.44.43c0,0-8.11.19-8.84,1.81,0,0-2.67,2.98-3.41,3.42s-4.42,3.46-10.57,1.9c0,0-4.42-.82-5.06-7.44,0,0-.07-2.65-1.41-4.12,0,0-.36-.38.22-.79Z"/>
    <ellipse class="cls-10" cx="247.82" cy="112.67" rx=".66" ry=".71"/>
    <ellipse class="cls-9" cx="247.97" cy="112.51" rx=".36" ry=".38"/>
    <path class="cls-10" d="M242.75,112.77l1.78-.32.61.6s-.68.33-1.81-.07l-.59-.2Z"/>
    <path class="cls-1" d="M251.17,117.15s4.17,3.8,10.79,1.19c0,0-5.43,1.49-10.79-1.19Z"/>
  </g>
  <g>
    <path class="cls-15" d="M33.46,77.48c1.35,0,3.11.33,5.3,1,.26.08.47.12.63.12.13,0,.52-.12,1.18-.35.21-.08.43-.12.67-.12.88,0,1.8.69,2.78,2.08.97,1.39,1.46,2.71,1.46,3.96,0,.73-.22,1.35-.66,1.85s-.97.76-1.6.76c-.52,0-.95-.1-1.28-.31s-1.05-.83-2.16-1.86c-1.57-1.47-3.11-2.2-4.63-2.2-.73,0-1.32.18-1.76.53s-.66.82-.66,1.39c0,1.14,1,2,3,2.57,2.71.8,4.44,1.38,5.2,1.75,3.34,1.62,5.01,4.01,5.01,7.16,0,2.79-1.14,5.06-3.42,6.83-2.33,1.81-5.37,2.71-9.13,2.71-1.67,0-3.44-.2-5.3-.6-1.86-.4-3.2-.87-4.02-1.4-.63-.42-1.19-1.33-1.7-2.74-.5-1.41-.76-2.78-.76-4.11,0-.64.13-1.13.39-1.45.33-.42.74-.63,1.24-.63s.97.26,1.43.77c.27.29.92,1.21,1.94,2.77.48.73,1.25,1.34,2.31,1.83s2.14.73,3.27.73c.97,0,1.75-.18,2.36-.54s.9-.82.9-1.38c0-.52-.24-.97-.71-1.35s-1.24-.73-2.3-1.06c-1.87-.59-3.3-1.13-4.28-1.62-.98-.49-1.9-1.11-2.75-1.85-2.07-1.83-3.1-3.91-3.1-6.24,0-1.15.27-2.27.8-3.37s1.3-2.04,2.28-2.84c2.2-1.84,4.88-2.77,8.05-2.77Z"/>
    <path class="cls-15" d="M58.41,86.63v11.4c0,.9.08,1.56.25,1.98s.49.8.99,1.16c.41.29.68.53.81.74s.21.46.21.78c0,1.69-2.14,2.53-6.42,2.53-2.3,0-4.13-.18-5.48-.55-.46-.13-.83-.36-1.11-.69-.28-.33-.42-.7-.42-1.12,0-.35.07-.63.22-.82s.51-.51,1.1-.94c.41-.3.69-.79.86-1.47s.26-1.69.26-3.04c0-.43-.03-1.24-.09-2.42s-.1-1.87-.13-2.07c-.08-.54-.44-.95-1.1-1.24-.81-.35-1.22-.88-1.22-1.57,0-.82.53-1.44,1.59-1.84,1.47-.56,3.04-1.04,4.71-1.43,1.67-.39,2.97-.59,3.89-.59.72,0,1.08.41,1.08,1.22ZM54.52,78.03c1.14,0,2.04.21,2.71.64s1,1,1,1.72c0,1.01-.5,1.81-1.51,2.39-1.6.93-3.53,1.39-5.79,1.39-.96,0-1.71-.18-2.28-.55-.76-.47-1.14-1.13-1.14-1.96,0-1.13.8-2.01,2.41-2.65,1.64-.65,3.17-.98,4.59-.98Z"/>
    <path class="cls-15" d="M85.63,92.51l.27,6.91c.03.52.11.91.25,1.16s.54.73,1.21,1.43c.2.21.29.5.29.88,0,.86-.52,1.47-1.55,1.81s-2.88.51-5.53.51c-1.81,0-3.08-.16-3.83-.47-.77-.33-1.16-.86-1.16-1.59,0-.26.04-.45.12-.58s.34-.43.79-.91c.52-.55.79-2.38.79-5.5,0-1.81-.21-3.14-.63-4-.34-.69-.97-1.04-1.88-1.04s-1.48.28-1.81.84-.49,1.58-.49,3.06v3.89c0,.77.05,1.3.15,1.59s.42.84.97,1.67c.14.24.22.5.22.8,0,.77-.54,1.34-1.61,1.71-1.07.37-2.75.55-5.02.55-3.64,0-5.46-.75-5.46-2.26,0-.31.06-.55.17-.72s.38-.4.79-.7c.34-.25.56-.53.65-.85s.18-1.11.26-2.37c.09-1.49.14-3.06.14-4.69,0-.9-.07-1.49-.21-1.78s-.53-.62-1.19-1.03c-.56-.35-.84-.79-.84-1.3s.23-.95.69-1.29,1.4-.76,2.83-1.27c1.26-.44,2.47-.82,3.63-1.13,1.16-.31,1.96-.46,2.39-.46.39,0,.72.14.99.43s.4.63.4,1.02c0,.04,0,.2-.02.49-.01.1-.02.2-.02.27,0,.63.26.94.79.94.31,0,.65-.25,1-.75,1.13-1.62,2.76-2.43,4.91-2.43,1.65,0,3.06.43,4.24,1.3.82.61,1.4,1.34,1.73,2.17s.53,2.05.61,3.66Z"/>
    <path class="cls-15" d="M109.66,84.21c.33,0,.61.19.86.56s.37.81.37,1.31c0,.54-.17,1.14-.5,1.83s-.74,1.22-1.21,1.63c-.3.26-.45.47-.45.63,0,.04.01.2.04.47.04.27.06.52.06.75,0,1.56-.52,2.87-1.57,3.93-.94.94-2.16,1.67-3.64,2.2s-3.12.79-4.9.79c-.43,0-.86-.03-1.28-.08-.34-.04-.6-.06-.79-.06-.69,0-1.04.35-1.04,1.04,0,.44.23.79.68,1.05s1.06.38,1.84.38c.52,0,1.3-.07,2.32-.22,2.15-.3,3.73-.45,4.75-.45,1.54,0,2.74.26,3.59.77.68.39,1.22.94,1.62,1.65s.6,1.47.6,2.28c0,1.32-.48,2.6-1.45,3.85-1.15,1.47-2.85,2.55-5.08,3.26-1.75.55-3.78.82-6.08.82-2.9,0-5.26-.44-7.07-1.33-.84-.42-1.5-.97-2-1.65-.5-.68-.75-1.39-.75-2.12,0-.51.14-.98.42-1.41s.64-.74,1.07-.92c.39-.16.59-.33.59-.51,0-.14-.16-.35-.49-.63-1.05-.88-1.57-1.79-1.57-2.73,0-.63.25-1.28.76-1.94s1.13-1.18,1.87-1.55c.31-.16.47-.31.47-.47,0-.18-.2-.46-.59-.82-1.35-1.24-2.02-2.7-2.02-4.36,0-.88.24-1.71.72-2.51s1.14-1.48,1.99-2.04c2.11-1.37,4.44-2.06,7.01-2.06,1.02,0,2.16.13,3.42.39,1.19.24,2.01.35,2.45.35,1.43,0,2.85-.56,4.26-1.69.31-.24.56-.35.73-.35ZM94.72,106.13c-.33,0-.49.19-.49.57,0,.77.42,1.4,1.26,1.87s1.92.72,3.26.72,2.29-.17,3.01-.51,1.09-.82,1.09-1.43c0-.33-.14-.61-.41-.83s-.61-.34-1.02-.34c-.21,0-.51.03-.9.08-.73.12-1.55.18-2.45.18-.67,0-1.31-.03-1.92-.1-.46-.04-.83-.09-1.12-.16-.13-.03-.23-.04-.29-.04ZM99,88.27c-.65,0-1.18.25-1.58.75s-.6,1.16-.6,1.98c0,1.41.22,2.55.65,3.4.43.85,1,1.28,1.71,1.28s1.24-.26,1.65-.79.61-1.24.61-2.13c0-1.4-.21-2.49-.64-3.27s-1.02-1.18-1.8-1.21Z"/>
  </g>
  <g>
    <path class="cls-15" d="M129.95,77.62c2.56,0,4.52.14,5.87.41.61.12,1.11.35,1.48.7s.56.74.56,1.19c0,.34-.14.69-.43,1.04-.42.54-.63.92-.63,1.16,0,.47.37,1.22,1.12,2.26.48.67.94,1,1.37,1,.27,0,.54-.1.8-.3s.6-.57,1.02-1.09c.51-.64.77-1.15.77-1.53,0-.24-.03-.41-.09-.53s-.27-.4-.64-.84c-.26-.3-.39-.71-.39-1.22,0-1.48,2-2.22,6.01-2.22,2.26,0,3.74.1,4.42.31.43.13.79.38,1.07.75s.42.76.42,1.18c0,.54-.16.94-.49,1.22s-.9.48-1.71.63c-.75.14-1.39.43-1.94.85-.55.43-1.56,1.42-3.02,2.99-1.78,1.92-2.89,3.34-3.33,4.25s-.66,2.27-.66,4.07c0,1.52.06,2.92.18,4.22.07.8.19,1.35.37,1.66s.56.61,1.14.91c.96.5,1.43,1.12,1.43,1.86,0,1.78-2.63,2.67-7.89,2.67-2.16,0-4.2-.21-6.12-.63-1.62-.35-2.43-1.05-2.43-2.1,0-.81.5-1.39,1.49-1.75.75-.26,1.21-.6,1.39-1,.42-.9.63-3.04.63-6.4,0-1.05-.1-1.86-.31-2.44s-.67-1.34-1.37-2.27c-1.48-1.92-3-3.66-4.57-5.2-.68-.67-1.33-1.12-1.96-1.35-.89-.33-1.43-.57-1.61-.73-.37-.31-.55-.73-.55-1.26,0-.88.66-1.51,1.98-1.89,1.32-.39,3.53-.58,6.63-.58Z"/>
    <path class="cls-15" d="M161.83,85.25c2.39,0,4.49.62,6.3,1.86,1.3.89,2.34,2.05,3.12,3.47.81,1.49,1.22,3.05,1.22,4.67,0,2.84-1.3,5.25-3.91,7.24-2.49,1.9-5.33,2.85-8.54,2.85s-5.66-.89-7.6-2.67c-1.88-1.73-2.83-3.98-2.83-6.75,0-3.09,1.15-5.61,3.45-7.58,2.41-2.07,5.33-3.1,8.77-3.1ZM160.26,89.79c-.58,0-1.04.21-1.38.64s-.52.99-.52,1.7c0,.79.15,1.85.44,3.21s.64,2.55,1.05,3.6c.41,1.07,1.07,1.61,1.98,1.61,1.16,0,1.75-.74,1.75-2.22,0-1.1-.15-2.35-.44-3.75-.29-1.4-.65-2.54-1.07-3.42-.43-.89-1.03-1.35-1.81-1.37Z"/>
    <path class="cls-15" d="M184.63,86.39v10.64c0,2.28.75,3.42,2.26,3.42.38,0,.75-.11,1.12-.32s.62-.48.77-.79c.29-.63.43-2.03.43-4.2s-.07-3.61-.22-4.4c-.05-.33-.14-.57-.27-.72s-.38-.32-.75-.52c-.75-.39-1.12-.89-1.12-1.49,0-.81.64-1.37,1.92-1.69,2.43-.6,4.83-.9,7.2-.9,1.32,0,1.98.7,1.98,2.1,0,.14,0,.44-.02.88-.03.63-.05,1.39-.06,2.3v8.66c0,.44.38.85,1.14,1.22.64.31.96.77.96,1.37,0,1.18-1.39,2.09-4.18,2.73-1.64.38-3.22.57-4.75.57-.63,0-1.06-.07-1.29-.22s-.36-.43-.4-.84c-.07-.81-.31-1.22-.75-1.22-.16,0-.3.04-.43.11s-.53.34-1.2.79c-1.32.9-2.74,1.35-4.26,1.35-2.51,0-4.29-.73-5.32-2.18-.88-1.22-1.32-3.26-1.32-6.14,0-1.07,0-1.99.02-2.75v-.9c0-1.13-.1-1.95-.3-2.48s-.57-.95-1.11-1.25c-.51-.26-.83-.47-.97-.63s-.21-.37-.21-.65c0-.99.75-1.66,2.26-1.98,2.56-.56,5.13-.84,7.69-.84.77,0,1.16.33,1.16.98Z"/>
    <path class="cls-15" d="M210.29,85.39c.69,0,1.12.1,1.27.29s.28.82.4,1.88c.07.58.27.86.61.86.26,0,.51-.19.75-.57,1.05-1.64,2.41-2.45,4.1-2.45,1.19,0,2.17.39,2.92,1.16.37.38.67.87.9,1.46s.35,1.17.35,1.72c0,.61-.14,1.25-.43,1.89-.29.65-.66,1.18-1.12,1.6-.84.8-1.86,1.2-3.08,1.2-.67,0-1.23-.12-1.68-.35s-1.04-.71-1.78-1.43c-.27-.27-.53-.41-.77-.41-.37,0-.61.21-.72.62s-.17,1.28-.17,2.6c0,1.98.07,3.32.22,4.04.09.39.22.66.38.81s.51.3,1.05.46c1.18.35,1.77.97,1.77,1.84,0,.54-.19,1-.57,1.4s-.88.66-1.51.79c-1.26.26-3.1.39-5.53.39s-4.08-.2-5.28-.61c-1.07-.37-1.61-1-1.61-1.9,0-.68.39-1.29,1.18-1.83.38-.25.64-.47.79-.68s.24-.48.29-.83c.21-1.19.31-3.4.31-6.61,0-.59-.07-1.01-.2-1.27s-.39-.46-.79-.62c-.93-.37-1.39-.9-1.39-1.59,0-.63.32-1.17.96-1.62.64-.45,1.71-.9,3.22-1.34,2.02-.6,3.73-.91,5.14-.92Z"/>
  </g>
  <g>
    <path class="cls-15" d="M65.37,118.54c3.36,0,6.3.96,8.81,2.89,1.7,1.32,3.08,3.04,4.14,5.14,1.03,2.09,1.55,4.19,1.55,6.28,0,3.09-1.02,5.85-3.06,8.28-1.73,2.07-3.98,3.55-6.77,4.46-1.71.55-3.43.82-5.16.82-2.26,0-4.43-.47-6.5-1.41-2.5-1.14-4.46-2.86-5.87-5.16-1.37-2.22-2.06-4.68-2.06-7.36,0-3.11.88-5.86,2.65-8.24,1.57-2.12,3.68-3.68,6.34-4.67,1.78-.68,3.76-1.02,5.93-1.02ZM63.5,124.17c-1.1,0-1.97.49-2.61,1.47-.5.73-.75,1.6-.75,2.61,0,1.48.3,3.19.9,5.13.6,1.94,1.36,3.67,2.28,5.17.41.64.91,1.15,1.5,1.53s1.2.57,1.82.57c.99,0,1.8-.37,2.4-1.12s.91-1.73.91-2.94c0-1.58-.26-3.29-.77-5.12s-1.17-3.4-1.98-4.69c-.5-.8-1.07-1.43-1.73-1.88-.65-.46-1.32-.7-1.98-.73Z"/>
    <path class="cls-15" d="M104.11,142.48l-2.02-3.24c-.47-.73-.78-1.17-.91-1.32s-.32-.22-.54-.22c-.47,0-.96.43-1.45,1.3l-3.28,5.65c-.63,1.09-1.33,1.63-2.12,1.63-.48,0-.93-.17-1.33-.5s-.84-.9-1.32-1.7l-5.89-9.79c-.98-1.58-1.75-2.62-2.3-3.1-.26-.21-.74-.41-1.43-.61-.29-.09-.53-.27-.72-.54s-.28-.57-.28-.89c0-1.01.78-1.71,2.34-2.12,1.57-.39,3.28-.59,5.14-.59,4.17,0,6.26.78,6.26,2.34,0,.29-.2.73-.61,1.32-.08.12-.12.24-.12.37,0,.29.31,1,.92,2.14.68,1.3,1.27,1.94,1.77,1.94.29,0,.65-.33,1.1-.98s.67-1.18.67-1.59-.1-.73-.29-.97-.66-.62-1.39-1.15c-.44-.31-.67-.69-.67-1.12,0-1.02,1.05-1.69,3.14-2,1.27-.2,2.76-.29,4.48-.29,1.98,0,3.4.17,4.28.5s1.32.87,1.32,1.62c0,.3-.05.54-.16.73s-.39.51-.84.98c-.14.16-.22.36-.22.61,0,.35.3,1.1.9,2.24.52.99,1,1.49,1.43,1.49.47,0,1.07-.63,1.79-1.9.52-.96.79-1.59.79-1.9,0-.25-.21-.63-.63-1.16-.3-.37-.45-.77-.45-1.2,0-.68.31-1.15.92-1.41.86-.38,2.12-.57,3.77-.57,1.11,0,2.1.09,2.96.26.5.1.9.32,1.22.64s.47.69.47,1.11-.18.77-.55,1.06c-.07.07-.52.25-1.37.55-.48.18-.88.44-1.2.79s-.69.95-1.14,1.83l-4.91,9.5c-1.44,2.77-2.71,4.16-3.81,4.16-.47,0-.99-.3-1.56-.89s-1.29-1.59-2.15-2.97Z"/>
    <path class="cls-15" d="M145.1,133.57l.27,6.91c.03.52.11.91.25,1.16s.54.73,1.21,1.43c.2.21.29.5.29.88,0,.86-.52,1.47-1.55,1.81-1.03.34-2.88.51-5.53.51-1.81,0-3.08-.16-3.83-.47-.77-.33-1.16-.86-1.16-1.59,0-.26.04-.45.12-.58s.34-.43.79-.91c.52-.55.79-2.38.79-5.5,0-1.81-.21-3.14-.63-4-.34-.69-.97-1.04-1.88-1.04s-1.48.28-1.81.84-.49,1.58-.49,3.06v3.89c0,.77.05,1.3.15,1.59s.42.84.97,1.67c.14.24.22.5.22.8,0,.77-.54,1.34-1.61,1.71-1.07.37-2.75.55-5.02.55-3.64,0-5.46-.75-5.46-2.26,0-.31.06-.55.17-.72s.38-.4.79-.7c.34-.25.56-.53.65-.85s.18-1.11.26-2.37c.09-1.49.14-3.06.14-4.69,0-.9-.07-1.49-.21-1.78s-.53-.62-1.19-1.03c-.56-.35-.84-.79-.84-1.3s.23-.95.69-1.29,1.4-.76,2.83-1.27c1.26-.44,2.47-.82,3.63-1.13s1.96-.46,2.39-.46c.39,0,.72.14.99.43s.4.63.4,1.02c0,.04,0,.2-.02.49-.01.1-.02.2-.02.27,0,.63.26.94.79.94.31,0,.65-.25,1-.75,1.13-1.62,2.76-2.43,4.91-2.43,1.65,0,3.06.43,4.24,1.3.82.61,1.4,1.34,1.73,2.17.33.83.53,2.05.61,3.66Z"/>
  </g>
  <g>
    <path class="cls-15" d="M166.72,119.09h10.34c1.11-.04,2.13-.19,3.04-.45.39-.1.74-.16,1.04-.16,1.06,0,2.09.79,3.09,2.36,1,1.57,1.5,3.19,1.5,4.85,0,1.14-.35,1.97-1.04,2.49-.52.39-1.15.59-1.88.59-.69,0-1.3-.19-1.81-.58-.51-.39-1.01-1.02-1.51-1.91-.43-.81-.77-1.34-1.02-1.59s-.55-.37-.9-.37c-.48,0-.83.2-1.04.61s-.31,1.07-.31,2v10.99c0,1.13.12,1.94.35,2.45s.68.9,1.33,1.18c.71.3,1.19.59,1.44.85s.38.64.38,1.11c0,.94-.64,1.64-1.91,2.1-1.28.46-3.24.69-5.88.69-3.25,0-5.65-.27-7.22-.8-1.32-.44-1.98-1.16-1.98-2.16,0-.54.24-.96.71-1.26.12-.07.58-.22,1.39-.47.5-.14.84-.42,1.03-.82s.34-1.18.46-2.34c.1-1.02.2-2.67.29-4.96.09-2.28.14-4.26.14-5.94,0-1.18-.09-2.02-.27-2.51s-.48-.75-.9-.75c-.51,0-1.01.37-1.49,1.1-.88,1.33-1.6,2.22-2.16,2.65-.67.51-1.32.77-1.94.77-.71,0-1.29-.26-1.75-.79s-.69-1.21-.69-2.03.18-1.7.55-2.68.86-1.87,1.47-2.7c.99-1.33,1.98-2,2.94-2,.26,0,.56.04.9.12.71.14,1.29.24,1.74.29s.97.08,1.56.08Z"/>
    <path class="cls-15" d="M197.23,127.45v10.64c0,2.28.75,3.42,2.26,3.42.38,0,.75-.11,1.12-.32s.62-.48.77-.79c.29-.63.43-2.03.43-4.2s-.07-3.61-.22-4.4c-.05-.33-.14-.57-.27-.72s-.38-.32-.75-.52c-.75-.39-1.12-.89-1.12-1.49,0-.81.64-1.37,1.92-1.69,2.43-.6,4.83-.9,7.2-.9,1.32,0,1.98.7,1.98,2.1,0,.14,0,.44-.02.88-.03.63-.05,1.39-.06,2.3v8.66c0,.44.38.85,1.14,1.22.64.31.96.77.96,1.37,0,1.18-1.39,2.09-4.18,2.73-1.64.38-3.22.57-4.75.57-.63,0-1.06-.07-1.29-.22s-.36-.43-.4-.84c-.07-.81-.31-1.22-.75-1.22-.16,0-.3.04-.43.11s-.53.34-1.2.79c-1.32.9-2.74,1.35-4.26,1.35-2.51,0-4.29-.73-5.32-2.18-.88-1.22-1.32-3.26-1.32-6.14,0-1.07,0-1.99.02-2.75v-.9c0-1.13-.1-1.95-.3-2.48s-.57-.95-1.11-1.25c-.51-.26-.83-.47-.97-.63s-.21-.37-.21-.65c0-.99.75-1.66,2.26-1.98,2.56-.56,5.13-.84,7.69-.84.77,0,1.16.33,1.16.98Z"/>
    <path class="cls-15" d="M237.52,133.57l.27,6.91c.03.52.11.91.25,1.16s.54.73,1.21,1.43c.2.21.29.5.29.88,0,.86-.52,1.47-1.55,1.81-1.03.34-2.88.51-5.53.51-1.81,0-3.08-.16-3.83-.47-.77-.33-1.16-.86-1.16-1.59,0-.26.04-.45.12-.58s.34-.43.79-.91c.52-.55.79-2.38.79-5.5,0-1.81-.21-3.14-.63-4-.34-.69-.97-1.04-1.88-1.04s-1.48.28-1.81.84-.49,1.58-.49,3.06v3.89c0,.77.05,1.3.15,1.59s.42.84.97,1.67c.14.24.22.5.22.8,0,.77-.54,1.34-1.61,1.71-1.07.37-2.75.55-5.02.55-3.64,0-5.46-.75-5.46-2.26,0-.31.06-.55.17-.72s.38-.4.79-.7c.34-.25.56-.53.65-.85s.18-1.11.26-2.37c.09-1.49.14-3.06.14-4.69,0-.9-.07-1.49-.21-1.78s-.53-.62-1.19-1.03c-.56-.35-.84-.79-.84-1.3s.23-.95.69-1.29,1.4-.76,2.83-1.27c1.26-.44,2.47-.82,3.63-1.13s1.96-.46,2.39-.46c.39,0,.72.14.99.43s.4.63.4,1.02c0,.04,0,.2-.02.49-.01.1-.02.2-.02.27,0,.63.26.94.79.94.31,0,.65-.25,1-.75,1.13-1.62,2.76-2.43,4.91-2.43,1.65,0,3.06.43,4.24,1.3.82.61,1.4,1.34,1.73,2.17.33.83.53,2.05.61,3.66Z"/>
    <path class="cls-15" d="M258.82,137.09h-9.22c-.41,0-.61.18-.61.53,0,.85.46,1.65,1.38,2.4s1.91,1.13,2.97,1.13c.63,0,1.32-.12,2.09-.36.77-.24,1.4-.54,1.89-.89.44-.31.8-.47,1.06-.47.34,0,.67.21,1,.63s.49.85.49,1.3c0,.94-.59,1.85-1.77,2.73-2.08,1.56-4.48,2.34-7.2,2.34s-5.05-.8-6.91-2.39c-.9-.79-1.65-1.73-2.24-2.85-.77-1.48-1.16-3.04-1.16-4.67,0-2.2.67-4.17,2-5.93,1.15-1.52,2.62-2.65,4.4-3.4,1.33-.56,2.78-.84,4.34-.84,2.49,0,4.6.71,6.34,2.12.88.71,1.58,1.54,2.12,2.51.61,1.1.92,2.17.92,3.22,0,.85-.18,1.55-.53,2.09-.35.54-.81.81-1.37.81ZM250.1,133.41h1.98c.84,0,1.26-.39,1.26-1.16,0-.71-.2-1.28-.61-1.73s-.94-.67-1.59-.67c-.73,0-1.31.29-1.73.86-.39.54-.59,1.08-.59,1.63,0,.39.09.67.28.82s.52.24.99.24Z"/>
    <path class="cls-15" d="M267.3,137.14c1.24,0,2.32.43,3.24,1.3.93.88,1.39,2.01,1.39,3.4,0,1.3-.46,2.39-1.39,3.28-.92.86-2,1.3-3.24,1.3s-2.32-.43-3.24-1.3c-.93-.89-1.39-2-1.39-3.34s.46-2.47,1.39-3.34c.92-.85,2-1.28,3.24-1.3Z"/>
  </g>
  <g>
    <path class="cls-8" d="M238.17,111.98s.01-.21.03-.52c.03-.51.07-1.28.1-1.83.02-.37.03-.64.03-.66,0-.04-2.32.07-2.32.07l-.04.66-.09,1.61-.02.29s-.25-.19-.59-.03c-.33.15-.4.43-.34.65,0,0,.02.39.62.27s.46-1.16.46-1.16l.08-1.19,2.05-.06-.06,1.39v.06s-.33-.35-.77.13c-.44.48-.01.76-.01.76,0,0,.45.23.84-.38l.03-.05ZM236.1,109.71l.03-.23,2.03-.06v.2s-2.06.09-2.06.09Z"/>
    <path class="cls-8" d="M229.57,110.93s-.29-.27-.61-.1-.57.37-.5.87c0,0,.07.38.48.36s.66-.28.72-.53.14-3.63.14-3.63l-.16-.02-.07,3.05Z"/>
    <path class="cls-6" d="M233.21,113.76c.05-.43-.26-.63-.26-.63-.61-.28-.72.11-.72.11-.19.53.28.79.28.79.42.15.59-.05.59-.05v2.55s.13,0,.13,0c0,0-.08-2.32-.03-2.75ZM233.1,113.8s-.16.31-.57.02c-.41-.29-.2-.54-.2-.54,0,0,.23-.22.58.04,0,0,.24.22.19.48Z"/>
    <path class="cls-8" d="M225.27,112.5s-.32.29-.67.11-.62-.41-.54-.95c0,0,.08-.42.52-.4s.72.31.79.58.16,3.97.16,3.97l-.18.02-.08-3.34Z"/>
    <path class="cls-6" d="M220.39,105.26l-.23-.02v4.67s-.33-.38-1.1-.1c0,0-.87.47-.51,1.44,0,0,.2.7,1.31.2,0,0,.56-.36.47-1.15-.09-.79.06-5.04.06-5.04ZM219.79,111.1c-.64.49-1.06.08-1.06.08,0,0-.37-.46.37-1,.74-.54,1.04,0,1.04.03.09.47-.36.88-.36.88Z"/>
    <g>
      <path class="cls-5" d="M214.11,115.24s5.86-2.71,12.84.38,12.05-.74,14.55-2.1"/>
      <path class="cls-5" d="M214.11,114.28s5.86-3.14,12.84-.05c6.98,3.09,12.05.24,14.55-1.12"/>
      <path class="cls-5" d="M213.98,112.8s5.86-3.23,12.84-.13,12.05,1.21,14.55-.15"/>
      <path class="cls-5" d="M213.98,111.5s5.86-3.31,12.84-.22c6.98,3.09,12.05,2.19,14.55.83"/>
      <path class="cls-5" d="M214.02,110.07s5.86-3.14,12.84-.05,12.05,3.16,14.55,1.8"/>
      <path class="cls-5" d="M241.4,111.41c-2.5,1.36-7.57.31-14.55-2.78-6.98-3.09-12.84.22-12.84.22"/>
    </g>
  </g>
</svg>