<?xml version="1.0" encoding="UTF-8"?>
<svg id="Layer_1" data-name="Layer 1" xmlns="http://www.w3.org/2000/svg" viewBox="0 0 216 216">
  <defs>
    <style>
      .cls-1 {
        fill: #fff;
      }

      .cls-2 {
        fill: #cb79b2;
      }

      .cls-3 {
        fill: #cc6576;
      }

      .cls-4 {
        fill: #efe740;
      }

      .cls-5 {
        fill: #0773b4;
      }

      .cls-6 {
        fill: #159f75;
      }
    </style>
  </defs>
  <path class="cls-1" d="M59.78,216c-4.88,0-9.6-2.36-12.63-6.31-3.03-3.96-4.09-9.05-2.9-13.97l14.11-58.48-50-31.8c-5.89-3.75-8.74-10.9-7.08-17.79,1.66-6.9,7.43-11.87,14.36-12.39l58.72-4.34,14.11-58.49c1.76-7.32,8.15-12.43,15.52-12.43,6.52,0,12.32,4,14.78,10.18l22.18,55.8,58.72-4.34c.4-.03.79-.04,1.18-.04,6.77,0,12.64,4.22,14.97,10.74,2.33,6.52.48,13.62-4.71,18.1l-45.01,38.83,22.18,55.8c2.01,5.05,1.44,10.75-1.52,15.25-2.99,4.55-7.95,7.26-13.28,7.26-2.96,0-5.88-.86-8.43-2.48l-50-31.81-45.01,38.83c-2.89,2.49-6.54,3.86-10.27,3.86h0Z"/>
  <path class="cls-1" d="M162.42,195.13l-56.08-35.67-50.48,43.55c-1.43,1.23-3.56-.13-3.11-1.98l15.82-65.6L12.49,99.77c-1.58-1.01-.98-3.5.88-3.64l65.86-4.87,15.82-65.6c.45-1.85,2.95-2.04,3.65-.27l24.88,62.59,65.86-4.87c1.86-.14,2.81,2.24,1.38,3.47l-50.48,43.55,24.88,62.59c.7,1.77-1.22,3.42-2.8,2.42Z"/>
  <g>
    <path class="cls-1" d="M59.58,214.66c-4.88,0-9.6-2.36-12.63-6.31-3.03-3.96-4.09-9.05-2.9-13.97l14.11-58.48-50-31.8c-5.89-3.75-8.74-10.9-7.08-17.79,1.66-6.9,7.43-11.87,14.36-12.39l58.72-4.34,14.11-58.49c1.76-7.32,8.15-12.43,15.52-12.43,6.52,0,12.32,4,14.78,10.18l22.18,55.8,58.72-4.34c.4-.03.79-.04,1.18-.04,6.77,0,12.64,4.22,14.97,10.74,2.33,6.52.48,13.62-4.71,18.1l-45.01,38.83,22.18,55.8c2.01,5.05,1.44,10.75-1.52,15.25-2.99,4.55-7.95,7.26-13.28,7.26-2.96,0-5.88-.86-8.43-2.48l-50-31.81-45.01,38.83c-2.89,2.49-6.54,3.86-10.27,3.86h0Z"/>
    <path class="cls-1" d="M175.33,195.55l-61.57-39.16-55.42,47.81c-1.57,1.35-3.91-.14-3.42-2.17l17.37-72.02L10.72,90.86c-1.74-1.11-1.08-3.84.96-4l72.3-5.35L101.36,9.5c.49-2.03,3.24-2.24,4.01-.3l27.32,68.71,72.3-5.35c2.04-.15,3.08,2.46,1.52,3.81l-55.42,47.81,27.32,68.71c.77,1.94-1.34,3.76-3.07,2.65Z"/>
    <path class="cls-4" d="M175.33,195.55l-61.57-39.16-55.42,47.81c-1.57,1.35-3.91-.14-3.42-2.17l17.37-72.02L10.72,90.86c-1.74-1.11-1.08-3.84.96-4l72.3-5.35L101.36,9.5c.49-2.03,3.24-2.24,4.01-.3l27.32,68.71,72.3-5.35c2.04-.15,3.08,2.46,1.52,3.81l-55.42,47.81,27.32,68.71c.77,1.94-1.34,3.76-3.07,2.65Z"/>
    <path class="cls-6" d="M37.79,108.58c-1.66-.02-3.28-.18-4.84-.49-1.56-.31-2.96-.73-4.19-1.26l.8-5.69c1.51.66,3,1.18,4.49,1.55,1.49.37,2.86.56,4.13.57,1.47.02,2.6-.24,3.39-.76.79-.53,1.19-1.29,1.2-2.29.01-1.31-.78-2.36-2.38-3.15l-4.18-2.14c-2.06-1.06-3.66-2.37-4.78-3.92-1.12-1.55-1.68-3.25-1.66-5.11.03-2.62.9-4.63,2.6-6.05,1.71-1.42,4.11-2.11,7.2-2.07,1.8.02,3.51.36,5.11,1.03,1.61.67,3.03,1.62,4.27,2.86l-3.8,4.37c-.94-.94-1.89-1.66-2.84-2.17s-1.88-.77-2.78-.78c-1.21-.01-2.15.24-2.83.76-.68.52-1.02,1.28-1.04,2.28,0,.66.22,1.29.69,1.89s1.14,1.14,2.01,1.63l3.94,2.13c2.05,1.12,3.63,2.42,4.73,3.89,1.1,1.48,1.65,3.05,1.63,4.72-.03,2.66-.99,4.7-2.87,6.12-1.89,1.42-4.55,2.11-8,2.07Z"/>
    <path class="cls-2" d="M55.12,112.95c-1.3-.01-2.31-.47-3.01-1.35s-1.05-2.13-1.03-3.73l.1-9.27,3.51.04-.09,8.38c0,.8.16,1.43.52,1.87s.84.67,1.47.67c.82,0,1.44-.31,1.87-.95.43-.64.65-1.73.66-3.26l.65,4.68h-1.06c-.23.94-.65,1.67-1.28,2.17s-1.39.75-2.3.74ZM59.08,108.76l.11-10.07,3.51.04-.1,9.27-3.52.75ZM59.27,112.86l-.2-3.37.03-2.46,3.51.04-.03,2.49,1.89.31-.03,2.91-5.17.07Z"/>
    <path class="cls-5" d="M67.97,111.27l.22-20.13,3.25.04.23,2.97-.19,17.16-3.51-.04ZM75.2,105.53c-.96-.01-1.72-.25-2.3-.73s-.92-1.18-1.05-2.12h-1.22s.98-4.47.98-4.47c-.01,1.36.17,2.35.56,2.97s1.08.94,2.07.95c.91.01,1.61-.31,2.09-.96s.72-1.62.74-2.91-.22-2.21-.69-2.9-1.16-1.04-2.05-1.05-1.56.3-2.02.92c-.46.62-.69,1.61-.71,2.97l-.75-4.5h1.01c.17-.93.53-1.63,1.08-2.09s1.34-.68,2.38-.67c1.72.02,3.04.67,3.97,1.95s1.38,3.08,1.36,5.41c-.03,2.34-.52,4.13-1.48,5.37-.96,1.24-2.29,1.85-3.99,1.84Z"/>
    <path class="cls-3" d="M90.05,112.8c-2.37-.03-4.2-.68-5.48-1.95-1.28-1.27-1.91-3.09-1.88-5.45.02-2.3.59-4.07,1.71-5.33s2.67-1.88,4.67-1.85,3.47.63,4.52,1.81c1.06,1.19,1.57,2.9,1.55,5.14,0,.64-.04,1.24-.1,1.81l-10.07-.11.03-2.49,6.7.08c.01-.94-.22-1.67-.68-2.18s-1.12-.77-1.97-.78c-.91-.01-1.63.31-2.14.98s-.77,1.6-.79,2.83c-.01,1.32.35,2.34,1.09,3.03s1.8,1.05,3.18,1.07c.62,0,1.23-.02,1.84-.08s1.22-.14,1.85-.25l.3,3.39c-.88.15-1.69.24-2.41.28s-1.37.05-1.93.04Z"/>
    <path class="cls-6" d="M97.7,105.02l.03-3.07,9.6.11-.03,3.07-9.6-.11ZM98.33,94.06l.03-3.07,5.18.06.23,3.08-5.44-.06ZM100.6,105.06l.15-14.04,2.98.03.47,4.03-.11,10.01-3.49-.04ZM104.16,99.06l-.75-4.84h1.18c.16-2.27,1.34-3.4,3.54-3.38,1.3.01,2.3.52,2.98,1.5s1.02,2.4,1,4.25l-3.49-.04c0-.83-.13-1.43-.43-1.79s-.77-.55-1.42-.56c-.85,0-1.5.41-1.93,1.25s-.66,2.05-.67,3.61Z"/>
    <path class="cls-2" d="M117.85,114.33c-1.04-.01-1.97-.06-2.78-.13s-1.51-.18-2.13-.32l.45-3.43c1.09.15,2,.27,2.74.35s1.32.12,1.75.13c1.17.01,2.02-.06,2.55-.22s.79-.42.8-.78c0-.21-.06-.38-.19-.51s-.33-.23-.62-.32l-4.45-1.38c-.91-.28-1.6-.71-2.05-1.27s-.68-1.32-.67-2.27c.02-1.51.65-2.63,1.9-3.35,1.25-.72,3.14-1.07,5.67-1.04.59,0,1.2.04,1.83.09s1.3.13,2.01.22l-.41,3.32c-.78-.08-1.47-.14-2.06-.17s-1.08-.05-1.49-.06c-1.35-.02-2.34.05-2.95.2s-.92.4-.92.75c0,.22.06.39.18.51s.32.22.59.3l3.83,1.13c1.18.34,2.06.82,2.63,1.45.58.63.86,1.44.85,2.44-.02,1.49-.61,2.6-1.77,3.31-1.16.72-2.93,1.06-5.31,1.03Z"/>
    <path class="cls-5" d="M126.33,94.84l.04-3.3,12.87.15-.04,3.3-12.87-.15ZM129.57,98.77l.12-11.43,3.49.04-.12,11.43-3.49-.04ZM136.2,105.96c-2.36-.03-4.07-.53-5.11-1.52-1.04-.98-1.55-2.54-1.53-4.68l.02-1.83,3.49.04-.02,1.48c-.01,1.07.25,1.85.78,2.34s1.42.74,2.65.76c.4,0,.82-.01,1.28-.06s.97-.1,1.55-.17l.27,3.35c-.57.1-1.13.17-1.67.22s-1.12.07-1.73.06Z"/>
    <path class="cls-3" d="M145.54,114.12c-1.46-.02-2.59-.4-3.39-1.14s-1.2-1.79-1.18-3.14c.02-1.57.56-2.77,1.63-3.6,1.07-.83,2.58-1.23,4.53-1.21.75,0,1.4.06,1.95.14s1.1.22,1.66.39l-.6,2.79c-.55-.14-1.05-.22-1.49-.25s-.9-.04-1.38-.05c-1.81-.02-2.72.5-2.74,1.56,0,.48.15.84.48,1.1s.8.39,1.43.39c.76,0,1.4-.13,1.91-.42.51-.29.9-.65,1.16-1.1s.39-.91.4-1.39v-.87s.46,3.61.46,3.61h-1.1s.46-.43.46-.43c-.03.81-.22,1.49-.57,2.03s-.82.94-1.43,1.2-1.34.39-2.19.38ZM150.19,114.04l-.25-4.16-.03-1.83.03-2.74c0-.75-.3-1.3-.92-1.66s-1.55-.56-2.78-.61l-3.51-.13.29-3.26,2.99.07c2.48.06,4.33.59,5.52,1.57s1.79,2.4,1.77,4.25l-.06,5.19,1.9.31-.03,2.91-4.92.08Z"/>
    <path class="cls-6" d="M157.39,105.74l.03-3.07,9.6.11-.03,3.07-9.6-.11ZM158.03,94.78l.03-3.07,5.18.06.23,3.08-5.44-.06ZM160.29,105.77l.15-14.04,2.98.03.47,4.03-.11,10.01-3.49-.04ZM163.85,99.77l-.75-4.84h1.18c.16-2.27,1.34-3.4,3.54-3.38,1.3.01,2.3.52,2.98,1.5s1.02,2.4,1,4.25l-3.49-.04c0-.83-.13-1.43-.43-1.79s-.77-.55-1.42-.56c-.85,0-1.5.41-1.93,1.25s-.66,2.05-.67,3.61Z"/>
    <path class="cls-2" d="M176.68,115.28c-1.53-.19-2.77-.91-3.71-2.15-.94-1.24-1.31-2.63-1.13-4.18.19-1.57.88-2.83,2.08-3.79,1.2-.96,2.57-1.34,4.1-1.15,1.53.19,2.77.9,3.71,2.13.94,1.23,1.31,2.63,1.13,4.2-.19,1.55-.88,2.81-2.08,3.78-1.2.97-2.57,1.36-4.1,1.17ZM175.15,96.98l2.24-27.2,9.32,1.17-4.36,26.93-7.2-.9Z"/>
  </g>
</svg>