<?xml version="1.0" encoding="UTF-8"?>
<svg id="Layer_1" data-name="Layer 1" xmlns="http://www.w3.org/2000/svg" viewBox="0 0 288 216">
  <defs>
    <style>
      .cls-1 {
        fill: #d56228;
      }

      .cls-2 {
        fill: #fff;
      }

      .cls-3 {
        fill: #e8a123;
      }

      .cls-4 {
        fill: #efe740;
      }

      .cls-5 {
        fill: #050505;
      }
    </style>
  </defs>
  <g>
    <path class="cls-2" d="M282.5,213.33c-.98.42-2.08.66-3.32.66-7.17,0-47.57-14.23-80.51-26.28-7.49-.32-29.93-1.3-51.68-2.41-14.01-.71-25.16-1.34-33.15-1.87-12.04-.8-17.25-1.14-19.86-3.51-1.15-.78-2.22-1.76-3.18-2.93l-4.99-6.02-53.36-4.33c-1.88.98-3.82,1.46-5.81,1.46-5.06,0-9.88-3.28-12.57-8.57-2.67-5.26-2.87-11.71-.53-17.25l16.27-38.61-23.44-29.57c-4.24-5.08-5.51-12.67-3.23-19.32,2.29-6.68,7.6-11,13.53-11,.78,0,1.58.07,2.36.22l33.51,5.69,16.26-38.62c2.54-5.99,7.55-9.71,13.08-9.71s10.53,3.63,13.03,9.29c41.65,25.14,164.15,102.99,188.96,162.94l.66,1.6,1.86,22.18c1.29,2.31,1.82,4.85,1.57,7.61-.09,1-.32,2.03-.68,3l.67,7.98-5.43-2.67Z"/>
    <path class="cls-2" d="M279.88,203.96c-.29,3.23-77.49-25.11-79.78-25.95-.02-.03-.05-.03-.05-.03h-.02c-1.89-.08-102.67-4.37-100.66-5.86-1.01-.35-1.98-1-2.84-2.04l-7.14-8.61-58.59-4.75-1.13.71c-5.7,3.53-11.83-3.83-8.92-10.7l18.94-44.95-29.62-35.59c-4.55-5.46-.65-14.71,5.68-13.52l41.33,7.79,18.92-44.95c2.88-6.81,11.29-5.29,12.41,2.2,30.41,18.22,163.37,100.36,188.17,160.27l1.91,22.83-2.43-1.19c2.57,1.6,3.92,3.09,3.81,4.34Z"/>
  </g>
  <polygon class="cls-1" points="172.53 168.25 25.71 156.33 65.2 119.8 265.46 195.29 172.53 168.25"/>
  <polygon class="cls-1" points="134.67 79.78 93.34 66.55 84.73 16.77 276.59 177.99 134.67 79.78"/>
  <polygon class="cls-1" points="276.59 197.56 103.85 153.4 97.24 103.62 276.33 192.16 276.59 197.56"/>
  <path class="cls-3" d="M136.11,90.43s11.22-3.42,3.77-12.96c-7.45-9.54,134.02,98.73,134.02,98.73l-137.79-85.77Z"/>
  <polygon class="cls-3" points="99.42 112.28 136.66 89.33 276.59 177.99 278.5 200.82 99.42 112.28"/>
  <path class="cls-3" d="M105.02,160.2s3.45,10.4-5.18,11.78c-8.63,1.39,100.2,6.01,100.2,6.01,0,0,78.79,27.26,78.82,23.97.16-17.23-172.36-50.63-173.85-41.76Z"/>
  <path class="cls-1" d="M276.59,177.99C248.54,110.25,81.23,15.05,81.23,15.05"/>
  <g>
    <path class="cls-5" d="M138.21,124.18c-1.24-.48-2.41-1.04-3.51-1.71-1.1-.66-2.05-1.37-2.85-2.12.81-1.68,1.21-2.52,2.03-4.21.98.92,1.98,1.73,3.01,2.43,1.03.7,2.02,1.23,2.96,1.59,1.1.42,2.01.55,2.74.36.73-.18,1.23-.66,1.5-1.43.36-1.01.04-2.04-.96-3.11-1.04-1.14-1.56-1.7-2.61-2.83-1.29-1.4-2.17-2.86-2.63-4.37-.46-1.51-.44-2.98.06-4.42.71-2.02,1.92-3.34,3.63-3.96,1.71-.61,3.76-.47,6.14.46,1.39.54,2.6,1.3,3.65,2.28,1.05.98,1.87,2.14,2.46,3.46-1.65.89-2.47,1.34-4.11,2.24-.45-1-.98-1.83-1.57-2.5-.59-.67-1.23-1.14-1.91-1.4-.93-.36-1.72-.43-2.38-.22-.66.21-1.13.7-1.41,1.47-.18.51-.17,1.06.03,1.65.2.59.57,1.2,1.1,1.83.97,1.11,1.46,1.66,2.42,2.77,1.25,1.45,2.09,2.91,2.52,4.37.43,1.46.41,2.83-.05,4.11-.74,2.04-1.99,3.33-3.76,3.89-1.77.56-3.93.34-6.5-.65Z"/>
    <path class="cls-5" d="M154.14,130.51c-1.36-.57-2.24-1.49-2.64-2.77-.4-1.27-.29-2.79.36-4.54,1.49-4.06,2.25-6.09,3.8-10.15,1.51.62,2.26.93,3.76,1.57-1.42,3.65-2.12,5.48-3.5,9.15-.33.88-.39,1.63-.2,2.27.2.64.62,1.09,1.28,1.37.86.37,1.63.29,2.34-.23.71-.52,1.38-1.61,2.02-3.27-.5,2.16-.74,3.24-1.23,5.41-.44-.19-.66-.29-1.1-.48-.62.94-1.35,1.55-2.21,1.84-.85.28-1.75.22-2.69-.17ZM159.94,127.63c1.68-4.39,2.53-6.58,4.27-10.95,1.49.65,2.23.97,3.71,1.63-1.63,4.02-2.43,6.03-4,10.05-1.59-.3-2.38-.45-3.98-.73ZM158.49,132.21c.46-1.51.68-2.26,1.15-3.77.41-1.07.61-1.61,1.03-2.68,1.47.64,2.2.96,3.65,1.6-.42,1.08-.63,1.62-1.05,2.7.73.47,1.1.71,1.83,1.19-.49,1.26-.74,1.9-1.23,3.16-2.14-.89-3.21-1.33-5.37-2.2Z"/>
    <path class="cls-5" d="M163.42,142.74c3.55-9.31,5.4-13.95,9.23-23.19,1.45.66,2.17.99,3.6,1.66-.46,1.41-.69,2.12-1.14,3.53-3.28,7.87-4.87,11.82-7.95,19.73-1.5-.7-2.25-1.04-3.75-1.73ZM173.74,139.61c-1.03-.49-1.74-1.14-2.15-1.97-.41-.83-.47-1.82-.19-2.96-.53-.25-.79-.37-1.32-.61,1.23-1.87,1.85-2.8,3.09-4.66-.64,1.56-.88,2.8-.74,3.71s.75,1.62,1.82,2.12c.99.47,1.89.45,2.7-.06.82-.51,1.53-1.49,2.15-2.97.6-1.42.81-2.65.61-3.68-.19-1.03-.78-1.78-1.75-2.24-.97-.46-1.86-.44-2.65.04-.79.49-1.51,1.51-2.15,3.07.49-2.22.74-3.34,1.25-5.56.45.21.67.31,1.11.52.63-1,1.36-1.62,2.18-1.88.82-.25,1.81-.11,2.95.44,1.89.9,3.03,2.33,3.43,4.27.4,1.95.02,4.24-1.12,6.89-1.14,2.67-2.51,4.47-4.12,5.41-1.6.94-3.3.98-5.12.11Z"/>
    <path class="cls-5" d="M188.59,146.59c-2.41-1.25-3.99-2.91-4.73-4.98-.73-2.07-.55-4.42.59-7.04,1.11-2.55,2.56-4.25,4.35-5.07,1.79-.83,3.74-.7,5.84.38,2.05,1.06,3.32,2.53,3.83,4.41.5,1.88.17,4.05-.96,6.51-.32.7-.65,1.35-1,1.95-4.1-2.19-6.17-3.27-10.35-5.38.48-1.11.72-1.66,1.21-2.76,2.8,1.41,4.19,2.13,6.95,3.57.47-1.04.6-1.97.36-2.78-.23-.81-.79-1.44-1.67-1.9-.95-.49-1.86-.5-2.72-.03-.86.47-1.59,1.38-2.19,2.74-.65,1.47-.75,2.78-.31,3.94.43,1.16,1.36,2.1,2.77,2.83.64.33,1.28.62,1.93.87.65.25,1.32.48,2.02.7-.54,1.57-.81,2.35-1.34,3.92-.97-.3-1.83-.61-2.58-.95-.76-.34-1.42-.65-1.99-.95Z"/>
    <path class="cls-5" d="M195.34,149.88c.57-1.25.85-1.88,1.43-3.13,3.58,1.94,5.36,2.93,8.87,4.94-.59,1.24-.89,1.86-1.48,3.1-3.49-2-5.26-2.98-8.82-4.91ZM200.99,139.01c.59-1.25.89-1.87,1.48-3.11,1.97,1.07,2.95,1.61,4.9,2.7-.51,1.29-.76,1.94-1.27,3.23-2.03-1.14-3.06-1.7-5.11-2.82ZM198.02,151.35c2.62-5.7,3.97-8.55,6.71-14.22,1.13.62,1.69.93,2.81,1.56-.6,1.73-.9,2.6-1.49,4.33-1.96,4.04-2.92,6.06-4.82,10.12-1.28-.72-1.92-1.08-3.21-1.79ZM204.12,147.03c.64-2.12.96-3.18,1.6-5.3.44.25.66.37,1.1.62,1.25-2.23,2.92-2.76,4.98-1.59,1.22.7,1.9,1.73,2.04,3.08.15,1.35-.25,2.95-1.17,4.8-1.28-.75-1.92-1.12-3.21-1.86.41-.83.57-1.51.47-2.03-.1-.52-.45-.96-1.06-1.3-.79-.45-1.6-.36-2.41.27-.81.63-1.59,1.74-2.35,3.32Z"/>
    <path class="cls-5" d="M214.24,160.86c-.98-.59-1.83-1.15-2.55-1.68-.72-.53-1.34-1.03-1.85-1.51.87-1.36,1.3-2.04,2.18-3.39.96.76,1.77,1.39,2.43,1.89.66.5,1.19.87,1.59,1.11,1.1.67,1.94,1.08,2.52,1.21s.97.01,1.16-.37c.11-.22.14-.43.09-.64-.05-.2-.19-.44-.41-.69-1.39-1.59-2.09-2.38-3.51-3.96-.72-.81-1.16-1.64-1.3-2.5s.03-1.78.54-2.77c.81-1.59,2.01-2.41,3.61-2.47,1.6-.05,3.62.66,6.04,2.15.56.35,1.13.73,1.71,1.15.58.42,1.18.89,1.8,1.4-.89,1.29-1.33,1.94-2.21,3.23-.7-.54-1.32-.99-1.86-1.37-.54-.37-1-.68-1.39-.92-1.29-.79-2.27-1.28-2.93-1.47-.66-.19-1.09-.1-1.28.27-.12.23-.15.45-.1.64s.19.41.4.65c1.23,1.34,1.84,2.02,3.05,3.37.94,1.03,1.5,2.04,1.71,3.04.2.99.03,2.01-.52,3.05-.81,1.56-1.95,2.38-3.41,2.47-1.46.09-3.29-.54-5.51-1.89Z"/>
    <path class="cls-5" d="M227.6,155.22c.65-1.21.98-1.81,1.64-3.02,4.28,2.73,6.38,4.12,10.54,6.96-.69,1.19-1.03,1.78-1.71,2.97-4.13-2.82-6.22-4.2-10.47-6.91ZM228.37,160.52c2.26-4.18,3.41-6.26,5.75-10.41,1.16.75,1.74,1.13,2.89,1.9-2.36,4.14-3.52,6.21-5.81,10.37-1.13-.75-1.7-1.12-2.83-1.86ZM230.22,170.57c-1.87-1.26-2.99-2.6-3.36-4.04-.37-1.44-.04-3.14,1.02-5.1.36-.67.54-1,.9-1.67,1.14.74,1.71,1.11,2.84,1.86-.3.54-.45.81-.74,1.35-.53.97-.7,1.83-.51,2.55.19.73.78,1.42,1.76,2.08.32.21.67.42,1.05.62.38.2.82.42,1.32.66-.58,1.28-.87,1.92-1.44,3.21-.5-.21-.98-.43-1.43-.67-.45-.24-.92-.52-1.4-.85Z"/>
    <path class="cls-5" d="M238.88,176.6c-1.12-.8-1.82-1.74-2.08-2.85-.26-1.1-.05-2.26.64-3.48.8-1.42,1.84-2.22,3.11-2.39,1.27-.17,2.68.29,4.21,1.38.59.42,1.07.82,1.46,1.2.38.38.75.8,1.1,1.27-.77.87-1.15,1.3-1.92,2.17-.36-.43-.7-.77-1.03-1.04-.33-.27-.68-.53-1.06-.8-1.41-1.01-2.39-1.03-2.94-.08-.25.43-.31.85-.18,1.25.13.41.43.78.92,1.13.59.42,1.15.64,1.7.66.54.02,1.03-.1,1.46-.36.43-.26.77-.6,1.03-1.03.18-.31.28-.47.46-.78-.61,1.4-.91,2.09-1.52,3.49-.34-.25-.51-.37-.85-.61.23-.05.34-.08.57-.13-.45.71-.94,1.22-1.48,1.52s-1.11.4-1.72.31c-.61-.09-1.23-.37-1.88-.83ZM242.51,179.04c.77-1.56,1.16-2.33,1.94-3.89.37-.67.55-1,.92-1.66.58-.98.87-1.47,1.45-2.45.4-.67.45-1.33.15-2-.3-.66-.93-1.36-1.88-2.08-1.08-.82-1.63-1.22-2.72-2.03.76-1.11,1.15-1.67,1.92-2.78.95.68,1.42,1.02,2.36,1.71,1.95,1.43,3.13,2.92,3.55,4.47.42,1.54.12,3.14-.87,4.79-1.11,1.84-1.66,2.77-2.76,4.62.52.53.78.8,1.29,1.33-.62,1.04-.93,1.56-1.54,2.59-1.51-1.06-2.27-1.58-3.8-2.62Z"/>
    <path class="cls-5" d="M247.92,182.34c.6-1,.89-1.5,1.49-2.5,2.66,1.99,3.97,2.99,6.57,5.03-.62.99-.92,1.48-1.54,2.47-2.58-2.02-3.89-3.02-6.53-5ZM253.67,173.71c.61-.99.92-1.49,1.54-2.48,1.46,1.09,2.19,1.65,3.64,2.75-.55,1.04-.83,1.56-1.38,2.6-1.51-1.16-2.27-1.73-3.79-2.88ZM249.91,183.84c2.74-4.56,4.14-6.83,6.98-11.35.84.63,1.25.95,2.09,1.59-.68,1.4-1.01,2.1-1.69,3.51-2.03,3.22-3.03,4.83-5,8.07-.95-.73-1.42-1.09-2.38-1.82ZM255.29,180.78c.75-1.73,1.12-2.59,1.88-4.32.33.25.49.38.82.63,1.26-1.76,2.66-2.05,4.18-.86.9.71,1.33,1.64,1.3,2.8-.03,1.16-.53,2.47-1.48,3.94-.94-.76-1.42-1.13-2.37-1.88.42-.66.63-1.22.61-1.67-.02-.45-.25-.85-.7-1.2-.59-.46-1.25-.46-1.97,0-.72.46-1.47,1.31-2.26,2.57Z"/>
  </g>
  <path class="cls-4" d="M95.32,170.16l-19.97-36.95c-2.01-2.01-5.11-2.45-7.61-1.08l-38.01,23.75c-5.3,2.91-11.3-2.46-9.01-8.05l18.78-44.86c.98-2.39.43-5.14-1.4-6.97l-26.39-30.35c-4.44-4.44-.52-11.95,5.66-10.84l34.27,5.24c2.97.53,5.91-1.08,7.06-3.87l15.54-37.86c2.38-5.81,10.83-5.08,12.18,1.05l9.87,44.7c.56,2.52,2.58,4.47,5.12,4.92l43.47,7.81c5.95,1.07,7.24,9.02,1.95,11.92l-36.01,19.75c-2.5,1.37-3.79,4.22-3.17,7l-1.57,48.76c1.38,6.25-6.25,10.44-10.78,5.91Z"/>
</svg>