<?xml version="1.0" encoding="UTF-8"?>
<svg id="Layer_1" data-name="Layer 1" xmlns="http://www.w3.org/2000/svg" viewBox="0 0 216 216">
  <defs>
    <style>
      .cls-1 {
        fill: #956255;
      }

      .cls-2 {
        fill: #fff;
      }

      .cls-3 {
        fill: #70bf44;
      }

      .cls-4 {
        fill: #d076b0;
      }

      .cls-5 {
        fill: #efe740;
      }

      .cls-6 {
        fill: #575ba8;
      }
    </style>
  </defs>
  <path class="cls-2" d="M59.78,216c-4.88,0-9.6-2.36-12.63-6.31-3.03-3.96-4.09-9.05-2.9-13.97l14.11-58.48-50-31.8c-5.89-3.75-8.74-10.9-7.08-17.79,1.66-6.9,7.43-11.87,14.36-12.39l58.72-4.34,14.11-58.49c1.76-7.32,8.15-12.43,15.52-12.43,6.52,0,12.32,4,14.78,10.18l22.18,55.8,58.72-4.34c.4-.03.79-.04,1.18-.04,6.77,0,12.64,4.22,14.97,10.74,2.33,6.52.48,13.62-4.71,18.1l-45.01,38.83,22.18,55.8c2.01,5.05,1.44,10.75-1.52,15.25-2.99,4.55-7.95,7.26-13.28,7.26-2.96,0-5.88-.86-8.43-2.48l-50-31.81-45.01,38.83c-2.89,2.49-6.54,3.86-10.27,3.86h0Z"/>
  <path class="cls-2" d="M162.42,195.13l-56.08-35.67-50.48,43.55c-1.43,1.23-3.56-.13-3.11-1.98l15.82-65.6L12.49,99.77c-1.58-1.01-.98-3.5.88-3.64l65.86-4.87,15.82-65.6c.45-1.85,2.95-2.04,3.65-.27l24.88,62.59,65.86-4.87c1.86-.14,2.81,2.24,1.38,3.47l-50.48,43.55,24.88,62.59c.7,1.77-1.22,3.42-2.8,2.42Z"/>
  <path class="cls-5" d="M176.02,197.2l-62.06-39.47-55.87,48.2c-1.43,1.23-3.56-.13-3.11-1.98l17.51-72.59L10.44,91.88c-1.58-1.01-.98-3.5.88-3.64l72.88-5.39L101.71,10.26c.45-1.85,2.95-2.04,3.65-.27l27.53,69.26,72.88-5.39c1.86-.14,2.81,2.24,1.38,3.47l-55.87,48.2,27.53,69.26c.7,1.77-1.22,3.42-2.8,2.42Z"/>
  <g>
    <path class="cls-3" d="M32.46,109.38c-1.44-.31-2.81-.73-4.11-1.27-1.3-.54-2.44-1.15-3.42-1.82l1.65-4.78c1.19.84,2.4,1.55,3.63,2.13s2.38.99,3.48,1.22c1.27.27,2.29.25,3.06-.07s1.24-.91,1.42-1.77c.23-1.13-.28-2.18-1.53-3.14l-3.26-2.58c-1.61-1.28-2.77-2.69-3.48-4.23-.71-1.53-.91-3.1-.58-4.71.46-2.26,1.55-3.85,3.26-4.78,1.71-.93,3.9-1.1,6.58-.53,1.55.33,2.97.93,4.25,1.78s2.35,1.93,3.22,3.22l-4.02,3.11c-.66-.98-1.35-1.77-2.1-2.38-.74-.61-1.5-1-2.27-1.16-1.04-.22-1.9-.17-2.58.16-.67.33-1.1.93-1.28,1.79-.12.57-.02,1.16.28,1.75s.8,1.18,1.47,1.76l3.05,2.54c1.59,1.33,2.73,2.73,3.44,4.2s.92,2.93.62,4.37c-.47,2.3-1.64,3.89-3.51,4.79-1.87.9-4.29,1.03-7.27.39Z"/>
    <path class="cls-4" d="M46.72,116.19c-1.12-.24-1.92-.81-2.38-1.7-.46-.89-.55-2.03-.27-3.41l1.64-8,3.03.65-1.48,7.24c-.14.69-.1,1.26.14,1.71s.62.72,1.16.84c.71.15,1.3-.01,1.78-.5s.85-1.38,1.12-2.7l-.22,4.16-.92-.2c-.35.78-.85,1.34-1.47,1.67s-1.33.41-2.11.24ZM50.85,113.25l1.78-8.69,3.03.65-1.64,8-3.17.04ZM50.32,116.84l.39-2.95.43-2.13,3.03.65-.44,2.15,1.58.6-.51,2.52-4.48-.84Z"/>
    <path class="cls-6" d="M58.12,116.99l3.55-17.38,2.8.6-.3,2.61-3.03,14.82-3.03-.65ZM65.34,113.28c-.83-.18-1.45-.52-1.86-1.03s-.6-1.18-.56-2.02l-1.05-.22,1.59-3.68c-.24,1.17-.24,2.06,0,2.67s.78,1,1.64,1.19c.79.17,1.44.01,1.97-.46s.9-1.27,1.12-2.38.18-1.95-.11-2.63c-.3-.68-.83-1.1-1.6-1.27s-1.4-.02-1.9.44c-.5.46-.87,1.27-1.11,2.45l.1-4.02.87.19c.31-.79.74-1.33,1.28-1.63s1.27-.35,2.17-.16c1.48.32,2.52,1.11,3.11,2.38s.68,2.91.27,4.92-1.14,3.48-2.17,4.39c-1.04.91-2.29,1.2-3.76.89Z"/>
    <path class="cls-1" d="M76.96,122.17c-2.05-.44-3.52-1.32-4.42-2.65-.9-1.33-1.13-3.01-.72-5.04s1.19-3.42,2.37-4.31c1.17-.89,2.63-1.16,4.35-.79,1.69.36,2.89,1.15,3.61,2.36.72,1.21.88,2.79.48,4.72-.11.55-.24,1.07-.39,1.55l-8.69-1.86.44-2.15,5.79,1.24c.17-.82.09-1.48-.23-2.01s-.84-.86-1.57-1.02c-.79-.17-1.46-.01-2.01.47s-.94,1.25-1.15,2.31c-.23,1.14-.09,2.08.43,2.81s1.38,1.23,2.57,1.48c.54.11,1.07.2,1.6.25s1.08.09,1.65.11l-.31,2.99c-.79-.03-1.5-.09-2.13-.18s-1.19-.2-1.68-.3Z"/>
    <path class="cls-3" d="M84.88,116.78l.54-2.65,8.29,1.77-.54,2.65-8.29-1.77ZM87.26,107.41l.54-2.65,4.47.96-.32,2.7-4.69-1ZM87.39,117.31l2.48-12.12,2.57.55-.26,3.57-1.77,8.64-3.02-.65ZM91.47,112.75l.16-4.32,1.02.22c.52-1.95,1.73-2.72,3.63-2.31,1.12.24,1.9.85,2.33,1.82s.48,2.26.15,3.85l-3.02-.65c.15-.72.12-1.26-.07-1.63s-.57-.61-1.14-.73c-.74-.16-1.36.09-1.88.74s-.91,1.65-1.19,3Z"/>
    <path class="cls-4" d="M100.76,128.35c-.9-.19-1.69-.39-2.38-.6s-1.28-.42-1.79-.65l.96-2.88c.91.32,1.68.58,2.31.78.63.2,1.12.34,1.49.41,1.01.22,1.76.3,2.24.26s.76-.22.82-.53c.04-.18.01-.34-.08-.47s-.25-.26-.48-.39l-3.62-1.97c-.74-.41-1.26-.89-1.56-1.46s-.37-1.26-.2-2.08c.27-1.3,1-2.16,2.2-2.57,1.2-.41,2.9-.38,5.08.09.51.11,1.03.24,1.57.4s1.11.34,1.7.54l-.91,2.8c-.67-.21-1.25-.37-1.75-.51s-.93-.23-1.28-.31c-1.17-.25-2.03-.37-2.58-.34s-.86.18-.92.49c-.04.19-.01.35.07.47s.24.25.46.37l3.13,1.65c.96.5,1.64,1.07,2.03,1.72s.5,1.4.33,2.26c-.26,1.29-.96,2.14-2.09,2.55-1.13.42-2.71.4-4.76-.03Z"/>
    <path class="cls-6" d="M111.35,112.98l.58-2.85,11.11,2.38-.58,2.85-11.11-2.38ZM113.5,116.95l2.02-9.87,3.02.65-2.02,9.87-3.02-.65ZM118.04,124.33c-2.04-.44-3.43-1.17-4.17-2.2s-.92-2.47-.54-4.32l.32-1.58,3.02.65-.26,1.28c-.19.92-.09,1.64.29,2.16s1.1.89,2.17,1.12c.34.07.71.13,1.11.17s.86.08,1.37.12l-.32,2.95c-.51-.01-1-.05-1.48-.1-.47-.05-.98-.14-1.51-.25Z"/>
    <path class="cls-1" d="M124.76,133.02c-1.26-.27-2.17-.8-2.74-1.58s-.74-1.76-.5-2.92c.28-1.36.95-2.3,2.01-2.83,1.06-.53,2.44-.61,4.12-.25.65.14,1.2.29,1.66.46s.92.38,1.37.63l-.98,2.31c-.45-.22-.87-.37-1.24-.48-.38-.1-.77-.2-1.19-.28-1.56-.33-2.44-.04-2.63.87-.08.41,0,.76.23,1.03s.63.47,1.17.59c.66.14,1.23.13,1.72-.03s.89-.41,1.19-.75.49-.72.58-1.13l.15-.75-.21,3.2-.95-.2.47-.28c-.17.7-.44,1.25-.83,1.65-.39.41-.87.67-1.44.79s-1.22.1-1.95-.05ZM128.79,133.76l.48-3.64.28-1.59.48-2.37c.13-.65-.04-1.18-.52-1.6-.48-.42-1.25-.75-2.31-1.01l-3.01-.73.8-2.76,2.57.59c2.14.49,3.64,1.26,4.52,2.32.87,1.06,1.14,2.39.82,3.99l-.92,4.48,1.59.6-.51,2.52-4.27-.79Z"/>
    <path class="cls-3" d="M136.41,127.84l.54-2.65,8.29,1.77-.54,2.65-8.29-1.77ZM138.79,118.47l.54-2.65,4.47.96-.32,2.7-4.69-1ZM138.91,128.38l2.48-12.12,2.57.55-.26,3.57-1.77,8.64-3.02-.65ZM142.99,123.81l.16-4.32,1.02.22c.52-1.95,1.73-2.72,3.63-2.31,1.12.24,1.9.85,2.33,1.82s.48,2.26.15,3.85l-3.02-.65c.15-.72.12-1.26-.07-1.63s-.57-.61-1.14-.73c-.74-.16-1.36.09-1.88.74s-.91,1.65-1.19,3Z"/>
    <path class="cls-4" d="M151.11,141.69c-1.52-.51-2.63-1.49-3.33-2.93s-.82-2.93-.33-4.46c.5-1.55,1.45-2.69,2.85-3.42,1.4-.73,2.86-.84,4.38-.33,1.52.51,2.63,1.48,3.34,2.92.71,1.44.82,2.93.32,4.48s-1.44,2.66-2.85,3.4c-1.41.74-2.87.85-4.38.34ZM153.14,122.84l7.58-27.08,9.21,3.09-9.68,26.38-7.12-2.39Z"/>
  </g>
</svg>