<?xml version="1.0" encoding="UTF-8"?>
<svg id="Layer_1" data-name="Layer 1" xmlns="http://www.w3.org/2000/svg" viewBox="0 0 216 216">
  <defs>
    <style>
      .cls-1 {
        fill: #eee641;
      }

      .cls-2 {
        fill: #fff;
      }

      .cls-3 {
        fill: #cc79a8;
      }

      .cls-4 {
        fill: #050606;
      }
    </style>
  </defs>
  <path class="cls-2" d="M83.66,216c-22.14,0-37.44-2.65-46.76-8.09C7.67,190.84-1.44,107.29.18,66.35,1.36,36.5,7.45,19.45,18.82,14.24,40.05,4.5,138.61.05,172.49,0c17.75,0,31.97,15.87,32.42,36.13,1.25,56.87,7.13,99.72,10.52,120.2,3.01,18.13-6.21,36.22-21.45,42.06-26.15,10.04-73.58,17.61-110.32,17.61Z"/>
  <path class="cls-1" d="M42.14,196.14C12.21,178.67,1.01,36.64,23.1,26.5c22.09-10.14,162.1-15.88,170.04-12.15,0,96.47,13.8,159.86,13.8,159.86-3.61,19.05-134.89,39.4-164.81,21.92Z"/>
  <path class="cls-3" d="M194.77,122.5c4.73,2.78,4.02,10.82-1.05,12.66l-14.44,5.26-.26.16-.03-.34-4.31-16.65c-1.51-5.84,3.9-11.03,8.56-8.1.12.08.25.16.37.25,2.32,1.62,3.44,4.03,3.94,6.38,1.98-.85,4.34-1.14,6.82.16.13.07.26.14.39.22Z"/>
  <path class="cls-3" d="M196.71,152.35c3.33,1.96,2.83,7.61-.74,8.91l-10.16,3.7-.18.12-.02-.24-3.03-11.71c-1.06-4.11,2.74-7.76,6.02-5.7.09.05.17.11.26.17,1.64,1.14,2.42,2.84,2.77,4.49,1.39-.59,3.06-.8,4.8.11.09.05.18.1.27.15Z"/>
  <path class="cls-3" d="M177.53,144.88c3.33,1.96,2.83,7.61-.74,8.91l-10.16,3.7-.18.12-.02-.24-3.03-11.71c-1.06-4.11,2.74-7.76,6.02-5.7.09.05.17.11.26.17,1.64,1.14,2.42,2.84,2.77,4.49,1.39-.59,3.06-.8,4.8.11.09.05.18.1.27.15Z"/>
  <g>
    <g>
      <path class="cls-4" d="M19.1,67.15l1-7.45-.53.06c-1.07.11-2.09-.52-2.2-1.95-.16-2.02,1.27-3.99,3.04-4.18l6.46-.68c1.07-.11,2.07.49,2.18,1.95.16,2.04-1.25,3.99-3.02,4.18l-.64.07-1,7.45c-.22,1.61-1.18,3.37-3.13,3.57s-2.39-1.41-2.16-3.02Z"/>
      <path class="cls-4" d="M28.41,66.6l1.55-11.46c.27-2.02,1.83-2.99,2.85-3.09,1.21-.13,2.36.61,2.07,2.6l-.08.55c-.05.36-.52,2.83-1.12,5.11l.39-.04c.92-4.05,2.6-4.94,3.9-5.07,2.21-.23,3.3,1.93,2.44,5.15l-.44,1.68c-.16.59-.32,1.12.17,1.07s.92.35.99,1.29c.15,1.83-1.06,3.78-3.3,4.02-2.75.29-3.41-2.01-2.92-4.53l.25-1.3c.2-1.09.21-1.8-.28-1.75-.64.07-.93.83-1.08,1.96l-.49,3.51c-.24,1.68-1,2.71-2.66,2.88-1.23.13-2.48-.57-2.21-2.59Z"/>
      <path class="cls-4" d="M46.02,54.62c1.21-.13,2.34.61,2.07,2.6l-1.04,7.64c-.24,1.68-1,2.71-2.66,2.88-1.23.13-2.48-.57-2.21-2.59l.63-4.8c-.75-.28-1.05-.96-1.11-1.68-.16-1.95,1.23-3.73,3.06-3.92l1.27-.13ZM48.91,51.02c.13,1.69-1.04,2.98-2.95,3.17-1.62.17-2.25-.45-2.32-1.37-.14-1.74,1.01-2.95,2.93-3.15,1.64-.17,2.27.43,2.34,1.34Z"/>
      <path class="cls-4" d="M48.22,64.1c-.1-1.32.63-2.46,1.76-2.58.35-.04.73.07,1.13.38.79.6,1.46.7,2.16.63.78-.08,1.3-.35,1.27-.65-.03-.35-.83-.34-1.6-.31-1.81.07-3.59-.48-3.78-2.8-.23-2.84,2.06-4.95,5.45-5.31,2.58-.27,4.62.35,4.78,2.39.11,1.36-.89,2.56-1.96,2.67-.39.04-.79-.06-1.19-.37-.31-.25-.81-.53-1.5-.46-.74.08-1.06.42-1.04.68.04.54,1.41.3,2.01.26,1.89-.13,3.29.53,3.45,2.55.24,3.03-2.35,5.27-5.94,5.64-2.75.29-4.82-.51-4.99-2.72Z"/>
    </g>
    <g>
      <path class="cls-4" d="M64.34,62.41l1.41-10.55c.2-1.58,1.2-3.39,3.06-3.59s2.46,1.26,2.23,3.04l-1.41,10.55c-.22,1.61-1.18,3.37-3.13,3.57s-2.39-1.41-2.16-3.02Z"/>
      <path class="cls-4" d="M70.96,61.72c-.1-1.32.63-2.46,1.76-2.58.35-.04.73.07,1.13.38.79.6,1.46.7,2.16.63.78-.08,1.3-.35,1.27-.65-.03-.35-.83-.34-1.6-.31-1.81.07-3.59-.48-3.78-2.8-.23-2.84,2.06-4.95,5.45-5.31,2.58-.27,4.62.35,4.78,2.39.11,1.36-.89,2.56-1.96,2.67-.39.04-.79-.06-1.19-.37-.31-.25-.81-.53-1.5-.46-.74.08-1.06.42-1.04.68.04.54,1.41.3,2.01.26,1.89-.13,3.29.53,3.45,2.55.24,3.03-2.35,5.27-5.94,5.64-2.75.29-4.82-.51-4.99-2.72Z"/>
    </g>
    <g>
      <path class="cls-4" d="M90.33,59.69l.33-2.55-2.47-6.59c-.16-.41-.25-.8-.28-1.18-.15-1.9,1.19-3.25,2.56-3.39,1.05-.11,2.08.47,2.56,1.98l1.01,3.28h.04s2.38-4.42,2.38-4.42c.58-1.06,1.22-1.55,2.12-1.64,1.29-.14,2.24.88,2.35,2.22.06.7-.11,1.53-.6,2.29l-4.37,6.9-.33,2.55c-.2,1.61-1.2,3.37-3.15,3.57s-2.35-1.41-2.14-3.02Z"/>
      <path class="cls-4" d="M99.27,57.42c-.38-4.77,2.56-8.91,6.61-9.34,2.97-.31,4.59,1.32,4.81,4.04.38,4.74-2.57,8.94-6.61,9.36-2.97.31-4.59-1.34-4.81-4.07ZM106.18,54.14c-.04-.52-.33-.79-1.01-.72-.92.1-1.48.87-1.39,1.97.04.54.35.82,1.01.75.92-.1,1.48-.89,1.39-1.99Z"/>
      <path class="cls-4" d="M111.98,55.26l.44-1.68c.16-.59.32-1.12-.17-1.07s-.92-.35-.99-1.29c-.15-1.83,1.06-3.78,3.3-4.02,2.75-.29,3.41,2.01,2.92,4.53l-.25,1.3c-.2,1.09-.21,1.8.28,1.75.64-.07.93-.83,1.08-1.96l.48-3.51c.24-1.68,1-2.71,2.66-2.88,1.23-.13,2.48.57,2.21,2.59l-.66,4.92.06,2.01c.06,1.98-.56,3.54-2.53,3.75-1.66.17-2.46-.83-2.33-2.76l.12-1.62-.27.03c-.86,4.23-2.64,4.94-3.75,5.06-2.4.25-3.48-1.91-2.62-5.13Z"/>
      <path class="cls-4" d="M124.58,56.36l.63-4.76-.06-2.01c-.05-1.98.5-3.53,2.45-3.74,1.78-.19,2.47.67,2.39,2.52l-.09,2c.45-.57.78-1.91,1.01-2.69.63-2.17,1.82-2.54,2.6-2.33,1.48.37,1.65,2.24,1.03,4.34-.5,1.71-2.33,3.7-4.57,2.8l-.5,3.79c-.25,1.8-.99,2.64-2.59,2.81s-2.56-.8-2.31-2.74Z"/>
    </g>
    <g>
      <path class="cls-4" d="M139.07,54.61l1.41-10.55c.2-1.58.79-3.35,2.9-3.57,1.48-.15,2.07.78,2.6,1.79l2.19,4.11.43-3.22c.25-1.83,1.12-3.36,2.92-3.55s2.43,1.4,2.2,3.01l-1.43,10.55c-.29,2.07-1.32,3.41-2.9,3.57-1.21.13-1.81-.66-2.2-1.43l-2.51-4.83-.48,3.58c-.22,1.61-1.1,3.36-3.04,3.56s-2.3-1.42-2.08-3.03Z"/>
      <path class="cls-4" d="M153.83,51.71c-.38-4.77,2.56-8.91,6.61-9.34,2.97-.31,4.59,1.32,4.81,4.04.38,4.74-2.57,8.94-6.61,9.36-2.97.31-4.59-1.34-4.81-4.07ZM160.74,48.43c-.04-.52-.33-.79-1.01-.72-.92.1-1.48.87-1.39,1.97.04.54.35.82,1.01.75.92-.1,1.48-.89,1.39-1.99Z"/>
      <path class="cls-4" d="M167.06,49.78l.39-2.86-.35.04c-.94.1-1.39-.61-1.46-1.5-.14-1.71.98-3.47,2.23-3.45h.39s.14-.86.14-.86c.29-1.78,1.46-2.71,2.87-2.86,1.68-.18,2.24.83,1.97,2.35l-.17.97,1.07-.33c1.04-.23,1.52.46,1.6,1.37.14,1.76-1.08,3.59-2.34,3.61h-.97s-.24,1.9-.24,1.9c-.1.79.17,1.07.46,1.04.39-.04.62-.23.88-.4.2-.14.39-.25.66-.28.37-.04.94.19,1.05,1.48.21,2.63-2.06,4.24-4.6,4.51s-3.99-1.57-3.56-4.72Z"/>
      <path class="cls-4" d="M175.86,48.39c-.3-3.78,1.82-7.82,6.1-8.27,3.26-.34,4.98,1.23,5.14,3.23s-1.29,3.81-3.65,4.05c-.88.09-2.15.04-3.05-.37-.05.17-.05.38-.04.53.07.82.81,1.31,1.69,1.22s1.25-.41,1.6-.71c.33-.27.66-.57,1.23-.63.98-.1,1.56.64,1.65,1.72.16,1.97-2.07,3.91-4.96,4.21-3.59.38-5.45-1.68-5.71-4.99ZM182.76,45.03c-.03-.35-.38-.62-.85-.57-.74.08-1.14.78-1.28,1.27,1.53.31,2.18-.18,2.14-.7Z"/>
    </g>
    <g>
      <path class="cls-4" d="M26.42,118.73l1.55-12.35-.88.1c-1.76.2-3.46-.82-3.67-3.19-.29-3.34,2.05-6.64,4.97-6.98l10.69-1.24c1.76-.2,3.43.78,3.64,3.19.3,3.38-2.02,6.63-4.94,6.97l-1.05.12-1.55,12.35c-.35,2.67-1.91,5.6-5.13,5.97s-3.97-2.29-3.62-4.96Z"/>
      <path class="cls-4" d="M41.82,117.65l2.4-19.01c.42-3.35,2.99-4.98,4.68-5.17,2-.23,3.92.96,3.46,4.27l-.12.92c-.08.6-.82,4.69-1.79,8.49l.64-.07c1.46-6.73,4.24-8.23,6.38-8.47,3.66-.42,5.49,3.13,4.11,8.48l-.71,2.79c-.26.97-.52,1.87.29,1.77s1.52.57,1.66,2.12c.27,3.03-1.71,6.28-5.41,6.71-4.55.53-5.67-3.27-4.91-7.44l.39-2.17c.32-1.8.32-2.98-.49-2.89-1.05.12-1.52,1.39-1.77,3.27l-.76,5.82c-.37,2.79-1.62,4.51-4.37,4.82-2.04.24-4.12-.9-3.7-4.24Z"/>
      <path class="cls-4" d="M63.96,112.93c-.71-8.08,3.16-15.44,7.68-15.97,2.68-.31,4.85,1.32,4.55,6.89l.48-.05.37-3.15c.5-4.06,2.81-4.64,4.51-4.84,1.87-.22,4.16.89,3.24,5.28l-.84,4.06-.39,2.91.14,3.91c.14,3.52-1.47,5.51-4.08,5.81-1.87.22-4.22-.42-3.96-4.49l.17-2.69-.34.04c-.67,5.57-3.26,8.15-6.14,8.48s-4.99-1.82-5.38-6.21ZM75.66,106.87c-.08-.86-.66-1.26-1.61-1.15-1.25.15-2.04,1.3-1.92,2.73.08.93.75,1.17,1.47,1.09,1.32-.15,2.18-1.31,2.06-2.67Z"/>
      <path class="cls-4" d="M88.48,108.45l.61-4.74-.58.07c-1.56.18-2.31-.99-2.44-2.47-.25-2.84,1.58-5.76,3.64-5.76h.65s.22-1.44.22-1.44c.46-2.96,2.38-4.52,4.72-4.79,2.78-.32,3.72,1.34,3.29,3.86l-.27,1.6,1.77-.56c1.71-.39,2.53.73,2.67,2.24.26,2.91-1.74,5.97-3.82,6.02l-1.61.03-.37,3.15c-.16,1.31.29,1.77.77,1.72.64-.07,1.03-.39,1.45-.68.32-.23.65-.43,1.09-.48.61-.07,1.57.29,1.76,2.43.38,4.35-3.35,7.06-7.56,7.55-4.21.49-6.63-2.53-5.96-7.75Z"/>
    </g>
    <g>
      <path class="cls-4" d="M115.96,108.37l.52-4.22-4.18-10.86c-.27-.68-.43-1.32-.48-1.95-.28-3.15,1.92-5.4,4.2-5.67,1.73-.2,3.46.74,4.26,3.24l1.71,5.42h.07s3.88-7.37,3.88-7.37c.94-1.76,2-2.59,3.49-2.76,2.14-.25,3.72,1.41,3.92,3.63.1,1.17-.15,2.53-.97,3.8l-7.14,11.51-.52,4.22c-.31,2.67-1.94,5.6-5.16,5.98-3.09.36-3.9-2.3-3.59-4.96Z"/>
      <path class="cls-4" d="M130.73,104.46c-.7-7.89,4.11-14.81,10.83-15.58,4.92-.57,7.62,2.1,8.02,6.61.69,7.85-4.14,14.85-10.82,15.62-4.92.57-7.63-2.14-8.02-6.65ZM142.13,98.9c-.08-.86-.56-1.31-1.68-1.18-1.53.18-2.44,1.46-2.28,3.29.08.89.6,1.34,1.68,1.22,1.53-.18,2.44-1.5,2.28-3.33Z"/>
      <path class="cls-4" d="M151.75,100.66l.71-2.79c.26-.97.52-1.87-.29-1.77s-1.52-.57-1.66-2.12c-.27-3.03,1.71-6.28,5.41-6.71,4.55-.53,5.67,3.27,4.91,7.44l-.39,2.17c-.32,1.8-.32,2.98.49,2.89,1.05-.12,1.52-1.39,1.77-3.27l.75-5.82c.37-2.79,1.63-4.51,4.37-4.82,2.04-.24,4.12.9,3.7,4.24l-1.03,8.17.12,3.32c.12,3.28-.89,5.88-4.14,6.25-2.75.32-4.09-1.33-3.9-4.54l.17-2.69-.44.05c-1.37,7.03-4.31,8.23-6.14,8.45-3.97.46-5.79-3.1-4.41-8.44Z"/>
      <path class="cls-4" d="M172.63,102.25l.98-7.89-.12-3.32c-.12-3.28.79-5.86,4.01-6.24,2.95-.34,4.1,1.06,4,4.13l-.12,3.31c.74-.95,1.26-3.17,1.63-4.47,1.02-3.61,2.99-4.23,4.28-3.91,2.45.58,2.76,3.69,1.76,7.18-.81,2.84-3.81,6.17-7.53,4.72l-.78,6.29c-.39,2.99-1.6,4.39-4.25,4.69-2.75.32-4.26-1.27-3.86-4.5Z"/>
    </g>
    <path class="cls-4" d="M42.32,180.31c-4,.48-5.16-2.95-4.72-6.42l2.71-22.09c.4-3.41,2.49-7.33,6.5-7.81s5.31,2.63,4.86,6.45l-2.02,16.45,2.9-.35c2.2-.26,4.36.96,4.63,3.93.39,4.24-2.53,8.36-6.18,8.79l-8.67,1.04Z"/>
    <path class="cls-4" d="M58.52,169.15c-.93-10.24,5.28-19.23,13.99-20.28,6.38-.76,9.9,2.69,10.43,8.54.93,10.18-5.32,19.29-13.99,20.33-6.38.76-9.9-2.74-10.44-8.59ZM73.3,161.88c-.1-1.11-.73-1.7-2.18-1.52-1.98.24-3.16,1.91-2.95,4.28.11,1.16.78,1.74,2.19,1.57,1.98-.24,3.16-1.96,2.94-4.33Z"/>
    <path class="cls-4" d="M85.98,168.16l-1.92-13.33c-.63-4.51,1.32-7.5,4.75-7.91,2.99-.36,4.81,1.51,5.27,5.59l1.25,10.76c2.71-1.96,3.27-5.08,2.83-9.97-.39-4.29.56-7.56,4.43-8.02,3.17-.38,5.32,1.76,5.63,5.65.63,6.96-2.43,15.38-7.2,20.08-2,1.97-4.32,3.32-6.79,3.62-4.93.59-7.65-2.4-8.24-6.46Z"/>
    <path class="cls-4" d="M109.16,160.91c-.74-8.12,3.71-16.86,12.91-17.95,7-.84,10.73,2.49,11.12,6.78s-2.68,8.22-7.74,8.83c-1.89.23-4.61.14-6.56-.69-.1.37-.1.83-.08,1.13.16,1.76,1.77,2.8,3.66,2.57s2.67-.93,3.41-1.58c.7-.59,1.4-1.24,2.63-1.39,2.11-.25,3.37,1.33,3.58,3.65.39,4.24-4.34,8.47-10.55,9.21-7.7.92-11.75-3.44-12.39-10.55ZM123.93,153.48c-.07-.76-.83-1.33-1.84-1.21-1.58.19-2.42,1.72-2.73,2.77,3.3.62,4.67-.46,4.57-1.57Z"/>
    <path class="cls-4" d="M134.27,161.07c-.95-10.49,4.04-20.11,9.9-20.81,3.48-.42,6.3,1.74,5.93,8.98l.62-.07c-.09-5.34.39-9.42.52-10.41l.16-1.19c.58-4.35,3.46-6.48,6.01-6.78,2.24-.27,5.08,1.13,4.55,5.47l-2.28,18.42.2,4.61c.17,4.26-1.13,7.63-5.35,8.13-3.56.43-5.32-1.71-5.07-5.87l.21-3.54-.44.05c-.85,7.24-4.2,10.59-7.94,11.04-3.57.43-6.49-2.33-7-8.03ZM149.43,153.14c-.1-1.11-.86-1.63-2.09-1.48-1.63.19-2.65,1.69-2.48,3.56.11,1.21.98,1.51,1.91,1.4,1.72-.21,2.82-1.71,2.66-3.48Z"/>
  </g>
</svg>