<?xml version="1.0" encoding="UTF-8"?>
<svg id="Layer_1" data-name="Layer 1" xmlns="http://www.w3.org/2000/svg" viewBox="0 0 216 216">
  <defs>
    <style>
      .cls-1 {
        fill: #eee641;
      }

      .cls-2 {
        fill: #fff;
      }

      .cls-3 {
        fill: #050606;
      }
    </style>
  </defs>
  <path class="cls-2" d="M83.66,216c-22.14,0-37.44-2.65-46.76-8.09C7.67,190.84-1.44,107.29.18,66.35,1.36,36.5,7.45,19.45,18.82,14.24,40.05,4.5,138.61.05,172.49,0c17.75,0,31.97,15.87,32.42,36.13,1.25,56.87,7.13,99.72,10.52,120.2,3.01,18.13-6.21,36.22-21.45,42.06-26.15,10.04-73.58,17.61-110.32,17.61Z"/>
  <path class="cls-1" d="M42.14,196.14C12.21,178.67,1.01,36.64,23.1,26.5c22.09-10.14,162.1-15.88,170.04-12.15,0,96.47,13.8,159.86,13.8,159.86-3.61,19.05-134.89,39.4-164.81,21.92Z"/>
  <g>
    <path class="cls-3" d="M19.1,67.15l1-7.45-.53.06c-1.07.11-2.09-.52-2.2-1.95-.16-2.02,1.27-3.99,3.04-4.18l6.46-.68c1.07-.11,2.07.49,2.18,1.95.16,2.04-1.25,3.99-3.02,4.18l-.64.07-1,7.45c-.22,1.61-1.18,3.37-3.13,3.57-1.89.2-2.39-1.41-2.16-3.02Z"/>
    <path class="cls-3" d="M28.41,66.6l1.55-11.46c.27-2.02,1.83-2.99,2.85-3.09,1.21-.13,2.36.61,2.07,2.6l-.08.55c-.05.36-.52,2.83-1.12,5.11l.39-.04c.92-4.05,2.6-4.94,3.9-5.07,2.21-.23,3.3,1.93,2.44,5.15l-.44,1.68c-.16.59-.32,1.12.17,1.07s.92.35.99,1.29c.15,1.83-1.06,3.78-3.3,4.02-2.75.29-3.41-2.01-2.92-4.53l.25-1.3c.2-1.09.21-1.8-.28-1.75-.64.07-.93.83-1.08,1.96l-.49,3.51c-.24,1.68-1,2.71-2.66,2.88-1.23.13-2.48-.57-2.21-2.59Z"/>
    <path class="cls-3" d="M46.02,54.62c1.21-.13,2.34.61,2.07,2.6l-1.04,7.64c-.24,1.68-1,2.71-2.66,2.88-1.23.13-2.48-.57-2.21-2.59l.63-4.8c-.75-.28-1.05-.96-1.11-1.68-.16-1.95,1.23-3.73,3.06-3.92l1.27-.13ZM48.91,51.02c.13,1.69-1.04,2.98-2.95,3.17-1.62.17-2.25-.45-2.32-1.37-.14-1.74,1.01-2.95,2.93-3.15,1.64-.17,2.27.43,2.34,1.34Z"/>
    <path class="cls-3" d="M48.22,64.1c-.1-1.32.63-2.46,1.76-2.58.35-.04.73.07,1.13.38.79.6,1.46.7,2.16.63.78-.08,1.3-.35,1.27-.65-.03-.35-.83-.34-1.6-.31-1.81.07-3.59-.48-3.78-2.8-.23-2.84,2.06-4.95,5.45-5.31,2.58-.27,4.62.35,4.78,2.39.11,1.36-.89,2.56-1.96,2.67-.39.04-.79-.06-1.19-.37-.31-.25-.81-.53-1.5-.46-.74.08-1.06.42-1.04.68.04.54,1.41.3,2.01.26,1.89-.13,3.29.53,3.45,2.55.24,3.03-2.35,5.27-5.94,5.64-2.75.29-4.82-.51-4.99-2.72Z"/>
  </g>
  <g>
    <path class="cls-3" d="M64.34,62.41l1.41-10.55c.2-1.58,1.2-3.39,3.06-3.59,1.82-.19,2.46,1.26,2.23,3.04l-1.41,10.55c-.22,1.61-1.18,3.37-3.13,3.57-1.87.2-2.39-1.41-2.16-3.02Z"/>
    <path class="cls-3" d="M70.96,61.72c-.1-1.32.63-2.46,1.76-2.58.35-.04.73.07,1.13.38.79.6,1.46.7,2.16.63.78-.08,1.3-.35,1.27-.65-.03-.35-.83-.34-1.6-.31-1.81.07-3.59-.48-3.78-2.8-.23-2.84,2.06-4.95,5.45-5.31,2.58-.27,4.62.35,4.78,2.39.11,1.36-.89,2.56-1.96,2.67-.39.04-.79-.06-1.19-.37-.31-.25-.81-.53-1.5-.46-.74.08-1.06.42-1.04.68.04.54,1.41.3,2.01.26,1.89-.13,3.29.53,3.45,2.55.24,3.03-2.35,5.27-5.94,5.64-2.75.29-4.82-.51-4.99-2.72Z"/>
  </g>
  <g>
    <path class="cls-3" d="M90.33,59.69l.33-2.55-2.47-6.59c-.16-.41-.25-.8-.28-1.18-.15-1.9,1.19-3.25,2.56-3.39,1.05-.11,2.08.47,2.56,1.98l1.01,3.28h.04s2.38-4.42,2.38-4.42c.58-1.06,1.22-1.55,2.12-1.64,1.29-.14,2.24.88,2.35,2.22.06.7-.11,1.53-.6,2.29l-4.37,6.9-.33,2.55c-.2,1.61-1.2,3.37-3.15,3.57-1.87.2-2.35-1.41-2.14-3.02Z"/>
    <path class="cls-3" d="M99.27,57.42c-.38-4.77,2.56-8.91,6.61-9.34,2.97-.31,4.59,1.32,4.81,4.04.38,4.74-2.57,8.94-6.61,9.36-2.97.31-4.59-1.34-4.81-4.07ZM106.18,54.14c-.04-.52-.33-.79-1.01-.72-.92.1-1.48.87-1.39,1.97.04.54.35.82,1.01.75.92-.1,1.48-.89,1.39-1.99Z"/>
    <path class="cls-3" d="M111.98,55.26l.44-1.68c.16-.59.32-1.12-.17-1.07s-.92-.35-.99-1.29c-.15-1.83,1.06-3.78,3.3-4.02,2.75-.29,3.41,2.01,2.92,4.53l-.25,1.3c-.2,1.09-.21,1.8.28,1.75.64-.07.93-.83,1.08-1.96l.48-3.51c.24-1.68,1-2.71,2.66-2.88,1.23-.13,2.48.57,2.21,2.59l-.66,4.92.06,2.01c.06,1.98-.56,3.54-2.53,3.75-1.66.17-2.46-.83-2.33-2.76l.12-1.62-.27.03c-.86,4.23-2.64,4.94-3.75,5.06-2.4.25-3.48-1.91-2.62-5.13Z"/>
    <path class="cls-3" d="M124.58,56.36l.63-4.76-.06-2.01c-.05-1.98.5-3.53,2.45-3.74,1.78-.19,2.47.67,2.39,2.52l-.09,2c.45-.57.78-1.91,1.01-2.69.63-2.17,1.82-2.54,2.6-2.33,1.48.37,1.65,2.24,1.03,4.34-.5,1.71-2.33,3.7-4.57,2.8l-.5,3.79c-.25,1.8-.99,2.64-2.59,2.81-1.66.17-2.56-.8-2.31-2.74Z"/>
  </g>
  <g>
    <path class="cls-3" d="M139.07,54.61l1.41-10.55c.2-1.58.79-3.35,2.9-3.57,1.48-.15,2.07.78,2.6,1.79l2.19,4.11.43-3.22c.25-1.83,1.12-3.36,2.92-3.55s2.43,1.4,2.2,3.01l-1.43,10.55c-.29,2.07-1.32,3.41-2.9,3.57-1.21.13-1.81-.66-2.2-1.43l-2.51-4.83-.48,3.58c-.22,1.61-1.1,3.36-3.04,3.56s-2.3-1.42-2.08-3.03Z"/>
    <path class="cls-3" d="M153.83,51.71c-.38-4.77,2.56-8.91,6.61-9.34,2.97-.31,4.59,1.32,4.81,4.04.38,4.74-2.57,8.94-6.61,9.36-2.97.31-4.59-1.34-4.81-4.07ZM160.74,48.43c-.04-.52-.33-.79-1.01-.72-.92.1-1.48.87-1.39,1.97.04.54.35.82,1.01.75.92-.1,1.48-.89,1.39-1.99Z"/>
    <path class="cls-3" d="M167.06,49.78l.39-2.86-.35.04c-.94.1-1.39-.61-1.46-1.5-.14-1.71.98-3.47,2.23-3.45h.39s.14-.86.14-.86c.29-1.78,1.46-2.71,2.87-2.86,1.68-.18,2.24.83,1.97,2.35l-.17.97,1.07-.33c1.04-.23,1.52.46,1.6,1.37.14,1.76-1.08,3.59-2.34,3.61h-.97s-.24,1.9-.24,1.9c-.1.79.17,1.07.46,1.04.39-.04.62-.23.88-.4.2-.14.39-.25.66-.28.37-.04.94.19,1.05,1.48.21,2.63-2.06,4.24-4.6,4.51s-3.99-1.57-3.56-4.72Z"/>
    <path class="cls-3" d="M175.86,48.39c-.3-3.78,1.82-7.82,6.1-8.27,3.26-.34,4.98,1.23,5.14,3.23s-1.29,3.81-3.65,4.05c-.88.09-2.15.04-3.05-.37-.05.17-.05.38-.04.53.07.82.81,1.31,1.69,1.22s1.25-.41,1.6-.71c.33-.27.66-.57,1.23-.63.98-.1,1.56.64,1.65,1.72.16,1.97-2.07,3.91-4.96,4.21-3.59.38-5.45-1.68-5.71-4.99ZM182.76,45.03c-.03-.35-.38-.62-.85-.57-.74.08-1.14.78-1.28,1.27,1.53.31,2.18-.18,2.14-.7Z"/>
  </g>
  <g>
    <path class="cls-3" d="M24.21,99.9l1.27-10.15-.72.08c-1.45.17-2.85-.67-3.02-2.62-.24-2.75,1.69-5.45,4.09-5.73l8.78-1.02c1.45-.17,2.82.64,2.99,2.62.24,2.78-1.66,5.45-4.06,5.73l-.86.1-1.27,10.15c-.29,2.19-1.57,4.6-4.21,4.91-2.56.3-3.26-1.88-2.98-4.08Z"/>
    <path class="cls-3" d="M36.86,99.02l1.98-15.62c.35-2.75,2.46-4.09,3.85-4.25,1.65-.19,3.22.79,2.84,3.51l-.1.75c-.07.49-.67,3.85-1.47,6.98l.53-.06c1.2-5.53,3.49-6.76,5.24-6.96,3.01-.35,4.51,2.58,3.37,6.97l-.59,2.29c-.21.8-.43,1.53.24,1.46s1.25.47,1.36,1.75c.22,2.49-1.4,5.16-4.44,5.52-3.74.43-4.66-2.69-4.03-6.12l.32-1.78c.26-1.48.26-2.45-.41-2.37-.86.1-1.25,1.15-1.45,2.68l-.62,4.78c-.3,2.29-1.34,3.7-3.59,3.96-1.67.19-3.39-.74-3.04-3.49Z"/>
    <path class="cls-3" d="M55.06,95.14c-.59-6.64,2.6-12.69,6.31-13.12,2.2-.25,3.98,1.09,3.74,5.67l.39-.05.31-2.58c.41-3.34,2.31-3.82,3.71-3.98,1.53-.18,3.42.73,2.66,4.34l-.69,3.34-.32,2.39.11,3.21c.11,2.89-1.21,4.53-3.35,4.78-1.53.18-3.47-.34-3.25-3.69l.14-2.21-.28.03c-.55,4.58-2.68,6.7-5.05,6.97s-4.1-1.49-4.42-5.1ZM64.67,90.15c-.06-.7-.54-1.04-1.32-.94-1.03.12-1.68,1.07-1.58,2.25.07.77.62.96,1.21.89,1.09-.13,1.79-1.08,1.69-2.2Z"/>
    <path class="cls-3" d="M75.21,91.45l.5-3.9-.47.05c-1.28.15-1.9-.81-2.01-2.03-.21-2.33,1.3-4.73,2.99-4.73h.54s.18-1.18.18-1.18c.38-2.43,1.95-3.71,3.88-3.93,2.29-.26,3.05,1.1,2.7,3.17l-.22,1.32,1.45-.46c1.41-.32,2.08.6,2.19,1.84.21,2.4-1.43,4.91-3.14,4.95l-1.32.02-.31,2.58c-.13,1.08.24,1.46.63,1.41.53-.06.84-.32,1.19-.56.26-.19.53-.35.89-.39.5-.06,1.29.24,1.44,1.99.32,3.58-2.76,5.8-6.21,6.2-3.46.4-5.45-2.08-4.9-6.37Z"/>
  </g>
  <g>
    <path class="cls-3" d="M97.79,91.39l.43-3.47-3.43-8.93c-.22-.56-.35-1.09-.39-1.6-.23-2.59,1.58-4.44,3.45-4.66,1.42-.16,2.84.61,3.5,2.66l1.41,4.45h.06s3.18-6.05,3.18-6.05c.77-1.44,1.64-2.13,2.87-2.27,1.76-.2,3.06,1.16,3.22,2.98.08.96-.13,2.08-.79,3.13l-5.87,9.46-.43,3.47c-.26,2.19-1.59,4.6-4.24,4.91s-3.21-1.89-2.95-4.08Z"/>
    <path class="cls-3" d="M109.93,88.18c-.57-6.48,3.38-12.17,8.9-12.81,4.04-.47,6.26,1.73,6.59,5.43.57,6.45-3.4,12.2-8.89,12.84-4.04.47-6.27-1.76-6.59-5.47ZM119.3,83.61c-.06-.7-.46-1.08-1.38-.97-1.25.15-2.01,1.2-1.87,2.7.06.73.49,1.1,1.38,1,1.25-.15,2-1.23,1.87-2.73Z"/>
    <path class="cls-3" d="M127.2,85.05l.59-2.29c.21-.8.43-1.53-.24-1.46s-1.25-.47-1.36-1.75c-.22-2.49,1.4-5.16,4.44-5.52,3.74-.43,4.66,2.69,4.03,6.12l-.32,1.78c-.26,1.48-.26,2.45.41,2.37.86-.1,1.25-1.15,1.45-2.68l.62-4.78c.3-2.29,1.34-3.7,3.59-3.96,1.67-.19,3.39.74,3.04,3.49l-.85,6.71.1,2.73c.1,2.7-.73,4.83-3.41,5.14-2.26.26-3.36-1.1-3.2-3.73l.14-2.21-.36.04c-1.12,5.78-3.54,6.77-5.05,6.94-3.26.38-4.76-2.55-3.62-6.94Z"/>
    <path class="cls-3" d="M144.36,86.36l.81-6.48-.1-2.73c-.1-2.7.65-4.82,3.29-5.12,2.43-.28,3.37.87,3.28,3.4l-.1,2.72c.61-.78,1.04-2.6,1.34-3.67.84-2.97,2.45-3.48,3.52-3.21,2.01.48,2.27,3.03,1.45,5.9-.67,2.34-3.13,5.07-6.19,3.88l-.64,5.17c-.32,2.46-1.32,3.6-3.49,3.86-2.26.26-3.5-1.05-3.17-3.7Z"/>
  </g>
  <g>
    <path class="cls-3" d="M36.02,175.82c-1.1-4.05,1.03-7.43,3.67-8.37,2.13-.76,3.26.13,4.5.92,1.02.66,2.1,1.18,3.93.53,1.41-.5,2.34-1.37,2.06-2.39-.26-.98-1.67-.64-4.35-.38-3.52.29-8.24-.07-9.85-6.03-2.19-8.11,3.55-15.02,11.86-17.97,6.01-2.13,10.99-.8,12.34,4.18.96,3.56-.82,6.98-3.46,7.92-1.24.44-2.08.26-2.85,0-1.29-.45-2.33-1.2-4.38-.48-1.53.54-2.24,1.38-2.08,1.97.28,1.03,1.44.67,5.22.13,2.62-.34,7.02-.83,8.53,4.79,2.14,7.91-2.87,16-11.77,19.16-6.44,2.28-11.94,1.29-13.36-3.98Z"/>
    <path class="cls-3" d="M65.08,178.25l-1.03-20.72-.98-4.47c-.9-4.18-.35-7.85,3.62-9.26,3.24-1.15,5.77-.07,6.21,3.79l.48,4.38.47-.17c-.4-7.35,2.33-11.42,5.95-12.71,3.45-1.23,6.81.85,8.31,6.36,2.75,10.16-.54,20.8-6.21,22.81-3.37,1.2-6.53-.3-7.41-7.54l-.6.21c1.02,5.31,1.17,9.33,1.23,10.43l.17,3.21c.24,4.36-2.26,7.17-4.74,8.05-2.17.77-5.26.05-5.48-4.37ZM78.6,153.64c-.32-1.17-1.19-1.29-2.13-.96-1.58.56-2.51,2.28-2.04,4.04.29,1.07,1.17,1.4,2.32.99,1.58-.56,2.34-2.22,1.84-4.08Z"/>
    <path class="cls-3" d="M90.94,152.42c-2.13-7.86.78-17.51,9.69-20.67,6.78-2.41,11.03.04,12.16,4.19,1.18,4.35-1.23,8.73-6.14,10.47-1.83.65-4.54,1.18-6.61.79-.04.39.04.84.12,1.13.46,1.71,2.23,2.37,4.06,1.72,1.79-.64,2.48-1.52,3.11-2.33.59-.75,1.17-1.54,2.37-1.96,2.05-.73,3.56.56,4.17,2.8,1.11,4.1-2.84,9.36-8.85,11.49-7.46,2.65-12.21-.75-14.07-7.64ZM104.26,141.75c-.2-.73-1.05-1.13-2.03-.78-1.53.54-2.1,2.24-2.22,3.36,3.37-.13,4.54-1.51,4.25-2.58Z"/>
    <path class="cls-3" d="M115.27,144.96c-2.44-9.03,1.85-19.07,10.55-22.15,3.84-1.36,8.43-1.12,9.51,2.88.85,3.13-.49,7.34-3.3,8.34-.77.27-1.63.37-2.61.18-.69-.13-1.42-.24-2.23.04-1.66.59-2.66,2.6-2.16,4.46.4,1.46,1.68,1.71,2.61,1.37s1.57-.93,2.24-1.55c.93-.87,1.78-1.38,2.59-1.67,1.96-.7,3.23.56,3.79,2.61,1.58,5.86-3.76,10.81-8.57,12.52-6.52,2.31-10.71-.75-12.42-7.05Z"/>
    <path class="cls-3" d="M144.33,116.83c2.51-.89,5.21.08,5.41,4.45l.79,16.74c.16,3.69-1.06,6.26-4.51,7.49-2.56.91-5.49.08-5.71-4.34l-.55-10.51c-1.69-.2-2.6-1.49-3.01-3-1.1-4.05,1.15-8.54,4.94-9.89l2.64-.94ZM149.06,107.71c.95,3.52-1.05,6.85-5.01,8.25-3.37,1.2-4.94.2-5.46-1.7-.98-3.61.97-6.77,4.98-8.19,3.41-1.21,4.97-.27,5.49,1.64Z"/>
    <path class="cls-3" d="M153.26,133.62c-2.75-10.16.56-20.75,6.22-22.76,3.37-1.2,6.52.26,7.4,7.49l.6-.21-.23-4.15c-.28-5.36,2.55-6.79,4.69-7.55,2.34-.83,5.53-.09,5.35,5.81l-.16,5.46.15,3.85,1.06,4.97c.97,4.47-.63,7.5-3.92,8.67-2.34.83-5.5.72-6.1-4.58l-.39-3.5-.43.15c.4,7.35-2.33,11.42-5.95,12.71-3.45,1.23-6.82-.84-8.31-6.36ZM166.89,122.36c-.29-1.07-1.13-1.42-2.32-1-1.58.56-2.33,2.27-1.84,4.08.32,1.17,1.23,1.28,2.13.96,1.66-.59,2.5-2.33,2.04-4.04Z"/>
    <path class="cls-3" d="M191.8,115.82c.04,1.38.22,1.85,1.03,1.56,1.36-.48,2.25.7,2.65,2.21,1.18,4.35-1.14,8.75-5.4,10.26-4.13,1.47-8-.74-8.31-7.06l-.75-15.2c-1.8-.27-3.06-1.64-3.59-3.6-1.1-4.05,1.41-7.73,5.21-9.07l2.94-1.04c2.51-.89,5.16.09,5.36,4.46l.85,17.47Z"/>
  </g>
</svg>