<svg width="256" height="224" viewBox="0 0 256 224" fill="none" xmlns="http://www.w3.org/2000/svg">
<mask id="mask0_277_1430" style="mask-type:alpha" maskUnits="userSpaceOnUse" x="0" y="0" width="256" height="224">
<path d="M0.956055 223.597L132.735 0.98291L255.415 223.597H0.956055Z" fill="#9AB5C1"/>
</mask>
<g mask="url(#mask0_277_1430)">
<rect width="457.023" height="454.074" transform="translate(162.197 551.916) rotate(-148.819)" fill="#9AB5C1"/>
<rect x="162.197" y="551.916" width="62" height="1540" transform="rotate(-148.819 162.197 551.916)" fill="#EBEDC8"/>
<rect x="268.283" y="616.116" width="62" height="1540" transform="rotate(-148.819 268.283 616.116)" fill="#EBEDC8"/>
<rect x="56.1113" y="487.715" width="62" height="1540" transform="rotate(-148.819 56.1113 487.715)" fill="#EBEDC8"/>
<rect x="-49.9746" y="423.514" width="62" height="1540" transform="rotate(-148.819 -49.9746 423.514)" fill="#EBEDC8"/>
<rect x="-156.061" y="359.313" width="62" height="1540" transform="rotate(-148.819 -156.061 359.313)" fill="#EBEDC8"/>
<rect x="-262.146" y="295.112" width="62" height="1540" transform="rotate(-148.819 -262.146 295.112)" fill="#EBEDC8"/>
<rect x="-368.232" y="230.911" width="62" height="1540" transform="rotate(-148.819 -368.232 230.911)" fill="#EBEDC8"/>
<rect x="-474.318" y="166.71" width="62" height="1540" transform="rotate(-148.819 -474.318 166.71)" fill="#EBEDC8"/>
<rect x="-580.405" y="102.509" width="62" height="1540" transform="rotate(-148.819 -580.405 102.509)" fill="#EBEDC8"/>
<rect x="-686.491" y="38.3083" width="62" height="1540" transform="rotate(-148.819 -686.491 38.3083)" fill="#EBEDC8"/>
</g>
</svg>
