<svg width="1230" height="1287" viewBox="0 0 1230 1287" fill="none" xmlns="http://www.w3.org/2000/svg">
<path d="M0 1286.46L636.991 37L1230 1286.46H0Z" fill="#E2C6C1"/>
<path d="M824.005 490.672C775.437 514.521 720.402 527.941 661.95 527.941C584.581 527.941 513.017 504.272 454.66 464.193C454.66 464.193 521.57 281.84 514.82 220.992L563.011 167.764L590.198 212.192L624.031 163.494L654.352 208.922L682.964 163.494L713.097 215.542L728.965 194.413L823.533 489.852L824.005 490.672Z" fill="#E2C6C1"/>
<path d="M728.953 194.423L713.085 215.552L682.953 163.504L654.34 208.932L624.019 163.504L590.187 212.202L563 167.774L514.809 221.002C514.62 219.002 514.337 217.192 513.949 215.562L535.812 168.414L614.041 0L657.474 58.7578L677.146 32.4588L722.099 173.014L728.943 194.413L728.953 194.423Z" fill="#EBEDC8"/>
</svg>
