<svg width="130" height="111" viewBox="0 0 130 111" fill="none" xmlns="http://www.w3.org/2000/svg">
<path d="M64.9998 0L129.952 110.25H0.0478516L64.9998 0Z" fill="#E2C6C1"/>
<path d="M52.0798 90.88C51.4398 90.88 50.6398 90.84 49.6798 90.76C48.7198 90.7067 47.8931 90.5867 47.1998 90.4V84.16C47.5998 84.16 48.0264 84.1733 48.4798 84.2C48.9331 84.2267 49.3598 84.24 49.7598 84.24C54.1598 84.24 58.0798 83.6 61.5198 82.32C64.9598 81.0133 67.6531 79.2667 69.5998 77.08C71.5731 74.8667 72.5598 72.4 72.5598 69.68C72.5598 65.9467 71.5731 63.2667 69.5998 61.64C67.6531 60.0133 64.4798 59.2 60.0798 59.2C58.5331 59.2 56.8531 59.3867 55.0398 59.76C53.2264 60.1067 51.3331 60.5867 49.3598 61.2L47.4398 60L49.6798 30.56H80.3198L79.4398 38.48H56.7198L55.1998 53.52C56.8798 53.1467 58.4798 52.8533 59.9998 52.64C61.5198 52.4267 62.9598 52.32 64.3198 52.32C70.0798 52.32 74.4531 53.7867 77.4398 56.72C80.4264 59.6267 81.9198 63.76 81.9198 69.12C81.9198 71.7333 81.2664 74.3333 79.9598 76.92C78.6798 79.48 76.7731 81.8133 74.2398 83.92C71.7064 86.0267 68.5864 87.72 64.8798 89C61.1731 90.2533 56.9064 90.88 52.0798 90.88Z" fill="white"/>
</svg>
