<svg width="384" height="376" viewBox="0 0 384 376" fill="none" xmlns="http://www.w3.org/2000/svg">
<path d="M64.0085 147.673L53.5718 169.766L31.7215 152.192L18.7655 175.59L1.59375 163.238C3.4446 149.279 6.88924 135.823 11.722 122.969L64.0085 147.673Z" fill="#EBEDC8"/>
<path d="M112.388 205.064C116.038 238.756 79.8435 339.731 79.8435 339.731C31.4644 305.688 0 250.204 0 187.54C0 179.306 0.565524 171.221 1.59377 163.238L18.7655 175.59L31.7215 152.191L53.5718 169.765L64.0086 147.672L123.441 175.791L123.75 175.941L111.925 202.051C112.13 202.955 112.285 203.959 112.388 205.064Z" fill="#9AB5C1"/>
<path d="M367.136 110.566L307.652 138.985L225.135 178.351L224.569 178.502L200.251 100.674L189.609 115.235L166.114 82.6982L123.801 175.941L123.493 175.79L64.0598 147.672L11.7734 122.968C38.6621 51.2157 109.251 0 192.025 0C270.018 0 337.111 45.3912 367.188 110.566H367.136Z" fill="#74698C"/>
<path d="M279.632 354.392C253.361 367.598 223.593 375.029 191.974 375.029C150.125 375.029 111.411 361.924 79.8438 339.731C79.8438 339.731 116.038 238.755 112.388 205.064L138.454 175.589L153.158 200.193L171.461 173.229L187.861 198.385L203.336 173.229L219.634 202.051L228.22 190.352L279.375 353.94L279.632 354.392Z" fill="#C1867B"/>
<path d="M384.001 187.538C384.001 260.244 341.586 323.31 279.634 354.391L279.377 353.939L228.221 190.35L224.52 178.5L225.085 178.35L307.602 138.984L327.704 161.629L341.894 144.457L356.033 165.194L370.788 144.457L382.15 161.629C383.384 170.115 384.001 178.751 384.001 187.538Z" fill="#E2C6C1"/>
<path d="M382.15 161.628L370.788 144.456L356.032 165.193L341.894 144.456L327.704 161.628L307.602 138.983L367.086 110.563C374.438 126.53 379.579 143.703 382.098 161.628H382.15Z" fill="#EBEDC8"/>
<path d="M228.221 190.35L219.635 202.049L203.337 173.228L187.862 198.384L171.461 173.228L153.159 200.192L138.455 175.588L112.388 205.062C112.286 203.957 112.131 202.953 111.926 202.049L123.751 175.939L166.063 82.6968L189.559 115.234L200.201 100.672L224.519 178.5L228.221 190.35Z" fill="#EBEDC8"/>
<path d="M266.576 201.196C266.525 195.17 263.234 192.459 255.934 189.396L252.746 188.04C244.212 184.375 238.299 179.052 238.196 169.562C238.093 158.867 246.165 152.29 256.756 152.189C262.36 152.189 266.782 154.047 270.432 157.01L270.021 169.111H264.982L262.514 155.152L267.913 158.164V162.834C263.8 158.415 260.715 156.859 256.294 156.909C249.764 156.959 244.88 160.625 244.931 167.604C244.983 173.479 248.427 176.893 254.546 179.404L257.836 180.76C268.89 185.379 273.208 190.752 273.311 199.488C273.414 210.435 265.188 217.213 253.723 217.313C247.451 217.364 241.332 215.205 237.477 212.543L237.888 199.539H242.926L245.24 213.799L239.79 211.238V206.769C244.983 210.886 247.81 212.744 253.517 212.694C261.435 212.644 266.679 208.476 266.627 201.246L266.576 201.196Z" fill="#C1867B"/>
<path d="M258.607 219.122L258.453 216.31L278.607 215.105L278.761 217.917L269.507 219.524L268.067 219.624L258.659 219.122H258.607ZM271.152 258.94L271.409 262.806L261.332 263.409L261.178 260.597L270.432 258.99H271.152V258.94ZM265.034 215.959L271.923 215.557C272.129 222.788 272.592 230.119 273.054 237.349L273.363 242.27C273.723 248.245 274.185 255.526 274.854 262.605L267.964 263.007C267.707 255.777 267.296 248.446 266.833 241.215L266.628 237.701C266.165 230.32 265.702 223.039 265.085 215.959H265.034ZM296.961 248.044L297.064 261.3L271.409 262.806L271.203 259.292L294.339 257.936L290.586 261.702L292.643 248.345L296.961 248.094V248.044Z" fill="#C1867B"/>
<path d="M256.139 175.588L257.167 178.049L239.482 184.978L238.453 182.518L246.268 178.35L247.553 177.848L256.139 175.538V175.588ZM232.644 143.554L231.256 140.139L240.099 136.675L241.127 139.135L233.312 143.303L232.695 143.554H232.644ZM251.307 180.358L245.24 182.718C242.823 176.291 240.15 169.864 237.528 163.487L235.729 159.169C233.569 153.897 230.896 147.52 228.171 141.344L234.238 138.984C236.654 145.411 239.327 151.838 241.949 158.215L243.235 161.278C245.908 167.755 248.53 174.182 251.307 180.358ZM212.85 160.877L208.686 149.027L231.256 140.139L232.541 143.202L212.182 151.186L214.392 146.717L216.654 159.32L212.85 160.826V160.877Z" fill="#C1867B"/>
</svg>
