<svg width="490" height="494" viewBox="0 0 490 494" fill="none" xmlns="http://www.w3.org/2000/svg">
<mask id="mask0_278_1393" style="mask-type:alpha" maskUnits="userSpaceOnUse" x="32" y="4" width="426" height="368">
<path d="M245 4L457.176 371.5H32.8238L245 4Z" fill="#D9D9D9"/>
</mask>
<g mask="url(#mask0_278_1393)">
<rect x="-427.285" y="-413.086" width="1106.96" height="1106.96" fill="#CF3232"/>
<rect width="1019.77" height="996.316" transform="translate(-293.186 106.997) rotate(-30)" fill="#C0867B"/>
<rect x="-264.607" y="90.4971" width="79" height="1954" transform="rotate(-30 -264.607 90.4971)" fill="#EBEDC8"/>
<rect x="-400.572" y="168.997" width="79" height="1954" transform="rotate(-30 -400.572 168.997)" fill="#EBEDC8"/>
<rect x="-127.775" y="11.4971" width="78" height="1954" transform="rotate(-30 -127.775 11.4971)" fill="#EBEDC8"/>
<rect x="8.19141" y="-67.0029" width="79" height="1954" transform="rotate(-30 8.19141 -67.0029)" fill="#EBEDC8"/>
<rect x="144.158" y="-145.503" width="79" height="1954" transform="rotate(-30 144.158 -145.503)" fill="#EBEDC8"/>
<rect x="280.99" y="-224.503" width="78" height="1954" transform="rotate(-30 280.99 -224.503)" fill="#EBEDC8"/>
<rect x="416.955" y="-303.003" width="79" height="1954" transform="rotate(-30 416.955 -303.003)" fill="#EBEDC8"/>
</g>
<g filter="url(#filter0_d_278_1393)">
<path d="M166 136.755L244.644 0L326 151L285.322 116.811L269.051 151L244.644 116.811L225.661 151L209.39 116.811L166 136.755Z" fill="white"/>
</g>
<defs>
<filter id="filter0_d_278_1393" x="162" y="0" width="168" height="159" filterUnits="userSpaceOnUse" color-interpolation-filters="sRGB">
<feFlood flood-opacity="0" result="BackgroundImageFix"/>
<feColorMatrix in="SourceAlpha" type="matrix" values="0 0 0 0 0 0 0 0 0 0 0 0 0 0 0 0 0 0 127 0" result="hardAlpha"/>
<feOffset dy="4"/>
<feGaussianBlur stdDeviation="2"/>
<feComposite in2="hardAlpha" operator="out"/>
<feColorMatrix type="matrix" values="0 0 0 0 0 0 0 0 0 0 0 0 0 0 0 0 0 0 0.25 0"/>
<feBlend mode="normal" in2="BackgroundImageFix" result="effect1_dropShadow_278_1393"/>
<feBlend mode="normal" in="SourceGraphic" in2="effect1_dropShadow_278_1393" result="shape"/>
</filter>
</defs>
</svg>
